<?xml version="1.0" encoding="utf-8"?>
<!DOCTYPE svg PUBLIC "-//W3C//DTD SVG 1.1//EN" "http://www.w3.org/Graphics/SVG/1.1/DTD/svg11.dtd">
<svg version="1.1" id="_x31__copy" xmlns="http://www.w3.org/2000/svg" xmlns:xlink="http://www.w3.org/1999/xlink" x="0px" y="0px"
	 width="697.465px" height="232.488px" viewBox="0 0 697.465 232.488" enable-background="new 0 0 697.465 232.488"
	 xml:space="preserve">
<g>
	<path fill="#194092" d="M112.98,41.792c-7.187-2.166-21.093-5.373-36.318-5.545c-10.256-0.12-22.781,1.979-25.2,3.393
		c-3.558,2.844-9.072,8.551-9.166,16.723c-0.158,13.624,21.128,16.113,41.413,22.589c10.858,3.495,20.404,9.211,20.71,24.119
		c-0.26,22.756-23.023,37.397-54.756,37.032c-15.541-0.176-26.227-4.466-35.161-8.256l3.168-10.865
		c6.695,3.284,20.098,8.565,36.761,8.763c13.941,0.154,17.647-1.399,23.27-2.462c4.676-2.51,12.925-8.979,13.044-19.24
		c0.151-13.135-8.002-14.837-25.893-20.167c-20.122-6.005-35.625-9.866-35.435-26.53c0.229-19.873,22.686-35.801,50.892-35.478
		c18.748,0.218,29.296,3.063,36.012,4.262L112.98,41.792z"/>
	<path fill="#194092" d="M142.448,140.377c-14.581-0.169-28.744-9.149-28.526-28.221c0.267-23.072,18.881-52.83,50.769-52.46
		c19.233,0.221,29.669,12.525,29.5,27.103C193.959,106.987,178.984,140.792,142.448,140.377z M168.837,117.121
		c7.806-9.69,13.27-24.851,13.411-37.031c0.018-1.765-0.109-4.331-0.419-5.449c-3.017-2.279-6.037-4.402-15.974-4.515
		c-31.247-0.359-39.876,38.963-39.996,49.54c-0.018,1.604,0.422,4.81,0.573,5.773c3.01,3.08,9.244,4.438,14.694,4.5
		C152.82,130.074,160.06,127.591,168.837,117.121z"/>
	<path fill="#194092" d="M288.388,74.901l31.888,0.373l2.514-9.59l-31.888-0.365l6.385-25.411l-13.622-0.158L277.28,65.16
		l-40.052-0.461l2.707-12.31c1.02-5.278,3.305-8.935,4.93-10.682c4.188-2.198,9.645-2.612,14.772-2.553
		c2.243,0.025,4.325,0.369,5.604,0.545l2.834-9.584c-2.075-0.823-4.631-1.337-7.837-1.372c-5.126-0.063-11.392,0.988-18.002,4.599
		c-11.129,6.125-13.776,13.143-17.278,25.126l-1.674,6.069l-17.468-0.2l-2.353,9.586l17.468,0.204l-13.692,61.383
		c-4.036,16.617-6.589,29.57-18.938,30.231l4.546,8.867c17.964-1.237,22.781-15.767,27.331-35.421l14.855-64.898l39.732,0.457
		l-10.254,41.39c-0.671,2.397-1.181,5.112-1.209,7.517c-0.099,8.495,7.162,18.192,24.152,18.389
		c7.05,0.085,12.503-0.653,17.964-1.877l2.528-10.387c-5.147,1.224-13.171,2.729-21.666,2.63
		c-4.648-0.049-10.419-0.119-10.355-5.562c0.014-1.28,1.195-6.399,2.208-10.717L288.388,74.901z"/>
	<path fill="#194092" d="M384.451,138.351c-6.108,1.694-15.919,4.627-31.946,4.444c-17.145-0.197-34.87-6.013-34.603-29.254
		c0.289-24.992,27.205-51.768,57.652-51.417c18.432,0.211,22.939,12.122,22.873,18.05c-0.18,15.547-39.333,33.205-66.928,35.771
		c-0.099,8.495,5.583,16.252,21.126,16.428c16.667,0.189,25.52-3.073,35.813-5.999L384.451,138.351z M388.047,76.856
		c0.031-2.89-6.36-4.24-12.131-4.31c-23.078-0.268-38.532,19.591-43.51,34.118C363.233,102.051,387.973,83.262,388.047,76.856z"/>
	<path fill="#194092" d="M469.938,76.673c-6.396-1.52-12.465-3.185-23.84-3.319c-4.807-0.057-19.56,0.415-24.24,3.403
		c-1.459,1.428-3.414,4.128-3.459,8.137c-0.067,5.766,6.638,8.093,15.273,9.633c14.873,2.735,35.534,3.614,35.358,18.839
		c-0.222,19.388-20.703,30.533-44.739,30.252c-11.859-0.133-21.765-2.812-28.786-5.302l2.366-10.71
		c6.066,1.997,17.404,5.492,29.426,5.625c10.896,0.127,21.175-1.835,24.719-3.558c1.456-1.104,4.87-5.394,4.926-10.358
		c0.116-9.775-11.114-8.467-29.021-12.355c-11.516-2.377-22.525-6.829-22.391-18.206c0.225-19.71,23.221-26.017,43.094-25.784
		c9.131,0.105,20.484,2.316,23.993,3.48L469.938,76.673z"/>
	<path fill="#194092" d="M530.739,140.355c-5.63,2.019-11.107,4.36-21.044,4.247c-16.663-0.189-31.456-10.14-31.228-30.168
		c0.173-14.901,8.548-32.276,18.903-40.651c7.602-6.16,22.391-9.998,32.967-9.875c7.054,0.081,13.284,1.593,16.477,2.913
		l-3.003,10.386c-2.397-0.668-9.427-2.833-16.638-2.917c-6.41-0.078-17.328,1.399-21.202,3.923
		c-4.536,4.113-13.748,25.16-13.889,37.501c-0.169,14.423,10.682,18.389,22.861,18.529c7.05,0.085,14.293-2.721,18.478-4.275
		L530.739,140.355z"/>
	<path fill="#194092" d="M622.193,144.455c-1.61,0.626-5.942,1.379-11.069,1.315c-4.648-0.05-7.841-1.371-7.791-5.38
		c0.014-1.441,0.879-6.716,1.709-9.438l9.381-35.308l-0.316-0.323c-7.194,12.418-36.793,50.062-52.819,49.878
		c-6.41-0.077-13.685-8.494-13.611-14.908c0.035-3.199,1.199-6.392,2.374-11.188l10.175-34.823
		c1.495-4.627,2.543-11.828,2.574-14.711c0.018-1.28,0.031-2.729-0.278-3.69l13.625,0.158c0.144,0.965,0.289,2.73,0.274,3.687
		c-0.031,2.891-0.559,6.73-2.573,14.718l-10.683,36.897c-1.009,4.311-2.338,8.305-2.362,10.225
		c-0.014,1.448,0.611,2.412,1.733,2.426c9.135,0.105,52.492-48.753,58.8-67.432l12.496,0.143l-15.168,64.413
		c-0.837,2.876-1.681,6.554-1.688,7.672c-0.021,1.604,1.413,2.258,2.854,2.278c0.802,0.008,2.405-0.295,3.214-0.604L622.193,144.455
		z"/>
</g>
<path fill="#194092" d="M427.935,224.835l14.69-55.906l7.326,1.601l-7.197,27.385l23.364-25.545h149.783
	c25.904,0,50.219-18.985,54.195-42.32l9.592-56.271c1.878-11.023-1.118-21.386-8.438-29.179
	c-7.326-7.797-18.104-12.089-30.341-12.089h-82.376v-6.867h82.376c14.474,0,27.279,5.145,36.059,14.488
	c8.776,9.341,12.385,21.665,10.162,34.702l-9.589,56.269c-4.525,26.54-32.177,48.134-61.64,48.134H469.647L427.935,224.835z"/>
</svg>
