<?xml version="1.0" encoding="utf-8"?>
<!DOCTYPE svg PUBLIC "-//W3C//DTD SVG 1.1//EN" "http://www.w3.org/Graphics/SVG/1.1/DTD/svg11.dtd">
<svg version="1.1" id="Capa_1" xmlns="http://www.w3.org/2000/svg" xmlns:xlink="http://www.w3.org/1999/xlink" x="0px" y="0px"
	 width="578px" height="265px" viewBox="-13.5 -15.5 578 265" enable-background="new -13.5 -15.5 578 265" xml:space="preserve">
<path fill="#3399CC" d="M62.62,1.37c3.4,3.25,6.45,6.85,9.63,10.31c22.13,25.03,42.41,52.14,56.44,82.6
	c8.92,19.64,15.46,40.95,14.73,62.73c-0.17,2.66,0.09,5.46-0.91,7.99c-1.08,2.23-1.92,4.58-2.41,7.02
	c-3.09,14.57-10.94,28.04-21.9,38.1c-13.25,12.15-31.24,19.01-49.22,18.68c-14.13-0.06-28.23-4.66-39.61-13.05
	c-4.46-3.27-8.06-7.51-12.2-11.14C7.5,193.33,2.82,178.57,0.85,164.04c-1.35-5.57-0.86-11.32,0.37-16.86
	c2.05-18.23,9.99-35.43,21.1-49.89c14.4-18.91,29.43-38.15,37-61C63.16,25.09,63.98,13.08,62.62,1.37z"/>
<path fill="#FFFFFF" d="M91.11,59.17c12.99,16.7,24.3,34.91,32.03,54.66c6.65,17.39,10.29,36.61,6.22,55.05
	c-3.39,15.5-13.12,29.55-26.68,37.84c-13.17,8.19-29.68,10.73-44.72,6.98c-14.87-3.67-28.13-13.9-35.04-27.62
	c7.39,6.65,16.3,11.7,26.08,13.75c17.99,4.11,37.81-1.02,51.5-13.42c10.81-9.53,17.55-23.17,19.48-37.38
	c2.45-18.4-1.93-37.01-9.07-53.91C105.64,82.45,98.59,70.63,91.11,59.17z"/>
<path fill="#3399CC" d="M175.84,118.93c4.08-4.95,11.17-4.05,16.84-3.6c0.03,0.62,0.09,1.87,0.11,2.49c0.06,1.5,0.11,3,0.16,4.5
	c-3.95-0.27-9.3-1.04-11.48,3.22c-2.03,5.22-1.47,11.03-1.39,16.52c0.48,0.03,1.44,0.1,1.92,0.14c3.58,0.15,7.17,0.03,10.76,0.04
	c0.01,0.74,0.02,2.22,0.03,2.96c0,1.2,0.01,2.4,0.03,3.61c-4.27,0.01-8.54,0.02-12.81,0.06c-0.09,19.67,0.1,39.33-0.09,59
	c-1.91-0.02-3.82-0.04-5.72-0.06c-0.49-0.01-1.45-0.02-1.93-0.03c-0.08-18.67,0.07-37.34-0.08-56.01c-0.01-0.72-0.05-2.16-0.07-2.88
	c-2.56-0.03-5.12-0.06-7.68-0.12c-0.5-0.02-1.49-0.04-1.99-0.06c0.02-2.13,0.02-4.27,0.01-6.41c3.26-0.04,6.51-0.06,9.77-0.09
	C172.58,134.44,170.88,125.63,175.84,118.93z"/>
<path fill="#414141" d="M192.79,117.82c3.49,0.81,1.45,5.18,1.93,7.72c-3.69-0.64-8.53-1.43-10.93,2.24
	c-2.46,4.35-1.59,9.63-1.79,14.42c-0.48-0.04-1.44-0.11-1.92-0.14c-0.08-5.49-0.64-11.3,1.39-16.52c2.18-4.26,7.53-3.49,11.48-3.22
	C192.9,120.82,192.85,119.32,192.79,117.82z"/>
<path fill="#414141" d="M465.9,119.4c0.44,0.2,1.31,0.6,1.75,0.79c0.28,3.7,0.06,7.41,0.04,11.11c-2.84-0.07-5.69,0.09-8.51-0.15
	c-0.1-0.68-0.29-2.03-0.39-2.7c2.32-0.03,4.65-0.01,6.98,0C465.83,125.44,465.82,122.42,465.9,119.4z"/>
<path fill="#414141" d="M542.74,119.53l1.41,0.59c0.32,25.96,0.04,51.94,0.13,77.91c0.09,4.18-0.37,8.41,0.37,12.56
	c-2.82,0.09-5.65,0.16-8.47,0.04c0.27-3.56,3.9-2.74,6.5-2.94C542.67,178.3,542.55,148.91,542.74,119.53z"/>
<path fill="#3399CC" d="M544.15,120.12l0.85,0.35v91.01l-0.35-0.89c-0.74-4.15-0.28-8.38-0.37-12.56
	C544.19,172.06,544.47,146.08,544.15,120.12z"/>
<path fill="#3399CC" d="M389,124c2.59,0,5.19,0.01,7.8,0.06c0,0.73,0,2.18,0.01,2.9c0.05,5.01-0.13,10.02,0.13,15.02
	c0.46,0.05,1.37,0.14,1.83,0.19c3.32,0.22,6.65,0.06,9.99,0.07c0,0.73,0.02,2.2,0.03,2.93c0,1.21,0.02,2.43,0.03,3.64
	c-3.98,0.01-7.97,0.02-11.95,0.06c-0.13,14.71,0.05,29.42-0.1,44.13c0.03,2.95-0.24,6.26,1.88,8.63c3.36,1.57,7.11,0.55,10.61,0.12
	c0.01,0.9,0.04,2.68,0.05,3.58c-0.01,0.69-0.03,2.09-0.04,2.78c-5.42,1.8-11.33,2.15-16.7-0.04c-2.26-2.87-3.76-6.39-3.57-10.1
	c-0.01-15.4,0-30.79,0-46.19c0-0.72-0.01-2.16-0.01-2.88c-2.45-0.04-4.91-0.08-7.35-0.18c-0.5-0.02-1.49-0.06-1.98-0.09
	c0.01-2.1,0.02-4.2,0-6.3c3.1-0.07,6.21-0.09,9.32-0.1C389.02,136.15,388.99,130.07,389,124z"/>
<path fill="#414141" d="M396.81,126.96c0.49,0.04,1.49,0.1,1.99,0.14c-0.08,5.02-0.05,10.04-0.03,15.07
	c-0.46-0.05-1.37-0.14-1.83-0.19C396.68,136.98,396.86,131.97,396.81,126.96z"/>
<path fill="#3399CC" d="M214.13,150.32c3.71-7.19,11.89-10.05,19.56-9.99c0.02,0.7,0.07,2.09,0.09,2.79
	c0.05,1.87,0.08,3.74,0.12,5.61c-5.01,0.61-10.49,1.21-14.29,4.91c-5.42,4.68-6.73,12.18-7.07,18.97
	c-0.43,11.75,0.16,23.52-0.29,35.28c-1.94-0.01-3.88,0-5.81-0.07c-0.46-0.19-1.39-0.57-1.85-0.76c-0.16-21.4-0.13-42.83-0.02-64.24
	c2.24-1.29,5.28-0.3,7.83-0.48c0.01,0.56,0.02,1.68,0.02,2.24c0.02,3.14-0.06,6.28-0.12,9.43
	C212.91,152.78,213.51,151.55,214.13,150.32z"/>
<path fill="#3399CC" d="M248.56,151.56c10.78-14.88,36.14-14.9,47.19-0.31c1.59,2.07,3.22,4.17,4.23,6.6
	c3.08,10.89,4.11,22.94-0.31,33.61c-3.01,7.55-9.2,13.9-17,16.42c-10.99,4-23.99,1.1-32.38-7.01c-5.07-6.12-7.91-13.97-8.38-21.88
	C241.22,169.5,242.84,159.38,248.56,151.56z"/>
<path fill="#3399CC" d="M325.86,148.86c3.76-2.94,7.43-6.36,12.19-7.56c6-1.48,12.51-1,18.24,1.33c5,2.01,8.54,6.4,11.07,11.01
	c0.95,7.1,0.57,14.29,0.63,21.43c-0.02,10.94,0.08,21.87-0.06,32.81c-1.92-0.03-3.82-0.05-5.73-0.07c-0.48-0.01-1.45-0.02-1.93-0.03
	c-0.04-14.6-0.01-29.2-0.01-43.8c0.04-3.8-0.76-7.69-3.11-10.76c-2.97-4.71-9.04-5.76-14.19-5.61c-7.25,0.04-14.16,4.82-16.92,11.5
	c-1.83,4.38-2.17,9.19-2.22,13.89c-0.04,11.6,0.06,23.21-0.02,34.81c-1.95,0-3.9,0-5.85,0.01c-0.47,0-1.41,0-1.88,0
	c-0.12-21.87-0.12-43.75,0-65.62c2.55,0.04,5.11,0.05,7.66,0.07c0.02,0.65,0.06,1.95,0.08,2.6c0.03,1.83,0.06,3.66,0.12,5.49
	C324.41,149.99,325.38,149.24,325.86,148.86z"/>
<path fill="#414141" d="M233.78,143.12c0.46,0.15,1.36,0.46,1.82,0.61c0.3,2.69,0.14,5.42,0.19,8.13
	c-5.31,0.05-10.96,1.22-14.78,5.21c-5.5,5.13-6.37,13.08-6.69,20.18c-0.21,11.18,0.07,22.36-0.14,33.54
	c-2.56-0.03-5.13-0.04-7.69-0.07c-0.01-0.72-0.04-2.17-0.05-2.9c1.93,0.07,3.87,0.06,5.81,0.07c0.45-11.76-0.14-23.53,0.29-35.28
	c0.34-6.79,1.65-14.29,7.07-18.97c3.8-3.7,9.28-4.3,14.29-4.91C233.86,146.86,233.83,144.99,233.78,143.12z"/>
<path fill="#414141" d="M192.79,145.2c0.49,0.02,1.47,0.05,1.96,0.07c0,2.16,0,4.32,0,6.49c-4.25-0.01-8.5-0.01-12.75,0.01
	c-0.03,19.67,0.06,39.34-0.04,59.02c-2.56-0.04-5.12-0.04-7.68-0.04c-0.02-0.74-0.06-2.21-0.08-2.94c1.9,0.02,3.81,0.04,5.72,0.06
	c0.19-19.67,0-39.33,0.09-59c4.27-0.04,8.54-0.05,12.81-0.06C192.8,147.6,192.79,146.4,192.79,145.2z"/>
<path fill="#414141" d="M212.3,154.01c0.06-3.15,0.14-6.29,0.12-9.43c2.58,0.89,1.84,3.65,1.71,5.74
	C213.51,151.55,212.91,152.78,212.3,154.01z"/>
<path fill="#414141" d="M323.81,144.87c2.43,0,1.91,2.3,2.05,3.99c-0.48,0.38-1.45,1.13-1.93,1.5
	C323.87,148.53,323.84,146.7,323.81,144.87z"/>
<path fill="#414141" d="M408.79,145.17c0.48,0.02,1.46,0.07,1.94,0.09c0.01,2.16,0.02,4.32,0.04,6.48
	c-4.01,0.02-8.01,0.01-12.01,0.02c-0.09,16.63,0.14,33.25-0.11,49.87c-2.12-2.37-1.85-5.68-1.88-8.63
	c0.15-14.71-0.03-29.42,0.1-44.13c3.98-0.04,7.97-0.05,11.95-0.06C408.81,147.6,408.79,146.38,408.79,145.17z"/>
<path fill="#414141" d="M465.45,144.94c0.44,0.23,1.3,0.67,1.73,0.9c0.17,21.63,0.02,43.26,0.08,64.89
	c-2.6,0.02-5.19,0.02-7.78,0.02c0.01-0.73,0.03-2.2,0.04-2.93c1.95,0.01,3.9,0.02,5.85,0.04
	C465.51,186.89,465.34,165.91,465.45,144.94z"/>
<path fill="#414141" d="M251.15,166.01c1.56-8.18,7.34-16.16,15.85-17.89c7.91-1.67,17.91,0.35,22.08,7.92
	c-8.74-8.44-25.13-7.38-31.9,3.03c-6.42,10.01-6.49,23.15-2.33,34.03C249.76,185.22,249.29,175.01,251.15,166.01z"/>
<path fill="#414141" d="M326.04,159.11c2.76-6.68,9.67-11.46,16.92-11.5c5.15-0.15,11.22,0.9,14.19,5.61
	c-6.89-3.51-15.76-4.03-22.3,0.53c-5.76,3.72-8.74,10.57-8.87,17.28c-0.51,13.23-0.09,26.48-0.23,39.72c-2.56,0-5.11,0.01-7.65,0.05
	c-0.04-0.74-0.11-2.24-0.15-2.98c1.95-0.01,3.9-0.01,5.85-0.01c0.08-11.6-0.02-23.21,0.02-34.81
	C323.87,168.3,324.21,163.49,326.04,159.11z"/>
<path fill="#414141" d="M500.95,150.93c5.25-3.58,12.2-4.21,18.18-2.3c4.45,1.38,7.78,4.83,10.69,8.29
	c-3.04-2.23-5.98-4.88-9.76-5.74c-8.53-2.38-18.58,1.02-23.12,8.82c-5.87,9.88-5.56,22.43-2.2,33.11
	c-4.71-7.46-4.59-16.64-3.73-25.09C492.17,161.45,495.16,154.65,500.95,150.93z"/>
<path fill="#414141" d="M164.44,148.77c2.56,0.06,5.12,0.09,7.68,0.12c0.02,0.72,0.06,2.16,0.07,2.88
	c-2.57-0.02-5.14-0.02-7.71-0.05C164.47,150.98,164.45,149.5,164.44,148.77z"/>
<path fill="#414141" d="M381.64,148.72c2.44,0.1,4.9,0.14,7.35,0.18c0,0.72,0.01,2.16,0.01,2.88c-2.43-0.03-4.86-0.03-7.29-0.1
	C381.69,150.94,381.66,149.46,381.64,148.72z"/>
<path fill="#FFFFFF" d="M257.18,159.07c6.77-10.41,23.16-11.47,31.9-3.03c4.45,5.58,5.22,13.11,5.19,20
	c-0.23,9-3.37,19.01-11.57,23.81c-9.05,5.13-22.73,2.92-27.85-6.75C250.69,182.22,250.76,169.08,257.18,159.07z"/>
<path fill="#414141" d="M367.36,153.64c2.33,3.67,2.69,8.11,2.66,12.36c-0.07,14.93,0.05,29.86-0.06,44.79
	c-2.57-0.04-5.13-0.04-7.69-0.05c-0.02-0.73-0.05-2.2-0.07-2.93c1.91,0.02,3.81,0.04,5.73,0.07c0.14-10.94,0.04-21.87,0.06-32.81
	C367.93,167.93,368.31,160.74,367.36,153.64z"/>
<path fill="#414141" d="M299.98,157.85c3.77,6.68,4.71,14.57,4.53,22.12c-0.21,8.56-2.91,17.34-8.81,23.72
	c-11.79,12.79-35.38,11.52-45.41-2.82c8.39,8.11,21.39,11.01,32.38,7.01c7.8-2.52,13.99-8.87,17-16.42
	C304.09,180.79,303.06,168.74,299.98,157.85z"/>
<path fill="#414141" d="M140.1,172.02c0.49-2.44,1.33-4.79,2.41-7.02c-1.03,13.4-6.35,26.39-14.31,37.17
	c-11.05,14.7-27.87,25.13-46.14,27.67c-7.69,0.22-15.41,0.35-23.09-0.09c-16.45-2.58-31.88-11.73-41.8-25.14
	c4.14,3.63,7.74,7.87,12.2,11.14c11.38,8.39,25.48,12.99,39.61,13.05c17.98,0.33,35.97-6.53,49.22-18.68
	C129.16,200.06,137.01,186.59,140.1,172.02z"/>
<path fill="#414141" d="M534.62,196.89c-0.21,2.45,0.67,5.47-1.41,7.32c-11.41,12.12-33.77,10.86-43.31-2.97
	C502.02,213.64,525.59,212.29,534.62,196.89z"/>
<path fill="#414141" d="M434.61,199.76c0.47-0.11,1.41-0.33,1.88-0.44c0.02,3.8,0,7.6,0.04,11.4c-3.15,0.03-6.29,0.03-9.44,0.08
	c-0.03-0.73-0.1-2.21-0.14-2.95c2.57-0.02,5.15-0.02,7.73-0.07C434.65,205.11,434.64,202.43,434.61,199.76z"/>
<path fill="#414141" d="M409.31,205.33c0.48-0.24,1.43-0.71,1.91-0.95c0.02,2.2,0.03,4.41,0.02,6.61
	c-6.09,1.77-14.49,3.14-18.67-2.92c5.37,2.19,11.28,1.84,16.7,0.04C409.28,207.42,409.3,206.02,409.31,205.33z"/>
</svg>
