<?xml version="1.0" encoding="utf-8"?>
<!-- Generator: Adobe Illustrator 17.0.0, SVG Export Plug-In . SVG Version: 6.00 Build 0)  -->
<!DOCTYPE svg PUBLIC "-//W3C//DTD SVG 1.1//EN" "http://www.w3.org/Graphics/SVG/1.1/DTD/svg11.dtd">
<svg version="1.1" xmlns="http://www.w3.org/2000/svg" xmlns:xlink="http://www.w3.org/1999/xlink" x="0px" y="0px" width="171px"
	 height="112.25px" viewBox="0 0 171 112.25" enable-background="new 0 0 171 112.25" xml:space="preserve">
<symbol  id="Bush_Left" viewBox="-43.3 -24.309 86.601 48.615">
	<g>
		<g>
			<path fill="#009640" d="M-33.888-3.512c8.299,8.895,13.237,21.557,13.237,21.557c-3.489-10.507-7.56-15.73-14.272-24.22
				L-33.888-3.512z"/>
			<path fill="#009640" d="M-30.487,3.16c0.297,2.265,2.377,11.441,2.377,11.441l-2.153-5.593c-0.479-2.881,0.761-5.555,0.447-7.952
				L-30.487,3.16z"/>
			<path fill="#009640" d="M-27.667,8.563c0.297,2.266,1.726,9.828,1.726,9.828l-0.53-3.79c0-2.44-0.211-5.745-0.526-8.142
				L-27.667,8.563z"/>
			<path fill="#009640" d="M-24.188,13.376c0.216,1.381,3.051,6.613,3.051,6.613l-2.181-2.933c0-1.488-0.154-3.501-0.382-4.963
				L-24.188,13.376z"/>
			<path fill="#009640" d="M-21.167,18.074c0.602,1.176,2.76,6.232,2.76,6.232l-1.281-3.51c-0.313-1.289-0.958-3.021-1.595-4.265
				L-21.167,18.074z"/>
			<path fill="#009640" d="M-26.044,10.33c0.297,2.266,1.726,9.829,1.726,9.829l-1.162-4.837c0-2.441,0.42-4.697,0.106-7.095
				L-26.044,10.33z"/>
			<path fill="#009640" d="M-24.522,3.486c1.421,0.865,6.496,3.397,6.496,3.397l-3.35-2.196c-1.774-1.164-5.323-0.627-6.827-1.543
				L-24.522,3.486z"/>
			<path fill="#009640" d="M-21.855,6.883c1.899,1.261,6.128,5.077,6.128,5.077l-3.163-2.14c-2.187-1.07-5.052-2.709-7.062-4.044
				L-21.855,6.883z"/>
			<path fill="#009640" d="M-21.837,13.087c1.036,0.934,3.865,6.169,3.865,6.169l-1.263-3.432c-1.244-0.811-2.842-2.037-3.939-3.025
				L-21.837,13.087z"/>
			<path fill="#009640" d="M-23.271,9.472c1.577,1.009,5.962,5.851,5.962,5.851l-2.632-3.877c-1.816-0.856-3.47-1.16-5.14-2.229
				L-23.271,9.472z"/>
			<path fill="#009640" d="M-32.966,0.365c0.297,2.265,1.6,12.736,1.6,12.736l-1.376-6.888c-0.479-2.881,0.762-5.555,0.447-7.953
				L-32.966,0.365z"/>
			<path fill="#009640" d="M-34.966-1.265c0.297,2.266,1.599,12.736,1.599,12.736l-1.376-6.887
				c-0.479-2.882,0.761-5.556,0.447-7.953L-34.966-1.265z"/>
			<path fill="#009640" d="M-29.402-0.558c1.549,0.605,10.179,4.284,10.179,4.284l-4.82-3.121c-1.949-0.838-5.362-0.453-7.002-1.095
				L-29.402-0.558z"/>
			<path fill="#009640" d="M-29.97-3.319c1.726,0.743,9.727,4.107,9.727,4.107l-5.13-2.746c-2.171-1.049-4.612-0.291-6.44-1.078
				L-29.97-3.319z"/>
		</g>
		<g>
			<path fill="#009640" d="M-41.108-9.822c17.331-2.827,35.766-10.603,35.766-10.603c-13.47,6.661-22.757,8.744-37.958,12.079
				L-41.108-9.822z"/>
			<path fill="#009640" d="M-29.852-13.562c2.399-1.676,13.091-8.003,13.091-8.003l-7.499,3.39
				c-3.163,2.079-4.231,4.895-6.771,6.668L-29.852-13.562z"/>
			<path fill="#009640" d="M-21.787-16.449c2.399-1.677,10.894-7.041,10.894-7.041l-4.051,2.787
				c-2.23,1.975-5.483,4.535-8.022,6.309L-21.787-16.449z"/>
			<path fill="#009640" d="M-13.531-18.51c1.502-1.004,9.426-3.744,9.426-3.744l-5.098,1.225c-1.36,1.204-3.371,2.751-4.96,3.813
				L-13.531-18.51z"/>
			<path fill="#009640" d="M-5.888-20.72c1.742-0.635,8.756-3.589,8.756-3.589l-4.628,2.165c-1.525,0.878-3.821,1.938-5.666,2.609
				L-5.888-20.72z"/>
			<path fill="#009640" d="M-18.371-17.024c2.399-1.675,10.895-7.04,10.895-7.04l-5.708,3.301c-2.231,1.974-3.826,4.021-6.366,5.795
				L-18.371-17.024z"/>
			<path fill="#009640" d="M-22.938-10.688c2.368,0.048,10.308,0.672,10.308,0.672l-5.722,0.014
				c-3.032,0.008-6.476-2.295-8.983-2.345L-22.938-10.688z"/>
			<path fill="#009640" d="M-16.876-12.03c3.258-0.021,11.436-0.882,11.436-0.882l-5.462,0.066
				c-3.403-0.285-8.079-0.468-11.526-0.445L-16.876-12.03z"/>
			<path fill="#009640" d="M-11.188-17.038c2.003-0.21,9.925-2.956,9.925-2.956L-5.8-17.883c-2.12,0-5.014,0.15-7.134,0.374
				L-11.188-17.038z"/>
			<path fill="#009640" d="M-16.081-14.869c2.671,0.013,11.958-1.595,11.958-1.595l-6.461,1.751
				c-2.797-0.263-4.908-0.889-7.736-0.902L-16.081-14.869z"/>
			<path fill="#009640" d="M-35.155-12.606c2.399-1.677,13.411-9.46,13.411-9.46l-7.82,4.846c-3.163,2.079-4.23,4.895-6.771,6.668
				L-35.155-12.606z"/>
			<path fill="#009640" d="M-38.862-12.341c2.399-1.676,13.412-9.459,13.412-9.459l-7.819,4.846
				c-3.164,2.079-4.231,4.893-6.771,6.668L-38.862-12.341z"/>
			<path fill="#009640" d="M-32.045-9.983c2.271,0.325,15.205,1.892,15.205,1.892l-8.198-0.013c-2.927-0.348-6.361-2.455-8.766-2.8
				L-32.045-9.983z"/>
			<path fill="#009640" d="M-35.199-8.049c2.594,0.308,14.541,1.798,14.541,1.798l-8.2-0.48c-3.366-0.294-5.381-2.192-8.127-2.518
				L-35.199-8.049z"/>
		</g>
		<g>
			<path fill="#009640" d="M-20.024-4.794c13.512-1.991,27.731-7.055,27.731-7.055c-10.5,4.69-17.742,6.158-29.593,8.506
				L-20.024-4.794z"/>
			<path fill="#009640" d="M-11.401-7.016c1.871-1.181,10.206-5.637,10.206-5.637l-5.847,2.388
				c-2.466,1.464-3.298,3.446-5.278,4.695L-11.401-7.016z"/>
			<path fill="#009640" d="M-5.113-9.049c1.87-1.18,8.494-4.958,8.494-4.958l-3.158,1.963c-1.739,1.39-4.275,3.192-6.255,4.442
				L-5.113-9.049z"/>
			<path fill="#009640" d="M1.323-10.5c1.17-0.707,7.349-2.637,7.349-2.637l-3.975,0.862c-1.06,0.848-2.628,1.938-3.867,2.686
				L1.323-10.5z"/>
			<path fill="#009640" d="M7.281-12.057c1.358-0.447,6.827-2.527,6.827-2.527L10.5-13.06c-1.189,0.618-2.979,1.365-4.418,1.838
				L7.281-12.057z"/>
			<path fill="#009640" d="M-2.451-9.453c1.871-1.182,8.493-4.959,8.493-4.959l-4.45,2.325c-1.739,1.391-2.982,2.831-4.962,4.08
				L-2.451-9.453z"/>
			<path fill="#009640" d="M-6.011-4.991C-4.166-4.958,2.025-4.52,2.025-4.52l-4.46,0.011C-4.799-4.503-7.484-6.126-9.439-6.16
				L-6.011-4.991z"/>
			<path fill="#009640" d="M-1.285-5.938c2.54-0.015,8.916-0.62,8.916-0.62L3.372-6.512c-2.653-0.2-6.298-0.329-8.986-0.313
				L-1.285-5.938z"/>
			<path fill="#009640" d="M3.15-9.464c1.562-0.148,7.737-2.082,7.737-2.082L7.35-10.059c-1.653,0.001-3.909,0.106-5.561,0.263
				L3.15-9.464z"/>
			<path fill="#009640" d="M-0.666-7.937C1.416-7.927,8.657-9.06,8.657-9.06L3.62-7.826C1.439-8.012-0.207-8.452-2.411-8.462
				L-0.666-7.937z"/>
			<path fill="#009640" d="M-15.536-6.343c1.87-1.18,10.455-6.661,10.455-6.661l-6.096,3.413c-2.466,1.463-3.299,3.445-5.278,4.695
				L-15.536-6.343z"/>
			<path fill="#009640" d="M-18.426-6.155c1.87-1.181,10.456-6.662,10.456-6.662l-6.096,3.413c-2.466,1.464-3.299,3.446-5.279,4.694
				L-18.426-6.155z"/>
			<path fill="#009640" d="M-13.112-4.496c1.771,0.229,11.854,1.332,11.854,1.332l-6.392-0.009
				c-2.282-0.245-4.959-1.729-6.834-1.972L-13.112-4.496z"/>
			<path fill="#009640" d="M-15.57-3.134c2.022,0.216,11.336,1.267,11.336,1.267l-6.393-0.338c-2.625-0.207-4.195-1.543-6.336-1.773
				L-15.57-3.134z"/>
		</g>
		<g>
			<path fill="#009640" d="M1.652-2.057c12.235-1.712,25.111-6.067,25.111-6.067C17.255-4.091,10.698-2.827-0.033-0.808L1.652-2.057
				z"/>
			<path fill="#009640" d="M9.46-3.968c1.694-1.015,9.241-4.849,9.241-4.849l-5.293,2.054c-2.233,1.26-2.987,2.964-4.78,4.039
				L9.46-3.968z"/>
			<path fill="#009640" d="M15.154-5.716c1.694-1.017,7.691-4.266,7.691-4.266l-2.859,1.688c-1.575,1.197-3.871,2.748-5.663,3.822
				L15.154-5.716z"/>
			<path fill="#009640" d="M20.982-6.965c1.06-0.608,6.654-2.268,6.654-2.268l-3.599,0.741c-0.96,0.729-2.379,1.666-3.501,2.311
				L20.982-6.965z"/>
			<path fill="#009640" d="M26.378-8.304c1.23-0.385,6.182-2.174,6.182-2.174l-3.268,1.312c-1.076,0.531-2.697,1.174-3.999,1.581
				L26.378-8.304z"/>
			<path fill="#009640" d="M17.565-6.064c1.694-1.015,7.691-4.266,7.691-4.266l-4.029,2c-1.575,1.196-2.701,2.435-4.494,3.51
				L17.565-6.064z"/>
			<path fill="#009640" d="M14.342-2.226c1.671,0.028,7.276,0.405,7.276,0.405l-4.039,0.01c-2.141,0.005-4.572-1.391-6.341-1.422
				L14.342-2.226z"/>
			<path fill="#009640" d="M18.621-3.039c2.3-0.013,8.073-0.534,8.073-0.534l-3.856,0.04c-2.402-0.173-5.703-0.283-8.137-0.271
				L18.621-3.039z"/>
			<path fill="#009640" d="M22.637-6.073c1.414-0.127,7.006-1.792,7.006-1.792l-3.204,1.28c-1.496,0.001-3.539,0.092-5.036,0.227
				L22.637-6.073z"/>
			<path fill="#009640" d="M19.182-4.759c1.886,0.008,8.442-0.966,8.442-0.966l-4.561,1.059c-1.975-0.157-3.465-0.537-5.461-0.545
				L19.182-4.759z"/>
			<path fill="#009640" d="M5.717-3.388c1.694-1.017,9.468-5.731,9.468-5.731l-5.52,2.935c-2.233,1.26-2.987,2.965-4.78,4.04
				L5.717-3.388z"/>
			<path fill="#009640" d="M3.1-3.228c1.694-1.015,9.468-5.731,9.468-5.731l-5.52,2.936c-2.233,1.26-2.987,2.965-4.78,4.04
				L3.1-3.228z"/>
			<path fill="#009640" d="M7.912-1.8c1.604,0.197,10.733,1.146,10.733,1.146l-5.788-0.008c-2.066-0.211-4.49-1.487-6.188-1.696
				L7.912-1.8z"/>
			<path fill="#009640" d="M5.686-0.628c1.832,0.187,10.266,1.089,10.266,1.089l-5.789-0.29C7.786-0.007,6.364-1.157,4.425-1.354
				L5.686-0.628z"/>
		</g>
		<g>
			<path fill="#009640" d="M14.002,2.834C25.081,1.362,36.74-2.385,36.74-2.385c-8.61,3.471-14.547,4.557-24.265,6.294L14.002,2.834
				z"/>
			<path fill="#009640" d="M21.072,1.191C22.605,0.318,29.44-2.98,29.44-2.98l-4.793,1.767c-2.022,1.083-2.705,2.551-4.328,3.475
				L21.072,1.191z"/>
			<path fill="#009640" d="M26.228-0.312c1.534-0.874,6.964-3.67,6.964-3.67L30.603-2.53c-1.426,1.028-3.505,2.363-5.128,3.288
				L26.228-0.312z"/>
			<path fill="#009640" d="M31.505-1.387c0.96-0.523,6.026-1.951,6.026-1.951L34.271-2.7c-0.869,0.627-2.154,1.434-3.17,1.987
				L31.505-1.387z"/>
			<path fill="#009640" d="M36.391-2.539c1.114-0.331,5.598-1.87,5.598-1.87l-2.959,1.128c-0.975,0.458-2.442,1.01-3.622,1.36
				L36.391-2.539z"/>
			<path fill="#009640" d="M28.411-0.612c1.534-0.873,6.964-3.669,6.964-3.669l-3.649,1.72c-1.426,1.028-2.446,2.095-4.069,3.02
				L28.411-0.612z"/>
			<path fill="#009640" d="M25.492,2.688c1.513,0.025,6.589,0.351,6.589,0.351l-3.658,0.007c-1.938,0.005-4.14-1.195-5.742-1.222
				L25.492,2.688z"/>
			<path fill="#009640" d="M29.367,1.989c2.083-0.011,7.31-0.459,7.31-0.459l-3.492,0.034c-2.175-0.148-5.164-0.243-7.368-0.232
				L29.367,1.989z"/>
			<path fill="#009640" d="M33.003-0.62c1.28-0.109,6.344-1.54,6.344-1.54l-2.9,1.1c-1.355,0.001-3.205,0.079-4.56,0.195
				L33.003-0.62z"/>
			<path fill="#009640" d="M29.875,0.51c1.707,0.008,7.644-0.83,7.644-0.83l-4.13,0.912c-1.788-0.137-3.138-0.463-4.945-0.471
				L29.875,0.51z"/>
			<path fill="#009640" d="M17.682,1.688c1.534-0.872,8.573-4.93,8.573-4.93l-4.998,2.526c-2.022,1.084-2.705,2.551-4.328,3.474
				L17.682,1.688z"/>
			<path fill="#009640" d="M15.312,1.828c1.533-0.874,8.573-4.93,8.573-4.93l-4.999,2.525c-2.022,1.083-2.705,2.55-4.328,3.475
				L15.312,1.828z"/>
			<path fill="#009640" d="M19.669,3.056c1.452,0.17,9.72,0.986,9.72,0.986l-5.241-0.007c-1.871-0.181-4.067-1.279-5.603-1.459
				L19.669,3.056z"/>
			<path fill="#009640" d="M17.654,4.064c1.658,0.16,9.295,0.936,9.295,0.936l-5.242-0.249c-2.152-0.153-3.44-1.144-5.195-1.313
				L17.654,4.064z"/>
		</g>
		<g>
			<path fill="#009640" d="M-16.823,0.144C-9.21,6.409-2.933,16.129-2.933,16.129c-4.079-8.18-7.925-11.958-14.251-18.087
				L-16.823,0.144z"/>
			<path fill="#009640" d="M-12.52,5.143c0.525,1.82,3.335,9.084,3.335,9.084l-2.402-4.318c-0.747-2.302-0.128-4.645-0.684-6.571
				L-12.52,5.143z"/>
			<path fill="#009640" d="M-9.625,9.225c0.526,1.82,2.62,7.842,2.62,7.842l-0.904-3.042c-0.317-2-0.91-4.68-1.466-6.606
				L-9.625,9.225z"/>
			<path fill="#009640" d="M-6.292,12.739c0.347,1.106,3.232,5.044,3.232,5.044l-2.078-2.135c-0.193-1.22-0.574-2.851-0.942-4.021
				L-6.292,12.739z"/>
			<path fill="#009640" d="M-3.331,16.217c0.621,0.89,2.957,4.767,2.957,4.767l-1.453-2.719c-0.411-1.018-1.138-2.357-1.795-3.299
				L-3.331,16.217z"/>
			<path fill="#009640" d="M-8.131,10.473c0.525,1.819,2.619,7.84,2.619,7.84l-1.532-3.819c-0.317-2-0.283-3.9-0.839-5.827
				L-8.131,10.473z"/>
			<path fill="#009640" d="M-7.835,4.677c1.219,0.533,5.497,1.982,5.497,1.982l-2.892-1.387c-1.532-0.735-4.224,0.143-5.513-0.423
				L-7.835,4.677z"/>
			<path fill="#009640" d="M-5.318,7.131c1.641,0.8,5.428,3.405,5.428,3.405l-2.739-1.363C-4.47,8.565-6.913,7.575-8.65,6.728
				L-5.318,7.131z"/>
			<path fill="#009640" d="M-4.499,12.212c0.928,0.638,3.81,4.58,3.81,4.58l-1.429-2.657c-1.073-0.511-2.477-1.319-3.458-1.995
				L-4.499,12.212z"/>
			<path fill="#009640" d="M-6.085,9.427c1.359,0.633,5.4,4.06,5.4,4.06l-2.551-2.853c-1.524-0.479-2.852-0.522-4.29-1.193
				L-6.085,9.427z"/>
			<path fill="#009640" d="M-14.812,3.159c0.525,1.82,2.898,10.24,2.898,10.24l-1.965-5.475c-0.746-2.302-0.128-4.646-0.684-6.573
				L-14.812,3.159z"/>
			<path fill="#009640" d="M-16.581,2.07c0.525,1.82,2.898,10.24,2.898,10.24l-1.965-5.475c-0.747-2.303-0.128-4.646-0.685-6.572
				L-16.581,2.07z"/>
			<path fill="#009640" d="M-12.158,1.964C-10.875,2.27-3.68,4.219-3.68,4.219l-4.157-1.963c-1.625-0.445-4.232,0.29-5.592-0.033
				L-12.158,1.964z"/>
			<path fill="#009640" d="M-12.96-0.229c1.441,0.396,8.104,2.165,8.104,2.165l-4.349-1.616c-1.826-0.593-3.628,0.329-5.152-0.09
				L-12.96-0.229z"/>
		</g>
		<g>
			<path fill="#009640" d="M-1.735,1.376c5.016,5.233,8.85,13.007,8.85,13.007C4.747,7.916,2.253,4.806-1.854-0.244L-1.735,1.376z"
				/>
			<path fill="#009640" d="M1.003,5.442c0.254,1.414,1.776,7.108,1.776,7.108L1.352,9.122C0.972,7.325,1.569,5.583,1.3,4.085
				L1.003,5.442z"/>
			<path fill="#009640" d="M2.798,8.723c0.254,1.415,1.348,6.12,1.348,6.12l-0.443-2.367c-0.093-1.538-0.338-3.612-0.607-5.11
				L2.798,8.723z"/>
			<path fill="#009640" d="M4.943,11.6c0.174,0.861,1.972,4.033,1.972,4.033l-1.341-1.751c-0.057-0.938-0.22-2.201-0.405-3.114
				L4.943,11.6z"/>
			<path fill="#009640" d="M6.825,14.426c0.384,0.714,1.794,3.807,1.794,3.807l-0.856-2.156c-0.226-0.8-0.655-1.86-1.062-2.618
				L6.825,14.426z"/>
			<path fill="#009640" d="M3.781,9.764c0.254,1.415,1.348,6.121,1.348,6.121L4.29,12.886c-0.093-1.539,0.057-2.981-0.212-4.481
				L3.781,9.764z"/>
			<path fill="#009640" d="M4.377,5.377c0.834,0.481,3.79,1.847,3.79,1.847L6.195,5.991C5.151,5.337,3.172,5.838,2.289,5.328
				L4.377,5.377z"/>
			<path fill="#009640" d="M6.01,7.398c1.118,0.709,3.647,2.924,3.647,2.924L7.793,9.116c-1.273-0.575-2.95-1.479-4.133-2.23
				L6.01,7.398z"/>
			<path fill="#009640" d="M6.257,11.311c0.62,0.541,2.414,3.716,2.414,3.716l-0.843-2.108c-0.731-0.454-1.679-1.154-2.335-1.729
				L6.257,11.311z"/>
			<path fill="#009640" d="M5.311,9.095c0.927,0.565,3.583,3.42,3.583,3.42l-1.631-2.326c-1.056-0.457-2-0.573-2.982-1.172
				L5.311,9.095z"/>
			<path fill="#009640" d="M-0.501,3.792c0.254,1.416,1.388,7.961,1.388,7.961l-1.039-4.281c-0.38-1.797,0.217-3.54-0.052-5.037
				L-0.501,3.792z"/>
			<path fill="#009640" d="M-1.69,2.855c0.253,1.415,1.388,7.961,1.388,7.961l-1.039-4.283c-0.38-1.794,0.216-3.537-0.052-5.035
				L-1.69,2.855z"/>
			<path fill="#009640" d="M1.472,3.048c0.896,0.311,5.9,2.239,5.9,2.239L4.537,3.538c-1.13-0.44-3.039-0.042-3.988-0.372
				L1.472,3.048z"/>
			<path fill="#009640" d="M1.047,1.332c1.001,0.391,5.638,2.147,5.638,2.147L3.688,1.98c-1.263-0.562-2.609,0.026-3.67-0.387
				L1.047,1.332z"/>
		</g>
		<g>
			<path fill="#009640" d="M10.392,4.122c5.327,4.498,9.139,10.946,9.139,10.946c-2.24-5.312-4.853-7.953-9.162-12.247L10.392,4.122
				z"/>
			<path fill="#009640" d="M13.217,7.542c0.191,1.146,1.526,5.786,1.526,5.786L13.36,10.5c-0.307-1.458,0.489-2.81,0.286-4.022
				L13.217,7.542z"/>
			<path fill="#009640" d="M15.027,10.274c0.191,1.146,1.108,4.971,1.108,4.971l-0.34-1.917c0-1.234-0.136-2.904-0.338-4.118
				L15.027,10.274z"/>
			<path fill="#009640" d="M17.261,12.708c0.139,0.697,1.958,3.345,1.958,3.345l-1.399-1.484c0-0.752-0.099-1.769-0.246-2.509
				L17.261,12.708z"/>
			<path fill="#009640" d="M19.2,15.084c0.386,0.595,1.772,3.151,1.772,3.151l-0.822-1.774c-0.201-0.652-0.615-1.526-1.024-2.156
				L19.2,15.084z"/>
			<path fill="#009640" d="M16.07,11.169c0.191,1.144,1.108,4.97,1.108,4.97l-0.746-2.446c0-1.234,0.27-2.376,0.068-3.588
				L16.07,11.169z"/>
			<path fill="#009640" d="M17.046,7.706c0.912,0.44,4.169,1.719,4.169,1.719l-2.15-1.11c-1.139-0.589-3.417-0.316-4.382-0.781
				L17.046,7.706z"/>
			<path fill="#009640" d="M18.758,9.425c1.219,0.638,3.934,2.567,3.934,2.567l-2.03-1.083c-1.404-0.54-3.243-1.368-4.533-2.044
				L18.758,9.425z"/>
			<path fill="#009640" d="M18.77,12.561c0.665,0.472,2.481,3.12,2.481,3.12l-0.811-1.735c-0.798-0.41-1.825-1.03-2.529-1.53
				L18.77,12.561z"/>
			<path fill="#009640" d="M17.849,10.733c1.012,0.511,3.828,2.959,3.828,2.959l-1.689-1.961c-1.166-0.433-2.228-0.586-3.3-1.126
				L17.849,10.733z"/>
			<path fill="#009640" d="M11.625,6.129c0.191,1.146,1.027,6.439,1.027,6.439l-0.884-3.481c-0.307-1.457,0.489-2.811,0.288-4.022
				L11.625,6.129z"/>
			<path fill="#009640" d="M10.342,5.305c0.19,1.146,1.027,6.441,1.027,6.441l-0.884-3.482c-0.307-1.457,0.489-2.81,0.287-4.022
				L10.342,5.305z"/>
			<path fill="#009640" d="M13.914,5.662c0.995,0.307,6.534,2.167,6.534,2.167L17.354,6.25c-1.251-0.423-3.442-0.229-4.495-0.553
				L13.914,5.662z"/>
			<path fill="#009640" d="M13.549,4.266c1.108,0.376,6.245,2.077,6.245,2.077L16.5,4.953c-1.394-0.53-2.96-0.147-4.134-0.545
				L13.549,4.266z"/>
		</g>
		<g>
			<path fill="#009640" d="M22.362,7.214c9.256,2.036,17.473,6.526,17.473,6.526C34.255,9.673,29.5,8.266,21.691,6.002L22.362,7.214
				z"/>
			<path fill="#009640" d="M27.781,9.266c0.817,0.997,4.87,4.805,4.87,4.805l-3.222-2.087c-1.125-1.242-0.74-2.838-1.606-3.893
				L27.781,9.266z"/>
			<path fill="#009640" d="M31.521,11.088c0.817,0.997,3.916,4.211,3.916,4.211l-1.395-1.66c-0.609-1.158-1.613-2.67-2.478-3.726
				L31.521,11.088z"/>
			<path fill="#009640" d="M35.671,12.456c0.528,0.599,4.237,2.336,4.237,2.336l-2.581-0.817c-0.371-0.707-1.004-1.623-1.563-2.256
				L35.671,12.456z"/>
			<path fill="#009640" d="M39.405,13.891c0.804,0.399,3.896,2.231,3.896,2.231l-1.962-1.328c-0.587-0.529-1.566-1.181-2.417-1.604
				L39.405,13.891z"/>
			<path fill="#009640" d="M33.338,11.498c0.817,0.998,3.915,4.212,3.915,4.212l-2.191-1.991c-0.609-1.159-0.816-2.339-1.681-3.395
				L33.338,11.498z"/>
			<path fill="#009640" d="M32.921,7.85c1.421,0.037,6.354-0.098,6.354-0.098l-3.388-0.16c-1.795-0.086-4.669,1.104-6.174,1.064
				L32.921,7.85z"/>
			<path fill="#009640" d="M36.029,8.759c1.925,0.1,6.463,0.797,6.463,0.797l-3.215-0.182c-2.121,0.066-4.959,0.044-6.997-0.061
				L36.029,8.759z"/>
			<path fill="#009640" d="M37.593,11.7c1.112,0.17,4.817,1.91,4.817,1.91l-1.928-1.298c-1.256-0.056-2.918-0.217-4.095-0.399
				L37.593,11.7z"/>
			<path fill="#009640" d="M35.475,10.36c1.589,0.065,6.515,1.208,6.515,1.208l-3.199-1.147c-1.753,0.071-3.231,0.362-4.914,0.295
				L35.475,10.36z"/>
			<path fill="#009640" d="M24.982,8.592c0.817,0.997,4.534,5.624,4.534,5.624l-2.885-2.908c-1.125-1.24-0.741-2.836-1.605-3.891
				L24.982,8.592z"/>
			<path fill="#009640" d="M22.879,8.345c0.817,0.997,4.534,5.624,4.534,5.624l-2.885-2.906c-1.125-1.242-0.741-2.838-1.605-3.893
				L22.879,8.345z"/>
			<path fill="#009640" d="M27.773,7.215c1.465-0.12,9.7-0.647,9.7-0.647l-4.866-0.212c-1.861,0.115-4.66,1.196-6.21,1.324
				L27.773,7.215z"/>
			<path fill="#009640" d="M26.603,6.054c1.65-0.102,9.273-0.611,9.273-0.611L30.84,5.489c-2.102,0.074-3.983,1.076-5.729,1.185
				L26.603,6.054z"/>
		</g>
	</g>
</symbol>
<g id="Capa_1">
</g>
<g id="Fondo">
</g>
<g id="Guías">
</g>
<g id="Primer_plano">
</g>
<g id="Copy_of_Primer_plano">
	<g>
		<path fill-rule="evenodd" clip-rule="evenodd" fill="#FFFFFF" d="M20.044,113.023"/>
		<path fill-rule="evenodd" clip-rule="evenodd" fill="#FFFFFF" d="M74.951,33.276c0,2.586,2.092,4.683,4.678,4.683
			c2.587,0,4.674-2.111,4.674-4.717V6.644h7.856v27.772c0,6.307-5.615,11.42-12.539,11.42c-6.926,0-12.539-5.113-12.539-11.42
			l0.004-27.772h7.867V33.276z"/>
		<path fill-rule="evenodd" clip-rule="evenodd" fill="#FFFFFF" d="M118.852,33.251V18.152c-0.043-2.578-2.088-4.679-4.668-4.679
			s-4.668,2.101-4.676,4.679l-0.006,15.142c0.043,2.578,2.088,4.665,4.668,4.665s4.674-2.087,4.684-4.665L118.852,33.251z
			 M126.717,34.416c0,6.307-5.617,11.42-12.541,11.42c-6.926,0-12.537-5.113-12.537-11.42V17.019c0-6.308,5.611-11.42,12.537-11.42
			c6.924,0,12.539,5.113,12.539,11.42L126.717,34.416z"/>
		<path fill-rule="evenodd" clip-rule="evenodd" fill="#FFFFFF" d="M144.162,33.259l-0.006-15.103c0-2.586,2.096-4.683,4.684-4.683
			c2.586,0,4.635,2.071,4.668,4.657l0.002,2.643h7.857v-3.755c0-6.308-5.615-11.42-12.539-11.42c-6.926,0-12.535,5.113-12.535,11.42
			l-0.004,17.397c0,6.307,5.613,11.42,12.539,11.42c6.924,0,12.541-5.113,12.541-11.42l0.002-4.051l-7.861,0.002
			c0,0-0.031,2.909,0.004,2.909c0,2.586-2.096,4.683-4.684,4.683C146.244,37.959,144.162,35.845,144.162,33.259z"/>
		<circle fill-rule="evenodd" clip-rule="evenodd" fill="#FFFFFF" cx="15.232" cy="26.092" r="9.716"/>
		<polygon fill="#FFFFFF" points="15.373,41.321 48.025,41.321 48.025,10.859 15.373,10.859 15.373,6.353 52.532,6.353 
			52.532,10.859 52.532,41.321 52.532,45.828 48.025,45.831 15.373,45.828 		"/>
		<path fill-rule="evenodd" clip-rule="evenodd" fill="#FFFFFF" d="M147.975,71.257c0.07-0.794,0.566-1.106,1.334-1.106
			c0.709,0,1.305,0.128,1.305,0.993c0,0.823-1.148,0.78-2.383,0.965c-1.25,0.171-2.498,0.567-2.498,2.228
			c0,1.504,1.107,2.199,2.498,2.199c0.893,0,1.83-0.241,2.469-0.908c0.014,0.241,0.07,0.482,0.141,0.71h2.043
			c-0.184-0.298-0.256-0.965-0.256-1.632v-3.816c0-1.76-1.758-2.086-3.221-2.086c-1.645,0-3.334,0.567-3.447,2.454H147.975z
			 M150.613,73.499c0,0.439-0.057,1.688-1.631,1.688c-0.654,0-1.234-0.185-1.234-0.937c0-0.737,0.566-0.95,1.191-1.078
			c0.623-0.113,1.334-0.128,1.674-0.426V73.499z M143.188,66.803h-2.016v2.198h-1.221v1.349h1.221v4.327
			c0,1.461,1.078,1.745,2.312,1.745c0.398,0,0.838-0.015,1.178-0.071v-1.574c-0.213,0.042-0.412,0.057-0.625,0.057
			c-0.68,0-0.85-0.171-0.85-0.852V70.35h1.475v-1.349h-1.475V66.803z M134.695,76.337h2.014v-3.306c0-1.292,0.512-2.356,1.986-2.356
			c0.242,0,0.539,0.028,0.725,0.07v-1.872c-0.129-0.043-0.299-0.071-0.439-0.071c-0.98,0-1.973,0.639-2.342,1.56l-0.029-1.362
			h-1.914V76.337z M127.789,71.882c0.029-0.567,0.398-1.561,1.676-1.561c0.979,0,1.418,0.539,1.602,1.561H127.789z M133.082,73.158
			c0.143-2.256-1.064-4.355-3.561-4.355c-2.229,0-3.746,1.674-3.746,3.873c0,2.271,1.434,3.859,3.746,3.859
			c1.66,0,2.865-0.737,3.434-2.469h-1.773c-0.129,0.454-0.781,0.951-1.59,0.951c-1.121,0-1.746-0.582-1.803-1.859H133.082z
			 M122.42,72.676c0,1.221-0.525,2.342-1.717,2.342s-1.717-1.121-1.717-2.342c0-1.234,0.525-2.354,1.717-2.354
			S122.42,71.441,122.42,72.676z M117.043,76.337h1.916V75.4c0.469,0.809,1.361,1.135,2.439,1.135c1.461,0,3.037-1.178,3.037-3.873
			c0-2.682-1.576-3.859-3.037-3.859c-0.908,0-1.816,0.341-2.312,1.093l-0.027-3.689h-2.016V76.337z M107.588,71.314
			c0-1.773,0.752-3.477,2.754-3.477c2,0,2.752,1.703,2.752,3.477c0,1.688-0.752,3.391-2.752,3.391
			C108.34,74.705,107.588,73.002,107.588,71.314z M105.361,71.314c0,2.922,1.844,5.264,4.98,5.264c3.135,0,4.979-2.342,4.979-5.264
			c0-3.008-1.844-5.35-4.979-5.35C107.205,65.965,105.361,68.307,105.361,71.314z M98.367,66.803h-2.016v2.198h-1.221v1.349h1.221
			v4.327c0,1.461,1.078,1.745,2.312,1.745c0.398,0,0.838-0.015,1.178-0.071v-1.574c-0.213,0.042-0.412,0.057-0.625,0.057
			c-0.68,0-0.85-0.171-0.85-0.852V70.35h1.475v-1.349h-1.475V66.803z M89.178,71.257c0.07-0.794,0.566-1.106,1.332-1.106
			c0.711,0,1.307,0.128,1.307,0.993c0,0.823-1.15,0.78-2.385,0.965c-1.248,0.171-2.496,0.567-2.496,2.228
			c0,1.504,1.106,2.199,2.496,2.199c0.895,0,1.83-0.241,2.469-0.908c0.016,0.241,0.072,0.482,0.143,0.71h2.043
			c-0.184-0.298-0.256-0.965-0.256-1.632v-3.816c0-1.76-1.758-2.086-3.221-2.086c-1.645,0-3.334,0.567-3.447,2.454H89.178z
			 M91.816,73.499c0,0.439-0.057,1.688-1.633,1.688c-0.652,0-1.234-0.185-1.234-0.937c0-0.737,0.568-0.95,1.193-1.078
			c0.623-0.113,1.332-0.128,1.674-0.426V73.499z M84.389,66.803h-2.015v2.198h-1.22v1.349h1.22v4.327
			c0,1.461,1.078,1.745,2.313,1.745c0.396,0,0.838-0.015,1.178-0.071v-1.574c-0.213,0.042-0.412,0.057-0.625,0.057
			c-0.68,0-0.851-0.171-0.851-0.852V70.35h1.476v-1.349h-1.476V66.803z M79.826,66.206H77.81v1.66h2.016V66.206z M77.81,76.337
			h2.016v-7.336H77.81V76.337z M69.361,73.953c0.085,1.943,1.744,2.582,3.447,2.582c1.674,0,3.349-0.624,3.349-2.554
			c0-1.362-1.149-1.788-2.327-2.058c-1.149-0.27-2.284-0.368-2.284-1.092c0-0.597,0.667-0.682,1.121-0.682
			c0.724,0,1.319,0.213,1.376,0.993h1.915c-0.155-1.802-1.632-2.341-3.234-2.341c-1.575,0-3.192,0.482-3.192,2.355
			c0,1.291,1.163,1.702,2.327,1.958c1.446,0.312,2.284,0.524,2.284,1.135c0,0.709-0.738,0.937-1.32,0.937
			c-0.794,0-1.531-0.354-1.546-1.234H69.361z M63.777,76.337h2.015v-3.306c0-1.292,0.511-2.356,1.986-2.356
			c0.241,0,0.539,0.028,0.724,0.07v-1.872c-0.127-0.043-0.298-0.071-0.44-0.071c-0.979,0-1.973,0.639-2.341,1.56l-0.028-1.362
			h-1.916V76.337z M56.873,71.882c0.027-0.567,0.396-1.561,1.674-1.561c0.979,0,1.419,0.539,1.604,1.561H56.873z M62.165,73.158
			c0.142-2.256-1.064-4.355-3.562-4.355c-2.228,0-3.746,1.674-3.746,3.873c0,2.271,1.434,3.859,3.746,3.859
			c1.66,0,2.866-0.737,3.434-2.469h-1.773c-0.128,0.454-0.78,0.951-1.589,0.951c-1.121,0-1.745-0.582-1.802-1.859H62.165z
			 M53.958,69.001h-2l-1.547,5.009l-1.574-5.009h-2.114l2.511,7.336h2.242L53.958,69.001z M45.408,66.206h-2.015v1.66h2.015V66.206z
			 M43.393,76.337h2.015v-7.336h-2.015V76.337z M34.503,76.337h2.015v-3.846c0-1.489,0.468-2.1,1.561-2.1
			c0.936,0,1.291,0.596,1.291,1.802v4.144h2.015v-4.512c0-1.816-0.539-3.022-2.682-3.022c-0.85,0-1.73,0.397-2.241,1.221
			l-0.043-1.022h-1.915V76.337z M32.38,66.206h-2.228v6.3c0,1.504-0.511,2.199-2.1,2.199c-1.802,0-2.086-1.093-2.086-2.199v-6.3
			H23.74v6.3c0,2.753,1.59,4.072,4.313,4.072c2.71,0,4.327-1.334,4.327-4.072V66.206z M110.518,84.732
			c0.07-0.795,0.568-1.106,1.334-1.106c0.709,0,1.305,0.127,1.305,0.993c0,0.822-1.148,0.78-2.383,0.964
			c-1.248,0.171-2.498,0.568-2.498,2.228c0,1.504,1.107,2.199,2.498,2.199c0.895,0,1.83-0.241,2.469-0.907
			c0.014,0.241,0.07,0.482,0.143,0.709h2.043c-0.186-0.298-0.256-0.965-0.256-1.632v-3.816c0-1.76-1.76-2.086-3.221-2.086
			c-1.646,0-3.334,0.567-3.447,2.455H110.518z M113.156,86.974c0,0.44-0.057,1.688-1.631,1.688c-0.652,0-1.234-0.185-1.234-0.937
			c0-0.737,0.566-0.95,1.191-1.078c0.625-0.113,1.334-0.128,1.674-0.426V86.974z M107.49,82.477h-2.086l-1.602,5.022l-1.689-5.022
			h-2.156l2.582,6.881c0.227,0.582,0,1.306-0.695,1.376c-0.396,0.015-0.795-0.042-1.178-0.07v1.66
			c0.412,0.042,0.824,0.07,1.234,0.07c1.391,0,2.086-0.482,2.525-1.66L107.49,82.477z M91.975,89.812h2.016v-3.845
			c0-1.49,0.469-2.1,1.561-2.1c0.936,0,1.291,0.597,1.291,1.803v4.143h2.016V85.3c0-1.816-0.539-3.022-2.682-3.022
			c-0.852,0-1.732,0.397-2.242,1.221l-0.043-1.021h-1.916V89.812z M90.023,82.477H88.01v3.845c0,1.489-0.469,2.1-1.561,2.1
			c-0.938,0-1.291-0.596-1.291-1.802v-4.143h-2.016v4.512c0,1.816,0.539,3.022,2.682,3.022c0.852,0,1.73-0.397,2.242-1.22
			l0.043,1.021h1.914V82.477z M79.118,89.812h2.015v-10.13h-2.015V89.812z M72.425,84.732c0.07-0.795,0.567-1.106,1.334-1.106
			c0.709,0,1.305,0.127,1.305,0.993c0,0.822-1.149,0.78-2.384,0.964c-1.248,0.171-2.497,0.568-2.497,2.228
			c0,1.504,1.107,2.199,2.497,2.199c0.895,0,1.831-0.241,2.469-0.907c0.015,0.241,0.071,0.482,0.143,0.709h2.043
			c-0.185-0.298-0.256-0.965-0.256-1.632v-3.816c0-1.76-1.759-2.086-3.221-2.086c-1.646,0-3.334,0.567-3.447,2.455H72.425z
			 M75.064,86.974c0,0.44-0.057,1.688-1.632,1.688c-0.652,0-1.234-0.185-1.234-0.937c0-0.737,0.567-0.95,1.192-1.078
			c0.624-0.113,1.334-0.128,1.674-0.426V86.974z M67.638,80.277h-2.016v2.199h-1.22v1.348h1.22v4.327
			c0,1.462,1.079,1.745,2.313,1.745c0.398,0,0.837-0.014,1.177-0.07v-1.575c-0.212,0.042-0.411,0.057-0.624,0.057
			c-0.681,0-0.851-0.17-0.851-0.852v-3.632h1.475v-1.348h-1.475V80.277z M58.449,84.732c0.07-0.795,0.567-1.106,1.333-1.106
			c0.71,0,1.306,0.127,1.306,0.993c0,0.822-1.149,0.78-2.384,0.964c-1.248,0.171-2.497,0.568-2.497,2.228
			c0,1.504,1.106,2.199,2.497,2.199c0.894,0,1.83-0.241,2.469-0.907c0.015,0.241,0.071,0.482,0.142,0.709h2.043
			c-0.184-0.298-0.255-0.965-0.255-1.632v-3.816c0-1.76-1.759-2.086-3.221-2.086c-1.646,0-3.334,0.567-3.447,2.455H58.449z
			 M61.087,86.974c0,0.44-0.057,1.688-1.632,1.688c-0.652,0-1.234-0.185-1.234-0.937c0-0.737,0.567-0.95,1.192-1.078
			c0.624-0.113,1.333-0.128,1.674-0.426V86.974z M54.708,83.086c-0.27-2.341-2.143-3.646-4.37-3.646
			c-3.136,0-4.981,2.341-4.981,5.349c0,2.923,1.845,5.264,4.981,5.264c2.483,0,4.227-1.617,4.455-4.143h-2.157
			c-0.17,1.333-0.936,2.27-2.298,2.27c-2.001,0-2.753-1.702-2.753-3.391c0-1.773,0.752-3.477,2.753-3.477
			c1.106,0,2.071,0.767,2.213,1.773H54.708z M34.317,85.356c0.028-0.567,0.398-1.561,1.674-1.561c0.979,0,1.419,0.539,1.604,1.561
			H34.317z M39.609,86.634c0.142-2.256-1.064-4.356-3.561-4.356c-2.228,0-3.745,1.675-3.745,3.874c0,2.27,1.433,3.858,3.745,3.858
			c1.66,0,2.866-0.737,3.434-2.469h-1.773c-0.128,0.454-0.78,0.951-1.589,0.951c-1.121,0-1.745-0.582-1.802-1.858H39.609z
			 M28.777,86.123c0,1.205-0.397,2.369-1.73,2.369c-1.249,0-1.774-1.206-1.774-2.355c0-1.206,0.453-2.341,1.774-2.341
			C28.351,83.796,28.777,84.931,28.777,86.123z M28.805,89.812h1.915v-10.13h-2.015v3.688c-0.483-0.724-1.333-1.093-2.198-1.093
			c-2.157,0-3.25,1.83-3.25,3.803c0,2.029,1.079,3.93,3.292,3.93c0.937,0,1.76-0.34,2.228-1.135L28.805,89.812z M15.036,57.153
			H161.42v42.995H15.036V57.153z"/>
	</g>
</g>
</svg>
