<?xml version="1.0" encoding="utf-8"?>
<!-- Generator: Adobe Illustrator 17.0.0, SVG Export Plug-In . SVG Version: 6.00 Build 0)  -->
<!DOCTYPE svg PUBLIC "-//W3C//DTD SVG 1.1//EN" "http://www.w3.org/Graphics/SVG/1.1/DTD/svg11.dtd">
<svg version="1.1" id="Capa_1" xmlns="http://www.w3.org/2000/svg" xmlns:xlink="http://www.w3.org/1999/xlink" x="0px" y="0px"
	 width="115px" height="55px" viewBox="0 0 115 55" enable-background="new 0 0 115 55" xml:space="preserve">
<g>
	<g>
		<path fill="#FFFFFF" d="M65.734,9.437h-0.917c-0.105,0-0.192-0.028-0.254-0.079c-0.07-0.055-0.115-0.115-0.147-0.194L63.94,7.86
			h-2.652l-0.48,1.304c-0.021,0.068-0.07,0.13-0.139,0.188c-0.068,0.051-0.151,0.085-0.254,0.085H59.49l2.514-6.402h1.218
			L65.734,9.437z M61.594,7.016h2.038L62.853,4.89c-0.034-0.096-0.075-0.207-0.117-0.333c-0.043-0.13-0.083-0.271-0.126-0.421
			c-0.041,0.151-0.081,0.292-0.122,0.421c-0.041,0.128-0.079,0.241-0.113,0.343L61.594,7.016z"/>
		<path fill="#FFFFFF" d="M69.825,4.197c-0.03,0.066-0.07,0.111-0.111,0.137c-0.043,0.028-0.09,0.041-0.152,0.041
			c-0.062,0-0.126-0.026-0.199-0.071c-0.075-0.043-0.16-0.096-0.261-0.151c-0.102-0.058-0.218-0.107-0.354-0.153
			c-0.132-0.045-0.29-0.071-0.474-0.071c-0.166,0-0.31,0.021-0.433,0.062c-0.122,0.04-0.224,0.092-0.309,0.166
			c-0.085,0.071-0.145,0.154-0.188,0.256c-0.041,0.098-0.062,0.205-0.062,0.324c0,0.152,0.043,0.277,0.122,0.376
			c0.088,0.098,0.199,0.186,0.335,0.26c0.143,0.068,0.299,0.134,0.478,0.184c0.177,0.058,0.357,0.12,0.542,0.184
			c0.182,0.06,0.365,0.135,0.542,0.22c0.177,0.081,0.331,0.19,0.474,0.32c0.139,0.126,0.25,0.284,0.331,0.469
			c0.087,0.186,0.126,0.41,0.126,0.676c0,0.292-0.049,0.565-0.149,0.817c-0.098,0.25-0.241,0.469-0.431,0.657
			c-0.19,0.188-0.423,0.335-0.7,0.444c-0.271,0.107-0.585,0.162-0.939,0.162c-0.203,0-0.406-0.021-0.602-0.06
			c-0.199-0.043-0.386-0.096-0.572-0.171c-0.181-0.071-0.35-0.162-0.506-0.263c-0.16-0.104-0.301-0.222-0.424-0.346l0.343-0.572
			c0.036-0.041,0.073-0.077,0.12-0.102c0.043-0.028,0.096-0.047,0.152-0.047c0.071,0,0.154,0.036,0.237,0.094
			c0.087,0.06,0.19,0.128,0.305,0.203c0.117,0.07,0.256,0.141,0.41,0.198c0.16,0.062,0.348,0.092,0.57,0.092
			c0.337,0,0.606-0.083,0.789-0.243c0.188-0.16,0.278-0.39,0.278-0.691c0-0.171-0.043-0.305-0.126-0.414
			c-0.083-0.105-0.194-0.194-0.333-0.267c-0.139-0.07-0.299-0.132-0.474-0.181c-0.179-0.053-0.359-0.105-0.544-0.167
			c-0.181-0.056-0.361-0.128-0.538-0.213c-0.175-0.083-0.335-0.188-0.474-0.322c-0.135-0.134-0.248-0.299-0.331-0.499
			c-0.085-0.198-0.128-0.444-0.128-0.738c0-0.23,0.049-0.459,0.143-0.681c0.088-0.218,0.222-0.416,0.406-0.587
			c0.175-0.169,0.393-0.309,0.657-0.412c0.258-0.103,0.555-0.154,0.888-0.154c0.374,0,0.724,0.058,1.044,0.179
			c0.32,0.119,0.591,0.282,0.817,0.493L69.825,4.197z"/>
		<path fill="#FFFFFF" d="M77.287,6.235c0,0.469-0.081,0.903-0.239,1.302c-0.154,0.401-0.374,0.745-0.655,1.039
			c-0.284,0.29-0.627,0.517-1.024,0.683c-0.397,0.166-0.841,0.246-1.327,0.246c-0.484,0-0.922-0.081-1.323-0.246
			c-0.399-0.166-0.745-0.393-1.028-0.683c-0.284-0.294-0.502-0.638-0.662-1.039c-0.156-0.399-0.233-0.834-0.233-1.302
			c0-0.47,0.077-0.903,0.233-1.306c0.16-0.399,0.378-0.745,0.662-1.039c0.282-0.29,0.629-0.519,1.028-0.681
			c0.401-0.166,0.839-0.246,1.323-0.246c0.486,0,0.93,0.081,1.327,0.248c0.397,0.164,0.74,0.393,1.024,0.683
			c0.28,0.292,0.5,0.636,0.655,1.035C77.206,5.332,77.287,5.765,77.287,6.235z M76.065,6.235c0-0.354-0.051-0.668-0.143-0.947
			c-0.092-0.277-0.224-0.516-0.399-0.711c-0.175-0.194-0.386-0.344-0.634-0.446c-0.252-0.103-0.533-0.154-0.847-0.154
			c-0.309,0-0.595,0.051-0.843,0.154c-0.25,0.102-0.463,0.252-0.638,0.446c-0.175,0.196-0.31,0.435-0.407,0.711
			c-0.096,0.278-0.141,0.593-0.141,0.947c0,0.348,0.045,0.664,0.141,0.939c0.096,0.286,0.232,0.518,0.407,0.713
			c0.175,0.194,0.388,0.342,0.638,0.446c0.248,0.102,0.535,0.154,0.843,0.154c0.314,0,0.595-0.053,0.847-0.154
			c0.248-0.103,0.459-0.252,0.634-0.446c0.175-0.196,0.307-0.427,0.399-0.713C76.015,6.9,76.065,6.584,76.065,6.235z"/>
		<path fill="#FFFFFF" d="M82.626,7.924c0.062,0,0.119,0.03,0.168,0.077l0.468,0.51C83,8.833,82.684,9.079,82.302,9.25
			c-0.378,0.171-0.834,0.256-1.363,0.256c-0.48,0-0.905-0.081-1.282-0.246c-0.38-0.158-0.704-0.386-0.973-0.676
			c-0.269-0.29-0.476-0.631-0.621-1.035c-0.141-0.403-0.213-0.841-0.213-1.314c0-0.48,0.081-0.922,0.241-1.321
			c0.16-0.401,0.382-0.745,0.672-1.037c0.292-0.288,0.634-0.514,1.039-0.676c0.405-0.158,0.847-0.239,1.334-0.239
			c0.476,0,0.892,0.077,1.244,0.226c0.357,0.152,0.664,0.356,0.913,0.608L82.9,4.348c-0.024,0.036-0.058,0.066-0.092,0.092
			c-0.038,0.026-0.09,0.04-0.154,0.04c-0.068,0-0.137-0.026-0.207-0.075c-0.07-0.056-0.162-0.113-0.271-0.175
			c-0.109-0.062-0.246-0.122-0.412-0.173c-0.169-0.055-0.378-0.079-0.634-0.079c-0.303,0-0.58,0.051-0.83,0.158
			c-0.254,0.103-0.47,0.252-0.653,0.446c-0.179,0.196-0.324,0.435-0.423,0.71c-0.103,0.28-0.152,0.595-0.152,0.945
			c0,0.36,0.049,0.679,0.152,0.96c0.1,0.282,0.237,0.516,0.414,0.709c0.175,0.192,0.374,0.339,0.613,0.441
			c0.239,0.103,0.487,0.152,0.762,0.152c0.162,0,0.309-0.009,0.44-0.03c0.13-0.015,0.25-0.043,0.363-0.083
			c0.107-0.038,0.216-0.088,0.314-0.147c0.102-0.06,0.196-0.135,0.293-0.226c0.03-0.024,0.058-0.047,0.092-0.062
			C82.552,7.933,82.584,7.924,82.626,7.924z"/>
		<path fill="#FFFFFF" d="M85.501,9.437h-1.197V3.034h1.197V9.437z"/>
		<path fill="#FFFFFF" d="M92.566,9.437h-0.922c-0.103,0-0.186-0.028-0.25-0.079c-0.07-0.055-0.119-0.115-0.149-0.194L90.769,7.86
			h-2.652l-0.48,1.304c-0.023,0.068-0.066,0.13-0.139,0.188c-0.07,0.051-0.151,0.085-0.252,0.085h-0.924l2.512-6.402h1.218
			L92.566,9.437z M88.424,7.016h2.038L89.685,4.89c-0.038-0.096-0.075-0.207-0.117-0.333c-0.045-0.13-0.087-0.271-0.128-0.421
			c-0.04,0.151-0.081,0.292-0.12,0.421c-0.038,0.128-0.079,0.241-0.117,0.343L88.424,7.016z"/>
		<path fill="#FFFFFF" d="M97.399,7.924c0.066,0,0.122,0.03,0.167,0.077l0.47,0.51c-0.258,0.322-0.578,0.568-0.958,0.74
			c-0.382,0.171-0.834,0.256-1.364,0.256c-0.478,0-0.903-0.081-1.282-0.246c-0.38-0.158-0.704-0.386-0.973-0.676
			c-0.271-0.29-0.472-0.631-0.617-1.035C92.7,7.146,92.63,6.708,92.63,6.235c0-0.48,0.079-0.922,0.239-1.321
			c0.156-0.401,0.384-0.745,0.67-1.037c0.29-0.288,0.638-0.514,1.037-0.676c0.405-0.158,0.849-0.239,1.334-0.239
			c0.478,0,0.894,0.077,1.25,0.226c0.354,0.152,0.661,0.356,0.915,0.608l-0.399,0.551c-0.024,0.036-0.053,0.066-0.088,0.092
			c-0.043,0.026-0.088,0.04-0.156,0.04c-0.068,0-0.137-0.026-0.207-0.075c-0.071-0.056-0.16-0.113-0.271-0.175
			c-0.109-0.062-0.246-0.122-0.414-0.173c-0.166-0.055-0.38-0.079-0.632-0.079c-0.303,0-0.581,0.051-0.832,0.158
			c-0.256,0.103-0.47,0.252-0.651,0.446C94.243,4.777,94.1,5.016,94,5.291c-0.102,0.28-0.152,0.595-0.152,0.945
			c0,0.36,0.051,0.679,0.152,0.96c0.1,0.282,0.239,0.516,0.412,0.709c0.177,0.192,0.376,0.339,0.613,0.441
			c0.237,0.103,0.493,0.152,0.764,0.152c0.162,0,0.31-0.009,0.44-0.03c0.132-0.015,0.252-0.043,0.363-0.083
			c0.109-0.038,0.214-0.088,0.314-0.147c0.096-0.06,0.198-0.135,0.293-0.226c0.03-0.024,0.06-0.047,0.092-0.062
			C97.325,7.933,97.361,7.924,97.399,7.924z"/>
		<path fill="#FFFFFF" d="M100.276,9.437h-1.191V3.034h1.191V9.437z"/>
		<path fill="#FFFFFF" d="M107.856,6.235c0,0.469-0.079,0.903-0.235,1.302c-0.156,0.401-0.374,0.745-0.657,1.039
			c-0.286,0.29-0.627,0.517-1.028,0.683c-0.395,0.166-0.839,0.246-1.321,0.246c-0.486,0-0.926-0.081-1.325-0.246
			c-0.399-0.166-0.742-0.393-1.031-0.683c-0.282-0.294-0.504-0.638-0.659-1.039c-0.154-0.399-0.233-0.834-0.233-1.302
			c0-0.47,0.079-0.903,0.233-1.306c0.154-0.399,0.376-0.745,0.659-1.039c0.29-0.29,0.632-0.519,1.031-0.681
			c0.399-0.166,0.839-0.246,1.325-0.246c0.482,0,0.926,0.081,1.321,0.248c0.401,0.164,0.742,0.393,1.028,0.683
			c0.282,0.292,0.501,0.636,0.657,1.035C107.777,5.332,107.856,5.765,107.856,6.235z M106.633,6.235
			c0-0.354-0.045-0.668-0.137-0.947c-0.094-0.277-0.228-0.516-0.401-0.711c-0.175-0.194-0.386-0.344-0.638-0.446
			c-0.25-0.103-0.527-0.154-0.841-0.154c-0.314,0-0.595,0.051-0.847,0.154c-0.248,0.102-0.463,0.252-0.64,0.446
			c-0.175,0.196-0.31,0.435-0.405,0.711c-0.092,0.278-0.141,0.593-0.141,0.947c0,0.348,0.049,0.664,0.141,0.939
			c0.094,0.286,0.23,0.518,0.405,0.713c0.177,0.194,0.391,0.342,0.64,0.446c0.252,0.102,0.533,0.154,0.847,0.154
			c0.314,0,0.591-0.053,0.841-0.154c0.252-0.103,0.463-0.252,0.638-0.446c0.173-0.196,0.307-0.427,0.401-0.713
			C106.588,6.9,106.633,6.584,106.633,6.235z M106.321,1.506l-1.306,0.954c-0.032,0.026-0.064,0.043-0.094,0.058
			c-0.024,0.017-0.053,0.032-0.083,0.038c-0.026,0.009-0.056,0.013-0.085,0.017c-0.036,0.006-0.07,0.006-0.111,0.006h-0.86
			l0.868-0.896c0.036-0.038,0.068-0.064,0.103-0.088c0.028-0.023,0.06-0.041,0.098-0.055c0.028-0.013,0.064-0.024,0.104-0.028
			c0.043-0.006,0.092-0.006,0.152-0.006H106.321z"/>
		<path fill="#FFFFFF" d="M109.548,3.042c0.036,0.002,0.064,0.011,0.092,0.024c0.032,0.015,0.056,0.032,0.085,0.056
			c0.024,0.026,0.053,0.06,0.088,0.1l3.367,4.283c-0.011-0.103-0.019-0.205-0.021-0.307c-0.006-0.096-0.008-0.186-0.008-0.275v-3.89
			h1.043v6.402h-0.614c-0.094,0-0.173-0.015-0.233-0.047c-0.06-0.028-0.12-0.081-0.179-0.16l-3.355-4.262
			c0.009,0.094,0.015,0.19,0.023,0.282c0.002,0.09,0.004,0.177,0.004,0.256v3.931h-1.048V3.034h0.625
			C109.469,3.034,109.512,3.034,109.548,3.042z"/>
		<path fill="#FFFFFF" d="M64.147,12.44v0.948h-2.836v1.775h2.232v0.917h-2.232v1.809h2.836v0.954h-4.037V12.44H64.147z"/>
		<path fill="#FFFFFF" d="M68.611,13.603c-0.036,0.066-0.071,0.113-0.117,0.137c-0.043,0.028-0.09,0.041-0.151,0.041
			c-0.058,0-0.126-0.023-0.199-0.068c-0.075-0.049-0.16-0.098-0.263-0.154c-0.096-0.056-0.215-0.105-0.35-0.152
			c-0.135-0.047-0.293-0.07-0.476-0.07c-0.166,0-0.311,0.021-0.431,0.06c-0.124,0.041-0.228,0.094-0.31,0.167
			c-0.083,0.071-0.145,0.156-0.19,0.252c-0.038,0.102-0.058,0.209-0.058,0.325c0,0.151,0.041,0.279,0.122,0.378
			c0.085,0.096,0.198,0.183,0.337,0.256c0.137,0.07,0.297,0.134,0.474,0.19c0.179,0.056,0.356,0.117,0.542,0.181
			c0.182,0.06,0.363,0.135,0.542,0.222c0.177,0.081,0.333,0.188,0.472,0.318c0.139,0.128,0.252,0.282,0.335,0.467
			c0.083,0.188,0.124,0.412,0.124,0.679c0,0.292-0.045,0.561-0.145,0.815c-0.102,0.25-0.247,0.472-0.433,0.659
			c-0.194,0.188-0.424,0.335-0.7,0.442c-0.275,0.109-0.589,0.162-0.941,0.162c-0.205,0-0.408-0.021-0.602-0.058
			c-0.199-0.045-0.39-0.098-0.572-0.173c-0.179-0.07-0.35-0.162-0.506-0.263c-0.16-0.107-0.297-0.22-0.421-0.346l0.342-0.57
			c0.034-0.041,0.071-0.077,0.119-0.105c0.047-0.024,0.096-0.04,0.149-0.04c0.075,0,0.158,0.03,0.245,0.088
			c0.083,0.064,0.186,0.126,0.301,0.203c0.117,0.075,0.254,0.139,0.412,0.201c0.154,0.06,0.346,0.088,0.57,0.088
			c0.339,0,0.602-0.079,0.785-0.243c0.186-0.158,0.282-0.389,0.282-0.691c0-0.169-0.047-0.303-0.128-0.414
			c-0.085-0.103-0.198-0.194-0.333-0.267c-0.139-0.07-0.301-0.132-0.474-0.182c-0.177-0.047-0.357-0.103-0.538-0.164
			c-0.182-0.058-0.365-0.13-0.542-0.211c-0.177-0.083-0.331-0.19-0.474-0.322c-0.137-0.134-0.25-0.299-0.335-0.502
			c-0.083-0.198-0.124-0.444-0.124-0.734c0-0.235,0.045-0.465,0.139-0.681c0.092-0.222,0.23-0.42,0.406-0.589
			c0.181-0.175,0.399-0.309,0.655-0.412c0.262-0.103,0.561-0.156,0.894-0.156c0.378,0,0.721,0.062,1.044,0.179
			c0.316,0.119,0.587,0.284,0.813,0.495L68.611,13.603z"/>
		<path fill="#FFFFFF" d="M71.159,16.588v2.254h-1.193V12.44h2.085c0.431,0,0.802,0.051,1.114,0.151
			c0.312,0.102,0.568,0.241,0.772,0.42c0.205,0.181,0.354,0.397,0.452,0.647c0.098,0.252,0.149,0.523,0.149,0.824
			c0,0.305-0.051,0.591-0.154,0.851c-0.105,0.258-0.262,0.478-0.469,0.668c-0.207,0.182-0.463,0.329-0.772,0.433
			c-0.312,0.103-0.674,0.154-1.091,0.154H71.159z M71.159,15.66h0.892c0.22,0,0.412-0.03,0.574-0.083
			c0.16-0.056,0.295-0.132,0.401-0.235c0.109-0.103,0.188-0.228,0.239-0.374c0.053-0.145,0.081-0.305,0.081-0.489
			c0-0.171-0.028-0.326-0.081-0.467c-0.051-0.139-0.13-0.258-0.239-0.354c-0.105-0.096-0.241-0.171-0.401-0.224
			c-0.162-0.051-0.354-0.079-0.574-0.079h-0.892V15.66z"/>
		<path fill="#FFFFFF" d="M80.403,18.842h-0.922c-0.105,0-0.188-0.028-0.254-0.077c-0.066-0.051-0.117-0.115-0.143-0.196
			l-0.482-1.304h-2.648l-0.48,1.304c-0.021,0.07-0.07,0.132-0.137,0.188c-0.071,0.056-0.156,0.085-0.256,0.085h-0.926l2.518-6.402
			h1.216L80.403,18.842z M76.259,16.424h2.042l-0.781-2.13c-0.036-0.098-0.073-0.205-0.117-0.331
			c-0.045-0.13-0.085-0.269-0.128-0.42c-0.041,0.151-0.079,0.29-0.12,0.42c-0.04,0.128-0.079,0.245-0.117,0.342L76.259,16.424z"/>
		<path fill="#FFFFFF" d="M81.813,12.448c0.038,0.004,0.068,0.011,0.096,0.026c0.026,0.011,0.056,0.032,0.079,0.06
			c0.03,0.024,0.058,0.056,0.09,0.094l3.369,4.283c-0.011-0.105-0.019-0.205-0.026-0.301c-0.002-0.102-0.004-0.194-0.004-0.28v-3.89
			h1.046v6.402h-0.614c-0.094,0-0.173-0.013-0.233-0.047c-0.062-0.028-0.124-0.081-0.181-0.156l-3.357-4.266
			c0.008,0.094,0.017,0.19,0.019,0.282c0.008,0.092,0.011,0.177,0.011,0.256v3.931h-1.046V12.44h0.623
			C81.738,12.44,81.779,12.442,81.813,12.448z M84.376,11.322c0.079,0,0.145-0.023,0.194-0.07c0.051-0.047,0.073-0.115,0.075-0.211
			h0.598c0,0.147-0.023,0.28-0.062,0.404c-0.036,0.12-0.092,0.224-0.162,0.307c-0.07,0.085-0.158,0.154-0.262,0.203
			c-0.105,0.045-0.222,0.073-0.356,0.073c-0.105,0-0.209-0.017-0.305-0.051c-0.1-0.032-0.196-0.068-0.284-0.107
			c-0.09-0.036-0.177-0.073-0.254-0.103c-0.077-0.034-0.149-0.051-0.207-0.051c-0.081,0-0.149,0.024-0.194,0.075
			c-0.045,0.045-0.073,0.119-0.073,0.213h-0.602c0-0.145,0.017-0.277,0.055-0.401c0.041-0.12,0.096-0.228,0.169-0.314
			c0.073-0.088,0.166-0.158,0.271-0.207c0.098-0.049,0.214-0.073,0.342-0.073c0.109,0,0.214,0.015,0.314,0.051
			c0.1,0.032,0.194,0.066,0.284,0.105c0.088,0.038,0.175,0.075,0.25,0.105C84.246,11.307,84.314,11.322,84.376,11.322z"/>
		<path fill="#FFFFFF" d="M93.895,15.641c0,0.47-0.077,0.903-0.231,1.304c-0.16,0.397-0.38,0.745-0.663,1.039
			c-0.284,0.292-0.627,0.521-1.024,0.681c-0.397,0.164-0.838,0.247-1.321,0.247c-0.485,0-0.93-0.083-1.329-0.247
			c-0.397-0.16-0.743-0.389-1.026-0.681c-0.286-0.293-0.506-0.642-0.664-1.039c-0.154-0.401-0.231-0.834-0.231-1.304
			c0-0.471,0.077-0.907,0.231-1.304c0.158-0.401,0.378-0.747,0.664-1.037c0.282-0.295,0.628-0.523,1.026-0.687
			c0.399-0.162,0.843-0.245,1.329-0.245c0.484,0,0.924,0.085,1.321,0.249c0.397,0.167,0.74,0.393,1.024,0.687
			c0.282,0.286,0.503,0.632,0.663,1.033C93.818,14.734,93.895,15.171,93.895,15.641z M92.673,15.641c0-0.35-0.047-0.666-0.139-0.947
			c-0.096-0.277-0.228-0.514-0.399-0.71c-0.177-0.194-0.388-0.344-0.634-0.448c-0.254-0.103-0.534-0.154-0.845-0.154
			c-0.316,0-0.598,0.051-0.847,0.154c-0.252,0.103-0.467,0.254-0.64,0.448c-0.177,0.196-0.31,0.433-0.406,0.71
			c-0.094,0.28-0.141,0.596-0.141,0.947c0,0.35,0.047,0.664,0.141,0.945c0.096,0.28,0.23,0.514,0.406,0.706
			c0.173,0.198,0.388,0.346,0.64,0.448c0.248,0.102,0.531,0.154,0.847,0.154c0.311,0,0.591-0.053,0.845-0.154
			c0.246-0.102,0.457-0.25,0.634-0.448c0.171-0.192,0.303-0.425,0.399-0.706C92.626,16.305,92.673,15.991,92.673,15.641z"/>
		<path fill="#FFFFFF" d="M96.023,17.858h2.563v0.984h-3.753V12.44h1.189V17.858z"/>
		<path fill="#FFFFFF" d="M105.035,18.842h-0.922c-0.1,0-0.184-0.028-0.25-0.077c-0.07-0.051-0.117-0.115-0.149-0.196l-0.476-1.304
			h-2.65l-0.478,1.304c-0.024,0.07-0.073,0.132-0.139,0.188c-0.071,0.056-0.154,0.085-0.256,0.085h-0.922l2.51-6.402h1.218
			L105.035,18.842z M100.893,16.424h2.04l-0.779-2.13c-0.038-0.098-0.077-0.205-0.117-0.331c-0.045-0.13-0.087-0.269-0.124-0.42
			c-0.045,0.151-0.085,0.29-0.124,0.42c-0.041,0.128-0.077,0.245-0.117,0.342L100.893,16.424z"/>
		<path fill="#FFFFFF" d="M65.798,25.047c0,0.471-0.081,0.9-0.239,1.295c-0.154,0.391-0.374,0.728-0.659,1.011
			c-0.284,0.284-0.627,0.503-1.024,0.663c-0.397,0.154-0.839,0.235-1.323,0.235h-2.443v-6.404h2.443
			c0.484,0,0.926,0.081,1.323,0.239c0.397,0.156,0.74,0.375,1.024,0.659c0.284,0.28,0.504,0.621,0.659,1.011
			C65.717,24.146,65.798,24.576,65.798,25.047z M64.578,25.047c0-0.35-0.049-0.666-0.143-0.945
			c-0.092-0.278-0.228-0.514-0.405-0.708c-0.171-0.192-0.386-0.342-0.636-0.446c-0.248-0.1-0.529-0.154-0.841-0.154h-1.242V27.3
			h1.242c0.312,0,0.593-0.049,0.841-0.152c0.25-0.103,0.465-0.252,0.636-0.446c0.177-0.194,0.312-0.429,0.405-0.709
			C64.529,25.711,64.578,25.397,64.578,25.047z"/>
		<path fill="#FFFFFF" d="M70.766,21.846v0.949h-2.838v1.775h2.236v0.915h-2.236v1.814h2.838v0.952h-4.04v-6.404H70.766z"/>
		<path fill="#FFFFFF" d="M79.24,25.023c0,0.463-0.077,0.896-0.241,1.289c-0.16,0.395-0.388,0.734-0.678,1.02
			c-0.293,0.292-0.645,0.516-1.058,0.678c-0.41,0.158-0.869,0.241-1.37,0.241h-2.503v-6.451h2.503c0.5,0,0.96,0.079,1.37,0.246
			c0.412,0.158,0.764,0.384,1.058,0.668c0.29,0.286,0.518,0.627,0.678,1.022C79.163,24.127,79.24,24.558,79.24,25.023z
			 M77.712,25.023c0-0.322-0.04-0.606-0.126-0.864c-0.085-0.26-0.201-0.474-0.356-0.655c-0.154-0.177-0.346-0.314-0.57-0.41
			c-0.22-0.098-0.482-0.145-0.766-0.145h-1.001v4.148h1.001c0.284,0,0.546-0.049,0.766-0.145c0.224-0.096,0.416-0.23,0.57-0.41
			c0.154-0.179,0.271-0.395,0.356-0.651C77.673,25.632,77.712,25.342,77.712,25.023z"/>
		<path fill="#FFFFFF" d="M81.455,25.862v2.388h-1.496v-6.451h2.096c0.467,0,0.864,0.047,1.195,0.143
			c0.329,0.094,0.596,0.231,0.805,0.401c0.207,0.171,0.36,0.373,0.454,0.606c0.096,0.231,0.141,0.491,0.141,0.762
			c0,0.209-0.028,0.408-0.085,0.593c-0.056,0.186-0.139,0.359-0.25,0.514c-0.111,0.16-0.248,0.301-0.405,0.423
			c-0.162,0.122-0.35,0.226-0.555,0.307c0.098,0.051,0.192,0.113,0.279,0.186c0.088,0.073,0.164,0.166,0.23,0.269l1.372,2.247
			h-1.355c-0.248,0-0.433-0.094-0.538-0.286l-1.073-1.871c-0.049-0.083-0.102-0.141-0.166-0.177
			c-0.064-0.038-0.152-0.055-0.271-0.055H81.455z M81.455,24.829h0.6c0.207,0,0.377-0.023,0.52-0.075
			c0.143-0.053,0.263-0.126,0.354-0.216c0.092-0.09,0.156-0.198,0.199-0.32c0.043-0.12,0.06-0.254,0.06-0.397
			c0-0.282-0.092-0.504-0.275-0.662c-0.184-0.16-0.471-0.239-0.858-0.239h-0.6V24.829z"/>
		<path fill="#FFFFFF" d="M88.264,27.066c0.199,0,0.378-0.032,0.538-0.1c0.156-0.066,0.292-0.164,0.401-0.282
			c0.109-0.128,0.194-0.279,0.25-0.457c0.055-0.179,0.087-0.378,0.087-0.608v-3.82h1.496v3.82c0,0.397-0.064,0.758-0.196,1.088
			c-0.128,0.333-0.31,0.615-0.551,0.854c-0.237,0.239-0.529,0.427-0.871,0.559c-0.341,0.132-0.725,0.198-1.154,0.198
			c-0.435,0-0.815-0.066-1.159-0.198c-0.343-0.132-0.636-0.32-0.875-0.559c-0.237-0.239-0.422-0.521-0.548-0.854
			c-0.128-0.329-0.19-0.691-0.19-1.088v-3.82h1.498v3.813c0,0.23,0.026,0.433,0.087,0.612c0.056,0.177,0.139,0.331,0.248,0.454
			c0.109,0.126,0.241,0.224,0.401,0.29C87.882,27.034,88.064,27.066,88.264,27.066z"/>
		<path fill="#FFFFFF" d="M93.505,26.093v2.157h-1.494v-6.451h2.271c0.457,0,0.847,0.053,1.17,0.162
			c0.325,0.109,0.597,0.254,0.807,0.442c0.213,0.19,0.367,0.414,0.471,0.67c0.1,0.256,0.147,0.536,0.147,0.834
			c0,0.32-0.053,0.613-0.154,0.884c-0.105,0.267-0.26,0.499-0.471,0.691c-0.216,0.192-0.485,0.341-0.809,0.448
			c-0.327,0.107-0.713,0.164-1.161,0.164H93.505z M93.505,24.96h0.777c0.389,0,0.67-0.092,0.843-0.277
			c0.169-0.186,0.256-0.444,0.256-0.777c0-0.151-0.021-0.282-0.07-0.407c-0.041-0.119-0.109-0.22-0.198-0.31
			c-0.088-0.085-0.203-0.156-0.341-0.201c-0.139-0.045-0.299-0.07-0.491-0.07h-0.777V24.96z"/>
		<path fill="#FFFFFF" d="M102.907,28.25h-1.163c-0.128,0-0.235-0.034-0.316-0.092c-0.087-0.06-0.145-0.139-0.177-0.233
			l-0.382-1.123h-2.452l-0.38,1.123c-0.026,0.085-0.083,0.156-0.173,0.224c-0.085,0.066-0.188,0.102-0.314,0.102h-1.165l2.495-6.451
			h1.532L102.907,28.25z M98.763,25.781h1.759l-0.591-1.763c-0.038-0.115-0.085-0.243-0.135-0.397
			c-0.051-0.152-0.102-0.318-0.154-0.495c-0.047,0.181-0.092,0.346-0.143,0.5c-0.051,0.152-0.1,0.29-0.143,0.399L98.763,25.781z"/>
		<path fill="#FFFFFF" d="M104.923,27.053h2.39v1.197h-3.884v-6.451h1.494V27.053z"/>
	</g>
	<g>
		<g>
			<g>
				<path fill="#FFFFFF" d="M53.176,53.992H1.585V2.404h51.59V53.992z M3.633,51.947h47.499V4.448H3.633V51.947z"/>
			</g>
		</g>
		<g>
			<path fill="#FFFFFF" d="M36.19,27.162l-0.905,6.878c0,0,3.399,0.6,3.606-2.546C39.13,27.939,36.19,27.162,36.19,27.162z"/>
			<path fill="#FFFFFF" d="M32.622,11.273c-0.03-0.056-0.092-0.09-0.162-0.085c-0.066,0.004-0.124,0.047-0.145,0.111
				c-0.23,0.611-0.99,2.228-1.737,2.14c-0.299-0.032-0.696-0.293-1.156-0.593c-0.787-0.514-1.769-1.155-2.964-1.155
				c-0.186,0-0.375,0.013-0.559,0.045c-1.814,0.314-2.941,2.708-2.988,2.806c-0.019,0.045-0.023,0.096-0.004,0.137
				c0.019,0.041,0.053,0.077,0.094,0.098l1.857,0.73c0.021,0.006,0.045,0.009,0.066,0.009c0.023,0,0.047-0.006,0.07-0.015
				c0.043-0.023,0.077-0.056,0.092-0.098c0.004-0.019,0.58-1.645,1.803-1.532c0.423,0.04,0.933,0.322,1.477,0.619
				c0.681,0.38,1.458,0.811,2.23,0.811c0.514,0,0.967-0.184,1.383-0.561C33.676,13.208,32.633,11.294,32.622,11.273z"/>
			<path fill="#FFFFFF" d="M42.306,25.92c-1.762-3.467-5.732-4.543-9.323-4.462c0,0-0.325,2.238-0.427,3.017
				c-0.162,1.202-0.333,2.401-0.491,3.602c-0.32,2.439-0.711,4.916-1.434,7.272c-0.6,1.942-2.943,2.785-4.451,1.174
				c-0.653-0.702-0.894-1.633-1.135-2.557c0,0-0.452-2.078-0.294-3.064c2.902-0.986,5.806-3.207,6.632-6.28
				c0.576-2.117,0.602-5.269-1.289-6.684c-2.712-2.025-4.791,0.416-5.817,2.61c-0.804,1.722-1.319,3.566-1.718,5.42
				c-0.205,0.958-0.262,1.92-0.359,2.893c-0.008,0.041-0.038,0.783-0.038,0.783c-0.343,0.07-1.118,0.284-1.118,0.284
				c-0.25-2.386-0.879-6.212-3.517-7.11c-2.65-0.907-5.484,0.881-6.905,3.058c-0.316,0.486-0.9,1.105-0.199,1.389
				c0.448,0.183,1.712,0.967,2.172,0.819c0.316-0.1,0.804-1.498,1.022-1.82c0.429-0.63,0.943-1.233,1.583-1.662
				c1.423-0.932,2.33-0.073,2.763,1.334c0.216,0.725,0.32,1.481,0.376,2.232c0.024,0.327,0.09,2.539,0.09,2.539
				s-1.935,1.107-2.558,1.551c-0.924,0.657-1.803,1.417-2.463,2.347c-1.236,1.743-0.905,3.534,0.917,4.677
				c1.615,1.014,4.255,1.396,5.647-0.22c0.689-0.811,0.845-1.97,1.003-2.983c0.224-1.423,0.154-2.834,0.23-4.264
				c0.303-0.1,0.602-0.201,0.901-0.299c0.147,2.622,0.999,5.74,3.267,7.319c1.961,1.368,4.644,1.394,6.331-0.431
				c1.494-1.611,1.854-3.993,2.115-6.086c0.361-2.889,0.766-5.77,1.163-8.653c3.83,0.015,5.832,3.611,5.994,7.046
				c0.085,1.822-0.256,3.651-1.587,4.987c-1.216,1.227-2.951,1.826-4.66,1.82c-0.12-0.002-0.241-0.004-0.357-0.011
				c-0.591-0.032-0.512,0.239-0.619,0.783c-0.04,0.213-0.31,1.824-0.31,1.824c0.169,0.06,0.525,0.066,0.933,0.04
				c0.642-0.038,1.409-0.147,1.767-0.209c1.895-0.305,3.77-1.091,5.158-2.441C44.305,34.581,44.086,29.426,42.306,25.92z
				 M17.715,37.693c-0.359,0.676-1.424,1.11-1.946,0.36c-0.48-0.691-0.107-1.767,0.235-2.435c0.504-0.986,1.487-1.844,2.433-2.407
				C18.538,34.63,18.267,36.412,17.715,37.693z M28.243,20.487c2.821,0.766-0.194,7.36-3.611,8.373
				C24.631,28.86,25.062,19.623,28.243,20.487z"/>
		</g>
	</g>
</g>
</svg>
