<?xml version="1.0" encoding="utf-8"?>
<!DOCTYPE svg PUBLIC "-//W3C//DTD SVG 1.1//EN" "http://www.w3.org/Graphics/SVG/1.1/DTD/svg11.dtd">
<svg version="1.1" id="Capa_1" xmlns="http://www.w3.org/2000/svg" xmlns:xlink="http://www.w3.org/1999/xlink" x="0px" y="0px"
	 width="371.957px" height="101.324px" viewBox="0 0 371.957 101.324" enable-background="new 0 0 371.957 101.324"
	 xml:space="preserve">
<g>
	<g>
		<g>
			<path fill="#010202" d="M117.904,92.61c-4.904,5.259-11.722,7.886-20.458,7.886c-8.375,0-15.124-2.911-20.238-8.736v7.777h-7.033
				V27.203h7.033v26.206c4.827-5.61,11.613-8.416,20.347-8.416c8.734,0,15.553,2.701,20.454,8.096
				c4.543,5.046,6.82,11.686,6.82,19.922C124.829,81.179,122.52,87.715,117.904,92.61z M113,57.672
				c-3.547-4.115-8.557-6.179-15.02-6.179c-6.963,0-12.165,1.935-15.608,5.807c-3.445,3.87-5.164,9.179-5.164,15.929
				c0,6.033,1.899,11.005,5.698,14.911c3.797,3.906,8.861,5.859,15.182,5.859c6.392,0,11.326-2.025,14.809-6.074
				c3.335-3.761,5.007-8.768,5.007-15.023C117.904,66.514,116.269,61.439,113,57.672z"/>
		</g>
		<g>
			<path fill="#010202" d="M171.381,99.537v-5.646c-4.474,4.477-10.582,6.709-18.322,6.709c-6.887,0-12.355-1.63-16.406-4.898
				c-4.264-3.48-6.393-8.379-6.393-14.701V47.443h7.032v33.45c0,8.88,5.256,13.318,15.768,13.318c6.105,0,10.722-1.74,13.849-5.219
				c2.98-3.197,4.474-7.674,4.474-13.429V47.443h7.033v52.094H171.381z"/>
		</g>
		<g>
			<path fill="#010202" d="M233.917,92.61c-4.899,5.259-11.717,7.886-20.453,7.886c-8.382,0-15.129-2.911-20.24-8.736v7.777h-7.037
				V27.203h7.037v26.206c4.824-5.61,11.611-8.416,20.345-8.416c8.735,0,15.554,2.701,20.456,8.096
				c4.543,5.046,6.816,11.686,6.816,19.922C240.84,81.179,238.535,87.715,233.917,92.61z M229.017,57.672
				c-3.554-4.115-8.559-6.179-15.023-6.179c-6.961,0-12.16,1.935-15.605,5.807c-3.445,3.87-5.166,9.179-5.166,15.929
				c0,6.033,1.896,11.005,5.695,14.911c3.802,3.906,8.861,5.859,15.186,5.859c6.389,0,11.326-2.025,14.805-6.074
				c3.338-3.761,5.008-8.768,5.008-15.023C233.917,66.514,232.283,61.439,229.017,57.672z"/>
		</g>
		<g>
			<path fill="#010202" d="M293.975,99.537v-7.563c-4.971,5.755-11.93,8.627-20.879,8.627c-8.456,0-15.163-2.625-20.134-7.882
				c-4.546-4.972-6.819-11.361-6.819-19.176c0-7.95,2.309-14.415,6.924-19.389c4.971-5.324,11.789-7.99,20.456-7.99
				c8.736,0,15.552,2.773,20.452,8.312v-8.097h7.029v53.158H293.975z M288.598,58.202c-3.591-3.763-8.791-5.646-15.611-5.646
				c-6.32,0-11.291,2.063-14.913,6.18c-3.335,3.834-5.007,8.773-5.007,14.807c0,6.112,1.672,11.014,5.007,14.703
				c3.554,3.976,8.524,5.966,14.913,5.966c6.324,0,11.404-1.973,15.238-5.915c3.834-3.942,5.75-8.856,5.75-14.754
				C293.975,67.081,292.184,61.968,288.598,58.202z"/>
		</g>
		<g>
			<path fill="#010202" d="M309.315,99.431V27.203h7.031v72.228H309.315z"/>
		</g>
		<g>
			<path fill="#010202" d="M364.92,99.537v-5.75c-4.473,4.544-10.581,6.813-18.322,6.813c-6.891,0-12.353-1.664-16.404-5.005
				c-4.259-3.55-6.391-8.556-6.391-15.021V46.164h7.031V80.47c0,9.091,5.258,13.632,15.764,13.632c6.109,0,10.725-1.774,13.85-5.323
				c2.988-3.268,4.473-7.885,4.473-13.85V46.164h7.036v53.373H364.92z M350.497,45.632c-0.783,0.784-1.67,1.171-2.665,1.171
				c-0.927,0-1.757-0.334-2.503-1.008c-0.747-0.678-1.117-1.438-1.117-2.293c0-0.781,0.354-1.526,1.064-2.236l12.04-12.25
				c0.775-0.852,1.666-1.28,2.662-1.28c0.992,0,1.865,0.338,2.611,1.013c0.744,0.676,1.119,1.436,1.119,2.288
				c0,0.854-0.394,1.634-1.172,2.345L350.497,45.632z"/>
		</g>
	</g>
	<g>
		<path fill="#8EC044" d="M30.127,101.323c25.781-0.106,31.826-10.096,28.332-43.547c-2.733-26.071,2.996-32.064-28.512-33.414
			C-3.83,22.919,0.718,40.984,0.718,62.738C0.718,84.465-7.281,101.473,30.127,101.323z M12.871,62.385
			c0-11.75,0.556-24.82,17.256-21.276c13.173,2.793,19.611,7.356,17.255,21.276c-1.975,11.686,0.542,21.458-17.255,21.261
			C10.881,83.444,12.871,74.131,12.871,62.385z"/>
	</g>
</g>
</svg>
