<?xml version="1.0" encoding="utf-8"?>
<!-- Generator: Adobe Illustrator 16.0.4, SVG Export Plug-In . SVG Version: 6.00 Build 0)  -->
<!DOCTYPE svg PUBLIC "-//W3C//DTD SVG 1.1//EN" "http://www.w3.org/Graphics/SVG/1.1/DTD/svg11.dtd">
<svg version="1.1" id="Capa_1" xmlns="http://www.w3.org/2000/svg" xmlns:xlink="http://www.w3.org/1999/xlink" x="0px" y="0px"
	 width="500px" height="500px" viewBox="0 0 500 500" enable-background="new 0 0 500 500" xml:space="preserve">
<g>
	<path fill="#512C15" d="M249.993,313.222c-37.574,0-65.9-11.768-84.917-39.727c-27.622-40.602-18.9-96.232,6.572-131.917
		c22.508-31.486,63.96-61.971,78.345-115.524h0.013c14.386,53.553,55.851,84.038,78.346,115.524
		c25.473,35.686,34.194,91.316,6.57,131.917C315.884,301.454,287.564,313.222,249.993,313.222z"/>
	<path fill="#FFFFFF" d="M321.411,233.501c-1.961,10.987-7.509,14.486-16.417,14.486c-14.066,0-19.855-6.281-19.855-18.118
		c0-3.152,0.309-6.123,1.046-9.968l5.905-34.163c0.184-1.064,0.35-3.128,0.35-3.849c0-4.884-2.781-7.497-8.511-7.497
		c-5.254,0-9.948,1.565-14.857,4.89l-8.164,47.091l9.597,1.739c-0.348,5.753-1.433,11.683-3.169,18.132h-33.493l10.647-60.858
		c0.166-1.061,0.343-2.97,0.343-3.67c0-4.71-2.605-7.324-8.337-7.324c-4.91,0-10.306,1.565-15.208,4.89l-8.164,47.091l9.595,1.739
		c0,3.321-1.256,12.033-3.168,18.132h-42.175c0-3.299,1.215-12.032,3.122-18.132l9.076-1.739l8.871-50.762l-10.777-1.038
		c0-3.5,1.397-12.031,3.129-17.791c10.292-1.758,23.715-2.455,34.878-2.455l-1.738,9.776h1.22
		c8.558-8.364,15.164-10.64,23.539-10.64c9.083,0,14.998,2.801,17.953,10.287c9.947-8.011,17.63-10.287,27.534-10.287
		c12.768,0,22.671,6.122,22.671,22.147c0,2.287-0.349,5.063-0.693,7.318l-6.601,37.515c-0.168,1.042-0.351,2.258-0.351,3.132
		c0,2.109,1.225,3.141,3.652,3.141h9.77L321.411,233.501z"/>
</g>
<g>
	<path fill="#512C15" d="M107.501,418.104c-1.289,7.211-4.935,9.508-10.777,9.508c-9.238,0-13.031-4.121-13.031-11.893
		c0-2.064,0.194-4.016,0.685-6.539l3.874-22.428c0.114-0.701,0.231-2.057,0.231-2.525c0-3.205-1.829-4.918-5.593-4.918
		c-3.446,0-6.528,1.023-9.75,3.211l-5.356,30.906l6.295,1.141c-0.222,3.777-0.938,7.672-2.078,11.904H50.018l6.987-39.947
		c0.112-0.697,0.222-1.953,0.222-2.408c0-3.094-1.707-4.807-5.475-4.807c-3.223,0-6.754,1.023-9.977,3.211l-5.361,30.906
		l6.305,1.141c0,2.182-0.829,7.898-2.082,11.904H12.949c0-2.166,0.797-7.898,2.055-11.904l5.958-1.141l5.815-33.314l-7.073-0.688
		c0-2.297,0.915-7.898,2.054-11.676c6.76-1.156,15.573-1.615,22.894-1.615l-1.135,6.418h0.798c5.619-5.49,9.953-6.984,15.453-6.984
		c5.963,0,9.838,1.838,11.777,6.758c6.53-5.264,11.579-6.758,18.079-6.758c8.384,0,14.883,4.02,14.883,14.545
		c0,1.494-0.226,3.318-0.461,4.797l-4.33,24.629c-0.113,0.682-0.225,1.48-0.225,2.051c0,1.383,0.793,2.066,2.391,2.066h6.418
		L107.501,418.104z"/>
	<path fill="#512C15" d="M160.366,401.165h-32.963c-0.11,0.926-0.226,2.297-0.226,3.207c0,6.42,3.19,9.283,11.201,9.283
		c4.822,0,11.811-1.729,16.365-4.232c0.946,4.459,1.515,9.379,1.515,13.857c-5.503,3.08-13.519,4.332-20.159,4.332
		c-16.365,0-25.062-8.469-25.062-23.922c0-2.525,0.228-5.393,0.681-8.24c3.652-21.516,14.888-29.883,29.544-29.883
		c14.288,0,21.639,7.328,21.639,20.389C162.9,389.374,161.875,395.792,160.366,401.165z M140.573,376.899
		c-5.727,0-9.488,3.895-11.345,13.975h17.653c0.455-1.842,0.879-4.822,0.879-6.418C147.76,379.425,145.024,376.899,140.573,376.899z
		"/>
	<path fill="#512C15" d="M203.735,379.995h-14.06l-4.817,27.246c-0.115,0.797-0.115,1.609-0.115,2.182
		c0,3.076,1.595,4.119,5.275,4.119c2.628,0,7.102-0.801,9.84-2.186c0.227,2.07,0.343,4.691,0.343,6.42
		c0,2.166-0.116,4.918-0.454,7.443c-4.023,1.713-10.554,2.393-13.63,2.393c-11.895,0-17.283-5.73-17.283-15.34
		c0-1.941,0.229-3.766,0.572-5.83l4.677-26.447h-6.961l2.511-13.291h6.734l2.189-12.006c4.591-1.383,11.008-2.408,16.022-2.52
		l-2.618,14.525h14.995C206.387,371.183,205.361,375.989,203.735,379.995z"/>
	<path fill="#512C15" d="M261.448,418.104c-1.484,7.115-4.794,9.508-10.753,9.508c-5.156,0-8.948-1.822-11.002-6.988h-0.801
		c-4.902,5.848-9.953,6.988-15.112,6.988c-11.318,0-18.419-7.443-18.419-22.428c0-4.816,0.684-9.963,1.941-14.77
		c4.588-17.863,15.342-24.848,28.854-24.848c3.191,0,7.67,0.566,10.863,1.494c2.194-0.797,4.818-1.367,8.009-1.367
		c1.973,0,4.71,0.217,6.306,0.789l-7.669,43.055c-0.117,0.682-0.234,1.48-0.234,1.934c0,1.5,0.803,2.184,2.43,2.184h6.501
		L261.448,418.104z M235.923,378.839c-5.154,0-9.605,2.41-12.144,11.463c-1.136,4.232-2.049,10.293-2.049,13.844
		c0,7.211,2.991,10.189,8.123,10.189c2.85,0,5.277-0.68,8.015-2.291l5.615-31.932C241.429,379.425,238.09,378.839,235.923,378.839z"
		/>
	<path fill="#512C15" d="M325.935,355.956l-9.469,53.281c-0.117,0.684-0.258,1.467-0.258,1.93c0,1.461,0.797,2.135,2.385,2.135
		h6.424l-0.783,4.391c-1.225,6.984-4.848,9.355-10.572,9.355c-5.309,0-9.371-1.814-11.281-6.869h-0.803
		c-5.058,5.621-10.03,6.869-15.636,6.869c-11.735,0-18.489-7.541-18.489-22.303c0-4.74,0.695-9.703,1.908-14.426
		c4.523-17.58,15.095-24.34,28.396-24.34c3.271,0,7.759,0.555,10.942,1.471l2.008-11.619l-6.984-0.672
		c0-2.26,0.811-7.773,2.035-11.492c6.549-1.127,16-1.582,23.212-1.582L325.935,355.956z M297.756,379.048
		c-5.301,0-9.691,2.371-12.168,11.271c-1.133,4.176-2.028,10.135-2.028,13.627c0,7.221,3.054,10.021,8.21,10.021
		c3.408,0,6.446-0.891,9.142-2.467l5.418-30.871C304.161,379.729,300.112,379.048,297.756,379.048z"/>
	<path fill="#512C15" d="M371.571,382.769c-1.926-0.576-4.283-1.012-6.748-1.012c-3.289,0-6.773,0.773-10.162,3.037l-4.948,28.283
		l8.126,1.133c0,2.133-0.799,7.764-2.043,11.715h-29.193c0-2.139,0.799-7.775,2.042-11.715l5.857-1.133l5.744-32.797l-6.988-0.672
		c0-2.258,0.914-7.775,2.043-11.496c6.646-1.113,15.311-1.578,22.538-1.578l-1.369,7.551h0.787
		c5.529-7.086,9.461-8.105,12.957-8.105c1.711,0,4.064,0.328,5.404,0.906C375.046,371.386,373.247,377.8,371.571,382.769z"/>
	<path fill="#512C15" d="M425.761,398.095c-3.594,19.938-14.756,28.953-30.168,28.953c-14.344,0-24.25-7.541-24.25-23.445
		c0-2.701,0.338-5.629,0.791-8.672c3.156-19.941,14.631-28.951,30.203-28.951c14.084,0,24.221,7.314,24.221,23.545
		C426.558,392.122,426.331,395.265,425.761,398.095z M401.196,378.825c-6.414,0-10.691,4.053-12.965,17.684
		c-0.455,2.834-0.666,5.406-0.666,7.438c0,7.672,3.723,10.264,9.023,10.264c6.873,0,10.938-4.41,13.174-17.701
		c0.457-2.699,0.67-5.18,0.67-7.207C410.433,381.419,406.483,378.825,401.196,378.825z"/>
	<path fill="#512C15" d="M486.37,396.952c-3.27,20.281-13.631,30.096-30.627,30.096c-2.941,0-6.887-0.57-9.934-1.814l-1.916,11.051
		l8,1.137c0,2.139-0.799,7.764-2.021,11.705h-29.074c0-2.137,0.789-7.777,2.035-11.705l5.863-1.137l9.795-56.004l-6.984-0.672
		c0-2.258,0.885-7.775,2.123-11.496c6.529-1.113,15.342-1.578,22.559-1.578l-0.812,4.406h0.812c3.932-3.607,7.754-4.961,12.74-4.961
		c10.939,0,18.123,7.207,18.123,22.307C487.052,391.005,486.851,393.905,486.37,396.952z M462.7,379.048
		c-3.377,0-6.512,1.016-9.24,2.936l-5.402,30.289c2.277,1.029,5.402,1.473,7.885,1.473c7.443,0,11.959-3.713,14.186-16.67
		c0.475-3.043,0.814-5.867,0.814-8.111C470.942,381.757,467.677,379.048,462.7,379.048z"/>
</g>
</svg>
