<?xml version="1.0" encoding="utf-8"?>
<!DOCTYPE svg PUBLIC "-//W3C//DTD SVG 1.1//EN" "http://www.w3.org/Graphics/SVG/1.1/DTD/svg11.dtd">
<svg version="1.1" xmlns="http://www.w3.org/2000/svg" xmlns:xlink="http://www.w3.org/1999/xlink" x="0px" y="0px"
	 width="250.77px" height="52.016px" viewBox="0 0 250.77 52.016" enable-background="new 0 0 250.77 52.016" xml:space="preserve">
<g id="Layer_1">
	<g>
		<path fill="#0076B0" d="M29.266,14.14c-0.02-7.997-6.281-14.144-13.762-14.144h-1.678H0v13.102v0.021c0,0,0,0,0,0.022
			c0,2.084,0.44,4,1.219,5.742l4.648-2.786c-0.293-0.873-0.504-1.789-0.504-2.786v-0.043V4.995h9.805
			c4.756,0,8.713,3.893,8.713,8.954c0,0,0,0,0,0.042c0,4.574-3.916,8.062-8.336,8.253H14.1c-1.988,0-3.836-0.722-5.297-1.894
			l-0.525-0.412c-0.336-0.343-0.756-0.438-1.07-0.12l-2.723,2.722c-0.273,0.298-0.133,0.784,0.184,1.126l0.316,0.258
			c2.391,2.064,6.148,3.339,9.481,3.339h0.938c7.656,0,13.844-5.808,13.863-13.059C29.266,14.14,29.266,14.14,29.266,14.14z"/>
		<path fill="#0076B0" d="M74.596,27.766c5.531,0,9.766-4.799,9.766-10.75V0.755C84.361,0.359,84.045,0,83.709,0h-3.326
			c-0.381,0-0.678,0.359-0.678,0.755v16.03c0,3.268-2.07,5.909-5.109,5.909c-3.039,0-5.07-2.642-5.07-5.951V0.755
			C69.525,0.359,69.23,0,68.854,0h-3.33c-0.355,0-0.672,0.359-0.672,0.755v16.261C64.852,22.967,69.088,27.766,74.596,27.766z"/>
		<path fill="#0076B0" d="M105.84-0.124h-8.238c-0.395,0-0.668,0.333-0.668,0.729v25.741c0,0.397,0.273,0.749,0.668,0.749h3.227
			c0.357,0,0.648-0.353,0.648-0.749v-9.144h4.379c4.277,0,7.818-3.914,7.818-8.726C113.674,3.749,110.133-0.124,105.84-0.124z
			 M105.543,12.477h-4.066v-7.81h4.066c1.969,0,3.607,1.602,3.607,3.748C109.15,10.705,107.512,12.477,105.543,12.477z"/>
		<path fill="#0076B0" d="M132.803-0.045c-0.104-0.25-0.25-0.435-0.586-0.435h-0.357c-0.312,0-0.477,0.185-0.586,0.435
			L120.375,25.99c-0.205,0.52,0.066,1.016,0.59,1.016h3.041c0.584,0,0.879-0.391,1.025-0.766l1.719-4.186h10.453l1.738,4.186
			c0.254,0.538,0.482,0.766,1.008,0.766h3.041c0.543,0,0.816-0.496,0.605-1.016L132.803-0.045z M128.467,17.742l3.439-8.499h0.104
			l3.498,8.499H128.467z"/>
		<path fill="#0076B0" d="M165.117,22.455h-8.93V0.762c0-0.415-0.311-0.748-0.668-0.748h-3.207c-0.4,0-0.67,0.333-0.67,0.748v25.609
			c0,0.393,0.27,0.722,0.67,0.722h12.805c0.398,0,0.689-0.329,0.689-0.722v-3.19C165.807,22.806,165.516,22.455,165.117,22.455z"/>
		<path fill="#0076B0" d="M192.02-0.062h-14.25c-0.396,0-0.668,0.354-0.668,0.727v25.684c0,0.394,0.271,0.745,0.668,0.745h14.25
			c0.377,0,0.666-0.351,0.666-0.745v-3.177c0-0.395-0.289-0.727-0.666-0.727h-10.373v-6.809h8.652c0.359,0,0.672-0.292,0.672-0.727
			V11.69c0-0.393-0.312-0.747-0.672-0.747h-8.652V4.611h10.373c0.377,0,0.666-0.354,0.666-0.769V0.665
			C192.686,0.292,192.396-0.062,192.02-0.062z"/>
		<path fill="#0076B0" d="M221.145,8.241c0-4.577-3.434-8.303-7.646-8.303h-10.014c-0.379,0-0.676,0.351-0.676,0.745v25.589
			c0,0.393,0.297,0.745,0.676,0.745h3.225c0.336,0,0.668-0.352,0.668-0.745v-9.854h3.879l4.67,10.247
			c0.066,0.144,0.234,0.352,0.547,0.352h3.666c0.607,0,0.861-0.62,0.607-1.138l-4.795-9.813
			C218.986,14.72,221.145,11.823,221.145,8.241z M213.096,12.277H207.4V4.575h5.695c1.865,0,3.48,1.72,3.48,3.77
			C216.576,10.499,214.961,12.277,213.096,12.277z"/>
		<polygon fill="#0076B0" points="26.545,41.174 32.453,41.174 32.453,40.255 26.545,40.255 26.545,36.105 33.08,36.105
			33.08,35.186 25.455,35.186 25.455,46.641 33.246,46.641 33.246,45.721 26.545,45.721 		"/>
		<path fill="#0076B0" d="M45.334,39.206c-0.191-0.313-0.439-0.563-0.779-0.733c-0.336-0.23-0.775-0.293-1.342-0.293
			c-0.607,0-1.131,0.125-1.588,0.377c-0.461,0.271-0.816,0.672-1.113,1.215c-0.059-0.209-0.188-0.439-0.291-0.607
			c-0.125-0.188-0.275-0.377-0.48-0.502c-0.166-0.169-0.4-0.273-0.672-0.357c-0.252-0.082-0.606-0.125-0.963-0.125
			c-0.543,0-1.027,0.125-1.488,0.377c-0.479,0.252-0.814,0.607-1.045,1.088h-0.066V38.39h-0.938v8.251h0.938v-4.439
			c0-0.168,0.023-0.334,0.043-0.564c0.023-0.168,0.041-0.399,0.082-0.586c0.043-0.211,0.088-0.4,0.172-0.589
			c0.062-0.187,0.145-0.335,0.27-0.501c0.232-0.295,0.523-0.545,0.84-0.691c0.316-0.169,0.668-0.231,1.006-0.231
			c0.689,0,1.15,0.168,1.4,0.524c0.256,0.312,0.377,0.796,0.377,1.381v5.697h0.967v-4.439c0-0.168,0-0.334,0-0.564
			c0.02-0.168,0.041-0.399,0.082-0.586c0.064-0.211,0.103-0.4,0.166-0.589c0.084-0.187,0.191-0.335,0.273-0.501
			c0.25-0.295,0.547-0.545,0.834-0.691c0.361-0.169,0.697-0.231,1.029-0.231c0.689,0,1.131,0.168,1.404,0.524
			c0.25,0.312,0.373,0.796,0.373,1.381v5.697h0.945v-5.172c0-0.441-0.02-0.859-0.082-1.236
			C45.625,39.833,45.521,39.499,45.334,39.206z"/>
		<path fill="#0076B0" d="M53.625,39.352c-0.627-0.795-1.549-1.172-2.658-1.172c-0.586,0-1.113,0.104-1.594,0.335
			c-0.483,0.252-0.881,0.544-1.191,0.964c-0.338,0.396-0.572,0.859-0.76,1.382c-0.164,0.524-0.25,1.09-0.25,1.696
			c0,0.587,0.086,1.152,0.234,1.697c0.121,0.521,0.355,0.984,0.672,1.34c0.291,0.419,0.711,0.713,1.191,0.943
			c0.463,0.23,1.027,0.335,1.697,0.335c0.5,0,0.961-0.084,1.377-0.21c0.383-0.146,0.717-0.335,0.988-0.587
			c0.293-0.23,0.523-0.544,0.732-0.878c0.189-0.336,0.334-0.693,0.439-1.068h-1.068c-0.146,0.586-0.438,1.068-0.879,1.382
			c-0.44,0.334-0.984,0.502-1.59,0.502c-0.484,0-0.883-0.105-1.219-0.271c-0.354-0.169-0.648-0.399-0.879-0.692
			c-0.227-0.315-0.377-0.627-0.5-1.049c-0.125-0.375-0.188-0.816-0.188-1.274h6.404C54.586,41.258,54.275,40.127,53.625,39.352z
			 M48.182,41.95c0.041-0.399,0.144-0.776,0.291-1.11c0.129-0.357,0.316-0.672,0.543-0.922c0.209-0.273,0.484-0.48,0.838-0.648
			c0.295-0.169,0.674-0.231,1.113-0.231c0.418,0,0.793,0.062,1.109,0.231c0.332,0.146,0.629,0.354,0.84,0.605
			c0.207,0.273,0.373,0.587,0.479,0.943c0.104,0.356,0.168,0.733,0.168,1.132H48.182z"/>
		<path fill="#0076B0" d="M57.121,39.961h-0.02V38.39h-0.943v8.251h0.943V42.6c0-0.461,0.02-0.881,0.123-1.321
			c0.088-0.398,0.211-0.773,0.422-1.089c0.205-0.293,0.482-0.545,0.84-0.711c0.352-0.189,0.771-0.272,1.338-0.25V38.18
			c-0.689,0-1.256,0.125-1.652,0.377C57.75,38.828,57.398,39.289,57.121,39.961z"/>
		<path fill="#0076B0" d="M67.406,39.855h-0.043c-0.125-0.271-0.316-0.523-0.523-0.734c-0.209-0.207-0.439-0.354-0.711-0.5
			c-0.252-0.149-0.521-0.252-0.799-0.338c-0.268-0.061-0.564-0.104-0.836-0.104c-0.67,0-1.213,0.104-1.674,0.335
			c-0.461,0.209-0.859,0.524-1.152,0.901c-0.314,0.396-0.521,0.859-0.672,1.402c-0.145,0.525-0.229,1.07-0.229,1.696
			c0,0.566,0.084,1.132,0.25,1.655c0.146,0.523,0.357,0.984,0.668,1.402c0.295,0.378,0.693,0.692,1.158,0.924
			c0.455,0.251,0.98,0.376,1.631,0.376c0.588,0,1.133-0.125,1.678-0.397c0.543-0.252,0.961-0.63,1.254-1.154
			c0,0.484,0,0.944-0.062,1.403c-0.062,0.462-0.211,0.86-0.4,1.259c-0.207,0.313-0.5,0.605-0.875,0.857
			c-0.422,0.21-0.922,0.313-1.574,0.313c-0.293,0-0.543-0.042-0.817-0.042c-0.271-0.062-0.523-0.146-0.732-0.251
			c-0.211-0.104-0.4-0.272-0.566-0.459c-0.17-0.189-0.271-0.419-0.357-0.755h-1.004c0.021,0.23,0.086,0.523,0.23,0.796
			c0.127,0.272,0.354,0.523,0.629,0.775c0.273,0.209,0.607,0.397,1.068,0.565c0.42,0.167,0.965,0.231,1.549,0.231
			c0.775,0,1.424-0.127,1.926-0.337c0.504-0.251,0.881-0.545,1.178-0.9c0.291-0.397,0.498-0.837,0.607-1.341
			c0.104-0.503,0.145-1.048,0.145-1.592V38.39h-0.943V39.855z M67.219,43.896c-0.129,0.4-0.316,0.775-0.545,1.09
			c-0.254,0.313-0.545,0.566-0.881,0.734c-0.334,0.187-0.709,0.292-1.174,0.292c-0.48,0-0.922-0.105-1.295-0.292
			c-0.336-0.189-0.633-0.461-0.881-0.818c-0.234-0.334-0.4-0.711-0.524-1.193c-0.105-0.439-0.127-0.922-0.105-1.424
			c0-0.545,0.084-1.007,0.207-1.383c0.146-0.42,0.338-0.754,0.607-1.027c0.254-0.271,0.547-0.482,0.904-0.627
			c0.314-0.147,0.688-0.21,1.086-0.21c0.465,0,0.857,0.083,1.193,0.251c0.359,0.21,0.631,0.462,0.883,0.775
			c0.229,0.314,0.418,0.648,0.543,1.089c0.125,0.441,0.168,0.922,0.168,1.403C67.406,43.019,67.363,43.457,67.219,43.896z"/>
		<path fill="#0076B0" d="M73.271,45.49l-2.639-7.101h-1.049l3.184,8.313c-0.104,0.19-0.186,0.398-0.275,0.672
			c-0.039,0.23-0.145,0.482-0.268,0.732c-0.105,0.23-0.254,0.439-0.42,0.607c-0.168,0.167-0.375,0.251-0.648,0.251
			c-0.125,0-0.275-0.021-0.4-0.04c-0.145-0.022-0.27-0.022-0.4-0.066v0.901c0.131,0.042,0.277,0.084,0.422,0.105
			c0.172,0.021,0.316,0.021,0.502,0.021c0.316,0,0.586-0.084,0.84-0.231c0.25-0.146,0.463-0.375,0.668-0.67
			c0.168-0.291,0.381-0.629,0.547-1.046c0.166-0.44,0.336-0.88,0.564-1.403l3.059-8.148H75.91L73.271,45.49z"/>
		<path fill="#0076B0" d="M84.582,45.93c-0.15-0.085-0.209-0.336-0.209-0.713v-4.483c0-0.459-0.086-0.859-0.232-1.193
			c-0.125-0.335-0.379-0.586-0.627-0.774c-0.275-0.21-0.588-0.357-0.943-0.462c-0.398-0.082-0.773-0.125-1.174-0.125
			c-0.463,0-0.881,0.043-1.279,0.168c-0.395,0.104-0.732,0.229-1.043,0.461c-0.295,0.209-0.543,0.48-0.736,0.836
			c-0.207,0.338-0.311,0.776-0.33,1.258h0.963c0.041-0.376,0.144-0.647,0.269-0.92c0.125-0.211,0.295-0.398,0.483-0.566
			c0.207-0.146,0.461-0.21,0.752-0.295c0.273-0.062,0.566-0.083,0.902-0.083c0.732,0,1.254,0.168,1.57,0.481
			c0.312,0.293,0.482,0.713,0.482,1.174c0,0.167-0.02,0.334-0.062,0.502c-0.041,0.169-0.129,0.292-0.295,0.355
			c-0.147,0.086-0.357,0.148-0.607,0.189c-0.268,0.021-0.461,0.084-0.646,0.084l-1.324,0.188c-1.904,0.272-2.887,1.089-2.887,2.472
			c0,0.418,0.082,0.775,0.227,1.047c0.174,0.313,0.361,0.544,0.611,0.754c0.25,0.19,0.541,0.334,0.877,0.438
			c0.338,0.085,0.691,0.148,1.068,0.148c0.588,0,1.152-0.125,1.678-0.376c0.521-0.211,0.963-0.566,1.383-0.985
			c0,0.147,0.021,0.294,0.021,0.396c0.021,0.148,0.041,0.272,0.125,0.378c0.039,0.104,0.123,0.211,0.227,0.295
			c0.084,0.082,0.232,0.123,0.379,0.143c0.146,0.044,0.295,0.065,0.42,0.065c0.145,0,0.293-0.041,0.441-0.085
			c0.125-0.041,0.248-0.062,0.311-0.084v-0.754C84.979,46.013,84.73,46.056,84.582,45.93z M83.43,43.604
			c0,0.418-0.088,0.775-0.254,1.068c-0.188,0.315-0.398,0.567-0.689,0.756c-0.289,0.187-0.586,0.334-0.943,0.438
			c-0.379,0.085-0.752,0.147-1.131,0.147c-0.207,0-0.439-0.041-0.648-0.105c-0.229-0.042-0.418-0.146-0.566-0.249
			c-0.168-0.127-0.316-0.271-0.397-0.461c-0.125-0.211-0.168-0.422-0.168-0.672c0-0.566,0.209-0.983,0.627-1.256
			c0.4-0.292,0.967-0.441,1.699-0.482c0.418-0.062,0.814-0.082,1.238-0.148c0.416-0.04,0.814-0.146,1.232-0.334V43.604z"/>
		<path fill="#0076B0" d="M9.768,39.479c-0.314-0.398-0.688-0.712-1.15-0.964c-0.461-0.252-1.029-0.355-1.633-0.355
			c-0.592,0-1.156,0.146-1.68,0.397c-0.541,0.252-0.961,0.649-1.279,1.153v-4.524H3.066v11.434h0.959v-1.422h0.043
			c0.129,0.271,0.338,0.523,0.527,0.71c0.231,0.188,0.461,0.378,0.709,0.503c0.293,0.146,0.549,0.252,0.818,0.337
			c0.27,0.083,0.545,0.125,0.82,0.125c0.645,0,1.213-0.125,1.695-0.376c0.459-0.211,0.856-0.504,1.148-0.902
			c0.297-0.377,0.524-0.859,0.67-1.383c0.127-0.523,0.191-1.09,0.191-1.674c0-0.587-0.088-1.132-0.211-1.656
			C10.293,40.338,10.039,39.875,9.768,39.479z M9.432,44.148c-0.145,0.377-0.352,0.713-0.627,1.006
			c-0.234,0.273-0.547,0.48-0.883,0.628c-0.334,0.125-0.688,0.21-1.088,0.21c-0.457,0-0.856-0.085-1.193-0.271
			c-0.377-0.189-0.646-0.421-0.9-0.734c-0.23-0.334-0.396-0.69-0.525-1.109c-0.125-0.441-0.189-0.899-0.189-1.404
			c0-0.46,0.064-0.922,0.189-1.319c0.129-0.44,0.338-0.774,0.566-1.11c0.232-0.292,0.523-0.564,0.859-0.754
			c0.357-0.188,0.752-0.271,1.193-0.271c0.461,0,0.902,0.083,1.277,0.294c0.359,0.229,0.672,0.48,0.885,0.815
			c0.227,0.335,0.416,0.733,0.498,1.195c0.125,0.439,0.166,0.921,0.148,1.424C9.643,43.29,9.578,43.753,9.432,44.148z"/>
		<path fill="#0076B0" d="M15.215,45.469l-2.682-7.1h-1.047l3.205,8.312c-0.103,0.19-0.209,0.4-0.275,0.651
			c-0.062,0.272-0.145,0.503-0.27,0.755c-0.105,0.229-0.256,0.438-0.443,0.607c-0.144,0.165-0.352,0.25-0.646,0.25
			c-0.106,0-0.254-0.02-0.379-0.042c-0.144,0-0.269-0.021-0.398-0.043v0.901c0.129,0.021,0.254,0.063,0.42,0.084
			c0.145,0.021,0.314,0.042,0.483,0.042c0.338,0,0.627-0.104,0.859-0.231c0.23-0.166,0.441-0.375,0.65-0.69
			c0.188-0.271,0.375-0.628,0.565-1.046c0.144-0.42,0.355-0.88,0.545-1.424l3.055-8.127h-1.023L15.215,45.469z"/>
		<path fill="#0076B0" d="M250.698,25.99L239.905-0.045c-0.104-0.25-0.25-0.435-0.586-0.435h-0.357
			c-0.312,0-0.477,0.185-0.586,0.435L227.477,25.99c-0.205,0.52,0.067,1.016,0.59,1.016h3.041c0.584,0,0.879-0.391,1.025-0.766
			l1.719-4.186h10.453l1.738,4.186c0.254,0.538,0.482,0.766,1.008,0.766h3.041C250.636,27.006,250.909,26.51,250.698,25.99z
			 M235.569,17.742l3.439-8.499h0.104l3.498,8.499H235.569z"/>
		<path fill="#0076B0" d="M55.488,8.361c0-4.561-3.434-8.273-7.646-8.273H37.828c-0.379,0-0.676,0.35-0.676,0.742v25.496
			c0,0.392,0.297,0.742,0.676,0.742h3.225c0.336,0,0.668-0.351,0.668-0.742v-9.818H45.6l4.67,10.21
			c0.066,0.143,0.234,0.351,0.547,0.351h3.666c0.608,0,0.861-0.617,0.608-1.134l-4.795-9.777
			C53.33,14.817,55.488,11.93,55.488,8.361z M47.439,12.383h-5.695V4.708h5.695c1.865,0,3.48,1.714,3.48,3.757
			C50.92,10.611,49.305,12.383,47.439,12.383z"/>
	</g>
</g>
<g id="Modo_de_aislamiento">
</g>
</svg>
