<?xml version="1.0" encoding="utf-8"?>
<!-- Generator: Adobe Illustrator 17.0.0, SVG Export Plug-In . SVG Version: 6.00 Build 0)  -->
<!DOCTYPE svg PUBLIC "-//W3C//DTD SVG 1.1//EN" "http://www.w3.org/Graphics/SVG/1.1/DTD/svg11.dtd">
<svg version="1.1" id="Capa_1" xmlns="http://www.w3.org/2000/svg" xmlns:xlink="http://www.w3.org/1999/xlink" x="0px" y="0px"
	 width="202.667px" height="75.667px" viewBox="0 0 202.667 75.667" enable-background="new 0 0 202.667 75.667"
	 xml:space="preserve">
<g>
	<g>
		<g>
			<path fill="#1D1E1C" d="M96.164,30.349V50.42c0,2.295-0.246,4.268-0.736,5.923c-0.491,1.653-1.278,3.021-2.36,4.101
				c-1.084,1.079-2.5,1.881-4.252,2.404c-1.752,0.522-3.929,0.784-6.534,0.784c-2.387,0-4.519-0.334-6.396-0.999
				c-1.878-0.667-3.324-1.528-4.34-2.582c-1.016-1.055-1.522-2.14-1.522-3.253c0-0.845,0.287-1.532,0.863-2.063
				c0.576-0.532,1.27-0.797,2.083-0.797c1.016,0,1.905,0.444,2.667,1.331c0.371,0.451,0.755,0.908,1.152,1.369
				c0.396,0.459,0.835,0.853,1.317,1.181c0.482,0.325,1.06,0.568,1.736,0.728c0.676,0.158,1.452,0.238,2.33,0.238
				c1.79,0,3.179-0.249,4.167-0.745c0.988-0.497,1.681-1.191,2.078-2.082c0.396-0.892,0.628-1.848,0.696-2.865
				c0.068-1.018,0.118-2.654,0.152-4.909c-1.065,1.491-2.295,2.626-3.689,3.405c-1.394,0.779-3.055,1.168-4.982,1.168
				c-2.316,0-4.34-0.591-6.072-1.775c-1.733-1.184-3.064-2.841-3.993-4.971c-0.93-2.13-1.394-4.589-1.394-7.38
				c0-2.08,0.283-3.956,0.85-5.629c0.566-1.674,1.373-3.086,2.421-4.235c1.048-1.15,2.256-2.017,3.625-2.6
				c1.369-0.583,2.873-0.875,4.513-0.875c1.96,0,3.659,0.38,5.096,1.137c1.437,0.757,2.772,1.945,4.006,3.561v-0.945
				c0-1.208,0.297-2.144,0.891-2.808c0.594-0.664,1.357-0.996,2.291-0.996c1.341,0,2.232,0.439,2.674,1.315
				C95.943,27.434,96.164,28.698,96.164,30.349z M76.093,39.102c0,2.8,0.612,4.917,1.836,6.35c1.224,1.433,2.808,2.15,4.75,2.15
				c1.148,0,2.233-0.308,3.255-0.923c1.021-0.616,1.853-1.543,2.494-2.783c0.642-1.239,0.963-2.744,0.963-4.515
				c0-2.816-0.621-5.008-1.862-6.577c-1.241-1.568-2.875-2.353-4.9-2.353c-1.977,0-3.559,0.751-4.75,2.252
				C76.689,34.203,76.093,36.336,76.093,39.102z"/>
		</g>
		<g>
			<path fill="#1D1E1C" d="M119.654,41.014h-13.529c0.017,1.569,0.333,2.952,0.95,4.15c0.617,1.198,1.436,2.1,2.457,2.707
				c1.021,0.608,2.15,0.911,3.383,0.911c0.827,0,1.583-0.096,2.267-0.29c0.684-0.194,1.347-0.497,1.988-0.911
				c0.642-0.414,1.233-0.856,1.774-1.328c0.54-0.472,1.241-1.114,2.103-1.923c0.354-0.303,0.861-0.455,1.519-0.455
				c0.709,0,1.284,0.195,1.722,0.584c0.439,0.388,0.659,0.938,0.659,1.648c0,0.625-0.246,1.356-0.735,2.192
				c-0.489,0.837-1.228,1.639-2.217,2.408c-0.988,0.769-2.229,1.408-3.724,1.915c-1.495,0.506-3.214,0.76-5.156,0.76
				c-4.442,0-7.898-1.265-10.369-3.797c-2.471-2.531-3.706-5.965-3.706-10.302c0-2.042,0.304-3.936,0.914-5.683
				c0.61-1.747,1.498-3.245,2.666-4.493c1.168-1.249,2.606-2.206,4.313-2.873c1.707-0.666,3.599-1,5.677-1
				c2.702,0,5.02,0.57,6.954,1.708c1.934,1.138,3.382,2.61,4.345,4.414c0.963,1.804,1.445,3.642,1.445,5.514
				c0,1.737-0.499,2.862-1.495,3.377C122.863,40.758,121.46,41.014,119.654,41.014z M106.125,37.1h12.54
				c-0.169-2.349-0.807-4.106-1.913-5.272c-1.107-1.166-2.563-1.75-4.37-1.75c-1.723,0-3.138,0.592-4.244,1.775
				C107.032,33.035,106.361,34.785,106.125,37.1z"/>
		</g>
		<g>
			<path fill="#1D1E1C" d="M152.63,39.815v9.203c0,1.454-0.331,2.545-0.992,3.271c-0.661,0.726-1.534,1.09-2.619,1.09
				c-1.051,0-1.904-0.364-2.556-1.09c-0.652-0.726-0.979-1.817-0.979-3.271V37.99c0-1.741-0.059-3.093-0.177-4.056
				c-0.118-0.963-0.438-1.753-0.959-2.371c-0.521-0.617-1.346-0.925-2.472-0.925c-2.254,0-3.74,0.778-4.455,2.333
				c-0.715,1.555-1.072,3.786-1.072,6.692v9.356c0,1.437-0.327,2.523-0.98,3.258c-0.652,0.735-1.513,1.103-2.581,1.103
				c-1.052,0-1.912-0.368-2.582-1.102c-0.67-0.735-1.004-1.821-1.004-3.258V29.222c0-1.301,0.301-2.289,0.903-2.965
				c0.602-0.676,1.394-1.015,2.378-1.015c0.95,0,1.742,0.317,2.378,0.95c0.635,0.633,0.953,1.507,0.953,2.621v0.658
				c1.198-1.435,2.481-2.489,3.848-3.165c1.367-0.676,2.887-1.014,4.557-1.014c1.738,0,3.232,0.347,4.481,1.039
				c1.249,0.692,2.279,1.739,3.089,3.14c1.167-1.418,2.419-2.469,3.755-3.153c1.336-0.684,2.817-1.026,4.442-1.026
				c1.894,0,3.526,0.372,4.897,1.115c1.37,0.744,2.393,1.807,3.071,3.191c0.594,1.251,0.891,3.22,0.891,5.907v13.513
				c0,1.453-0.331,2.544-0.993,3.27c-0.662,0.726-1.537,1.09-2.623,1.09c-1.053,0-1.916-0.368-2.586-1.103
				c-0.671-0.735-1.006-1.821-1.006-3.258V37.381c0-1.487-0.064-2.679-0.19-3.575c-0.126-0.895-0.468-1.648-1.024-2.256
				c-0.557-0.608-1.401-0.913-2.531-0.913c-0.912,0-1.777,0.271-2.594,0.812c-0.818,0.541-1.455,1.267-1.911,2.18
				C152.882,34.796,152.63,36.858,152.63,39.815z"/>
		</g>
		<g>
			<path fill="#1D1E1C" d="M196.259,44.352c0,1.905-0.465,3.536-1.394,4.893c-0.93,1.357-2.303,2.386-4.12,3.085
				c-1.818,0.699-4.027,1.05-6.63,1.05c-2.485,0-4.614-0.38-6.389-1.138c-1.775-0.758-3.086-1.707-3.93-2.845
				s-1.267-2.28-1.267-3.426c0-0.758,0.271-1.407,0.813-1.947c0.542-0.54,1.227-0.81,2.056-0.81c0.728,0,1.286,0.178,1.676,0.531
				c0.389,0.354,0.762,0.851,1.118,1.492c0.707,1.231,1.553,2.151,2.539,2.757c0.985,0.608,2.329,0.911,4.03,0.911
				c1.381,0,2.514-0.308,3.398-0.923s1.327-1.319,1.327-2.113c0-1.214-0.459-2.099-1.377-2.655
				c-0.918-0.556-2.428-1.087-4.532-1.594c-2.383-0.59-4.321-1.21-5.816-1.86c-1.495-0.65-2.69-1.506-3.586-2.569
				c-0.895-1.063-1.343-2.371-1.343-3.924c0-1.383,0.414-2.69,1.242-3.923c0.827-1.232,2.049-2.216,3.662-2.95
				c1.614-0.734,3.561-1.101,5.843-1.101c1.79,0,3.4,0.186,4.828,0.558c1.427,0.372,2.619,0.87,3.574,1.495
				c0.954,0.625,1.681,1.318,2.18,2.078c0.498,0.76,0.748,1.504,0.748,2.23c0,0.794-0.267,1.445-0.801,1.952
				c-0.534,0.507-1.292,0.76-2.275,0.76c-0.713,0-1.318-0.203-1.819-0.609s-1.072-1.015-1.716-1.826
				c-0.522-0.674-1.137-1.214-1.844-1.619c-0.707-0.405-1.667-0.608-2.879-0.608c-1.247,0-2.282,0.266-3.107,0.797
				c-0.825,0.531-1.237,1.193-1.237,1.986c0,0.725,0.303,1.319,0.909,1.784s1.422,0.849,2.45,1.152
				c1.027,0.304,2.441,0.675,4.243,1.113c2.151,0.523,3.908,1.148,5.271,1.872c1.363,0.725,2.396,1.582,3.099,2.568
				C195.908,41.962,196.259,43.088,196.259,44.352z"/>
		</g>
	</g>
	<g>
		<g>
			<path fill="#1D1E1C" d="M85.189,19.545l-0.689-1.814h-5.869l-0.689,1.853c-0.269,0.723-0.499,1.211-0.689,1.464
				c-0.19,0.253-0.502,0.38-0.935,0.38c-0.368,0-0.693-0.135-0.975-0.404c-0.283-0.269-0.423-0.575-0.423-0.917
				c0-0.197,0.033-0.4,0.099-0.611c0.066-0.21,0.174-0.502,0.325-0.877l3.692-9.385c0.105-0.269,0.232-0.593,0.379-0.97
				c0.148-0.378,0.305-0.692,0.472-0.942c0.167-0.25,0.387-0.452,0.66-0.606c0.272-0.154,0.609-0.232,1.009-0.232
				c0.407,0,0.747,0.077,1.019,0.232c0.272,0.154,0.492,0.353,0.66,0.597c0.168,0.243,0.309,0.504,0.424,0.784
				c0.115,0.28,0.261,0.652,0.438,1.119l3.771,9.325c0.295,0.71,0.443,1.226,0.443,1.548c0,0.335-0.14,0.643-0.418,0.922
				c-0.279,0.279-0.616,0.419-1.009,0.419c-0.23,0-0.427-0.041-0.591-0.123c-0.164-0.083-0.302-0.194-0.414-0.335
				c-0.112-0.141-0.232-0.358-0.36-0.651C85.391,20.026,85.281,19.768,85.189,19.545z M79.4,15.525h4.313L81.537,9.56L79.4,15.525z"
				/>
		</g>
		<g>
			<path fill="#1D1E1C" d="M100.029,16.849c0,0.873-0.225,1.658-0.674,2.354c-0.45,0.696-1.107,1.241-1.972,1.635
				c-0.866,0.394-1.892,0.591-3.079,0.591c-1.423,0-2.598-0.268-3.522-0.806c-0.656-0.387-1.188-0.905-1.598-1.552
				c-0.41-0.647-0.615-1.276-0.615-1.887c0-0.354,0.123-0.658,0.368-0.911c0.246-0.253,0.559-0.38,0.939-0.38
				c0.308,0,0.568,0.099,0.782,0.296c0.213,0.197,0.395,0.49,0.546,0.878c0.184,0.46,0.382,0.845,0.595,1.154
				c0.213,0.309,0.513,0.564,0.899,0.764c0.386,0.2,0.895,0.301,1.524,0.301c0.865,0,1.567-0.202,2.108-0.606
				c0.541-0.404,0.811-0.909,0.811-1.514c0-0.48-0.146-0.869-0.437-1.168c-0.292-0.299-0.668-0.528-1.131-0.685
				c-0.462-0.158-1.08-0.325-1.852-0.503c-1.035-0.243-1.902-0.528-2.6-0.853c-0.698-0.325-1.251-0.769-1.661-1.332
				c-0.41-0.562-0.614-1.261-0.614-2.096c0-0.795,0.216-1.502,0.649-2.12c0.433-0.618,1.059-1.093,1.879-1.425
				c0.819-0.332,1.784-0.498,2.892-0.498c0.885,0,1.651,0.11,2.296,0.331c0.646,0.22,1.182,0.513,1.608,0.878
				c0.426,0.365,0.737,0.748,0.935,1.149c0.197,0.401,0.295,0.792,0.295,1.173c0,0.349-0.123,0.663-0.37,0.942
				c-0.247,0.28-0.553,0.419-0.921,0.419c-0.335,0-0.59-0.083-0.764-0.25c-0.174-0.167-0.363-0.44-0.567-0.82
				c-0.262-0.547-0.577-0.973-0.944-1.28c-0.367-0.306-0.956-0.46-1.769-0.46c-0.753,0-1.361,0.166-1.823,0.498
				c-0.462,0.332-0.693,0.732-0.693,1.198c0,0.289,0.079,0.539,0.236,0.75c0.157,0.211,0.373,0.391,0.649,0.542
				c0.275,0.151,0.553,0.269,0.835,0.355c0.282,0.085,0.747,0.211,1.396,0.375c0.814,0.191,1.551,0.401,2.21,0.631
				c0.66,0.23,1.221,0.51,1.684,0.838c0.463,0.329,0.824,0.744,1.083,1.247C99.899,15.503,100.029,16.119,100.029,16.849z"/>
		</g>
		<g>
			<path fill="#1D1E1C" d="M106.724,15.556h-2.682v4.089c0,0.584-0.138,1.028-0.413,1.33c-0.275,0.301-0.623,0.453-1.042,0.453
				c-0.439,0-0.793-0.15-1.062-0.449c-0.269-0.299-0.403-0.737-0.403-1.316V8.526c0-0.644,0.148-1.104,0.443-1.38
				c0.295-0.276,0.765-0.414,1.408-0.414h3.752c1.11,0,1.963,0.086,2.561,0.257c0.588,0.165,1.097,0.437,1.525,0.818
				c0.428,0.381,0.753,0.848,0.976,1.4c0.222,0.552,0.334,1.173,0.334,1.863c0,1.472-0.452,2.587-1.356,3.347
				C109.86,15.177,108.513,15.556,106.724,15.556z M106.014,8.938h-1.972v4.412h1.972c0.69,0,1.267-0.072,1.73-0.217
				c0.463-0.145,0.817-0.381,1.06-0.709c0.243-0.328,0.365-0.758,0.365-1.29c0-0.637-0.187-1.155-0.562-1.556
				C108.186,9.152,107.322,8.938,106.014,8.938z"/>
		</g>
	</g>
	<g>
		<g>
			<path fill="#1D1E1C" d="M34.748,63.991c-15.715,0-28.501-12.786-28.501-28.501S19.033,6.989,34.748,6.989
				s28.501,12.785,28.501,28.501S50.464,63.991,34.748,63.991z M34.748,14.976c-11.311,0-20.513,9.202-20.513,20.513
				s9.202,20.513,20.513,20.513s20.513-9.202,20.513-20.513S46.059,14.976,34.748,14.976z"/>
		</g>
		<g>
			<g>
				<circle fill="#1D1E1C" cx="27.343" cy="32.668" r="3.35"/>
			</g>
			<g>
				<circle fill="#1D1E1C" cx="42.154" cy="32.668" r="3.35"/>
			</g>
		</g>
	</g>
	<g>
		<g>
			<path fill="#1D1E1C" d="M115.343,62.251c-0.082-0.203-0.199-0.366-0.352-0.491c-0.153-0.125-0.34-0.212-0.56-0.261
				c-0.22-0.05-0.462-0.075-0.726-0.075c-0.185,0-0.381,0.023-0.587,0.069c-0.206,0.046-0.397,0.119-0.571,0.219
				c-0.174,0.1-0.318,0.228-0.432,0.384c-0.114,0.156-0.171,0.348-0.171,0.576c0,0.185,0.032,0.343,0.096,0.475
				c0.064,0.132,0.151,0.245,0.262,0.342c0.11,0.096,0.242,0.176,0.395,0.24c0.153,0.064,0.315,0.121,0.486,0.17l1.025,0.277
				c0.235,0.064,0.463,0.144,0.684,0.24c0.221,0.096,0.417,0.22,0.587,0.373c0.171,0.153,0.308,0.347,0.411,0.581
				c0.103,0.235,0.155,0.523,0.155,0.864c0,0.398-0.091,0.742-0.272,1.029c-0.182,0.288-0.415,0.526-0.699,0.715
				s-0.603,0.329-0.955,0.421c-0.352,0.092-0.699,0.139-1.04,0.139c-0.455,0-0.875-0.051-1.259-0.154
				c-0.384-0.103-0.71-0.26-0.976-0.473c-0.267-0.213-0.469-0.488-0.608-0.826c-0.139-0.338-0.19-0.742-0.155-1.211h1.01
				c-0.014,0.342,0.025,0.63,0.118,0.865c0.092,0.235,0.23,0.424,0.411,0.566c0.182,0.142,0.401,0.244,0.658,0.304
				c0.257,0.06,0.538,0.091,0.845,0.091c0.235,0,0.469-0.028,0.701-0.085c0.232-0.057,0.437-0.144,0.615-0.261
				c0.178-0.117,0.322-0.269,0.433-0.454c0.11-0.185,0.166-0.406,0.166-0.662c0-0.192-0.036-0.357-0.107-0.496
				c-0.071-0.139-0.169-0.256-0.294-0.352c-0.125-0.096-0.269-0.176-0.433-0.24c-0.164-0.064-0.338-0.121-0.523-0.171l-1.036-0.277
				c-0.228-0.064-0.445-0.148-0.651-0.251c-0.207-0.103-0.388-0.231-0.545-0.384c-0.157-0.153-0.281-0.334-0.374-0.544
				c-0.093-0.21-0.139-0.457-0.139-0.742c0-0.37,0.082-0.692,0.245-0.966c0.163-0.274,0.375-0.503,0.634-0.688
				c0.259-0.185,0.554-0.324,0.884-0.416c0.33-0.092,0.666-0.139,1.007-0.139c0.376,0,0.734,0.048,1.071,0.144
				s0.634,0.242,0.89,0.438c0.256,0.196,0.457,0.447,0.602,0.753c0.146,0.306,0.211,0.672,0.197,1.099h-1.01
				C115.462,62.704,115.424,62.453,115.343,62.251z"/>
		</g>
		<g>
			<path fill="#1D1E1C" d="M117.444,64.885c0.139-0.421,0.341-0.792,0.608-1.113c0.267-0.321,0.59-0.578,0.97-0.77
				c0.38-0.193,0.812-0.289,1.296-0.289c0.746,0,1.315,0.194,1.706,0.583c0.391,0.389,0.587,0.958,0.587,1.707
				c0,0.45-0.068,0.885-0.203,1.306c-0.135,0.421-0.334,0.794-0.597,1.118c-0.263,0.325-0.583,0.583-0.96,0.776
				c-0.377,0.192-0.807,0.289-1.29,0.289c-0.363,0-0.688-0.057-0.976-0.171c-0.288-0.114-0.532-0.273-0.731-0.476
				c-0.199-0.203-0.352-0.446-0.459-0.728c-0.107-0.282-0.16-0.59-0.16-0.926C117.236,65.741,117.305,65.306,117.444,64.885z
				 M118.522,67.283c0.257,0.278,0.635,0.417,1.134,0.417c0.335,0,0.629-0.085,0.883-0.256c0.253-0.171,0.467-0.386,0.642-0.647
				c0.175-0.26,0.307-0.543,0.396-0.85c0.089-0.306,0.134-0.595,0.134-0.866c0-0.214-0.029-0.417-0.086-0.609
				c-0.057-0.192-0.146-0.358-0.267-0.497c-0.121-0.139-0.273-0.249-0.455-0.331c-0.182-0.082-0.398-0.123-0.647-0.123
				c-0.35,0-0.656,0.086-0.92,0.257c-0.264,0.171-0.485,0.386-0.663,0.647c-0.178,0.26-0.312,0.547-0.401,0.86
				c-0.089,0.314-0.134,0.613-0.134,0.898C118.137,66.638,118.265,67.005,118.522,67.283z"/>
		</g>
		<g>
			<path fill="#1D1E1C" d="M125.839,60.74l-1.601,7.627h-0.896l1.59-7.627H125.839z"/>
		</g>
		<g>
			<path fill="#1D1E1C" d="M129.481,68.374l0.171-0.833h-0.021c-0.228,0.32-0.516,0.559-0.865,0.716
				c-0.349,0.157-0.715,0.235-1.099,0.235c-0.519,0-0.903-0.112-1.154-0.336c-0.251-0.224-0.376-0.582-0.376-1.073
				c0-0.121,0.014-0.278,0.042-0.47c0.028-0.192,0.067-0.395,0.116-0.609l0.665-3.151h0.91l-0.704,3.224
				c-0.014,0.05-0.029,0.114-0.043,0.192c-0.014,0.078-0.028,0.158-0.042,0.24c-0.014,0.082-0.025,0.16-0.032,0.235
				c-0.007,0.075-0.011,0.137-0.011,0.187c0,0.264,0.092,0.458,0.277,0.582c0.185,0.124,0.413,0.187,0.683,0.187
				c0.256,0,0.493-0.05,0.71-0.15c0.217-0.1,0.411-0.233,0.582-0.4c0.171-0.167,0.315-0.359,0.432-0.576
				c0.117-0.217,0.201-0.44,0.251-0.667l0.64-3.053h0.907l-1.163,5.522H129.481z"/>
		</g>
		<g>
			<path fill="#1D1E1C" d="M136.241,63.802c-0.207-0.187-0.493-0.281-0.858-0.281c-0.351,0-0.66,0.078-0.928,0.235
				c-0.268,0.157-0.493,0.36-0.676,0.609c-0.182,0.25-0.32,0.529-0.413,0.839c-0.093,0.31-0.139,0.615-0.139,0.914
				c0,0.214,0.023,0.417,0.069,0.609c0.046,0.192,0.123,0.36,0.23,0.502c0.107,0.143,0.248,0.257,0.423,0.342
				c0.175,0.085,0.391,0.128,0.648,0.128c0.393,0,0.728-0.103,1.006-0.31c0.278-0.207,0.482-0.481,0.61-0.824h0.91
				c-0.164,0.628-0.463,1.106-0.898,1.434c-0.434,0.328-0.976,0.492-1.624,0.492c-0.755,0-1.323-0.207-1.704-0.621
				c-0.381-0.414-0.572-0.999-0.572-1.755c0-0.442,0.066-0.867,0.198-1.273c0.132-0.407,0.327-0.769,0.587-1.086
				c0.26-0.318,0.58-0.571,0.961-0.76c0.381-0.189,0.817-0.284,1.308-0.284c0.626,0,1.123,0.151,1.49,0.454
				c0.367,0.303,0.561,0.778,0.582,1.426h-0.901C136.552,64.253,136.448,63.989,136.241,63.802z"/>
		</g>
		<g>
			<path fill="#1D1E1C" d="M140.056,62.85l-1.153,5.517h-0.896l1.142-5.517H140.056z M139.352,61.859l0.235-1.103h0.918
				l-0.235,1.103H139.352z"/>
		</g>
		<g>
			<path fill="#1D1E1C" d="M141.025,64.885c0.139-0.421,0.341-0.792,0.608-1.113c0.266-0.321,0.59-0.578,0.97-0.77
				c0.38-0.193,0.812-0.289,1.296-0.289c0.746,0,1.315,0.194,1.706,0.583c0.391,0.389,0.587,0.958,0.587,1.707
				c0,0.45-0.068,0.885-0.203,1.306c-0.135,0.421-0.334,0.794-0.597,1.118c-0.263,0.325-0.583,0.583-0.96,0.776
				c-0.377,0.192-0.807,0.289-1.29,0.289c-0.363,0-0.688-0.057-0.976-0.171c-0.288-0.114-0.532-0.273-0.731-0.476
				c-0.199-0.203-0.352-0.446-0.459-0.728c-0.107-0.282-0.16-0.59-0.16-0.926C140.817,65.741,140.887,65.306,141.025,64.885z
				 M142.103,67.283c0.257,0.278,0.635,0.417,1.134,0.417c0.335,0,0.629-0.085,0.883-0.256c0.253-0.171,0.467-0.386,0.642-0.647
				c0.175-0.26,0.307-0.543,0.396-0.85c0.089-0.306,0.134-0.595,0.134-0.866c0-0.214-0.029-0.417-0.086-0.609
				c-0.057-0.192-0.146-0.358-0.267-0.497c-0.121-0.139-0.273-0.249-0.455-0.331c-0.182-0.082-0.398-0.123-0.647-0.123
				c-0.35,0-0.656,0.086-0.92,0.257c-0.264,0.171-0.485,0.386-0.663,0.647c-0.178,0.26-0.312,0.547-0.401,0.86
				c-0.089,0.314-0.134,0.613-0.134,0.898C141.718,66.638,141.847,67.005,142.103,67.283z"/>
		</g>
		<g>
			<path fill="#1D1E1C" d="M148.95,62.841l-0.171,0.834h0.021c0.228-0.32,0.516-0.561,0.864-0.721c0.349-0.16,0.715-0.241,1.1-0.241
				c0.518,0,0.903,0.114,1.154,0.342c0.251,0.228,0.376,0.588,0.376,1.08c0,0.121-0.014,0.278-0.042,0.47
				c-0.028,0.193-0.067,0.396-0.116,0.609l-0.665,3.153h-0.91l0.704-3.224c0.007-0.057,0.018-0.123,0.032-0.197
				c0.014-0.075,0.028-0.153,0.043-0.235c0.014-0.082,0.027-0.16,0.037-0.235c0.011-0.075,0.016-0.137,0.016-0.187
				c0-0.263-0.093-0.457-0.278-0.582c-0.185-0.125-0.413-0.187-0.683-0.187c-0.249,0-0.496,0.061-0.742,0.182
				c-0.246,0.121-0.454,0.274-0.624,0.459c-0.164,0.142-0.292,0.315-0.384,0.518c-0.092,0.203-0.167,0.415-0.224,0.635l-0.641,3.053
				h-0.896l1.153-5.526H148.95z"/>
		</g>
		<g>
			<path fill="#1D1E1C" d="M154.12,66.363c0,0.214,0.039,0.405,0.117,0.572c0.078,0.167,0.185,0.307,0.32,0.417
				c0.135,0.11,0.288,0.196,0.459,0.257c0.171,0.061,0.349,0.091,0.534,0.091c0.405,0,0.74-0.091,1.003-0.272
				c0.263-0.181,0.459-0.443,0.587-0.784h0.907c-0.071,0.306-0.185,0.575-0.342,0.806c-0.157,0.231-0.345,0.424-0.566,0.577
				c-0.221,0.153-0.466,0.269-0.736,0.348c-0.27,0.078-0.555,0.118-0.854,0.118c-0.455,0-0.834-0.07-1.136-0.208
				c-0.302-0.139-0.541-0.318-0.718-0.535c-0.177-0.217-0.3-0.457-0.371-0.717c-0.071-0.26-0.106-0.512-0.106-0.754
				c0-0.528,0.076-1.011,0.229-1.45c0.153-0.439,0.359-0.815,0.618-1.129c0.259-0.314,0.562-0.556,0.907-0.728
				c0.345-0.171,0.706-0.257,1.083-0.257c0.81,0,1.402,0.214,1.776,0.643c0.373,0.428,0.56,1.031,0.56,1.809
				c0,0.143-0.011,0.278-0.032,0.407c-0.021,0.129-0.039,0.232-0.053,0.31h-4.156C154.13,66.039,154.12,66.199,154.12,66.363z
				 M157.453,64.505c-0.039-0.188-0.11-0.355-0.214-0.5c-0.103-0.145-0.24-0.262-0.411-0.351c-0.171-0.089-0.381-0.133-0.63-0.133
				c-0.263,0-0.5,0.041-0.71,0.122c-0.21,0.082-0.393,0.193-0.55,0.335c-0.157,0.142-0.288,0.307-0.395,0.495
				c-0.107,0.188-0.192,0.388-0.256,0.601h3.202C157.505,64.883,157.493,64.693,157.453,64.505z"/>
		</g>
		<g>
			<path fill="#1D1E1C" d="M162.519,63.76c-0.229-0.16-0.505-0.24-0.827-0.24c-0.136,0-0.275,0.011-0.419,0.032
				c-0.143,0.021-0.27,0.059-0.381,0.112c-0.111,0.053-0.202,0.125-0.274,0.214c-0.072,0.089-0.107,0.205-0.107,0.347
				c0,0.128,0.041,0.239,0.123,0.332c0.082,0.093,0.192,0.178,0.332,0.257c0.139,0.078,0.296,0.151,0.471,0.219
				c0.175,0.068,0.351,0.137,0.53,0.208c0.185,0.078,0.365,0.164,0.54,0.257c0.175,0.093,0.33,0.198,0.465,0.316
				s0.246,0.257,0.332,0.417c0.085,0.16,0.128,0.348,0.128,0.561c0,0.307-0.068,0.568-0.203,0.786
				c-0.135,0.217-0.31,0.394-0.523,0.529c-0.214,0.135-0.454,0.233-0.721,0.294c-0.267,0.06-0.536,0.091-0.806,0.091
				c-0.32,0-0.616-0.03-0.886-0.091c-0.27-0.061-0.504-0.162-0.699-0.305c-0.196-0.143-0.35-0.334-0.464-0.573
				c-0.114-0.239-0.171-0.537-0.171-0.895h0.901c-0.014,0.2,0.016,0.37,0.091,0.509c0.075,0.139,0.178,0.25,0.31,0.332
				c0.132,0.082,0.285,0.141,0.459,0.177c0.174,0.036,0.358,0.054,0.55,0.054c0.15,0,0.299-0.014,0.449-0.043
				c0.15-0.029,0.285-0.077,0.406-0.144c0.121-0.068,0.219-0.155,0.294-0.262c0.075-0.107,0.112-0.239,0.112-0.396
				c0-0.135-0.043-0.251-0.128-0.348c-0.086-0.096-0.196-0.184-0.332-0.262c-0.135-0.078-0.291-0.151-0.465-0.219
				c-0.175-0.068-0.351-0.141-0.529-0.219c-0.185-0.071-0.366-0.15-0.54-0.235c-0.175-0.085-0.332-0.187-0.471-0.305
				c-0.139-0.118-0.25-0.255-0.332-0.412c-0.082-0.157-0.123-0.339-0.123-0.546c0-0.257,0.059-0.485,0.176-0.685
				c0.117-0.2,0.272-0.366,0.464-0.498c0.192-0.132,0.411-0.234,0.657-0.305c0.246-0.071,0.497-0.107,0.753-0.107
				c0.256,0,0.509,0.03,0.758,0.091c0.249,0.061,0.472,0.161,0.667,0.3c0.196,0.139,0.354,0.321,0.475,0.546
				c0.121,0.225,0.182,0.498,0.182,0.819h-0.901C162.855,64.156,162.748,63.92,162.519,63.76z"/>
		</g>
		<g>
			<path fill="#1D1E1C" d="M172.685,60.748l1.377,7.62h-1.046l-0.352-2.299h-3.213l-1.334,2.299h-1.12l4.578-7.62H172.685z
				 M172.535,65.214l-0.566-3.571h-0.021l-2.038,3.571H172.535z M173.827,58.783l-1.451,1.526h-0.747l0.993-1.526H173.827z"/>
		</g>
		<g>
			<path fill="#1D1E1C" d="M179.59,68.386c-0.071,0.26-0.146,0.486-0.224,0.679c-0.235,0.556-0.562,0.952-0.982,1.187
				c-0.42,0.235-0.928,0.353-1.526,0.353c-0.285,0-0.557-0.033-0.817-0.097c-0.26-0.065-0.489-0.165-0.688-0.302
				c-0.2-0.136-0.362-0.314-0.487-0.531c-0.125-0.218-0.191-0.48-0.198-0.785h0.901c0.014,0.185,0.062,0.336,0.144,0.454
				c0.082,0.117,0.185,0.21,0.309,0.277c0.125,0.067,0.269,0.114,0.432,0.139c0.164,0.025,0.331,0.037,0.502,0.037
				c0.349,0,0.635-0.064,0.859-0.192c0.224-0.128,0.407-0.295,0.55-0.502c0.142-0.206,0.254-0.443,0.336-0.71
				c0.082-0.267,0.158-0.535,0.23-0.806l-0.021-0.021c-0.199,0.299-0.448,0.512-0.747,0.641c-0.299,0.128-0.623,0.192-0.971,0.192
				c-0.342,0-0.642-0.055-0.902-0.166c-0.26-0.11-0.475-0.267-0.646-0.47c-0.171-0.203-0.301-0.443-0.391-0.721
				c-0.089-0.278-0.134-0.584-0.134-0.919c0-0.406,0.066-0.812,0.197-1.218c0.132-0.406,0.32-0.771,0.566-1.095
				c0.245-0.324,0.546-0.588,0.902-0.791c0.356-0.203,0.758-0.305,1.206-0.305c0.206,0,0.404,0.027,0.592,0.08
				c0.188,0.053,0.363,0.128,0.523,0.225c0.16,0.096,0.295,0.214,0.406,0.353c0.11,0.139,0.187,0.294,0.229,0.465v0.021h0.021
				l0.171-1.016h0.854l-0.993,4.726C179.728,67.853,179.661,68.126,179.59,68.386z M176.104,66.689
				c0.057,0.178,0.141,0.334,0.251,0.469c0.11,0.135,0.251,0.244,0.422,0.326c0.171,0.082,0.37,0.123,0.598,0.123
				c0.341,0,0.638-0.085,0.891-0.256c0.252-0.171,0.461-0.388,0.624-0.651c0.164-0.263,0.286-0.55,0.368-0.859
				c0.082-0.309,0.123-0.603,0.123-0.88c0-0.434-0.116-0.782-0.347-1.045c-0.231-0.263-0.585-0.395-1.062-0.395
				c-0.32,0-0.601,0.089-0.843,0.267c-0.242,0.178-0.445,0.396-0.608,0.656c-0.164,0.26-0.288,0.541-0.374,0.843
				c-0.085,0.302-0.128,0.581-0.128,0.837C176.019,66.323,176.047,66.511,176.104,66.689z"/>
		</g>
		<g>
			<path fill="#1D1E1C" d="M183.242,62.85l-1.153,5.517h-0.896l1.142-5.517H183.242z M182.538,61.859l0.235-1.103h0.918
				l-0.235,1.103H182.538z"/>
		</g>
		<g>
			<path fill="#1D1E1C" d="M186.271,60.74l-1.601,7.627h-0.896l1.59-7.627H186.271z"/>
		</g>
		<g>
			<path fill="#1D1E1C" d="M187.407,66.363c0,0.214,0.039,0.405,0.117,0.572c0.078,0.167,0.185,0.307,0.32,0.417
				c0.135,0.11,0.288,0.196,0.459,0.257c0.171,0.061,0.349,0.091,0.534,0.091c0.405,0,0.74-0.091,1.003-0.272
				c0.263-0.181,0.459-0.443,0.587-0.784h0.907c-0.071,0.306-0.185,0.575-0.342,0.806c-0.157,0.231-0.345,0.424-0.566,0.577
				c-0.221,0.153-0.466,0.269-0.736,0.348c-0.27,0.078-0.555,0.118-0.854,0.118c-0.455,0-0.834-0.07-1.136-0.208
				c-0.302-0.139-0.541-0.318-0.718-0.535c-0.177-0.217-0.3-0.457-0.371-0.717c-0.071-0.26-0.106-0.512-0.106-0.754
				c0-0.528,0.076-1.011,0.229-1.45c0.153-0.439,0.359-0.815,0.618-1.129c0.259-0.314,0.562-0.556,0.907-0.728
				c0.345-0.171,0.706-0.257,1.083-0.257c0.81,0,1.402,0.214,1.776,0.643c0.373,0.428,0.56,1.031,0.56,1.809
				c0,0.143-0.011,0.278-0.032,0.407c-0.021,0.129-0.039,0.232-0.053,0.31h-4.156C187.418,66.039,187.407,66.199,187.407,66.363z
				 M190.741,64.505c-0.039-0.188-0.11-0.355-0.214-0.5c-0.103-0.145-0.24-0.262-0.411-0.351c-0.171-0.089-0.381-0.133-0.63-0.133
				c-0.263,0-0.5,0.041-0.71,0.122c-0.21,0.082-0.393,0.193-0.55,0.335c-0.157,0.142-0.288,0.307-0.395,0.495
				c-0.107,0.188-0.192,0.388-0.256,0.601h3.202C190.792,64.883,190.78,64.693,190.741,64.505z"/>
		</g>
		<g>
			<path fill="#1D1E1C" d="M195.806,63.76c-0.229-0.16-0.505-0.24-0.827-0.24c-0.136,0-0.275,0.011-0.419,0.032
				c-0.143,0.021-0.27,0.059-0.381,0.112c-0.111,0.053-0.202,0.125-0.274,0.214c-0.072,0.089-0.107,0.205-0.107,0.347
				c0,0.128,0.041,0.239,0.123,0.332c0.082,0.093,0.192,0.178,0.332,0.257c0.139,0.078,0.296,0.151,0.471,0.219
				c0.175,0.068,0.351,0.137,0.53,0.208c0.185,0.078,0.365,0.164,0.54,0.257c0.175,0.093,0.33,0.198,0.465,0.316
				s0.246,0.257,0.332,0.417c0.085,0.16,0.128,0.348,0.128,0.561c0,0.307-0.068,0.568-0.203,0.786
				c-0.135,0.217-0.31,0.394-0.523,0.529s-0.454,0.233-0.721,0.294c-0.267,0.06-0.536,0.091-0.806,0.091
				c-0.32,0-0.616-0.03-0.886-0.091c-0.27-0.061-0.504-0.162-0.699-0.305c-0.196-0.143-0.35-0.334-0.464-0.573
				c-0.114-0.239-0.171-0.537-0.171-0.895h0.901c-0.014,0.2,0.016,0.37,0.091,0.509c0.075,0.139,0.178,0.25,0.31,0.332
				c0.132,0.082,0.285,0.141,0.459,0.177c0.175,0.036,0.358,0.054,0.551,0.054c0.15,0,0.299-0.014,0.449-0.043
				c0.15-0.029,0.285-0.077,0.406-0.144c0.121-0.068,0.219-0.155,0.294-0.262c0.075-0.107,0.112-0.239,0.112-0.396
				c0-0.135-0.043-0.251-0.128-0.348c-0.086-0.096-0.196-0.184-0.332-0.262c-0.135-0.078-0.291-0.151-0.465-0.219
				c-0.175-0.068-0.351-0.141-0.529-0.219c-0.185-0.071-0.366-0.15-0.54-0.235c-0.175-0.085-0.332-0.187-0.471-0.305
				c-0.139-0.118-0.25-0.255-0.332-0.412c-0.082-0.157-0.123-0.339-0.123-0.546c0-0.257,0.059-0.485,0.176-0.685
				c0.118-0.2,0.272-0.366,0.464-0.498c0.192-0.132,0.411-0.234,0.657-0.305c0.246-0.071,0.497-0.107,0.753-0.107
				c0.256,0,0.509,0.03,0.758,0.091c0.249,0.061,0.472,0.161,0.667,0.3c0.196,0.139,0.354,0.321,0.475,0.546
				c0.121,0.225,0.182,0.498,0.182,0.819h-0.901C196.143,64.156,196.036,63.92,195.806,63.76z"/>
		</g>
	</g>
</g>
</svg>
