<?xml version="1.0" encoding="utf-8"?>
<!-- Generator: Adobe Illustrator 17.0.0, SVG Export Plug-In . SVG Version: 6.00 Build 0)  -->
<!DOCTYPE svg PUBLIC "-//W3C//DTD SVG 1.1//EN" "http://www.w3.org/Graphics/SVG/1.1/DTD/svg11.dtd">
<svg version="1.1" id="Capa_1" xmlns="http://www.w3.org/2000/svg" xmlns:xlink="http://www.w3.org/1999/xlink" x="0px" y="0px"
	 width="494.667px" height="140px" viewBox="0 0 494.667 140" enable-background="new 0 0 494.667 140" xml:space="preserve">
<g>
	<rect x="1.613" y="75.362" fill="#005581" width="34.59" height="34.59"/>
	<rect x="43.399" y="75.362" fill="#EF4135" width="34.59" height="34.59"/>
	<g>
		<polygon fill="#005581" points="401.684,95.433 415.29,95.433 415.29,89.211 401.684,89.211 401.684,81.544 428.643,81.544 
			428.643,75.309 394.536,75.309 394.536,109.947 429.692,109.947 429.692,103.716 401.684,103.716 		"/>
		<g>
			<g>
				<path fill="#005581" d="M348.868,75.309h-19.684v34.638h19.684c10.869,0,19.703-7.743,19.703-17.321
					C368.571,83.066,359.737,75.309,348.868,75.309z M348.868,103.757l-0.017-0.041H336.35V81.544h12.501l0.017-0.031
					c6.908,0,12.512,4.97,12.512,11.113C361.38,98.758,355.776,103.757,348.868,103.757z"/>
			</g>
		</g>
		<path fill="#005581" d="M145.541,91.586c1.854-1.751,2.979-4.072,2.979-6.622c0-5.35-4.904-9.655-10.93-9.655h-25.01v34.644
			h23.615v-0.027c0.22,0.009,0.392,0.027,0.581,0.027c7.561,0,13.679-3.819,13.679-10.372
			C150.456,96.303,148.543,93.438,145.541,91.586z M119.755,81.543h16.441c1.539,0,2.789,0.234,3.688,0.8
			c0.895,0.697,1.468,1.803,1.468,3.007c0,0.303-0.015,0.563-0.073,0.803c-0.126,0.686-0.434,1.272-0.893,1.77
			c-0.895,0.876-2.359,1.22-4.19,1.22v0.077h-16.441V81.543z M136.746,103.76h-7.386v-0.038h-9.605v-8.284h16.991l0,0
			c3.93,0.016,6.514,1.081,6.514,4.159C143.259,102.663,140.675,103.734,136.746,103.76z"/>
		<g>
			<g>
				<path fill="#005581" d="M475.336,75.309h-7.247l-18.791,34.638h7.885l5.975-10.945h17.108l5.978,10.945h7.87L475.336,75.309z
					 M466.528,92.803l5.067-9.32l0.11-0.203l0.082,0.203l5.096,9.32H466.528z"/>
			</g>
		</g>
		<path fill="#005581" d="M196.362,75.309h-7.201l-18.783,34.644h7.869l5.959-10.952h17.11l5.973,10.952h7.884L196.362,75.309z
			 M187.573,92.81l5.1-9.317l0.096-0.203l0.097,0.203l5.082,9.317H187.573z"/>
		<polygon fill="#005581" points="245.602,75.309 238.417,75.309 238.417,109.954 274.184,109.947 274.184,103.716 245.601,103.722 
					"/>
		<rect x="293.904" y="75.309" fill="#005581" width="7.195" height="34.638"/>
	</g>
</g>
</svg>
