<?xml version="1.0" encoding="utf-8"?>
<!DOCTYPE svg PUBLIC "-//W3C//DTD SVG 1.1//EN" "http://www.w3.org/Graphics/SVG/1.1/DTD/svg11.dtd">
<svg version="1.1" id="Layer_1" xmlns="http://www.w3.org/2000/svg" xmlns:xlink="http://www.w3.org/1999/xlink" x="0px" y="0px"
	 width="280px" height="88.5px" viewBox="0 0 280 88.5" enable-background="new 0 0 280 88.5" xml:space="preserve">
<path fill="#4C565C" d="M19.861,40.798l-3.319,11.438c-0.28,0.999-1.2,1.72-2.24,1.72s-1.92-0.681-2.24-1.641L6.744,35.559
	c-0.08-0.2-0.08-0.399-0.08-0.6c0-1.08,0.84-2.08,2.04-2.08c0.88,0,1.76,0.561,2,1.44l3.56,12.157l3.359-11.878
	c0.28-1,1.2-1.72,2.24-1.72c1.04,0,2,0.92,2.2,1.64l3.359,11.958l3.56-12.157c0.24-0.88,1.12-1.44,2-1.44
	c1.08,0,2.04,0.88,2.04,2.08c0,0.2,0,0.399-0.08,0.6L27.62,52.276c-0.32,0.999-1.2,1.68-2.2,1.68c-1.04,0-1.96-0.721-2.24-1.68
	L19.861,40.798z"/>
<path fill="#4C565C" d="M48.221,34.959c0-1.16,0.879-2.08,2.04-2.08c1.16,0,2.08,0.92,2.08,2.08v15.518
	c0,1.119-0.72,2.079-1.76,2.439c-1.959,0.68-4.079,1.04-6.279,1.04c-2.32,0-4.399-0.681-5.879-2.16
	c-1.44-1.439-2.12-3.52-2.12-5.879V34.959c0-1.16,0.92-2.08,2.08-2.08c1.12,0,2.04,0.92,2.04,2.08v11.278
	c0,2.479,1.439,3.879,3.879,3.879c1.36,0,2.679-0.16,3.919-0.479V34.959z"/>
<path fill="#4C565C" d="M69.3,40.558c0-2.439-1.439-3.879-3.919-3.879c-1.32,0-2.639,0.2-3.879,0.52v14.678
	c0,1.16-0.919,2.08-2.04,2.08c-1.16,0-2.08-0.92-2.08-2.08V36.358c0-1.12,0.68-2.079,1.76-2.439c1.959-0.68,4.079-1.04,6.239-1.04
	c2.36,0,4.359,0.76,5.799,2.24c1.439,1.439,2.239,3.439,2.239,5.759v10.998c0,1.16-0.919,2.08-2.08,2.08
	c-1.16,0-2.04-0.92-2.04-2.08V40.558z"/>
<path fill="#4C565C" d="M77.583,40.878c0-2.319,0.72-4.359,2.16-5.799c1.479-1.48,3.519-2.2,5.839-2.2c1.36,0,2.839,0.48,3.919,1.04
	c0-2.6,0-6.719,0-6.719c0-1.16,0.88-2.08,2.04-2.08s2.08,0.92,2.08,2.08v23.276c0,1.119-0.72,2.079-1.76,2.439
	c-2,0.68-4.119,1.04-6.279,1.04c-2.32,0-4.319-0.761-5.799-2.24c-1.44-1.439-2.2-3.439-2.2-5.799V40.878z M89.5,38.118
	c-1.08-0.92-2.479-1.439-3.919-1.439c-2.439,0-3.879,1.439-3.879,3.879v5.72c0,2.479,1.44,3.879,3.879,3.879
	c1.36,0,2.68-0.16,3.919-0.52V38.118z"/>
<path fill="#4C565C" d="M102.061,45.357c0,1.64,0.28,2.719,0.8,3.439c0.68,0.88,1.72,1.359,3.08,1.359c1.52,0,2.959-0.44,4.319-1.04
	c0.28-0.12,0.56-0.2,0.84-0.2c1,0,1.959,0.84,1.959,1.88c0,0.76-0.32,1.44-1.04,1.8c-1.92,0.92-3.959,1.36-6.079,1.36
	c-2.32,0-4.319-0.761-5.799-2.24c-1.44-1.439-2.2-3.439-2.2-5.799v-5.039c0-2.319,0.76-4.319,2.2-5.759
	c1.479-1.48,3.479-2.24,5.799-2.24c2.36,0,4.359,0.76,5.799,2.24c1.44,1.439,2.24,3.439,2.24,5.759v1.88c0,1.439-1.16,2.6-2.6,2.6
	H102.061z M109.86,41.558c0-3.319-1.36-4.879-3.919-4.879c-2.52,0-3.879,1.52-3.879,4.879H109.86z"/>
<path fill="#4C565C" d="M118.301,38.838c0-3.399,2.56-5.959,5.959-5.959c1,0,2,0.12,3,0.32c0.96,0.2,1.64,1,1.64,1.96
	c0,1.079-0.8,1.919-1.959,1.919c-0.24,0-0.36,0-0.68-0.08c-0.64-0.159-1.359-0.319-2-0.319c-1,0-1.84,0.84-1.84,1.84v13.357
	c0,1.16-0.919,2.08-2.04,2.08c-1.16,0-2.08-0.92-2.08-2.08V38.838z"/>
<path fill="#4C565C" d="M193.18,52.916c-1.2,0.6-2.56,1.04-3.919,1.04c-2.32,0-4.319-0.761-5.8-2.24
	c-1.439-1.439-2.199-3.439-2.199-5.799v-5.039c0-2.319,0.76-4.319,2.199-5.759c1.48-1.48,3.479-2.24,5.8-2.24
	c2.199,0,4.278,0.36,6.278,1.04c1.04,0.36,1.76,1.319,1.76,2.439v18.117c0,2.319-0.8,4.319-2.239,5.759
	c-1.44,1.479-3.439,2.24-5.799,2.24c-2,0-3.96-0.4-5.8-1.24c-0.76-0.36-1.239-1.04-1.239-1.84c0-1.04,0.88-1.92,1.999-1.92
	c0.28,0,0.641,0.12,0.92,0.24c1.32,0.56,2.68,0.96,4.12,0.96c2.479,0,3.919-1.76,3.919-4.199V52.916z M193.18,37.198
	c-1.24-0.319-2.56-0.52-3.919-0.52c-2.44,0-3.88,1.439-3.88,3.879v5.72c0,2.479,1.439,3.879,3.88,3.879
	c1.439,0,2.839-0.52,3.919-1.439V37.198z"/>
<path fill="#4C565C" d="M202.341,38.838c0-3.399,2.56-5.959,5.959-5.959c1,0,2,0.12,3,0.32c0.959,0.2,1.64,1,1.64,1.96
	c0,1.079-0.8,1.919-1.96,1.919c-0.24,0-0.36,0-0.68-0.08c-0.641-0.159-1.36-0.319-2-0.319c-1,0-1.84,0.84-1.84,1.84v13.357
	c0,1.16-0.92,2.08-2.039,2.08c-1.16,0-2.08-0.92-2.08-2.08V38.838z"/>
<path fill="#4C565C" d="M231.738,45.557c0,2.44-0.8,4.56-2.319,6.079s-3.64,2.32-6.079,2.32s-4.56-0.801-6.079-2.32
	s-2.319-3.639-2.319-6.079v-4.279c0-2.439,0.8-4.559,2.319-6.078c1.52-1.521,3.64-2.32,6.079-2.32s4.56,0.8,6.079,2.32
	c1.52,1.52,2.319,3.639,2.319,6.078V45.557z M227.619,40.958c0-2.52-1.64-4.279-4.279-4.279c-2.72,0-4.279,1.56-4.279,4.279v4.959
	c0,2.68,1.56,4.239,4.279,4.239s4.279-1.56,4.279-4.239V40.958z"/>
<path fill="#4C565C" d="M247.818,34.959c0-1.16,0.88-2.08,2.04-2.08s2.079,0.92,2.079,2.08v15.518c0,1.119-0.72,2.079-1.76,2.439
	c-1.959,0.68-4.079,1.04-6.278,1.04c-2.319,0-4.399-0.681-5.879-2.16c-1.44-1.439-2.12-3.52-2.12-5.879V34.959
	c0-1.16,0.92-2.08,2.08-2.08c1.119,0,2.039,0.92,2.039,2.08v11.278c0,2.479,1.44,3.879,3.88,3.879c1.359,0,2.68-0.16,3.919-0.479
	V34.959z"/>
<path fill="#4C565C" d="M256.98,36.358c0-1.12,0.72-2.119,1.76-2.439c2-0.64,4.079-1.04,6.239-1.04c2.359,0,4.359,0.76,5.799,2.24
	c1.439,1.439,2.239,3.439,2.239,5.759v5.039c0,2.359-0.76,4.439-2.199,5.879c-1.439,1.479-3.199,2.16-5.56,2.16
	c-1.319,0-2.919-0.48-4.159-1.04v7.479c0,1.16-0.92,2.08-2.039,2.08c-1.16,0-2.08-0.92-2.08-2.08V36.358z M268.898,40.558
	c0-2.439-1.439-3.879-3.919-3.879c-1.32,0-2.6,0.16-3.88,0.479v11.599c1.12,0.92,2.439,1.399,3.88,1.399
	c2.479,0,3.919-1.399,3.919-3.879V40.558z"/>
<g>
	<path fill="#95C11F" d="M140.255,9.231c-0.033,0.397-0.05,0.793-0.05,1.187c0.003,3.383,1.233,6.67,3.72,9.16
		c2.095,2.091,4.753,3.293,7.556,3.623c-2.086-2.78-3.29-6.146-3.29-9.678c0-0.791,0.064-1.589,0.186-2.388
		c-2.082-1.303-4.483-1.954-6.932-1.956C141.048,9.18,140.651,9.197,140.255,9.231z"/>
	<path fill="#95C11F" d="M150.498,11.038c-0.147,0.834-0.217,1.663-0.217,2.485c0,3.457,1.263,6.751,3.445,9.419
		c-0.022-0.328-0.034-0.656-0.034-0.982c0-3.701,1.362-7.343,4.11-10.09c1.064-1.065,2.262-1.919,3.547-2.569
		c-0.251-3.118-1.516-6.06-3.546-8.466C154.035,3,151.279,6.614,150.498,11.038z"/>
	<path fill="#95C11F" d="M169.971,9.132c-0.396-0.034-0.794-0.051-1.186-0.051c-3.383,0.001-6.671,1.233-9.16,3.722
		c-2.487,2.488-3.722,5.775-3.722,9.157c0,0.396,0.016,0.793,0.05,1.19c0.398,0.034,0.797,0.051,1.191,0.05
		c3.381-0.001,6.667-1.234,9.156-3.72c2.488-2.49,3.721-5.777,3.721-9.159C170.021,9.924,170.005,9.528,169.971,9.132z"/>
	<linearGradient id="SVGID_1_" gradientUnits="userSpaceOnUse" x1="143.8413" y1="29.4452" x2="165.5639" y2="51.1678">
		<stop  offset="0" style="stop-color:#F7A941"/>
		<stop  offset="0.1496" style="stop-color:#F59E39"/>
		<stop  offset="0.4388" style="stop-color:#F28C2E"/>
		<stop  offset="0.7244" style="stop-color:#F08128"/>
		<stop  offset="1" style="stop-color:#F07E26"/>
	</linearGradient>
	<path fill="url(#SVGID_1_)" d="M164.968,28.891c-2.72-2.449-6.31-3.952-10.258-3.952c-8.485,0-15.359,6.877-15.359,15.362
		c0,3.474,1.166,6.669,3.112,9.242c0.399,0.528,0.817,1.037,1.278,1.508l10.966,10.974l10.968-10.974
		c2.716-2.771,4.393-6.565,4.393-10.75C170.069,35.765,168.094,31.702,164.968,28.891z"/>
</g>
</svg>
