<?xml version="1.0" encoding="utf-8"?>
<svg version="1.1"
	 xmlns:dc="http://purl.org/dc/elements/1.1/" xmlns:cc="http://creativecommons.org/ns#" xmlns:rdf="http://www.w3.org/1999/02/22-rdf-syntax-ns#" xmlns:svg="http://www.w3.org/2000/svg" xmlns:sodipodi="http://sodipodi.sourceforge.net/DTD/sodipodi-0.dtd" xmlns:inkscape="http://www.inkscape.org/namespaces/inkscape" sodipodi:docname="logo introbay-negro.svg" inkscape:export-xdpi="197.53935" inkscape:export-filename="/home/pedrodelgado/Escritorio/logo_summer.png" inkscape:export-ydpi="197.53935" inkscape:version="0.48.4 r9939"
	 xmlns="http://www.w3.org/2000/svg" xmlns:xlink="http://www.w3.org/1999/xlink" x="0px" y="0px" width="511px" height="146px"
	 viewBox="-15.029 -22.268 511 146" enable-background="new -15.029 -22.268 511 146" xml:space="preserve">
<sodipodi:namedview  id="namedview4" borderopacity="1" inkscape:cy="39.283359" fit-margin-left="0" inkscape:zoom="1.3798317" fit-margin-top="0" inkscape:cx="246.46988" gridtolerance="10" bordercolor="#666666" showgrid="false" guidetolerance="10" pagecolor="#ffffff" objecttolerance="10" fit-margin-bottom="0" fit-margin-right="0" inkscape:current-layer="g14" inkscape:window-maximized="1" inkscape:window-y="24" inkscape:window-x="65" inkscape:window-height="1176" inkscape:window-width="1855" inkscape:pageopacity="0" inkscape:pageshadow="2">
	</sodipodi:namedview>
<g id="g14">
	<g id="g3824">
		<g id="g20" transform="translate(106.27319,712.1284)">
			<path id="path22" inkscape:connector-curvature="0" fill="#1A1A1A" d="M-105.011-606.862c0,0,1.891,2.079,4.982,2.079
				c2.319,0,4.158-1.439,4.158-3.677c0-5.302-9.54-3.838-9.54-9.672c0-2.479,2.211-4.823,5.596-4.823
				c3.037,0,4.743,1.731,4.743,1.731l-0.64,0.986c0,0-1.599-1.599-4.076-1.599c-2.771,0-4.424,1.865-4.424,3.677
				c0,4.929,9.54,3.41,9.54,9.645c0,2.693-2.079,4.85-5.41,4.85c-3.676,0-5.701-2.318-5.701-2.318L-105.011-606.862z"/>
		</g>
		<g id="g24" transform="translate(117.84639,724.7476)">
			<path id="path26" inkscape:connector-curvature="0" fill="#1A1A1A" d="M-102.118-635.255h1.146v12.204
				c0,3.518,2.291,5.675,5.809,5.675c3.516,0,5.835-2.157,5.835-5.729v-12.15h1.146v12.256c0,4.104-2.851,6.715-6.955,6.715
				s-6.981-2.611-6.981-6.715V-635.255z"/>
		</g>
		<g id="g28" transform="translate(138.35129,717.2871)">
			<path id="path30" inkscape:connector-curvature="0" fill="#1A1A1A" d="M-96.991-618.469c2.451,0,3.996-1.759,3.996-4.29
				c0-1.651-0.825-2.984-2.185-3.598c-0.533-0.239-1.119-0.372-2.611-0.372h-4.262v8.26H-96.991z M-103.2-627.794h5.462
				c1.733,0,2.611,0.185,3.358,0.559c1.545,0.772,2.585,2.345,2.585,4.476c0,2.665-1.546,4.664-3.731,5.142v0.054
				c0,0,0.186,0.214,0.426,0.666l4.184,7.754h-1.359l-4.424-8.26h-5.355v8.26h-1.146V-627.794z"/>
		</g>
		<g id="g32" transform="translate(146.61989,724.7476)">
			<path id="path34" inkscape:connector-curvature="0" fill="#1A1A1A" d="M-94.924-635.255h9.406v1.066h-8.26v7.78h7.14v1.066h-7.14
				v8.739h-1.146V-635.255z"/>
		</g>
		<path id="path36" inkscape:connector-curvature="0" fill="#1A1A1A" d="M65.23,89.492h1.146v18.651H65.23V89.492z"/>
		<g id="g38" transform="translate(162.96749,724.7476)">
			<path id="path40" inkscape:connector-curvature="0" fill="#1A1A1A" d="M-90.837-635.255h1.066l10.631,14.629
				c0.613,0.853,1.519,2.345,1.519,2.345h0.054c0,0-0.134-1.413-0.134-2.345v-14.629h1.146v18.651h-1.066l-10.631-14.628
				c-0.614-0.852-1.519-2.345-1.519-2.345h-0.054c0,0,0.134,1.413,0.134,2.345v14.628h-1.146V-635.255z"/>
		</g>
		<g id="g42" transform="translate(185.43339,725.0034)">
			<path id="path44" inkscape:connector-curvature="0" fill="#1A1A1A" d="M-85.221-635.83c4.21,0,6.501,2.105,6.501,2.105
				l-0.692,0.879c0,0-2.239-1.891-5.809-1.891c-4.689,0-8.1,3.73-8.1,8.552c0,4.85,3.331,8.554,7.94,8.554
				c3.997,0,6.395-3.064,6.395-3.064v-3.598h-3.33v-1.066h4.476v8.5h-1.146v-1.625c0-0.4,0.026-0.8,0.026-0.8h-0.052
				c0,0-2.239,2.745-6.369,2.745c-5.196,0-9.139-4.236-9.139-9.646C-94.52-631.567-90.497-635.83-85.221-635.83"/>
		</g>
		<g id="g46" transform="translate(204.46609,723.895)">
			<path id="path48" inkscape:connector-curvature="0" fill="#1A1A1A" d="M-80.463-633.337h-6.955v-1.066h15.055v1.066h-6.954
				v17.586h-1.146V-633.337z"/>
		</g>
		<g id="g50" transform="translate(213.41719,724.7476)">
			<path id="path52" inkscape:connector-curvature="0" fill="#1A1A1A" d="M-78.225-635.255h1.146v8.766h11.83v-8.766h1.146v18.651
				h-1.146v-8.819h-11.83v8.819h-1.146V-635.255z"/>
		</g>
		<g id="g54" transform="translate(229.31709,724.7476)">
			<path id="path56" inkscape:connector-curvature="0" fill="#1A1A1A" d="M-74.25-635.255h10.205v1.066h-9.059v7.646h7.434v1.066
				h-7.434v7.807h9.565v1.065H-74.25V-635.255z"/>
		</g>
		<g id="g58" transform="translate(247.39139,724.7476)">
			<path id="path60" inkscape:connector-curvature="0" fill="#1A1A1A" d="M-69.731-635.255h1.066l10.631,14.629
				c0.612,0.853,1.519,2.345,1.519,2.345h0.054c0,0-0.134-1.413-0.134-2.345v-14.629h1.146v18.651h-1.066l-10.631-14.628
				c-0.614-0.852-1.519-2.345-1.519-2.345h-0.054c0,0,0.134,1.413,0.134,2.345v14.628h-1.146V-635.255z"/>
		</g>
		<g id="g62" transform="translate(263.41919,724.7476)">
			<path id="path64" inkscape:connector-curvature="0" fill="#1A1A1A" d="M-65.724-635.255h10.205v1.066h-9.059v7.646h7.434v1.066
				h-7.434v7.807h9.565v1.065h-10.711V-635.255z"/>
		</g>
		<g id="g66" transform="translate(279.02169,723.895)">
			<path id="path68" inkscape:connector-curvature="0" fill="#1A1A1A" d="M-61.824-633.337h-6.955v-1.066h15.055v1.066h-6.954
				v17.586h-1.146V-633.337z"/>
		</g>
		<g id="g138" transform="translate(259.66429,771.4268)">
			<path id="path140" inkscape:connector-curvature="0" fill="#1A1A1A" d="M-66.663-740.283h10.979c3.226,0,5.661-0.918,7.44-2.799
				c1.802-1.915,2.679-4.528,2.679-7.986c0-3.42-0.858-5.961-2.618-7.78c-1.751-1.836-4.142-2.723-7.311-2.723h-11.169V-740.283z
				 M-30.043-712.777h2.97v11.852h-6.5c-3.114,0-5.324-0.357-6.757-1.099c-1.65-0.841-3.084-2.491-4.38-5.05l-9.362-18.581
				c-1.029-1.842-2.736-2.729-5.335-2.729h-7.255v27.459h-13.235v-60.646h-6.353v-11.852h31.854c6.577,0,11.974,1.979,16.045,5.874
				c4.186,4.015,6.311,9.43,6.311,16.101c0,5.611-1.615,10.384-4.798,14.186c-1.805,2.179-3.847,3.79-6.08,4.812
				c0.438,0.541,0.834,1.159,1.185,1.846l8.315,16.532C-32.994-713.203-31.864-712.777-30.043-712.777 M-99.006-773.423h-47.515
				c-2.7,0-4.595,0.586-5.804,1.795c-1.206,1.21-1.792,3.104-1.792,5.801v10.801h12.137v-6.121c0-0.234,0.031-0.351,0.025-0.376
				c0.045-0.016,0.168-0.048,0.399-0.048h12.175v60.646h13.236v-60.646h12.171c0.235,0,0.349,0.038,0.38,0.025
				c0.016,0.047,0.048,0.165,0.048,0.399v6.121h12.137v-10.801c0-2.694-0.586-4.591-1.792-5.801
				C-94.411-772.837-96.311-773.423-99.006-773.423 M-178.862-765.443v37.487c0,0.731,0.015,1.51,0.054,2.334
				c-0.76-1.216-1.485-2.328-2.173-3.325l-31.271-44.476h-11.501v60.222c0,0.235-0.031,0.355-0.025,0.378
				c-0.041,0.015-0.161,0.046-0.396,0.046h-5.926v11.853h11.607c5.143,0,7.976-2.834,7.976-7.979v-37.44
				c0-0.751-0.016-1.551-0.045-2.406c0.764,1.241,1.507,2.374,2.214,3.4l31.32,44.425h11.405v-60.223
				c0-0.234,0.028-0.351,0.022-0.374c0.048-0.019,0.168-0.05,0.401-0.05h5.927v-11.852h-11.516
				C-175.997-773.423-178.862-770.589-178.862-765.443 M-260.664-773.423h26.225v11.852h-6.731v48.794h6.731v11.852h-26.225v-11.852
				h6.729v-48.794h-6.729V-773.423z"/>
		</g>
		<g id="g142" transform="translate(490.81669,796.5581)">
			<path id="path144" inkscape:connector-curvature="0" fill="#1A1A1A" d="M-8.875-796.828v11.849h-3.584
				c-1.261,0-2.135,0.504-2.845,1.628l-17.164,27.656v31.364h-13.189v-31.361l-17.263-27.661c-0.704-1.121-1.55-1.625-2.744-1.625
				h-3.683v-11.849h6.214c2.764,0,4.794,0.361,6.202,1.102c1.59,0.874,3.08,2.518,4.589,5.034l10.459,17.381
				c0.969,1.646,1.905,3.325,2.799,5.006c0.886-1.688,1.84-3.369,2.849-5.019l10.355-17.365c2.419-4.075,6.054-6.14,10.791-6.14
				H-8.875z M-81.731-755.858h-15.734l6.715-18.713c0.381-1.071,0.766-2.306,1.154-3.693c0.407,1.386,0.806,2.621,1.186,3.695
				C-88.41-774.568-81.731-755.858-81.731-755.858z M-61.194-737.207l-22.051-59.621h-12.669l-22.064,59.675
				c-0.209,0.614-0.533,0.973-1.567,0.973h-3.109v11.849h7.121c2.811,0,4.851-0.475,6.266-1.473c1.339-0.975,2.472-2.714,3.47-5.342
				l4.746-13.049h23.039l4.736,13.03c0.922,2.621,2.029,4.376,3.401,5.374c1.394,0.985,3.439,1.46,6.251,1.46h7.214v-11.849h-3.203
				C-60.652-736.181-60.972-736.54-61.194-737.207 M-143.154-770.208c-1.518,1.621-3.48,2.414-5.997,2.414h-11.791v-17.185h11.551
				c2.726,0,4.796,0.754,6.294,2.28c1.45,1.529,2.154,3.55,2.154,6.171C-140.944-773.871-141.669-771.803-143.154-770.208
				 M-140.896-738.898c-1.745,1.828-4.132,2.718-7.301,2.718h-12.321c-0.211,0-0.329-0.029-0.37-0.029l-0.006,0.003
				c-0.02-0.048-0.048-0.168-0.048-0.403v-19.716h12.745c3.042,0,5.404,0.905,7.225,2.779c1.817,1.85,2.704,4.25,2.704,7.341
				C-138.269-743.085-139.122-740.697-140.896-738.898 M-134.184-762.823c4.428-3.253,6.669-8.17,6.669-14.661
				c0-5.981-2.102-10.794-6.247-14.309c-3.961-3.341-9.186-5.035-15.531-5.035h-31.236v11.849h6.349v52.667
				c0,5.149,2.833,7.98,7.982,7.98h17.523c6.78,0,12.416-1.803,16.751-5.353c4.761-3.856,7.177-9.258,7.177-16.044
				c0-4.302-1.089-8.141-3.239-11.402C-129.605-759.607-131.681-761.513-134.184-762.823"/>
		</g>
		<g id="g146" transform="translate(322.12429,787.5908)">
			<path id="path148" inkscape:connector-curvature="0" fill="#1A1A1A" d="M-51.048-776.652c12.539,0,22.741,10.2,22.741,22.739
				c0,7.504-3.666,14.154-9.284,18.299c-2.873,0.678-5.735,0.213-8.233-1.38c-3.04-1.935-6.006-7.939-3.35-11.669
				c1.494-2.096,4.812-2.451,6.484-0.349c1.305,1.628,0.571,3.179-0.075,4.901c3.591-1.333,4.879-3.761,5.056-7.105
				c0.241-4.579-3.408-8.733-7.388-10.589c-7.522-3.501-16.667,0.289-21.798,6.466c-2.206,2.654-4.166,7.118-4.661,11.19
				c-1.421-2.964-2.235-6.266-2.235-9.765C-73.789-766.452-63.587-776.652-51.048-776.652 M-51.048-791.591
				c-20.808,0-37.681,16.87-37.681,37.677c0,20.812,16.874,37.68,37.681,37.68c20.81,0,37.681-16.867,37.681-37.68
				C-13.367-774.721-30.238-791.591-51.048-791.591"/>
		</g>
		<g id="g150" transform="translate(323.53249,766.1475)">
			<path id="path152" inkscape:connector-curvature="0" fill="#1A1A1A" d="M-50.696-728.405l0.022-0.006
				c-0.01,0.006-0.022,0.013-0.029,0.025L-50.696-728.405z"/>
		</g>
		<g id="g154" transform="translate(327.84939,755.873)">
			<path id="path156" inkscape:connector-curvature="0" fill="#1A1A1A" d="M-49.617-705.287l-0.083-0.064
				c0.056,0.026,0.118,0.047,0.174,0.074L-49.617-705.287z"/>
		</g>
	</g>
</g>
</svg>
