<?xml version="1.0" encoding="UTF-8"?>
<svg width="330.265" height="130" xmlns="http://www.w3.org/2000/svg" xmlns:svg="http://www.w3.org/2000/svg">
 <g>
  <title>Layer 1</title>
  <path id="svg_1" d="m11.087,10.437l0,11.225l18.667999,0l0,6.65l-18.667999,0l0,17.112l-7.9,0l0,-41.637l27.574,0l0,6.65l-19.674,0z" fill="#999999"/>
  <path id="svg_2" d="m29.365,82.323997l7.613001,0l0,1.375999c0,5.564003 -1.014999,9.161003 -3.045002,10.791s-6.519999,2.445 -13.469999,2.445c-7.886999,0 -12.737999,-1.287994 -14.552999,-3.864998c-1.816,-2.576996 -2.723,-9.468002 -2.723,-20.672997c0,-6.598 1.23,-10.937004 3.69,-13.016003s7.604,-3.118999 15.432,-3.118999c5.700001,0 9.507,0.854 11.42,2.562c1.912998,1.708 2.869999,5.099998 2.869999,10.175999l0.028999,0.907997l-7.612999,0l0,-1.024994c0,-2.616005 -0.493,-4.290001 -1.479,-5.022003c-0.986,-0.731998 -3.236,-1.098 -6.75,-1.098c-4.705,0 -7.53,0.576 -8.476999,1.727997s-1.42,4.568001 -1.42,10.249001c0,7.652 0.425,12.181999 1.274,13.587006c0.849,1.405998 3.597,2.107994 8.243,2.107994c3.768,0 6.212999,-0.389999 7.334999,-1.170998s1.684,-2.499001 1.684,-5.153999l-0.059999,-1.787003z" fill="#999999"/>
  <g id="svg_3">
   <path id="svg_4" d="m87.769997,45.423l0,-41.636l20.528,0c5.104004,0 8.622002,0.885 10.554001,2.654c1.931,1.769 2.898003,4.972 2.898003,9.608c0,4.209 -0.483002,7.087 -1.448997,8.632c-0.966003,1.546 -2.944,2.613001 -5.933006,3.203001l0,0.275c4.616005,0.285 6.924004,2.979 6.924004,8.083l0,9.181l-7.900002,0l0,-7.595001c0,-4.290001 -2.114998,-6.435999 -6.345001,-6.435999l-11.376999,0l0,14.031l-7.900002,0zm7.900002,-20.681l11.347,0c2.704002,0 4.499001,-0.483 5.384003,-1.449001c0.885002,-0.966 1.326996,-2.903 1.326996,-5.810999c0,-2.969 -0.380997,-4.885 -1.143997,-5.75c-0.763,-0.864 -2.434998,-1.296 -5.017998,-1.296l-11.896004,0l0,14.306001z" fill="#999999"/>
   <path id="svg_5" d="m125.010002,56.613998l0,39.971001l-12.855003,0l-11.419998,-21.932999c-0.566002,-1.093002 -1.454002,-3.005997 -2.665001,-5.738998l-1.288002,-2.870003l-1.258995,-2.869999l-0.292999,0l0.116997,2.634998l0.087997,2.606003l0.059006,5.241997l0,22.928001l-7.584,0l0,-39.970001l12.854996,0l10.395004,20.263c0.917999,1.795998 1.980995,3.973 3.191994,6.529999l1.523003,3.25l1.523003,3.279999l0.264,0l-0.088005,-2.576996l-0.087997,-2.577003l-0.058998,-5.153999l0,-23.014999l7.583,0z" fill="#999999"/>
   <path id="svg_6" d="m147.968002,63.408001l0,33.176998l-7.584,0l0,-33.176998l-11.537003,0l0,-6.794003l31.069,0l0,6.794003l-11.947998,0z" fill="#999999"/>
   <path id="svg_7" d="m189.460999,56.613998l7.584,0l0,26.589005c0,5.563995 -1.069,9.243996 -3.205994,11.039993c-2.138,1.796005 -6.506012,2.694 -13.104004,2.694c-6.968994,0 -11.537003,-0.848999 -13.703995,-2.547997s-3.25,-5.280998 -3.25,-10.747002l0,-27.028l7.584,0l0,27.028c0,2.947998 0.526993,4.817001 1.580994,5.608002s3.533005,1.185997 7.438004,1.185997c4.001999,0 6.514999,-0.399994 7.539993,-1.200996c1.025009,-0.800003 1.537003,-2.762001 1.537003,-5.886002l0,-26.735001z" fill="#999999"/>
   <path id="svg_8" d="m79.223,56.613998l0,39.971001l-39.105999,0l0,-39.971001l39.105999,0zm-22.495998,15.270004l0,7.202995l2.634998,0l0.028999,0.877998c0,1.796005 -1.073997,2.694 -3.221001,2.694l0,3.133003c0.605003,0.039001 1.015003,0.058998 1.230003,0.058998c4.021,0 6.031998,-2.333 6.031998,-6.999001l0,-6.968994l-6.704998,0l0,0.000999z" fill="#009244"/>
   <path id="svg_9" d="m78.875,3.787l0,41.636l-38.757999,0l0,-41.636l38.757999,0zm-22.425999,18.319001l0,7.202999l6.705997,0l0,-7.202999l-6.705997,0z" fill="#0971B7"/>
   <g id="svg_10">
    <path id="svg_11" d="m3.187,125.032997l0,-13.995995l6.88,0c1.955,0 3.323999,0.426994 4.106999,1.280998c0.782001,0.853996 1.174,2.351997 1.174,4.490997c0,3.493004 -0.313999,5.737 -0.943,6.731003c-0.629,0.995003 -2.047,1.491997 -4.255,1.491997l-6.963,0l0,0.000999zm2.655,-2.235001l3.784,0c1.271,0 2.092999,-0.292 2.466,-0.876999c0.373,-0.584 0.559,-1.874001 0.559,-3.869995c0,-2.064003 -0.167,-3.376999 -0.502,-3.938004s-1.121,-0.841995 -2.358,-0.841995l-3.949,0l0,9.526993z" fill="#0971B7"/>
    <path id="svg_12" d="m17.285999,125.032997l0,-13.995995l6.901001,0c1.716,0 2.897999,0.296997 3.548,0.891998s0.973999,1.670998 0.973999,3.228996c0,1.416 -0.163,2.383003 -0.487,2.902s-0.989,0.879005 -1.993999,1.076004l0,0.092995c1.552,0.096001 2.327999,1.002007 2.327999,2.718002l0,3.085999l-2.656,0l0,-2.552994c0,-1.442001 -0.711,-2.164001 -2.132999,-2.164001l-3.825001,0l0,4.716995l-2.656,0zm2.656,-6.951996l3.814001,0c0.909,0 1.511999,-0.162003 1.809999,-0.487c0.297001,-0.324005 0.445999,-0.976006 0.445999,-1.953003c0,-0.998001 -0.127998,-1.642998 -0.383999,-1.932999c-0.257,-0.291 -0.819,-0.436996 -1.687,-0.436996l-3.999001,0l0,4.809998z" fill="#0971B7"/>
    <path id="svg_13" d="m39.824001,111.037003l2.655998,0l0,9.310997c0,1.946999 -0.375,3.236 -1.123001,3.864998c-0.748997,0.629005 -2.278,0.943001 -4.588997,0.943001c-2.440002,0 -4.040001,-0.296997 -4.799002,-0.892998c-0.759001,-0.594002 -1.138,-1.848999 -1.138,-3.763l0,-9.463997l2.656,0l0,9.463997c0,1.031998 0.185001,1.686996 0.554001,1.963997c0.368999,0.276001 1.237,0.415001 2.604,0.415001c1.401001,0 2.280998,-0.139999 2.640999,-0.420998c0.358002,-0.278999 0.538002,-0.967003 0.538002,-2.060997l0,-9.360001z" fill="#0971B7"/>
    <path id="svg_14" d="m44.93,125.032997l0,-13.995995l5.639999,0l0.696999,0c1.894001,0 3.170002,0.328995 3.830002,0.988998c0.659,0.658997 0.988998,1.932999 0.988998,3.819c0,1.873001 -0.313999,3.116997 -0.942997,3.732002s-1.900002,0.922997 -3.814003,0.922997l-0.614998,0.011002l-3.126999,0l0,4.520996l-2.657001,0l0,0.000999zm2.655998,-6.757996l3.025002,0c1.202999,0 1.966999,-0.138 2.292,-0.415001c0.324001,-0.276001 0.487,-0.931 0.487,-1.963997c0,-1.182007 -0.134998,-1.915001 -0.404999,-2.199005c-0.271,-0.282997 -0.973,-0.425995 -2.107002,-0.425995l-3.292,0l0,5.003998z" fill="#0971B7"/>
    <path id="svg_15" d="m66.248001,122.346001l-6.040001,0l-0.872002,2.686996l-2.809998,0l4.654999,-13.995995l3.988998,0l4.727005,13.995995l-2.757004,0l-0.891998,-2.686996zm-0.614998,-1.958l-2.420002,-7.291l-2.379002,7.291l4.799004,0z" fill="#0971B7"/>
    <path id="svg_16" d="m73.764,111.037003l0,11.616997l6.561996,0l0,2.378998l-9.217995,0l0,-13.995995l2.655998,0z" fill="#0971B7"/>
    <path id="svg_17" d="m92.498001,113.416l0,11.616997l-2.655998,0l0,-11.616997l-4.040001,0l0,-2.378998l10.878998,0l0,2.378998l-4.182999,0z" fill="#0971B7"/>
    <path id="svg_18" d="m98.025002,125.032997l0,-13.995995l6.900002,0c1.715996,0 2.897995,0.296997 3.548996,0.891998c0.648003,0.595001 0.973999,1.670998 0.973999,3.228996c0,1.416 -0.161995,2.383003 -0.487,2.902c-0.323997,0.520004 -0.988998,0.879005 -1.993996,1.076004l0,0.092995c1.551994,0.096001 2.327995,1.002007 2.327995,2.718002l0,3.085999l-2.655998,0l0,-2.552994c0,-1.442001 -0.710999,-2.164001 -2.133003,-2.164001l-3.823997,0l0,4.716995l-2.656998,0zm2.655998,-6.951996l3.814003,0c0.907997,0 1.512001,-0.162003 1.809998,-0.487c0.296997,-0.324005 0.445999,-0.976006 0.445999,-1.953003c0,-0.998001 -0.128998,-1.642998 -0.385002,-1.932999c-0.256996,-0.291 -0.819,-0.436996 -1.687996,-0.436996l-3.998001,0l0,4.809998l0.000999,0z" fill="#0971B7"/>
    <path id="svg_19" d="m120.028999,122.346001l-6.040001,0l-0.871002,2.686996l-2.809998,0l4.654999,-13.995995l3.987999,0l4.728004,13.995995l-2.759003,0l-0.890999,-2.686996zm-0.614998,-1.958l-2.419998,-7.291l-2.379005,7.291l4.799004,0z" fill="#0971B7"/>
    <path id="svg_20" d="m127.545998,111.037003l0,13.995995l-2.655998,0l0,-13.995995l2.655998,0z" fill="#0971B7"/>
    <path id="svg_21" d="m143.018997,111.037003l0,13.995995l-4.501999,0l-3.998993,-7.68c-0.197998,-0.382996 -0.51001,-1.052994 -0.932999,-2.009995l-0.451004,-1.006004l-0.44101,-1.003998l-0.102997,0l0.041,0.921997l0.029999,0.913002l0.021011,1.834999l0,8.028999l-2.656006,0l0,-13.995995l4.501999,0l3.639999,7.096001c0.320999,0.628998 0.692993,1.390999 1.117996,2.285995l0.533005,1.138l0.533005,1.148003l0.091995,0l-0.031006,-0.902l-0.029999,-0.902l-0.020996,-1.805l0,-8.058998l2.656998,0l0,0.000999z" fill="#0971B7"/>
    <path id="svg_22" d="m148.136002,111.037003l0,13.995995l-2.656006,0l0,-13.995995l2.656006,0z" fill="#0971B7"/>
    <path id="svg_23" d="m163.608994,111.037003l0,13.995995l-4.501999,0l-3.999008,-7.68c-0.197998,-0.382996 -0.509995,-1.052994 -0.932999,-2.009995l-0.451004,-1.006004l-0.440994,-1.003998l-0.102997,0l0.041,0.921997l0.029999,0.913002l0.020996,1.834999l0,8.028999l-2.655991,0l0,-13.995995l4.501999,0l3.639999,7.096001c0.320999,0.628998 0.692993,1.390999 1.117996,2.285995l0.533005,1.138l0.53299,1.148003l0.09201,0l-0.031006,-0.902l-0.029999,-0.902l-0.020996,-1.805l0,-8.058998l2.656998,0l0,0.000999z" fill="#0971B7"/>
    <path id="svg_24" d="m171.574997,117.588997l6.16301,0l0.041,2.778c0,2.024002 -0.381012,3.328003 -1.144012,3.912003c-0.761993,0.584999 -2.462997,0.876999 -5.10199,0.876999c-2.419998,0 -4.022003,-0.389999 -4.809006,-1.168999s-1.179993,-2.367996 -1.179993,-4.768997c0,-3.062004 0.156998,-4.996002 0.472992,-5.803001c0.389008,-0.984001 0.979996,-1.647003 1.772995,-1.989998c0.792999,-0.341003 2.139999,-0.512001 4.040009,-0.512001c2.487991,0 4.095001,0.264999 4.819,0.793999c0.724991,0.529999 1.08699,1.704002 1.08699,3.521996l-2.686996,0c-0.047989,-0.915993 -0.248001,-1.484993 -0.599991,-1.706993c-0.353012,-0.223 -1.236008,-0.334 -2.650009,-0.334c-1.539001,0 -2.514999,0.191994 -2.927994,0.573997c-0.414001,0.384003 -0.621002,1.281998 -0.621002,2.696999l-0.009995,1.403999l0.020996,1.794998c0,1.388 0.205002,2.271004 0.615005,2.650002c0.409988,0.380005 1.359985,0.569 2.850998,0.569c1.44899,0 2.369995,-0.159996 2.763992,-0.480995c0.393005,-0.321007 0.589996,-1.080002 0.589996,-2.277l0.01001,-0.574005l-3.518005,0l0,-1.956001l0.001999,0z" fill="#0971B7"/>
    <path id="svg_25" d="m194.093002,118.286003l2.276993,0l0,0.450996l-0.020996,1.220001c0,0.588997 -0.084991,1.213997 -0.255997,1.876999l2.009995,1.702003l-1.261993,1.528l-1.682007,-1.416c-0.621994,1.005997 -2.057999,1.507996 -4.306992,1.507996c-2.501999,0 -4.141006,-0.286995 -4.916,-0.861c-0.776001,-0.573997 -1.164001,-1.791 -1.164001,-3.650002c0,-2.098999 0.888992,-3.277 2.666,-3.536995c-0.766006,-0.669998 -1.14801,-1.511002 -1.14801,-2.523003c0,-1.291 0.31601,-2.183998 0.948013,-2.676003c0.632996,-0.491997 1.774994,-0.737999 3.431,-0.737999c1.735001,0 2.919998,0.250999 3.552994,0.754005c0.632004,0.501999 0.947998,1.446999 0.947998,2.834999l-0.011002,0.727997l-2.356995,0l0,-0.409996c0,-0.840004 -0.115005,-1.368004 -0.344009,-1.584c-0.228989,-0.215004 -0.787994,-0.322006 -1.676987,-0.322006c-1.312012,0 -1.969009,0.488007 -1.969009,1.466003c0,0.663002 0.34201,1.284996 1.025009,1.865997l4.25499,3.650002c0.068008,-0.354996 0.104004,-0.687996 0.104004,-0.993996c0,-0.255005 -0.035004,-0.546005 -0.102997,-0.874001zm-5.25,0.051994c-1.031998,0.150002 -1.548004,0.922005 -1.548004,2.316002c0,1.081001 0.175003,1.767998 0.522003,2.062004c0.350006,0.293999 1.162003,0.439995 2.440994,0.439995c1.100006,0 1.812012,-0.048996 2.138,-0.147995c0.324005,-0.099007 0.671005,-0.377007 1.040009,-0.836006l-4.593002,-3.834z" fill="#0971B7"/>
    <path id="svg_26" d="m213.360992,120.039001l2.666,0l0,0.482002c0,1.947998 -0.356003,3.207993 -1.06601,3.778c-0.71199,0.570999 -2.283997,0.855995 -4.716995,0.855995c-2.763,0 -4.460999,-0.450996 -5.097,-1.353996s-0.953995,-3.315002 -0.953995,-7.239006c0,-2.310997 0.431992,-3.829994 1.292999,-4.557999c0.860992,-0.728996 2.662003,-1.091995 5.403,-1.091995c1.996002,0 3.328995,0.298996 3.998993,0.895996c0.669998,0.598999 1.005005,1.786003 1.005005,3.563004l0.011002,0.317001l-2.666,0l0,-0.358002c0,-0.916 -0.173004,-1.501999 -0.518997,-1.759003c-0.345001,-0.255997 -1.133011,-0.385002 -2.363007,-0.385002c-1.647003,0 -2.636993,0.202003 -2.968994,0.605003c-0.331009,0.403 -0.497009,1.599998 -0.497009,3.588997c0,2.68 0.14801,4.266006 0.445999,4.758003c0.297012,0.491997 1.259003,0.737999 2.886002,0.737999c1.319,0 2.17601,-0.137001 2.569,-0.409996c0.393005,-0.273003 0.589005,-0.875 0.589005,-1.805l-0.018997,-0.622002z" fill="#0971B7"/>
    <path id="svg_27" d="m223.511993,110.914001c2.542999,0 4.179993,0.421997 4.910995,1.265999c0.731003,0.845001 1.097,2.732002 1.097,5.666c0,3.206001 -0.367004,5.225998 -1.102005,6.059998c-0.735001,0.834 -2.514999,1.250999 -5.337997,1.250999c-2.542999,0 -4.186996,-0.411995 -4.931992,-1.235001c-0.74501,-0.823997 -1.117004,-2.636993 -1.117004,-5.439995c0,-3.334999 0.365005,-5.431 1.097,-6.285004s2.526016,-1.282997 5.384003,-1.282997zm-0.204987,2.275002c-1.785004,0 -2.826996,0.228996 -3.127991,0.687996s-0.451004,2.043999 -0.451004,4.758003c0,2.009995 0.175995,3.220001 0.528,3.629997c0.352005,0.410004 1.388992,0.614998 3.110992,0.614998c1.647003,0 2.636002,-0.229996 2.964005,-0.691994c0.328003,-0.461006 0.492004,-1.861 0.492004,-4.199005c0,-2.344002 -0.154999,-3.729996 -0.46701,-4.156998c-0.309998,-0.429001 -1.326996,-0.642998 -3.048996,-0.642998z" fill="#0971B7"/>
    <path id="svg_28" d="m244.307007,111.037003l0,13.995995l-4.501999,0l-3.998993,-7.68c-0.197998,-0.382996 -0.51001,-1.052994 -0.932999,-2.009995l-0.451004,-1.006004l-0.44101,-1.003998l-0.102997,0l0.041,0.921997l0.029999,0.913002l0.021011,1.834999l0,8.028999l-2.656006,0l0,-13.995995l4.501999,0l3.639999,7.096001c0.320999,0.628998 0.693008,1.390999 1.117996,2.285995l0.533005,1.138l0.533005,1.148003l0.091995,0l-0.031006,-0.902l-0.029999,-0.902l-0.020996,-1.805l0,-8.058998l2.656998,0l0,0.000999z" fill="#0971B7"/>
    <path id="svg_29" d="m257.153992,115.116997l-2.593994,0c-0.014008,-0.128998 -0.021011,-0.224998 -0.021011,-0.286995c-0.061996,-0.785004 -0.235001,-1.278999 -0.522003,-1.481003c-0.286987,-0.200996 -0.964996,-0.302002 -2.030991,-0.302002c-1.257996,0 -2.07901,0.116005 -2.466003,0.348c-0.386002,0.233002 -0.578995,0.722 -0.578995,1.467003c0,0.882004 0.156998,1.412003 0.472,1.590004s1.353989,0.313995 3.116989,0.409996c2.085007,0.115997 3.434006,0.413002 4.044998,0.891998c0.612,0.479004 0.917999,1.473999 0.917999,2.983002c0,1.860001 -0.358002,3.062004 -1.076996,3.604004c-0.716995,0.543999 -2.299988,0.814995 -4.746994,0.814995c-2.201004,0 -3.662003,-0.266998 -4.384003,-0.799995c-0.720993,-0.533005 -1.082001,-1.613007 -1.082001,-3.240005l-0.009995,-0.513l2.584,0l0.009995,0.297005c0,0.978996 0.171005,1.575996 0.514008,1.794998c0.340988,0.219002 1.274002,0.328003 2.798996,0.328003c1.188995,0 1.947998,-0.125999 2.276001,-0.379005s0.492004,-0.837997 0.492004,-1.753998c0,-0.677002 -0.125,-1.125999 -0.374008,-1.348999c-0.25,-0.222 -0.787994,-0.356003 -1.615005,-0.404999l-1.466995,-0.092003c-2.214996,-0.129997 -3.628998,-0.437996 -4.244003,-0.922997s-0.923996,-1.528 -0.923996,-3.128006c0,-1.632996 0.371002,-2.721992 1.113007,-3.265999c0.740997,-0.542999 2.222992,-0.813995 4.444992,-0.813995c2.104004,0 3.52301,0.249001 4.25499,0.748001c0.731018,0.499001 1.097015,1.473999 1.097015,2.921997l0,0.533997z" fill="#0971B7"/>
    <path id="svg_30" d="m268.341003,111.037003l2.654999,0l0,9.310997c0,1.946999 -0.373993,3.236 -1.122009,3.864998c-0.748993,0.629005 -2.277985,0.943001 -4.588989,0.943001c-2.440002,0 -4.040009,-0.296997 -4.799011,-0.892998c-0.759003,-0.594002 -1.139008,-1.848999 -1.139008,-3.763l0,-9.463997l2.656006,0l0,9.463997c0,1.031998 0.184998,1.686996 0.554016,1.963997c0.368988,0.276001 1.237,0.415001 2.604004,0.415001c1.401001,0 2.280975,-0.139999 2.640991,-0.420998c0.358002,-0.278999 0.537994,-0.967003 0.537994,-2.060997l0,-9.360001l0.001007,0z" fill="#0971B7"/>
    <path id="svg_31" d="m276.104004,111.037003l0,11.616997l6.561981,0l0,2.378998l-9.218994,0l0,-13.995995l2.657013,0z" fill="#0971B7"/>
    <path id="svg_32" d="m289.587006,113.416l0,11.616997l-2.656006,0l0,-11.616997l-4.039001,0l0,-2.378998l10.878998,0l0,2.378998l-4.18399,0z" fill="#0971B7"/>
    <path id="svg_33" d="m297.770996,111.037003l0,13.995995l-2.656006,0l0,-13.995995l2.656006,0z" fill="#0971B7"/>
    <path id="svg_34" d="m313.243011,111.037003l0,13.995995l-4.502014,0l-3.998993,-7.68c-0.197998,-0.382996 -0.509979,-1.052994 -0.932983,-2.009995l-0.451019,-1.006004l-0.440979,-1.003998l-0.103027,0l0.041016,0.921997l0.029999,0.913002l0.020996,1.834999l0,8.028999l-2.656006,0l0,-13.995995l4.502014,0l3.639984,7.096001c0.321014,0.628998 0.693024,1.390999 1.118011,2.285995l0.53299,1.138l0.53302,1.148003l0.09198,0l-0.030975,-0.902l-0.029999,-0.902l-0.021027,-1.805l0,-8.058998l2.657013,0l0,0.000999z" fill="#0971B7"/>
    <path id="svg_35" d="m321.209991,117.588997l6.162994,0l0.041016,2.778c0,2.024002 -0.381012,3.328003 -1.144012,3.912003c-0.761993,0.584999 -2.463013,0.876999 -5.10199,0.876999c-2.420013,0 -4.022003,-0.389999 -4.809021,-1.168999s-1.179993,-2.367996 -1.179993,-4.768997c0,-3.062004 0.157013,-4.996002 0.472992,-5.803001c0.389008,-0.984001 0.980011,-1.647003 1.77301,-1.989998c0.792999,-0.341003 2.140015,-0.512001 4.040009,-0.512001c2.488007,0 4.095001,0.264999 4.819,0.793999c0.725006,0.529999 1.087006,1.704002 1.087006,3.521996l-2.687012,0c-0.048004,-0.915993 -0.247986,-1.484993 -0.600006,-1.706993c-0.352997,-0.223 -1.235992,-0.334 -2.649994,-0.334c-1.539001,0 -2.515015,0.191994 -2.928009,0.573997c-0.414001,0.384003 -0.621002,1.281998 -0.621002,2.696999l-0.009979,1.403999l0.020996,1.794998c0,1.388 0.204987,2.271004 0.61499,2.650002c0.410004,0.380005 1.360016,0.569 2.851013,0.569c1.449005,0 2.369995,-0.159996 2.763977,-0.480995c0.393005,-0.321007 0.590027,-1.080002 0.590027,-2.277l0.009979,-0.574005l-3.518005,0l0,-1.956001l0.002014,0z" fill="#0971B7"/>
   </g>
  </g>
  <g id="svg_81">
   <path id="svg_82" d="m87.769997,45.423l0,-41.636l20.528,0c5.104004,0 8.622002,0.885 10.554001,2.654c1.931,1.769 2.898003,4.972 2.898003,9.608c0,4.209 -0.483002,7.087 -1.448997,8.632c-0.966003,1.546 -2.944,2.613001 -5.933006,3.203001l0,0.275c4.616005,0.285 6.924004,2.979 6.924004,8.083l0,9.181l-7.900002,0l0,-7.595001c0,-4.290001 -2.114998,-6.435999 -6.345001,-6.435999l-11.376999,0l0,14.031l-7.900002,0zm7.900002,-20.681l11.347,0c2.704002,0 4.499001,-0.483 5.384003,-1.449001c0.885002,-0.966 1.326996,-2.903 1.326996,-5.810999c0,-2.969 -0.380997,-4.885 -1.143997,-5.75c-0.763,-0.864 -2.434998,-1.296 -5.017998,-1.296l-11.896004,0l0,14.306001z" fill="#999999"/>
   <path id="svg_83" d="m125.010002,56.613998l0,39.971001l-12.855003,0l-11.419998,-21.932999c-0.566002,-1.093002 -1.454002,-3.005997 -2.665001,-5.738998l-1.288002,-2.870003l-1.258995,-2.869999l-0.292999,0l0.116997,2.634998l0.087997,2.606003l0.059006,5.241997l0,22.928001l-7.584,0l0,-39.970001l12.854996,0l10.395004,20.263c0.917999,1.795998 1.980995,3.973 3.191994,6.529999l1.523003,3.25l1.523003,3.279999l0.264,0l-0.088005,-2.576996l-0.087997,-2.577003l-0.058998,-5.153999l0,-23.014999l7.583,0z" fill="#999999"/>
   <path id="svg_84" d="m147.968002,63.408001l0,33.176998l-7.584,0l0,-33.176998l-11.537003,0l0,-6.794003l31.069,0l0,6.794003l-11.947998,0z" fill="#999999"/>
   <path id="svg_85" d="m189.460999,56.613998l7.584,0l0,26.589005c0,5.563995 -1.069,9.243996 -3.205994,11.039993c-2.138,1.796005 -6.506012,2.694 -13.104004,2.694c-6.968994,0 -11.537003,-0.848999 -13.703995,-2.547997s-3.25,-5.280998 -3.25,-10.747002l0,-27.028l7.584,0l0,27.028c0,2.947998 0.526993,4.817001 1.580994,5.608002s3.533005,1.185997 7.438004,1.185997c4.001999,0 6.514999,-0.399994 7.539993,-1.200996c1.025009,-0.800003 1.537003,-2.762001 1.537003,-5.886002l0,-26.735001z" fill="#999999"/>
   <path id="svg_86" d="m79.223,56.613998l0,39.971001l-39.105999,0l0,-39.971001l39.105999,0zm-22.495998,15.270004l0,7.202995l2.634998,0l0.028999,0.877998c0,1.796005 -1.073997,2.694 -3.221001,2.694l0,3.133003c0.605003,0.039001 1.015003,0.058998 1.230003,0.058998c4.021,0 6.031998,-2.333 6.031998,-6.999001l0,-6.968994l-6.704998,0l0,0.000999z" fill="#009244"/>
   <path id="svg_87" d="m78.875,3.787l0,41.636l-38.757999,0l0,-41.636l38.757999,0zm-22.425999,18.319001l0,7.202999l6.705997,0l0,-7.202999l-6.705997,0z" fill="#0971B7"/>
   <g id="svg_88">
    <path id="svg_89" d="m3.187,125.032997l0,-13.995995l6.88,0c1.955,0 3.323999,0.426994 4.106999,1.280998c0.782001,0.853996 1.174,2.351997 1.174,4.490997c0,3.493004 -0.313999,5.737 -0.943,6.731003c-0.629,0.995003 -2.047,1.491997 -4.255,1.491997l-6.963,0l0,0.000999zm2.655,-2.235001l3.784,0c1.271,0 2.092999,-0.292 2.466,-0.876999c0.373,-0.584 0.559,-1.874001 0.559,-3.869995c0,-2.064003 -0.167,-3.376999 -0.502,-3.938004s-1.121,-0.841995 -2.358,-0.841995l-3.949,0l0,9.526993z" fill="#0971B7"/>
    <path id="svg_90" d="m17.285999,125.032997l0,-13.995995l6.901001,0c1.716,0 2.897999,0.296997 3.548,0.891998s0.973999,1.670998 0.973999,3.228996c0,1.416 -0.163,2.383003 -0.487,2.902s-0.989,0.879005 -1.993999,1.076004l0,0.092995c1.552,0.096001 2.327999,1.002007 2.327999,2.718002l0,3.085999l-2.656,0l0,-2.552994c0,-1.442001 -0.711,-2.164001 -2.132999,-2.164001l-3.825001,0l0,4.716995l-2.656,0zm2.656,-6.951996l3.814001,0c0.909,0 1.511999,-0.162003 1.809999,-0.487c0.297001,-0.324005 0.445999,-0.976006 0.445999,-1.953003c0,-0.998001 -0.127998,-1.642998 -0.383999,-1.932999c-0.257,-0.291 -0.819,-0.436996 -1.687,-0.436996l-3.999001,0l0,4.809998z" fill="#0971B7"/>
    <path id="svg_91" d="m39.824001,111.037003l2.655998,0l0,9.310997c0,1.946999 -0.375,3.236 -1.123001,3.864998c-0.748997,0.629005 -2.278,0.943001 -4.588997,0.943001c-2.440002,0 -4.040001,-0.296997 -4.799002,-0.892998c-0.759001,-0.594002 -1.138,-1.848999 -1.138,-3.763l0,-9.463997l2.656,0l0,9.463997c0,1.031998 0.185001,1.686996 0.554001,1.963997c0.368999,0.276001 1.237,0.415001 2.604,0.415001c1.401001,0 2.280998,-0.139999 2.640999,-0.420998c0.358002,-0.278999 0.538002,-0.967003 0.538002,-2.060997l0,-9.360001z" fill="#0971B7"/>
    <path id="svg_92" d="m44.93,125.032997l0,-13.995995l5.639999,0l0.696999,0c1.894001,0 3.170002,0.328995 3.830002,0.988998c0.659,0.658997 0.988998,1.932999 0.988998,3.819c0,1.873001 -0.313999,3.116997 -0.942997,3.732002s-1.900002,0.922997 -3.814003,0.922997l-0.614998,0.011002l-3.126999,0l0,4.520996l-2.657001,0l0,0.000999zm2.655998,-6.757996l3.025002,0c1.202999,0 1.966999,-0.138 2.292,-0.415001c0.324001,-0.276001 0.487,-0.931 0.487,-1.963997c0,-1.182007 -0.134998,-1.915001 -0.404999,-2.199005c-0.271,-0.282997 -0.973,-0.425995 -2.107002,-0.425995l-3.292,0l0,5.003998z" fill="#0971B7"/>
    <path id="svg_93" d="m66.248001,122.346001l-6.040001,0l-0.872002,2.686996l-2.809998,0l4.654999,-13.995995l3.988998,0l4.727005,13.995995l-2.757004,0l-0.891998,-2.686996zm-0.614998,-1.958l-2.420002,-7.291l-2.379002,7.291l4.799004,0z" fill="#0971B7"/>
    <path id="svg_94" d="m73.764,111.037003l0,11.616997l6.561996,0l0,2.378998l-9.217995,0l0,-13.995995l2.655998,0z" fill="#0971B7"/>
    <path id="svg_95" d="m92.498001,113.416l0,11.616997l-2.655998,0l0,-11.616997l-4.040001,0l0,-2.378998l10.878998,0l0,2.378998l-4.182999,0z" fill="#0971B7"/>
    <path id="svg_96" d="m98.025002,125.032997l0,-13.995995l6.900002,0c1.715996,0 2.897995,0.296997 3.548996,0.891998c0.648003,0.595001 0.973999,1.670998 0.973999,3.228996c0,1.416 -0.161995,2.383003 -0.487,2.902c-0.323997,0.520004 -0.988998,0.879005 -1.993996,1.076004l0,0.092995c1.551994,0.096001 2.327995,1.002007 2.327995,2.718002l0,3.085999l-2.655998,0l0,-2.552994c0,-1.442001 -0.710999,-2.164001 -2.133003,-2.164001l-3.823997,0l0,4.716995l-2.656998,0zm2.655998,-6.951996l3.814003,0c0.907997,0 1.512001,-0.162003 1.809998,-0.487c0.296997,-0.324005 0.445999,-0.976006 0.445999,-1.953003c0,-0.998001 -0.128998,-1.642998 -0.385002,-1.932999c-0.256996,-0.291 -0.819,-0.436996 -1.687996,-0.436996l-3.998001,0l0,4.809998l0.000999,0z" fill="#0971B7"/>
    <path id="svg_97" d="m120.028999,122.346001l-6.040001,0l-0.871002,2.686996l-2.809998,0l4.654999,-13.995995l3.987999,0l4.728004,13.995995l-2.759003,0l-0.890999,-2.686996zm-0.614998,-1.958l-2.419998,-7.291l-2.379005,7.291l4.799004,0z" fill="#0971B7"/>
    <path id="svg_98" d="m127.545998,111.037003l0,13.995995l-2.655998,0l0,-13.995995l2.655998,0z" fill="#0971B7"/>
    <path id="svg_99" d="m143.018997,111.037003l0,13.995995l-4.501999,0l-3.998993,-7.68c-0.197998,-0.382996 -0.51001,-1.052994 -0.932999,-2.009995l-0.451004,-1.006004l-0.44101,-1.003998l-0.102997,0l0.041,0.921997l0.029999,0.913002l0.021011,1.834999l0,8.028999l-2.656006,0l0,-13.995995l4.501999,0l3.639999,7.096001c0.320999,0.628998 0.692993,1.390999 1.117996,2.285995l0.533005,1.138l0.533005,1.148003l0.091995,0l-0.031006,-0.902l-0.029999,-0.902l-0.020996,-1.805l0,-8.058998l2.656998,0l0,0.000999z" fill="#0971B7"/>
    <path id="svg_100" d="m148.136002,111.037003l0,13.995995l-2.656006,0l0,-13.995995l2.656006,0z" fill="#0971B7"/>
    <path id="svg_101" d="m163.608994,111.037003l0,13.995995l-4.501999,0l-3.999008,-7.68c-0.197998,-0.382996 -0.509995,-1.052994 -0.932999,-2.009995l-0.451004,-1.006004l-0.440994,-1.003998l-0.102997,0l0.041,0.921997l0.029999,0.913002l0.020996,1.834999l0,8.028999l-2.655991,0l0,-13.995995l4.501999,0l3.639999,7.096001c0.320999,0.628998 0.692993,1.390999 1.117996,2.285995l0.533005,1.138l0.53299,1.148003l0.09201,0l-0.031006,-0.902l-0.029999,-0.902l-0.020996,-1.805l0,-8.058998l2.656998,0l0,0.000999z" fill="#0971B7"/>
    <path id="svg_102" d="m171.574997,117.588997l6.16301,0l0.041,2.778c0,2.024002 -0.381012,3.328003 -1.144012,3.912003c-0.761993,0.584999 -2.462997,0.876999 -5.10199,0.876999c-2.419998,0 -4.022003,-0.389999 -4.809006,-1.168999s-1.179993,-2.367996 -1.179993,-4.768997c0,-3.062004 0.156998,-4.996002 0.472992,-5.803001c0.389008,-0.984001 0.979996,-1.647003 1.772995,-1.989998c0.792999,-0.341003 2.139999,-0.512001 4.040009,-0.512001c2.487991,0 4.095001,0.264999 4.819,0.793999c0.724991,0.529999 1.08699,1.704002 1.08699,3.521996l-2.686996,0c-0.047989,-0.915993 -0.248001,-1.484993 -0.599991,-1.706993c-0.353012,-0.223 -1.236008,-0.334 -2.650009,-0.334c-1.539001,0 -2.514999,0.191994 -2.927994,0.573997c-0.414001,0.384003 -0.621002,1.281998 -0.621002,2.696999l-0.009995,1.403999l0.020996,1.794998c0,1.388 0.205002,2.271004 0.615005,2.650002c0.409988,0.380005 1.359985,0.569 2.850998,0.569c1.44899,0 2.369995,-0.159996 2.763992,-0.480995c0.393005,-0.321007 0.589996,-1.080002 0.589996,-2.277l0.01001,-0.574005l-3.518005,0l0,-1.956001l0.001999,0z" fill="#0971B7"/>
    <path id="svg_103" d="m194.093002,118.286003l2.276993,0l0,0.450996l-0.020996,1.220001c0,0.588997 -0.084991,1.213997 -0.255997,1.876999l2.009995,1.702003l-1.261993,1.528l-1.682007,-1.416c-0.621994,1.005997 -2.057999,1.507996 -4.306992,1.507996c-2.501999,0 -4.141006,-0.286995 -4.916,-0.861c-0.776001,-0.573997 -1.164001,-1.791 -1.164001,-3.650002c0,-2.098999 0.888992,-3.277 2.666,-3.536995c-0.766006,-0.669998 -1.14801,-1.511002 -1.14801,-2.523003c0,-1.291 0.31601,-2.183998 0.948013,-2.676003c0.632996,-0.491997 1.774994,-0.737999 3.431,-0.737999c1.735001,0 2.919998,0.250999 3.552994,0.754005c0.632004,0.501999 0.947998,1.446999 0.947998,2.834999l-0.011002,0.727997l-2.356995,0l0,-0.409996c0,-0.840004 -0.115005,-1.368004 -0.344009,-1.584c-0.228989,-0.215004 -0.787994,-0.322006 -1.676987,-0.322006c-1.312012,0 -1.969009,0.488007 -1.969009,1.466003c0,0.663002 0.34201,1.284996 1.025009,1.865997l4.25499,3.650002c0.068008,-0.354996 0.104004,-0.687996 0.104004,-0.993996c0,-0.255005 -0.035004,-0.546005 -0.102997,-0.874001zm-5.25,0.051994c-1.031998,0.150002 -1.548004,0.922005 -1.548004,2.316002c0,1.081001 0.175003,1.767998 0.522003,2.062004c0.350006,0.293999 1.162003,0.439995 2.440994,0.439995c1.100006,0 1.812012,-0.048996 2.138,-0.147995c0.324005,-0.099007 0.671005,-0.377007 1.040009,-0.836006l-4.593002,-3.834z" fill="#0971B7"/>
    <path id="svg_104" d="m213.360992,120.039001l2.666,0l0,0.482002c0,1.947998 -0.356003,3.207993 -1.06601,3.778c-0.71199,0.570999 -2.283997,0.855995 -4.716995,0.855995c-2.763,0 -4.460999,-0.450996 -5.097,-1.353996s-0.953995,-3.315002 -0.953995,-7.239006c0,-2.310997 0.431992,-3.829994 1.292999,-4.557999c0.860992,-0.728996 2.662003,-1.091995 5.403,-1.091995c1.996002,0 3.328995,0.298996 3.998993,0.895996c0.669998,0.598999 1.005005,1.786003 1.005005,3.563004l0.011002,0.317001l-2.666,0l0,-0.358002c0,-0.916 -0.173004,-1.501999 -0.518997,-1.759003c-0.345001,-0.255997 -1.133011,-0.385002 -2.363007,-0.385002c-1.647003,0 -2.636993,0.202003 -2.968994,0.605003c-0.331009,0.403 -0.497009,1.599998 -0.497009,3.588997c0,2.68 0.14801,4.266006 0.445999,4.758003c0.297012,0.491997 1.259003,0.737999 2.886002,0.737999c1.319,0 2.17601,-0.137001 2.569,-0.409996c0.393005,-0.273003 0.589005,-0.875 0.589005,-1.805l-0.018997,-0.622002z" fill="#0971B7"/>
    <path id="svg_105" d="m223.511993,110.914001c2.542999,0 4.179993,0.421997 4.910995,1.265999c0.731003,0.845001 1.097,2.732002 1.097,5.666c0,3.206001 -0.367004,5.225998 -1.102005,6.059998c-0.735001,0.834 -2.514999,1.250999 -5.337997,1.250999c-2.542999,0 -4.186996,-0.411995 -4.931992,-1.235001c-0.74501,-0.823997 -1.117004,-2.636993 -1.117004,-5.439995c0,-3.334999 0.365005,-5.431 1.097,-6.285004s2.526016,-1.282997 5.384003,-1.282997zm-0.204987,2.275002c-1.785004,0 -2.826996,0.228996 -3.127991,0.687996s-0.451004,2.043999 -0.451004,4.758003c0,2.009995 0.175995,3.220001 0.528,3.629997c0.352005,0.410004 1.388992,0.614998 3.110992,0.614998c1.647003,0 2.636002,-0.229996 2.964005,-0.691994c0.328003,-0.461006 0.492004,-1.861 0.492004,-4.199005c0,-2.344002 -0.154999,-3.729996 -0.46701,-4.156998c-0.309998,-0.429001 -1.326996,-0.642998 -3.048996,-0.642998z" fill="#0971B7"/>
    <path id="svg_106" d="m244.307007,111.037003l0,13.995995l-4.501999,0l-3.998993,-7.68c-0.197998,-0.382996 -0.51001,-1.052994 -0.932999,-2.009995l-0.451004,-1.006004l-0.44101,-1.003998l-0.102997,0l0.041,0.921997l0.029999,0.913002l0.021011,1.834999l0,8.028999l-2.656006,0l0,-13.995995l4.501999,0l3.639999,7.096001c0.320999,0.628998 0.693008,1.390999 1.117996,2.285995l0.533005,1.138l0.533005,1.148003l0.091995,0l-0.031006,-0.902l-0.029999,-0.902l-0.020996,-1.805l0,-8.058998l2.656998,0l0,0.000999z" fill="#0971B7"/>
    <path id="svg_107" d="m257.153992,115.116997l-2.593994,0c-0.014008,-0.128998 -0.021011,-0.224998 -0.021011,-0.286995c-0.061996,-0.785004 -0.235001,-1.278999 -0.522003,-1.481003c-0.286987,-0.200996 -0.964996,-0.302002 -2.030991,-0.302002c-1.257996,0 -2.07901,0.116005 -2.466003,0.348c-0.386002,0.233002 -0.578995,0.722 -0.578995,1.467003c0,0.882004 0.156998,1.412003 0.472,1.590004s1.353989,0.313995 3.116989,0.409996c2.085007,0.115997 3.434006,0.413002 4.044998,0.891998c0.612,0.479004 0.917999,1.473999 0.917999,2.983002c0,1.860001 -0.358002,3.062004 -1.076996,3.604004c-0.716995,0.543999 -2.299988,0.814995 -4.746994,0.814995c-2.201004,0 -3.662003,-0.266998 -4.384003,-0.799995c-0.720993,-0.533005 -1.082001,-1.613007 -1.082001,-3.240005l-0.009995,-0.513l2.584,0l0.009995,0.297005c0,0.978996 0.171005,1.575996 0.514008,1.794998c0.340988,0.219002 1.274002,0.328003 2.798996,0.328003c1.188995,0 1.947998,-0.125999 2.276001,-0.379005s0.492004,-0.837997 0.492004,-1.753998c0,-0.677002 -0.125,-1.125999 -0.374008,-1.348999c-0.25,-0.222 -0.787994,-0.356003 -1.615005,-0.404999l-1.466995,-0.092003c-2.214996,-0.129997 -3.628998,-0.437996 -4.244003,-0.922997s-0.923996,-1.528 -0.923996,-3.128006c0,-1.632996 0.371002,-2.721992 1.113007,-3.265999c0.740997,-0.542999 2.222992,-0.813995 4.444992,-0.813995c2.104004,0 3.52301,0.249001 4.25499,0.748001c0.731018,0.499001 1.097015,1.473999 1.097015,2.921997l0,0.533997z" fill="#0971B7"/>
    <path id="svg_108" d="m268.341003,111.037003l2.654999,0l0,9.310997c0,1.946999 -0.373993,3.236 -1.122009,3.864998c-0.748993,0.629005 -2.277985,0.943001 -4.588989,0.943001c-2.440002,0 -4.040009,-0.296997 -4.799011,-0.892998c-0.759003,-0.594002 -1.139008,-1.848999 -1.139008,-3.763l0,-9.463997l2.656006,0l0,9.463997c0,1.031998 0.184998,1.686996 0.554016,1.963997c0.368988,0.276001 1.237,0.415001 2.604004,0.415001c1.401001,0 2.280975,-0.139999 2.640991,-0.420998c0.358002,-0.278999 0.537994,-0.967003 0.537994,-2.060997l0,-9.360001l0.001007,0z" fill="#0971B7"/>
    <path id="svg_109" d="m276.104004,111.037003l0,11.616997l6.561981,0l0,2.378998l-9.218994,0l0,-13.995995l2.657013,0z" fill="#0971B7"/>
    <path id="svg_110" d="m289.587006,113.416l0,11.616997l-2.656006,0l0,-11.616997l-4.039001,0l0,-2.378998l10.878998,0l0,2.378998l-4.18399,0z" fill="#0971B7"/>
    <path id="svg_111" d="m297.770996,111.037003l0,13.995995l-2.656006,0l0,-13.995995l2.656006,0z" fill="#0971B7"/>
    <path id="svg_112" d="m313.243011,111.037003l0,13.995995l-4.502014,0l-3.998993,-7.68c-0.197998,-0.382996 -0.509979,-1.052994 -0.932983,-2.009995l-0.451019,-1.006004l-0.440979,-1.003998l-0.103027,0l0.041016,0.921997l0.029999,0.913002l0.020996,1.834999l0,8.028999l-2.656006,0l0,-13.995995l4.502014,0l3.639984,7.096001c0.321014,0.628998 0.693024,1.390999 1.118011,2.285995l0.53299,1.138l0.53302,1.148003l0.09198,0l-0.030975,-0.902l-0.029999,-0.902l-0.021027,-1.805l0,-8.058998l2.657013,0l0,0.000999z" fill="#0971B7"/>
    <path id="svg_113" d="m321.209991,117.588997l6.162994,0l0.041016,2.778c0,2.024002 -0.381012,3.328003 -1.144012,3.912003c-0.761993,0.584999 -2.463013,0.876999 -5.10199,0.876999c-2.420013,0 -4.022003,-0.389999 -4.809021,-1.168999s-1.179993,-2.367996 -1.179993,-4.768997c0,-3.062004 0.157013,-4.996002 0.472992,-5.803001c0.389008,-0.984001 0.980011,-1.647003 1.77301,-1.989998c0.792999,-0.341003 2.140015,-0.512001 4.040009,-0.512001c2.488007,0 4.095001,0.264999 4.819,0.793999c0.725006,0.529999 1.087006,1.704002 1.087006,3.521996l-2.687012,0c-0.048004,-0.915993 -0.247986,-1.484993 -0.600006,-1.706993c-0.352997,-0.223 -1.235992,-0.334 -2.649994,-0.334c-1.539001,0 -2.515015,0.191994 -2.928009,0.573997c-0.414001,0.384003 -0.621002,1.281998 -0.621002,2.696999l-0.009979,1.403999l0.020996,1.794998c0,1.388 0.204987,2.271004 0.61499,2.650002c0.410004,0.380005 1.360016,0.569 2.851013,0.569c1.449005,0 2.369995,-0.159996 2.763977,-0.480995c0.393005,-0.321007 0.590027,-1.080002 0.590027,-2.277l0.009979,-0.574005l-3.518005,0l0,-1.956001l0.002014,0z" fill="#0971B7"/>
   </g>
  </g>
 </g>
</svg>