<svg xmlns="http://www.w3.org/2000/svg" width="343.694" height="189.495" viewBox="0 0 343.694 189.495"><path fill="none" stroke="#FFF" stroke-width="2" stroke-miterlimit="10" d="M197.902 188.495h-53M144.902 167.495h53"/><path fill="#FFF" d="M151.506 182.396c.984-.87 1.828-1.624 2.532-2.263.703-.64 1.297-1.188 1.783-1.65.488-.46.877-.846 1.17-1.16.296-.313.52-.58.673-.806.154-.223.256-.42.306-.584.05-.167.076-.333.076-.5 0-.55-.17-.96-.51-1.227-.337-.27-.75-.403-1.235-.403-.486 0-.92.134-1.304.403s-.82.678-1.305 1.227l-1.974-1.533c.32-.435.646-.815.978-1.142.332-.326.685-.597 1.055-.815.37-.217.78-.38 1.226-.49.447-.107.96-.163 1.535-.163.653 0 1.248.093 1.785.28.537.184.993.446 1.37.784.378.34.673.752.885 1.238.21.486.316 1.023.316 1.61 0 .525-.075 1.006-.22 1.44-.148.435-.426.908-.836 1.42-.41.512-.973 1.102-1.688 1.774-.716.672-1.65 1.493-2.8 2.465h5.543v2.4h-9.36v-2.304zM173.928 179.06c0 .793-.147 1.537-.442 2.235-.295.696-.698 1.3-1.208 1.812-.512.512-1.114.915-1.803 1.208-.69.295-1.433.442-2.225.442-.793 0-1.54-.147-2.235-.442-.698-.293-1.302-.696-1.812-1.208-.512-.512-.915-1.116-1.21-1.812-.294-.698-.44-1.442-.44-2.235v-2.187c.025-.767.19-1.487.5-2.157.305-.672.715-1.263 1.226-1.775.51-.51 1.11-.912 1.792-1.207.685-.295 1.41-.442 2.178-.442.766 0 1.49.148 2.166.443.678.295 1.272.696 1.784 1.208.512.513.92 1.104 1.23 1.776.305.67.472 1.39.498 2.157v2.187zm-2.283-1.958c0-.5-.09-.96-.27-1.38-.18-.422-.42-.793-.728-1.113-.307-.32-.67-.57-1.084-.75-.416-.18-.854-.268-1.314-.268-.462 0-.9.09-1.316.27-.415.18-.78.428-1.093.747-.313.32-.558.69-.738 1.11-.178.423-.267.883-.267 1.382v1.957c0 .46.09.897.267 1.313.18.416.425.78.74 1.093.313.314.677.56 1.092.74.416.18.854.268 1.315.268.46 0 .897-.09 1.313-.27.415-.18.776-.424 1.084-.738.306-.313.55-.677.73-1.093.177-.416.268-.854.268-1.314V177.1zM175.194 174.206v-2.992h5.755v13.484h-2.88v-10.492h-2.876zM187.47 175.357c.613.026 1.19.167 1.726.422.536.256 1.006.596 1.41 1.018.402.422.72.913.948 1.47.23.558.345 1.145.345 1.76 0 .666-.122 1.283-.365 1.853-.243.572-.575 1.065-.997 1.48-.422.418-.917.744-1.487.98-.567.24-1.172.356-1.81.356-.64 0-1.246-.118-1.814-.355-.57-.235-1.064-.56-1.487-.977-.422-.415-.755-.908-.998-1.477-.243-.568-.364-1.186-.364-1.85 0-.513.096-1.01.288-1.497.19-.487.434-.953.73-1.4l3.318-5.89 2.225 1.222-1.67 2.885zm-.23 6.79c.306 0 .59-.05.853-.154.262-.102.486-.247.672-.434.185-.187.332-.408.44-.665.11-.257.164-.54.164-.85 0-.28-.055-.55-.164-.808-.11-.257-.256-.484-.44-.683-.187-.2-.41-.357-.673-.473-.262-.114-.546-.172-.854-.172-.334 0-.65.1-.95.298s-.535.44-.7.722l-.23.328c-.066.103-.116.23-.155.385-.04.156-.057.29-.057.405 0 .31.057.592.172.85.115.256.27.477.46.663.192.187.413.332.662.434.25.105.515.155.797.155zM99.886 146.856c0 .986-.185 1.85-.554 2.59-.37.74-.894 1.357-1.572 1.85-.68.492-1.496.863-2.452 1.11-.956.247-2.02.37-3.19.37h-8.11v-12.92h3.515l-3.515-5.025v-3.7h7.955c1.212 0 2.276.172 3.19.51.916.34 1.69.787 2.33 1.34.472.556.84 1.127 1.11 1.713.266.586.4 1.25.4 1.988v.218c0 .596-.09 1.135-.263 1.62-.174.482-.4.914-.678 1.293-.278.382-.59.71-.94.988s-.71.51-1.08.694c.597.226 1.137.488 1.62.785.483.298.89.648 1.218 1.05.328.4.58.872.756 1.417.174.545.26 1.187.26 1.926v.186zm-11.624 1.82h4.07c.926 0 1.682-.19 2.267-.572.585-.38.877-.99.877-1.834v-.185c0-.72-.276-1.3-.832-1.743-.555-.442-1.398-.663-2.528-.663h-3.855v4.995zm.155-13.63l3.546 4.964c1.705-.164 2.56-.966 2.56-2.405v-.154c0-.76-.254-1.35-.757-1.77-.504-.422-1.218-.633-2.143-.633h-3.206zM106.114 150.987l-.74 1.85h-4.254l7.615-21.52h4.255l7.615 21.52h-4.656l-.556-1.85h-9.28zm1.326-3.915h6.66l-3.33-9.62-3.33 9.62zM138.92 138.808c0 .844-.103 1.655-.308 2.436-.204.782-.484 1.495-.842 2.143-.357.647-.785 1.222-1.285 1.726-.5.504-1.046.89-1.64 1.156l4.63 6.536h-5.18l-3.933-5.58h-2.788v5.58h-4.47v-21.613h8.153c1.23 0 2.277.176 3.14.524.86.35 1.62.853 2.276 1.51.266.288.537.638.815 1.05.276.41.518.857.723 1.34s.376.997.51 1.54c.132.546.2 1.097.2 1.65zm-4.472.216c0-1.13-.34-2.035-1.022-2.713-.682-.677-1.58-1.017-2.695-1.017h-3.157v8.017h3.345c.557 0 1.053-.128 1.487-.385.433-.257.805-.592 1.115-1.002.31-.41.54-.868.696-1.372.155-.503.232-1.012.232-1.526zM152.207 152.806c-1.48 0-2.878-.283-4.193-.847-1.315-.567-2.46-1.337-3.438-2.313-.977-.977-1.747-2.122-2.312-3.44-.566-1.314-.847-2.712-.847-4.192 0-1.5.282-2.908.847-4.223.566-1.315 1.336-2.467 2.312-3.453.977-.988 2.122-1.764 3.438-2.33 1.315-.565 2.714-.848 4.193-.848 1.315 0 2.57.227 3.762.678 1.19.453 2.31 1.1 3.36 1.943l-3.177 3.73c-.575-.472-1.187-.805-1.834-1-.648-.196-1.352-.294-2.113-.294-.782 0-1.52.154-2.22.46-.698.31-1.31.726-1.833 1.25-.524.524-.94 1.136-1.25 1.834-.308.7-.46 1.45-.46 2.25 0 .782.153 1.522.46 2.22.31.7.726 1.31 1.25 1.835.524.523 1.135.94 1.834 1.248.7.307 1.438.462 2.22.462 1.52 0 2.836-.43 3.946-1.296l3.177 3.7c-.945.844-2.04 1.49-3.283 1.943-1.245.453-2.525.68-3.84.68zM176.01 152.744h-13.813v-21.55h13.627v4.1h-9.218v6.998h9.403v4.04h-9.404v2.374h9.403v4.038zM183.656 148.706h8.695v4.1h-13.165v-21.644h4.47v17.544zM204.96 131.193c1.5 0 2.908.283 4.224.847 1.315.566 2.46 1.337 3.438 2.314.975.975 1.747 2.122 2.312 3.438.565 1.315.847 2.723.847 4.223s-.282 2.91-.846 4.224c-.566 1.315-1.337 2.46-2.312 3.437-.977.977-2.122 1.748-3.438 2.314-1.316.566-2.724.848-4.224.848s-2.91-.283-4.224-.847c-1.315-.565-2.462-1.336-3.438-2.313-.977-.975-1.748-2.12-2.312-3.438-.566-1.316-.85-2.724-.85-4.225 0-1.5.284-2.908.85-4.223.565-1.315 1.336-2.462 2.312-3.438.975-.977 2.122-1.748 3.438-2.314 1.315-.564 2.723-.847 4.224-.847zm0 17.327c.884 0 1.726-.174 2.528-.523.8-.35 1.5-.822 2.097-1.418.596-.597 1.068-1.285 1.418-2.067.35-.782.523-1.613.523-2.498 0-.925-.174-1.798-.523-2.62-.35-.822-.823-1.536-1.418-2.143-.597-.606-1.296-1.084-2.097-1.434-.802-.35-1.644-.524-2.528-.524-.925 0-1.79.176-2.59.524-.802.35-1.49.828-2.066 1.434-.576.607-1.028 1.322-1.356 2.143-.33.822-.493 1.695-.493 2.62 0 .885.164 1.717.493 2.498.328.782.78 1.47 1.356 2.066.575.596 1.263 1.067 2.066 1.417.8.348 1.665.523 2.59.523zM237.61 131.193v21.614h-4.04l-10.327-13.69v13.69h-4.656v-21.614h4.254l6.106 7.924 4.07 5.365v-13.29h4.595zM245.102 150.987l-.74 1.85h-4.254l7.615-21.52h4.255l7.615 21.52h-4.656l-.555-1.85h-9.28zm1.327-3.915h6.658l-3.33-9.62-3.33 9.62zM30.658 117.27c2.245-.733 3.912-1.816 5.004-3.255 1.09-1.437 1.347-3.05.765-4.834-.244-.746-.603-1.41-1.078-1.987-.476-.578-1.176-1.065-2.1-1.465-.928-.398-2.17-.693-3.73-.887-1.558-.19-3.524-.313-5.896-.368-2.986-.174-5.692-.47-8.12-.888s-4.574-1.09-6.433-2.01c-1.86-.923-3.463-2.182-4.81-3.782C2.91 96.195 1.823 94.13 1 91.597c-.826-2.532-1.14-5.01-.942-7.43.2-2.418.898-4.668 2.1-6.747C3.357 75.343 5 73.5 7.09 71.897c2.09-1.603 4.6-2.884 7.535-3.84 3.28-1.07 6.75-1.61 10.405-1.623 3.656-.012 7.2.852 10.635 2.598L32 80.35c-2.504-.84-4.932-1.403-7.282-1.687-2.354-.284-4.71-.042-7.07.727-2.015.657-3.457 1.65-4.326 2.986-.87 1.334-1.06 2.75-.574 4.246.262.806.66 1.49 1.192 2.047.532.56 1.324 1.033 2.374 1.422 1.05.39 2.412.71 4.086.962 1.672.252 3.8.433 6.385.545 2.85.154 5.423.477 7.717.97 2.294.494 4.33 1.232 6.116 2.21 1.783.98 3.306 2.233 4.568 3.763 1.262 1.532 2.27 3.448 3.02 5.75.9 2.762 1.206 5.417.92 7.96-.284 2.544-1.06 4.85-2.328 6.918-1.27 2.07-2.98 3.9-5.135 5.494-2.154 1.594-4.613 2.84-7.376 3.74-3.857 1.257-7.86 1.814-12.013 1.67-4.153-.142-8.367-1.204-12.642-3.186l4.126-11.37c2.595 1.127 5.283 1.954 8.066 2.48 2.78.527 5.726.283 8.834-.73zM94.223 50.698l2.282 12.69 4.486 24.933c.762 4.232.854 7.998.28 11.298-.574 3.302-1.72 6.168-3.434 8.6-1.716 2.43-3.943 4.414-6.68 5.95-2.736 1.54-5.892 2.63-9.467 3.273-3.457.622-6.705.685-9.747.186-3.042-.498-5.776-1.59-8.2-3.276-2.426-1.686-4.484-3.975-6.172-6.87-1.69-2.893-2.914-6.455-3.675-10.686L49.41 71.86 47.13 59.17l12.69-2.283 2.283 12.69.194 1.073 4.373 24.307c.772 4.29 2.346 7.313 4.722 9.067 2.375 1.757 5.262 2.33 8.657 1.718 3.218-.58 5.604-2.1 7.16-4.563 1.555-2.463 1.948-5.84 1.176-10.13l-4.566-25.38-2.283-12.69 12.69-2.282zM163.31 45.496l2.604 50.69.676 13.15-12.604.646-.676-13.148-.05-.997-1.38-26.84-9.434 18.122-10.337.53-10.67-16.544 1.35 26.297.052.998.675 13.15-12.604.646-.675-13.148-2.606-50.69 13.693-.703 15.488 25.39L149.616 46.2l13.693-.704zM235.188 49.78l-3.756 50.62-.974 13.13-12.587-.934.975-13.13.074-.997 1.988-26.804-11.626 16.8-10.323-.765-8.517-17.748-1.95 26.26-.073.996-.974 13.13-12.587-.933.973-13.13 3.756-50.618 13.672 1.015 12.19 27.126 16.062-25.03 13.674 1.013zM277.79 122.606l-39.89-7.965 12.428-62.24 39.356 7.86-2.364 11.84-26.624-5.315-4.036 20.212 27.158 5.423-2.33 11.665-27.157-5.423-1.368 6.856 27.158 5.423-2.33 11.666zM342.48 100.93c-.827 2.34-1.906 4.495-3.238 6.463-1.333 1.97-2.813 3.678-4.44 5.125-1.627 1.448-3.38 2.627-5.264 3.535-1.883.91-3.778 1.444-5.683 1.605l6.45 22.69-14.386-5.077-5.456-19.352-7.742-2.732-5.47 15.498-12.415-4.38 21.18-60.024 22.645 7.99c3.42 1.207 6.153 2.718 8.202 4.532 2.05 1.815 3.665 3.958 4.844 6.427.458 1.06.87 2.297 1.236 3.71.366 1.413.598 2.89.695 4.433.096 1.542.06 3.135-.1 4.78-.164 1.642-.517 3.234-1.06 4.776zm-12.628-3.783c1.107-3.14 1.047-5.985-.18-8.536-1.227-2.55-3.39-4.373-6.486-5.464l-8.773-3.096-7.855 22.262 9.29 3.278c1.547.546 3.05.676 4.505.386 1.456-.288 2.815-.85 4.078-1.69 1.264-.838 2.357-1.88 3.28-3.127.924-1.248 1.638-2.585 2.142-4.013zM121.856 14.735c0 2.026-.368 3.913-1.103 5.66-.736 1.75-1.748 3.276-3.04 4.58-1.29 1.305-2.81 2.346-4.557 3.122-1.748.777-3.636 1.193-5.66 1.25H99.96V.166h7.285c2.025 0 3.926.382 5.703 1.145 1.775.764 3.323 1.804 4.64 3.122 1.318 1.318 2.36 2.866 3.123 4.64.764 1.777 1.146 3.663 1.146 5.66zm-15.86 9.075h1.5c1.193-.055 2.324-.326 3.392-.812 1.068-.485 2.004-1.13 2.81-1.936.804-.804 1.442-1.748 1.915-2.83.47-1.083.708-2.25.708-3.498s-.235-2.428-.707-3.538c-.472-1.11-1.118-2.067-1.936-2.872-.82-.804-1.784-1.442-2.893-1.915-1.11-.472-2.29-.71-3.538-.71h-1.25v18.11zM146.832 10.365c0 1.138-.138 2.234-.414 3.288-.276 1.055-.655 2.02-1.137 2.893-.48.874-1.06 1.65-1.735 2.33-.675.682-1.413 1.202-2.212 1.562l6.25 8.825h-6.994l-5.31-7.534h-3.765v7.533h-6.036V.083h11.008c1.662 0 3.075.236 4.237.708 1.163.473 2.188 1.153 3.075 2.04.36.39.726.862 1.1 1.416.374.556.7 1.16.977 1.81.277.653.505 1.348.685 2.082.18.736.27 1.478.27 2.227zm-6.036.29c0-1.525-.46-2.746-1.38-3.662-.92-.916-2.133-1.374-3.638-1.374h-4.265V16.44h4.515c.752 0 1.423-.173 2.007-.52.586-.347 1.086-.797 1.505-1.353.418-.556.732-1.173.942-1.853.21-.68.314-1.367.314-2.06zM173.18.208v17.525c0 1.97-.264 3.678-.79 5.12-.53 1.443-1.278 2.643-2.25 3.6-.97.958-2.136 1.673-3.496 2.145-1.36.472-2.872.708-4.537.708-1.61 0-3.08-.235-4.412-.708-1.332-.47-2.477-1.186-3.434-2.144-.956-.957-1.7-2.157-2.226-3.6-.528-1.443-.79-3.15-.79-5.12V.206h5.91V17.94c0 2 .464 3.49 1.394 4.476.93.985 2.185 1.478 3.767 1.478 1.5 0 2.698-.492 3.6-1.478.902-.984 1.354-2.477 1.354-4.475V.21h5.91zM197.696 10.823c0 1.72-.285 3.233-.853 4.537-.57 1.305-1.347 2.414-2.33 3.33-.986.916-2.16 1.623-3.518 2.123-1.36.5-2.83.777-4.412.833h-3.247v7.576H177.3V0h9.574c1.637 0 3.122.27 4.454.812 1.332.54 2.47 1.29 3.413 2.248.944.957 1.672 2.096 2.186 3.413.513 1.318.77 2.768.77 4.35zm-6.036.27c0-1.67-.43-3.015-1.29-4.03-.86-1.018-2.123-1.527-3.788-1.527h-3.247V16.11h3.247c.833 0 1.56-.133 2.185-.397.624-.265 1.15-.62 1.582-1.067.43-.445.755-.974.977-1.587.222-.614.333-1.268.333-1.966zM203.44 26.807l-1 2.498h-5.743L206.98.25h5.743l10.282 29.055h-6.285l-.75-2.498h-12.53zm1.79-5.287h8.99l-4.495-12.987-4.495 12.987zM232.328 23.727h11.697v5.453h-17.65V.125h5.953v23.602zM37.61 12.356c2.82 0 5.51-.935 7.69-2.628 2.185 1.692 4.878 2.628 7.687 2.628 2.813 0 5.508-.935 7.69-2.628 2.184 1.692 4.874 2.628 7.686 2.628 2.813 0 5.508-.935 7.69-2.628 2.184 1.692 4.874 2.628 7.69 2.628 1.397 0 2.53-1.133 2.53-2.53 0-1.4-1.133-2.533-2.53-2.533-2.224 0-4.316-.976-5.75-2.686-.482-.573-1.19-.902-1.94-.902s-1.457.33-1.935.902c-1.438 1.71-3.535 2.686-5.755 2.686-2.22 0-4.312-.976-5.746-2.686-.482-.573-1.19-.902-1.936-.902h-.003c-.746 0-1.453.33-1.935.902-1.438 1.71-3.53 2.686-5.755 2.686-2.215 0-4.312-.976-5.75-2.686-.482-.573-1.19-.902-1.936-.902-.777-.013-1.46.333-1.938.906-1.434 1.706-3.526 2.683-5.75 2.683-1.397 0-2.53 1.133-2.53 2.533 0 1.398 1.133 2.53 2.53 2.53zm0 0M37.61 24.433c2.82 0 5.51-.935 7.69-2.628 2.185 1.692 4.878 2.628 7.687 2.628 2.813 0 5.508-.935 7.69-2.628 2.184 1.692 4.874 2.628 7.686 2.628 2.813 0 5.508-.935 7.69-2.628 2.184 1.692 4.874 2.628 7.69 2.628 1.397 0 2.53-1.133 2.53-2.53 0-1.4-1.133-2.533-2.53-2.533-2.224 0-4.316-.976-5.75-2.686-.482-.573-1.19-.902-1.94-.902s-1.457.33-1.935.902c-1.438 1.71-3.535 2.686-5.755 2.686-2.22 0-4.312-.976-5.746-2.686-.482-.573-1.19-.902-1.936-.902h-.003c-.746 0-1.453.33-1.935.902-1.438 1.71-3.53 2.686-5.755 2.686-2.215 0-4.312-.976-5.75-2.686-.482-.573-1.19-.902-1.936-.902-.777-.013-1.46.333-1.938.906-1.434 1.705-3.526 2.682-5.75 2.682-1.397 0-2.53 1.133-2.53 2.533 0 1.398 1.133 2.53 2.53 2.53zm0 0M259.97 12.356c2.818 0 5.508-.935 7.69-2.628 2.184 1.692 4.877 2.628 7.686 2.628 2.813 0 5.508-.935 7.69-2.628 2.184 1.692 4.874 2.628 7.686 2.628 2.813 0 5.508-.935 7.69-2.628 2.184 1.692 4.874 2.628 7.69 2.628 1.397 0 2.53-1.133 2.53-2.53 0-1.4-1.133-2.533-2.53-2.533-2.224 0-4.316-.976-5.75-2.686-.482-.573-1.19-.902-1.94-.902s-1.457.33-1.935.902c-1.438 1.71-3.535 2.686-5.755 2.686-2.22 0-4.312-.976-5.746-2.686-.482-.573-1.19-.902-1.936-.902h-.004c-.746 0-1.453.33-1.935.902-1.437 1.71-3.53 2.686-5.754 2.686-2.215 0-4.312-.976-5.75-2.686-.482-.573-1.19-.902-1.936-.902-.778-.013-1.462.333-1.94.906-1.433 1.706-3.525 2.683-5.75 2.683-1.396 0-2.53 1.133-2.53 2.533 0 1.398 1.134 2.53 2.53 2.53zm0 0M259.97 24.433c2.818 0 5.508-.935 7.69-2.628 2.184 1.692 4.877 2.628 7.686 2.628 2.813 0 5.508-.935 7.69-2.628 2.184 1.692 4.874 2.628 7.686 2.628 2.813 0 5.508-.935 7.69-2.628 2.184 1.692 4.874 2.628 7.69 2.628 1.397 0 2.53-1.133 2.53-2.53 0-1.4-1.133-2.533-2.53-2.533-2.224 0-4.316-.976-5.75-2.686-.482-.573-1.19-.902-1.94-.902s-1.457.33-1.935.902c-1.438 1.71-3.535 2.686-5.755 2.686-2.22 0-4.312-.976-5.746-2.686-.482-.573-1.19-.902-1.936-.902h-.004c-.746 0-1.453.33-1.935.902-1.437 1.71-3.53 2.686-5.754 2.686-2.215 0-4.312-.976-5.75-2.686-.482-.573-1.19-.902-1.936-.902-.778-.013-1.462.333-1.94.906-1.433 1.705-3.525 2.682-5.75 2.682-1.396 0-2.53 1.133-2.53 2.533 0 1.398 1.134 2.53 2.53 2.53zm0 0"/></svg>