<?xml version="1.0" encoding="UTF-8" standalone="no"?>

<svg
   xmlns:dc="http://purl.org/dc/elements/1.1/"
   xmlns:cc="http://creativecommons.org/ns#"
   xmlns:rdf="http://www.w3.org/1999/02/22-rdf-syntax-ns#"
   xmlns:svg="http://www.w3.org/2000/svg"
   xmlns="http://www.w3.org/2000/svg"
   xmlns:sodipodi="http://sodipodi.sourceforge.net/DTD/sodipodi-0.dtd"
   xmlns:inkscape="http://www.inkscape.org/namespaces/inkscape"
   version="1.1"
   id="Capa_1"
   x="0px"
   y="0px"
   viewBox="0 0 339.99999 340.00001"
   enable-background="new 0 0 340.2 595.3"
   xml:space="preserve"
   inkscape:version="0.91 r13725"
   sodipodi:docname="logo-swiftcircle.svg"
   width="340"
   height="340"><metadata
     id="metadata3410"><rdf:RDF><cc:Work
         rdf:about=""><dc:format>image/svg+xml</dc:format><dc:type
           rdf:resource="http://purl.org/dc/dcmitype/StillImage" /><dc:title></dc:title></cc:Work></rdf:RDF></metadata><defs
     id="defs3408" /><sodipodi:namedview
     pagecolor="#ffffff"
     bordercolor="#666666"
     borderopacity="1"
     objecttolerance="10"
     gridtolerance="10"
     guidetolerance="10"
     inkscape:pageopacity="0"
     inkscape:pageshadow="2"
     inkscape:window-width="1062"
     inkscape:window-height="816"
     id="namedview3406"
     showgrid="false"
     inkscape:zoom="1.0969259"
     inkscape:cx="206.56555"
     inkscape:cy="151.78782"
     inkscape:window-x="0"
     inkscape:window-y="1080"
     inkscape:window-maximized="0"
     inkscape:current-layer="Capa_1" /><g
     id="g3402"
     transform="translate(-0.91163857,-127.67059)"><path
       d="m 33.7,311.3 c 2.9,2.3 5.9,4 9.9,4 4.4,0 6.6,-2.3 6.6,-5.2 0,-3.5 -4,-5 -7.7,-6.4 -4.8,-1.7 -10,-4 -10,-9.7 0,-5.4 4.3,-9.5 11.5,-9.5 4.2,0 7.9,1.7 10.4,3.8 l -2.7,3.6 c -2.3,-1.7 -4.7,-3 -7.7,-3 -4.2,0 -6.2,2.3 -6.2,4.8 0,3.2 3.7,4.4 7.5,5.8 4.8,1.8 10.2,3.8 10.2,10.2 0,5.5 -4.4,10 -12.3,10 -4.8,0 -9.3,-2 -12.5,-4.6 l 3,-3.8 0,0 z m 25.8,-26 5.8,0 5,19.4 c 0.8,3.2 1.4,6.2 2,9.3 l 0.3,0 c 0.8,-3.1 1.5,-6.2 2.3,-9.3 l 5.2,-19.4 5.5,0 5.2,19.4 c 0.8,3.2 1.6,6.2 2.3,9.3 l 0.3,0 c 0.8,-3.1 1.4,-6.2 2.1,-9.3 l 4.9,-19.4 5.4,0 -9,33.6 -6.9,0 -4.8,-18 c -0.8,-3.2 -1.5,-6.3 -2.3,-9.7 l -0.3,0 c -0.8,3.4 -1.4,6.6 -2.3,9.7 l -4.7,18 -6.6,0 -9.4,-33.6 0,0 z m 52.6,-10.5 c 0,-2.2 1.7,-3.7 3.9,-3.7 2.2,0 3.9,1.5 3.9,3.7 0,2.1 -1.7,3.7 -3.9,3.7 -2.2,-0.1 -3.9,-1.6 -3.9,-3.7 l 0,0 z m 1.1,10.5 5.7,0 0,33.6 -5.7,0 0,-33.6 0,0 z m 51.4,33.2 c -1.9,0.6 -4.1,1.2 -6.2,1.2 -7.2,0 -9.6,-4.6 -9.6,-11.2 l 0,-18.5 -12,0 0,28.9 -5.7,0 0,-28.9 -4.6,0 0,-4.3 4.6,-0.3 0,-5.4 c 0,-6.8 3.1,-11.1 9.8,-11.1 2.1,0 4.1,0.5 5.6,1.1 l -1.2,4.4 c -1.2,-0.6 -2.6,-0.8 -3.8,-0.8 -3.2,0 -4.7,2.2 -4.7,6.5 l 0,5.3 12.3,0 0.7,-9.4 4.7,0 0,9.4 9.1,0 0,4.6 -9.1,0 0,18.7 c 0,4.1 1.4,6.5 5.2,6.5 1.2,0 2.7,-0.5 3.8,-0.9 l 1.1,4.2 0,0 z m 19.5,-33.4 c 4.6,0 7.5,2.1 9.7,4.1 l -1.4,1.5 c -2.2,-2.1 -4.8,-3.7 -8.3,-3.7 -7.1,0 -12.6,6.4 -12.6,15.5 0,9.1 5,15.3 12.6,15.3 3.7,0 6.9,-1.8 9.3,-4 l 1.2,1.5 c -2.8,2.5 -6.2,4.4 -10.5,4.4 -8.4,0 -14.8,-6.4 -14.8,-17.3 0,-11 6.9,-17.3 14.8,-17.3 l 0,0 z m 17.7,-10 c 0,-1.5 1.1,-2.4 2.3,-2.4 1.2,0 2.3,0.8 2.3,2.3 0,1.4 -1.1,2.4 -2.3,2.4 -1.2,0 -2.3,-0.9 -2.3,-2.3 z m 1.2,10.8 2.1,0 0,33 -2.1,0 c 0,0 0,-33 0,-33 z m 15.4,0 1.8,0 0.3,6.2 0.1,0 c 2.2,-4 5.4,-7 9.4,-7 1.1,0 2.1,0.1 3.2,0.7 l -0.6,1.9 c -1.1,-0.4 -1.7,-0.6 -2.9,-0.6 -3,0 -6.6,2.3 -9.3,8.8 l 0,22.9 -2.1,0 0.1,-32.9 0,0 z m 32.3,-0.8 c 4.6,0 7.5,2.1 9.7,4.1 l -1.4,1.5 c -2.2,-2.1 -4.8,-3.7 -8.3,-3.7 -7.1,0 -12.6,6.4 -12.6,15.5 0,9.1 5,15.3 12.6,15.3 3.7,0 6.9,-1.8 9.3,-4 l 1.2,1.5 c -2.8,2.5 -6.2,4.4 -10.5,4.4 -8.4,0 -14.8,-6.4 -14.8,-17.3 0,-11 6.9,-17.3 14.8,-17.3 z m 19,-16.1 2.1,0 0,46.7 c 0,1.4 0.6,2.1 1.4,2.1 0.3,0 0.6,0 1.2,-0.1 l 0.4,1.8 c -0.6,0.1 -1,0.3 -1.8,0.3 -2.1,0 -3.3,-1.2 -3.3,-4.4 l 0,-46.4 0,0 z m 27.2,16.1 c 7.6,0 12.4,5.4 12.4,15.2 0,0.7 0,1.4 -0.1,2.2 l -24.3,0 c 0,8.8 5.1,15.3 13,15.3 3.7,0 6.6,-1.2 9.1,-3 l 1,1.8 c -2.5,1.5 -5.3,3.2 -10.2,3.2 -8.3,0 -15.1,-6.5 -15.1,-17.3 0,-10.8 6.9,-17.4 14.2,-17.4 l 0,0 z m 10.4,15.6 c 0,-9.1 -4.1,-13.7 -10.4,-13.7 -5.9,0 -11.3,5.3 -12,13.7 l 22.4,0 z"
       id="path3404"
       inkscape:connector-curvature="0"
       style="fill:#d11149" /></g></svg>