<?xml version="1.0" encoding="utf-8"?>
<svg version="1.1" xmlns="http://www.w3.org/2000/svg" xmlns:xlink="http://www.w3.org/1999/xlink" x="0px" y="0px"
	 width="933px" height="345.925px" viewBox="0 -137.925 933 345.925" enable-background="new 0 -137.925 933 345.925"
	 xml:space="preserve">
<path fill="#0A253E" d="M522.055,105.708V3.122c0-1.837,0.23-3.792,0.688-5.854c0.465-2.297,1.258-4.357,2.411-6.2
	c1.141-2.062,2.757-3.668,4.817-4.808c2.294-1.383,5.161-2.071,8.612-2.071c4.127,0,7.335,0.802,9.632,2.408
	c2.297,1.6,3.904,3.557,4.819,5.854c1.146,2.067,1.842,4.478,2.067,7.231c0.23,2.513,0.346,4.812,0.346,6.882v99.142h26.51V6.564
	c0-7.344-0.688-13.652-2.067-18.934c-1.379-5.507-4.591-11.245-9.637-17.214c-3.906-4.582-8.834-7.804-14.803-9.639
	c-5.965-2.067-11.587-3.097-16.865-3.097c-6.433,0-12.169,1.03-17.218,3.097c-5.05,2.067-9.292,4.705-12.74,7.925
	c-3.903-3.903-8.604-6.665-14.112-8.265c-5.505-1.841-10.787-2.758-15.83-2.758c-6.887,0-13.085,1.265-18.594,3.787
	c-5.277,2.297-9.639,5.396-13.082,9.295c-3.897,4.136-6.779,8.953-8.607,14.459c-1.836,5.512-2.75,12.621-2.75,21.345v99.142h26.504
	V6.564c0-1.613,0-3.662,0-6.196c0.232-2.753,0.807-5.28,1.723-7.568c1.153-2.3,2.873-4.243,5.168-5.861
	c2.285-1.832,5.501-2.75,9.639-2.75c3.671,0,6.533,0.576,8.602,1.716c2.294,1.153,4.018,2.651,5.163,4.478
	c1.151,1.836,1.943,3.901,2.408,6.198c0.461,2.062,0.69,4.126,0.69,6.2v102.927H522.055z"/>
<path fill="#0A253E" d="M640.137,2.78c0-1.844,0.235-3.789,0.686-5.852c0.46-2.297,1.262-4.364,2.411-6.196
	c1.146-1.844,2.862-3.331,5.166-4.471c2.29-1.383,5.27-2.071,8.953-2.071c4.119,0,7.344,0.802,9.636,2.408
	c2.294,1.6,3.903,3.557,4.813,5.854c1.155,2.297,1.841,4.819,2.071,7.57c0.225,2.529,0.346,4.708,0.346,6.544v52.67
	c0,1.837-0.121,4.131-0.346,6.894c-0.23,2.52-0.916,4.929-2.071,7.223c-0.911,2.297-2.52,4.243-4.813,5.854
	c-2.062,1.607-5.163,2.411-9.306,2.411c-4.35,0-7.795-0.69-10.315-2.067c-2.3-1.602-4.017-3.555-5.175-5.845
	c-0.911-2.302-1.486-4.712-1.713-7.235c-0.23-2.753-0.342-5.171-0.342-7.235V2.78H640.137z M613.629,66.469
	c0,7.342,1.258,13.768,3.783,19.273c2.753,5.28,6.193,9.639,10.327,13.089c4.136,3.441,8.839,5.966,14.119,7.574
	c5.28,1.6,10.55,2.402,15.823,2.402c2.995,0,6.891-0.567,11.715-1.725c4.82-0.914,9.525-2.857,14.107-5.835
	c4.827-3.22,8.842-7.582,12.059-13.091c3.441-5.503,5.157-12.74,5.157-21.688V0.022c0-4.82-0.913-9.639-2.748-14.456
	c-1.616-5.05-4.252-9.643-7.923-13.78c-3.45-4.12-7.921-7.449-13.428-9.973c-5.51-2.753-12.05-4.136-19.626-4.136
	c-5.507,0-11.127,1.148-16.86,3.445v-64.032h-26.508v169.38H613.629z"/>
<path fill="#0A253E" d="M405.697-39.224h-26.504V63.024c0,2.06-0.235,4.241-0.691,6.538c-0.461,2.065-1.267,4.018-2.408,5.852
	c-1.151,1.836-2.873,3.334-5.161,4.473c-2.067,1.153-4.829,1.727-8.267,1.727c-4.364,0-7.8-0.69-10.327-2.067
	c-2.297-1.602-4.022-3.555-5.163-5.845c-0.923-2.302-1.493-4.712-1.723-7.235c-0.228-2.753-0.339-5.171-0.339-7.235v-98.456h-26.517
	V66.467c0,7.342,1.26,13.768,3.783,19.273c2.758,5.28,6.207,9.639,10.33,13.089c4.136,3.441,8.846,5.966,14.11,7.574
	c5.282,1.6,10.566,2.402,15.844,2.402c4.355,0,9.871-1.035,16.527-3.099v27.536c0,0.192-0.021,0.375-0.026,0.56l-0.32-0.003
	c-0.232,2.522-0.926,4.929-2.076,7.223c-0.363,0.925-0.871,1.775-1.464,2.586c-0.085,0.105-0.161,0.211-0.251,0.313
	c-0.252,0.349-0.539,0.669-0.831,0.982c-0.112,0.119-0.223,0.245-0.346,0.363c-0.316,0.309-0.645,0.608-0.996,0.878
	c-0.024,0.021-0.043,0.036-0.064,0.052c-2.537,1.922-6.037,2.886-10.498,2.886v0.197c-4.196-0.038-7.534-0.705-9.99-2.053
	c-2.294-1.606-4.017-3.548-5.166-5.851c-0.914-2.3-1.49-4.703-1.715-7.23h-26.855c0,7.344,1.26,13.772,3.787,19.276
	c2.753,5.28,6.196,9.632,10.327,13.082c4.136,3.441,8.841,5.97,14.116,7.577c5.28,1.595,10.559,2.406,15.835,2.406
	c2.985,0,6.886-0.576,11.711-1.725c4.812-0.921,9.516-2.864,14.11-5.847c4.819-3.211,8.841-7.574,12.047-13.075
	c3.446-5.51,5.159-12.752,5.159-21.694h-0.038c0.005-0.306,0.043-0.596,0.043-0.902V-39.224H405.697z"/>
<path fill="#0A253E" d="M757.868,6.564c0-1.836,0.116-4.013,0.346-6.544c0.23-2.522,0.802-4.933,1.713-7.223
	c1.149-2.536,2.874-4.603,5.171-6.203c2.292-1.606,5.614-2.408,9.983-2.408c4.127,0,7.344,0.802,9.632,2.408
	c2.3,1.6,3.906,3.557,4.82,5.854c1.144,2.297,1.841,4.819,2.067,7.57c0.23,2.529,0.342,4.708,0.342,6.544h26.506V0.018
	c0-4.82-0.914-9.639-2.745-14.456c-1.607-5.05-4.252-9.643-7.928-13.78c-3.436-4.12-7.916-7.449-13.424-9.973
	c-5.512-2.753-12.045-4.136-19.619-4.136c-5.28,0-10.559,0.918-15.839,2.758c-5.054,1.6-9.636,4.247-13.772,7.914
	c-4.136,3.436-7.458,7.809-9.983,13.082c-2.522,5.277-3.787,11.48-3.787,18.589v105.686h26.511V6.564H757.868z"/>
<path fill="#0A253E" d="M921.081-18.567c-2.532-5.273-5.852-9.648-9.99-13.082c-4.126-3.668-8.716-6.314-13.77-7.914
	c-5.275-1.841-10.555-2.758-15.835-2.758c-7.572,0-14.117,1.383-19.619,4.136c-5.513,2.523-9.985,5.852-13.426,9.973
	c-3.668,4.138-6.31,8.73-7.923,13.78c-1.834,4.817-2.758,9.636-2.758,14.456v6.544h26.52c0-1.836,0.111-4.013,0.339-6.544
	c0.223-2.753,0.916-5.273,2.064-7.57c0.923-2.297,2.527-4.253,4.817-5.854c2.295-1.606,5.51-2.408,9.648-2.408
	c4.352,0,7.681,0.802,9.974,2.408c2.294,1.6,4.025,3.668,5.171,6.203c0.909,2.288,1.486,4.701,1.716,7.223
	c0.233,2.529,0.342,4.708,0.342,6.544v12.048h-24.84c-7.114,0-13.312,1.258-18.589,3.789c-5.278,2.52-9.641,5.845-13.082,9.981
	c-3.671,4.127-6.305,8.721-7.918,13.768c-1.834,5.272-2.753,10.559-2.753,15.839c0,7.568,1.374,14.117,4.134,19.617
	c2.529,5.515,5.854,9.986,9.978,13.424c4.136,3.68,8.732,6.317,13.773,7.921c4.82,1.83,9.636,2.757,14.456,2.757h51.351V0.022
	C924.866-7.087,923.603-13.29,921.081-18.567z M865.946,76.78c-2.178-1.168-4.252-2.522-5.857-4.819
	c-1.607-2.285-2.408-5.498-2.408-9.629c0-4.364,0.802-7.686,2.408-9.983c1.606-2.292,3.676-4.022,6.203-5.166
	c3.071-1.383,5.071-1.867,8.037-1.867l24.024,0.102v33.788H877.21c0,0,1.543,0,0-0.005C871.569,79.184,868.295,78.052,865.946,76.78
	z"/>
<path fill="#0A253E" d="M457.973,144.16c3.754,0,6.279,1.424,9.388,3.821l-0.13-5.698v-12.824h2.852v46.562h-2.463l-0.259-4.012
	h-0.194c-2.525,2.523-5.956,4.789-10.102,4.789c-7.835,0-12.885-5.764-12.885-16.252C444.179,150.509,450.588,144.16,457.973,144.16
	z M457.453,174.275c3.433,0,6.476-1.816,9.777-5.118v-18.455c-3.301-2.917-6.02-4.017-9.067-4.017
	c-6.215,0-10.946,6.023-10.946,13.861C447.219,168.77,450.847,174.275,457.453,174.275z"/>
<path fill="#0A253E" d="M485.241,144.938h2.463l0.256,5.764h0.195c2.072-3.821,5.116-6.542,8.808-6.542
	c1.168,0,2.071,0.13,3.111,0.65l-0.652,2.591c-1.034-0.391-1.616-0.52-2.848-0.52c-2.784,0-6.087,2.136-8.481,7.964v21.176h-2.848
	v-31.083H485.241z"/>
<path fill="#0A253E" d="M508.559,144.938h2.848v19.556c0,6.604,2.072,9.715,7.057,9.715c3.694,0,6.412-1.943,10.04-6.348v-22.923
	h2.848v31.083h-2.396l-0.321-5.18h-0.13c-3.044,3.564-6.283,5.958-10.557,5.958c-6.409,0-9.388-3.885-9.388-11.919v-19.942H508.559z
	"/>
<path fill="#0A253E" d="M549.362,178.743v11.333h-2.848v-45.138h2.461l0.261,3.885h0.19c3.047-2.397,6.735-4.663,10.559-4.663
	c8.288,0,12.432,6.217,12.432,15.868c0,10.555-6.412,16.772-13.73,16.772c-2.914,0-6.086-1.424-9.325-3.821V178.743z
	 M558.555,174.275c6.286,0,10.82-5.83,10.82-14.247c0-7.641-2.722-13.343-9.845-13.343c-3.108,0-6.409,1.813-10.168,5.118v18.455
	C552.924,173.173,556.161,174.275,558.555,174.275z"/>
<path fill="#0A253E" d="M602.34,156.53c0.13-4.727-1.231-9.845-7.318-9.845c-4.209,0-7.835,2.074-9.907,3.628l-1.296-2.136
	c2.202-1.552,6.476-4.015,11.526-4.015c7.385,0,9.845,5.31,9.845,11.981v19.881h-2.397l-0.323-4.012h-0.13
	c-3.172,2.523-6.929,4.789-11.01,4.789c-4.922,0-9.065-2.656-9.065-8.548C582.265,161.387,588.546,158.084,602.34,156.53z
	 M591.785,174.338c3.56,0,6.734-1.747,10.555-5.05v-10.555c-12.757,1.49-17.097,4.466-17.097,9.392
	C585.244,172.59,588.222,174.338,591.785,174.338z"/>
<path fill="#0A253E" d="M619.573,129.459h2.847v42.81c0,1.358,0.584,2.007,1.36,2.007c0.258,0,0.52,0,1.167-0.131l0.518,2.333
	c-0.584,0.194-1.165,0.325-2.074,0.325c-2.523,0-3.818-1.552-3.818-4.922L619.573,129.459L619.573,129.459z"/>
<path fill="#0A253E" d="M665.492,144.16c3.754,0,6.281,1.424,9.388,3.821l-0.128-5.698v-12.824h2.852v46.562h-2.463l-0.261-4.012
	h-0.19c-2.527,2.523-5.959,4.789-10.107,4.789c-7.835,0-12.885-5.764-12.885-16.252C651.697,150.509,658.105,144.16,665.492,144.16z
	 M664.972,174.275c3.431,0,6.476-1.816,9.779-5.118v-18.455c-3.303-2.917-6.022-4.017-9.065-4.017
	c-6.215,0-10.946,6.023-10.946,13.861C654.74,168.77,658.366,174.275,664.972,174.275z"/>
<path fill="#0A253E" d="M692.762,144.938h2.461l0.259,5.764h0.194c2.072-3.821,5.118-6.542,8.808-6.542
	c1.165,0,2.074,0.13,3.108,0.65l-0.645,2.591c-1.04-0.391-1.621-0.52-2.85-0.52c-2.784,0-6.086,2.136-8.486,7.964v21.176h-2.845
	v-31.083H692.762z"/>
<path fill="#0A253E" d="M726.83,144.16c7.382,0,11.914,5.247,11.914,14.377c0,0.778,0,1.552-0.13,2.333h-22.408
	c0.131,7.835,4.731,13.467,11.723,13.467c3.369,0,6.022-1.101,8.351-2.784l1.168,2.204c-2.459,1.49-5.244,3.044-9.777,3.044
	c-7.966,0-14.378-6.089-14.378-16.252C713.294,150.375,719.901,144.16,726.83,144.16z M736.027,158.666
	c0-7.964-3.562-12.045-9.131-12.045c-5.313,0-10.038,4.596-10.688,12.045H736.027z"/>
<path fill="#0A253E" d="M767.761,156.53c0.128-4.727-1.232-9.845-7.318-9.845c-4.212,0-7.835,2.074-9.907,3.628l-1.296-2.136
	c2.2-1.552,6.476-4.015,11.526-4.015c7.384,0,9.841,5.31,9.841,11.981v19.881h-2.394l-0.325-4.012h-0.128
	c-3.175,2.523-6.929,4.789-11.011,4.789c-4.921,0-9.067-2.656-9.067-8.548C747.683,161.387,753.967,158.084,767.761,156.53z
	 M757.203,174.338c3.562,0,6.737-1.747,10.559-5.05v-10.555c-12.76,1.49-17.1,4.466-17.1,9.392
	C750.663,172.59,753.642,174.338,757.203,174.338z"/>
<path fill="#0A253E" d="M784.993,144.938h2.461l0.258,4.791h0.19c2.788-3.172,6.348-5.571,9.781-5.571
	c4.986,0,7.513,2.525,8.612,6.348c3.564-3.885,6.996-6.348,10.555-6.348c6.219,0,9.325,3.887,9.325,11.919v19.944h-2.912v-19.555
	c0-6.606-2.204-9.717-6.929-9.717c-2.912,0-5.892,1.943-9.325,5.828v23.444h-2.852v-19.555c0-6.606-2.2-9.717-6.993-9.717
	c-2.788,0-5.895,1.943-9.326,5.828v23.444h-2.847v-31.083H784.993z"/>
<path fill="#0A253E" d="M851.768,144.16c7.382,0,11.917,5.247,11.917,14.377c0,0.778,0,1.552-0.131,2.333h-22.406
	c0.13,7.835,4.727,13.467,11.723,13.467c3.365,0,6.022-1.101,8.355-2.784l1.163,2.204c-2.459,1.49-5.247,3.044-9.777,3.044
	c-7.968,0-14.377-6.089-14.377-16.252C838.234,150.375,844.839,144.16,851.768,144.16z M860.965,158.666
	c0-7.964-3.564-12.045-9.133-12.045c-5.308,0-10.037,4.596-10.687,12.045H860.965z"/>
<path fill="#0A253E" d="M875.345,144.938h2.461l0.261,5.764h0.19c2.074-3.821,5.118-6.542,8.811-6.542
	c1.161,0,2.071,0.13,3.108,0.65l-0.646,2.591c-1.039-0.391-1.62-0.52-2.848-0.52c-2.788,0-6.089,2.136-8.486,7.964v21.176h-2.848
	v-31.083H875.345z"/>
<path fill="#0A253E" d="M896.265,170.388c2.653,2.202,5.441,3.949,9.91,3.949c4.855,0,7.382-2.847,7.382-6.151
	c0-3.885-4.015-5.571-7.577-6.865c-4.729-1.685-9.907-3.564-9.907-8.872c0-4.534,3.56-8.291,10.037-8.291
	c3.305,0,6.606,1.36,8.875,3.241l-1.556,2.007c-2.074-1.554-4.276-2.784-7.448-2.784c-4.789,0-6.995,2.784-6.995,5.633
	c0,3.433,3.628,4.924,7.316,6.283c4.858,1.815,10.168,3.433,10.168,9.52c0,4.663-3.756,8.744-10.489,8.744
	c-4.599,0-8.612-1.944-11.398-4.274L896.265,170.388z"/>
<path fill="#06A7E2" d="M260.058,21.122c3.486-25.085-4.414-51.445-23.699-70.733l-59.158-59.15l-48.745,48.74l20.424,20.429
	L177.2-67.913L216.41-28.7c21.658,21.655,21.658,56.77,0,78.431c-6.438,6.438-14.084,10.911-22.196,13.523
	c-1.35,10.123-4.181,20.078-8.529,29.517c18.502-1.877,36.494-9.895,50.672-24.073C249.741,55.315,257.64,38.526,260.058,21.122"/>
<path fill="#0A253E" d="M151.472-10.335l-59.155-59.15l-59.16,59.15c-32.673,32.676-32.673,85.642,0,118.312
	c32.676,32.676,85.639,32.676,118.315,0C184.143,75.307,184.143,22.342,151.472-10.335z M131.53,89.01
	c-21.662,21.651-56.768,21.651-78.43,0c-21.658-21.663-21.658-56.773,0-78.431l39.215-39.206l39.213,39.206
	C153.185,32.235,153.185,67.345,131.53,89.01z"/>
</svg>
