<?xml version="1.0" encoding="utf-8"?>
<!DOCTYPE svg PUBLIC "-//W3C//DTD SVG 1.1//EN" "http://www.w3.org/Graphics/SVG/1.1/DTD/svg11.dtd">
<svg version="1.1" xmlns="http://www.w3.org/2000/svg" xmlns:xlink="http://www.w3.org/1999/xlink" x="0px" y="0px"
	 width="1063.447px" height="274.486px" viewBox="0 0 1063.447 274.486" enable-background="new 0 0 1063.447 274.486"
	 xml:space="preserve">
<g id="Layer_1">
	<g>
		<circle display="none" fill="#2DB2E0" cx="125.201" cy="138.952" r="151.25"/>
		<path display="none" fill="#2DB2E0" d="M151.132-8.945c15.956,4.689,32.062,9.672,46.548,18.043
			c11.363,5.862,21.45,13.857,30.531,22.805c8.895,8.652,17.36,17.976,23.504,28.841c7.619,13.508,14.258,27.715,18.055,42.806
			c3.865,15.749,6.535,32.061,4.737,48.306c-2.201,19.559-6.909,39.037-15.886,56.665c-11.777,23.905-30.183,44.509-52.623,58.888
			c-13.027,8.908-27.715,15.293-43.034,19.051c-14.863,3.555-30.117,6.466-45.462,5.431c-37.266-2.695-74.398-17.543-100.744-44.496
			c-9.511-9.162-17.641-19.732-23.65-31.537c-8.746-14.877-14.353-31.297-19.156-47.796v-47.353
			c3.555-19.573,9.605-38.93,19.894-56.06C7.944,40.998,28.307,20.889,52.722,8.025C66.686,0.191,82.635-7.669,98.26-10.733
			C121.065-15.205,131.349-14.758,151.132-8.945z"/>
		<path display="none" fill="#FDFEFD" d="M151.132-8.945H275.78v301.829H-26.049V168.061c4.803,16.499,10.41,32.919,19.156,47.796
			c6.01,11.806,14.139,22.375,23.65,31.537c26.346,26.953,63.478,41.801,100.744,44.496c15.345,1.035,30.599-1.876,45.462-5.431
			c15.319-3.758,30.007-10.143,43.034-19.051c22.441-14.379,40.847-34.982,52.623-58.888c8.977-17.628,13.685-37.106,15.886-56.665
			c1.797-16.245-0.872-32.557-4.737-48.306c-3.796-15.091-10.435-29.298-18.055-42.806c-6.144-10.866-14.609-20.189-23.504-28.841
			c-9.081-8.948-19.168-16.943-30.531-22.805C183.193,0.727,166.975-3.887,151.132-8.945L151.132-8.945z"/>
		<path fill="#2DB2E0" d="M138.201,10.701c-70.831,0-128.25,57.42-128.25,128.251c0,70.831,57.419,128.249,128.25,128.249
			c70.83,0,128.25-57.418,128.25-128.249C266.451,68.121,209.031,10.701,138.201,10.701z M228.175,202.287
			c-2.469,3.549-7.12,4.196-11.112,4.3c-23.352,0.192-46.441,0.045-70.046,0.045c-0.853,0-0.102,10.84-0.262,16.106
			c-2.876-1.73-14.573-14.342-19.359-16.392c-1.99-0.854-14.992,0.975-17.915-2.084c-3.197-3.347-3.537-7.754-3.549-12.077
			c-0.091-15.186,0.376-30.369,0.273-45.556c0.034-4.959-0.614-10.01,0.421-14.913c2.014-6.12,8.77-8.667,14.73-8.451
			c15.856,0.023,31.702,0.103,47.546,0.034c14.912-0.056,29.811,0.08,44.715-0.102c4.459,0.102,9.826-0.228,13.034,3.515
			c4.688,5.004,4.425,12.387,4.539,18.779c-0.171,14.038-0.103,28.085-0.021,42.122
			C231.041,192.572,231.065,198.008,228.175,202.287z"/>
		<path display="none" fill="#FDFEFD" d="M87.962,130.42c2.375-7.217,10.343-10.222,17.372-9.966
			c18.7,0.027,37.387,0.121,56.074,0.04c17.585-0.067,35.158,0.093,52.733-0.121c5.259,0.121,11.588-0.269,15.372,4.145
			c5.528,5.902,5.219,14.609,5.352,22.147c-0.202,16.554-0.121,33.121-0.026,49.676c-0.149,5.848-0.121,12.259-3.529,17.305
			c-2.911,4.185-8.397,4.949-13.105,5.07c-27.54,0.227-54.77,0.053-82.607,0.053c-1.006,0-0.121,12.785-0.309,18.995
			c-3.393-2.039-17.188-16.913-22.832-19.331c-2.347-1.006-17.681,1.15-21.128-2.457c-3.771-3.946-4.172-9.145-4.186-14.243
			c-0.107-17.908,0.443-35.816,0.322-53.726C87.506,142.158,86.742,136.202,87.962,130.42L87.962,130.42z"/>
		<path fill="#020304" d="M47.829,85.456c5.562-4.027,12.876-2.878,19.326-2.992c28.062,0.091,56.123,0.16,84.172-0.056
			c4.835,0.079,10.362,0.159,14.07,3.742c3.459,3.265,3.409,8.381,3.697,12.819c0.103,1.592,0.103,21.498,0.103,24.341
			c0-0.568-31.656,0.161-47.512,0.138c-5.959-0.216-12.717,2.331-14.73,8.451c-1.99,4.721-1.74,9.93-1.672,14.936
			c0.171,6.2,0.026,15.15,0.026,19.7c0,0.569-20.948,0.19-22.37,0.19c-1.137,0-11.871,11.242-16.114,14.028
			c-0.354-5.062-0.284-14.028-0.758-14.028c-2.011,0-17.157,0.474-19.622-1.043c-3.073-1.894-2.754-11.556-2.836-15.366
			c-0.387-17.905-0.387-31.27-0.034-51.335C43.658,94.283,43.711,88.596,47.829,85.456L47.829,85.456z"/>
		<path display="none" fill="#094049" d="M47.829,85.456c5.562-4.027,12.876-2.878,19.326-2.992
			c28.062,0.091,56.123,0.16,84.172-0.056c4.835,0.079,10.362,0.159,14.07,3.742c3.459,3.265,3.409,8.381,3.697,12.819
			c0.103,1.592,0.103,21.498,0.103,24.341c0-0.568-31.656,0.161-47.512,0.138c-5.959-0.216-12.717,2.331-14.73,8.451
			c-1.99,4.721-1.74,9.93-1.672,14.936c0.171,6.2,0.026,15.15,0.026,19.7c0,0.569-20.948,0.19-22.37,0.19
			c-1.137,0-11.871,11.242-16.114,14.028c-0.354-5.062-0.284-14.028-0.758-14.028c-2.011,0-17.157,0.474-19.622-1.043
			c-3.073-1.894-2.754-11.556-2.836-15.366c-0.387-17.905-0.387-31.27-0.034-51.335C43.658,94.283,43.711,88.596,47.829,85.456
			L47.829,85.456z"/>
		<circle fill="#2DB2E0" cx="134.375" cy="167.638" r="11.57"/>
		<circle fill="#2DB2E0" cx="169.253" cy="167.638" r="11.57"/>
		<circle fill="#2DB2E0" cx="204.131" cy="167.638" r="11.57"/>
		<path display="none" fill="#2DB2E0" d="M122.102,159.019c7.149-3.219,16.487,3.73,15.198,11.617
			c0.189,9.82-13.776,14.272-19.987,7.15C111.102,172.153,114.845,161.689,122.102,159.019L122.102,159.019z"/>
		<path display="none" fill="#2DB2E0" d="M159.461,159.034c8.185-1.838,16.475,7.257,12.678,15.077
			c-2.738,7.956-14.554,9.645-19.787,3.327C147.081,171.228,150.848,159.475,159.461,159.034L159.461,159.034z"/>
		<path display="none" fill="#2DB2E0" d="M195.56,158.98c6.775-1.154,12.678,5.137,11.483,11.844
			c0.404,9.27-12.018,13.388-18.686,8.385c-4.011-3.192-4.08-9.068-2.858-13.615C186.706,161.247,191.294,158.94,195.56,158.98
			L195.56,158.98z"/>
	</g>
</g>
<g id="Layer_2">
	<g>
		<path d="M413.245,195.7l-4.487-18.435h-0.97c-2.668,3.639-5.336,6.772-8.004,9.399c-2.668,2.628-5.579,4.79-8.732,6.488
			c-3.153,1.698-6.67,2.95-10.551,3.76c-3.881,0.808-8.368,1.213-13.462,1.213c-5.579,0-10.714-0.788-15.402-2.365
			c-4.691-1.576-8.753-4.002-12.189-7.276c-3.438-3.274-6.124-7.398-8.065-12.371c-1.94-4.972-2.911-10.854-2.911-17.646
			c0-13.26,4.669-23.446,14.007-30.562c9.338-7.114,23.547-10.995,42.629-11.643l22.315-0.849v-8.368
			c0-5.416-0.588-9.945-1.759-13.584c-1.173-3.638-2.871-6.568-5.094-8.792c-2.225-2.223-4.972-3.82-8.247-4.791
			c-3.275-0.97-7.016-1.455-11.218-1.455c-6.712,0-12.958,0.97-18.738,2.911c-5.781,1.94-11.339,4.286-16.676,7.034l-7.762-16.615
			c5.982-3.233,12.653-5.982,20.011-8.247c7.357-2.263,15.079-3.396,23.165-3.396c8.246,0,15.381,0.83,21.405,2.486
			c6.022,1.658,10.995,4.287,14.918,7.883c3.92,3.599,6.852,8.186,8.792,13.765c1.94,5.579,2.911,12.33,2.911,20.253V195.7H413.245z
			 M372.738,180.298c4.931,0,9.5-0.768,13.705-2.305c4.203-1.534,7.841-3.859,10.915-6.973c3.072-3.112,5.477-7.034,7.216-11.765
			c1.737-4.73,2.607-10.288,2.607-16.676v-12.006l-17.343,0.849c-7.277,0.324-13.382,1.133-18.313,2.425
			c-4.933,1.294-8.875,3.092-11.825,5.397c-2.953,2.304-5.075,5.094-6.367,8.368c-1.294,3.274-1.94,6.974-1.94,11.097
			c0,7.44,1.96,12.897,5.882,16.373C361.196,178.56,366.35,180.298,372.738,180.298z"/>
		<path d="M549.683,159.195c0,6.47-1.174,12.128-3.518,16.98c-2.346,4.85-5.721,8.913-10.127,12.188
			c-4.407,3.274-9.723,5.721-15.948,7.337c-6.227,1.616-13.219,2.426-20.981,2.426c-8.814,0-16.373-0.709-22.679-2.123
			c-6.307-1.413-11.846-3.496-16.615-6.245v-20.133c2.505,1.295,5.294,2.568,8.368,3.82c3.072,1.255,6.307,2.365,9.702,3.336
			c3.396,0.97,6.892,1.758,10.491,2.364c3.597,0.606,7.174,0.91,10.733,0.91c5.255,0,9.722-0.443,13.401-1.334
			c3.678-0.89,6.671-2.163,8.975-3.82c2.304-1.656,3.981-3.679,5.032-6.064c1.05-2.384,1.577-5.033,1.577-7.943
			c0-2.506-0.405-4.77-1.213-6.792c-0.81-2.021-2.285-4.021-4.427-6.003c-2.144-1.98-5.075-3.982-8.793-6.004
			c-3.72-2.02-8.49-4.284-14.311-6.791c-5.821-2.505-11.057-4.973-15.706-7.398c-4.65-2.426-8.592-5.134-11.825-8.126
			c-3.234-2.99-5.721-6.446-7.458-10.369c-1.739-3.92-2.607-8.59-2.607-14.008c0-5.658,1.11-10.691,3.335-15.099
			c2.223-4.406,5.356-8.104,9.399-11.097c4.042-2.99,8.893-5.255,14.553-6.792c5.658-1.535,11.965-2.305,18.919-2.305
			c7.841,0,15.018,0.849,21.527,2.547c6.508,1.698,12.674,3.923,18.495,6.67l-7.641,17.828c-5.257-2.344-10.653-4.385-16.19-6.124
			c-5.539-1.738-11.179-2.607-16.918-2.607c-8.247,0-14.353,1.354-18.313,4.062c-3.962,2.71-5.943,6.57-5.943,11.582
			c0,2.831,0.464,5.296,1.395,7.398c0.928,2.104,2.526,4.084,4.79,5.943c2.263,1.861,5.295,3.741,9.096,5.639
			c3.799,1.901,8.529,4.023,14.189,6.367c5.821,2.426,11.015,4.851,15.585,7.277c4.566,2.426,8.469,5.154,11.703,8.186
			c3.232,3.032,5.7,6.488,7.398,10.369C548.834,149.129,549.683,153.779,549.683,159.195z"/>
		<path d="M634.699,198.126c-8.895,0-17.02-1.497-24.377-4.487c-7.358-2.99-13.686-7.356-18.98-13.099
			c-5.296-5.739-9.398-12.855-12.31-21.345c-2.91-8.489-4.366-18.191-4.366-29.107c0-10.995,1.334-20.818,4.003-29.471
			c2.668-8.651,6.428-15.988,11.278-22.012c4.852-6.022,10.651-10.612,17.403-13.765c6.75-3.153,14.209-4.73,22.376-4.73
			c8.005,0,15.2,1.437,21.588,4.306c6.386,2.871,11.804,6.913,16.251,12.128c4.445,5.215,7.862,11.481,10.248,18.798
			c2.384,7.318,3.578,15.423,3.578,24.316v13.705h-83.925c0.403,15.604,3.699,27.086,9.884,34.443
			c6.185,7.357,15.382,11.036,27.591,11.036c4.124,0,7.944-0.201,11.461-0.606c3.517-0.404,6.913-0.989,10.188-1.759
			c3.274-0.768,6.446-1.737,9.521-2.91c3.071-1.172,6.184-2.486,9.338-3.942v19.647c-3.234,1.537-6.408,2.871-9.52,4.002
			c-3.114,1.134-6.307,2.061-9.581,2.79c-3.274,0.728-6.671,1.252-10.188,1.576C642.642,197.963,638.822,198.126,634.699,198.126z
			 M629.241,78.424c-9.217,0-16.515,3.153-21.891,9.459c-5.378,6.307-8.51,15.484-9.398,27.53h59.669
			c0-5.498-0.546-10.53-1.638-15.099c-1.092-4.567-2.789-8.469-5.094-11.704c-2.304-3.233-5.235-5.74-8.793-7.519
			C638.538,79.315,634.254,78.424,629.241,78.424z"/>
		<path d="M772.593,60.111c2.344,0,4.972,0.103,7.883,0.303c2.91,0.203,5.416,0.506,7.519,0.91l-2.911,20.375
			c-2.265-0.404-4.59-0.747-6.974-1.031c-2.386-0.283-4.629-0.425-6.73-0.425c-5.094,0-9.744,1.031-13.947,3.093
			c-4.205,2.062-7.822,5.014-10.854,8.853c-3.032,3.841-5.378,8.45-7.034,13.826c-1.658,5.378-2.486,11.339-2.486,17.888V195.7
			h-22.072V62.536h17.949l2.668,24.377h0.971c2.019-3.476,4.183-6.831,6.488-10.066c2.304-3.233,4.891-6.083,7.762-8.55
			c2.869-2.465,6.083-4.446,9.642-5.943C764.021,60.859,768.063,60.111,772.593,60.111z"/>
		<path d="M854.335,180.055c1.455,0,3.092-0.08,4.911-0.243c1.819-0.161,3.578-0.363,5.275-0.607
			c1.698-0.242,3.254-0.524,4.67-0.849c1.413-0.322,2.486-0.606,3.214-0.849v16.736c-1.052,0.484-2.386,0.97-4.002,1.455
			c-1.619,0.485-3.396,0.909-5.337,1.273c-1.94,0.364-3.962,0.646-6.064,0.849c-2.104,0.201-4.165,0.304-6.185,0.304
			c-5.014,0-9.662-0.648-13.947-1.94c-4.286-1.293-7.985-3.518-11.097-6.671c-3.113-3.153-5.56-7.417-7.337-12.795
			c-1.779-5.376-2.668-12.146-2.668-20.313V79.152H796.97v-9.824l18.799-9.459l9.459-27.894h12.734v30.562h33.473v16.615h-33.473
			v77.254c0,7.843,1.273,13.746,3.82,17.706C844.329,178.075,848.514,180.055,854.335,180.055z"/>
		<path d="M896.539,26.517c0-4.851,1.232-8.368,3.699-10.551c2.466-2.183,5.518-3.274,9.156-3.274c1.777,0,3.457,0.263,5.033,0.788
			c1.577,0.527,2.95,1.355,4.124,2.486c1.171,1.133,2.101,2.567,2.789,4.305c0.686,1.74,1.03,3.82,1.03,6.246
			c0,4.69-1.273,8.186-3.819,10.49c-2.547,2.305-5.601,3.457-9.157,3.457c-3.638,0-6.69-1.131-9.156-3.396
			C897.771,34.805,896.539,31.288,896.539,26.517z M920.309,195.7h-22.072V62.536h22.072V195.7z"/>
		<path d="M1013.451,198.126c-8.167,0-15.808-1.273-22.921-3.82c-7.116-2.547-13.302-6.589-18.556-12.128
			c-5.257-5.537-9.381-12.613-12.371-21.224c-2.992-8.611-4.487-18.98-4.487-31.108c0-12.693,1.535-23.467,4.609-32.321
			c3.071-8.854,7.295-16.048,12.673-21.587c5.376-5.537,11.662-9.56,18.859-12.067c7.195-2.505,14.917-3.76,23.164-3.76
			c6.307,0,12.471,0.688,18.495,2.062c6.021,1.375,11.055,3.074,15.099,5.094l-6.549,18.677c-1.861-0.807-3.923-1.596-6.186-2.365
			c-2.265-0.768-4.608-1.456-7.034-2.062c-2.425-0.606-4.811-1.091-7.155-1.455c-2.346-0.364-4.568-0.546-6.67-0.546
			c-12.694,0-21.951,4.063-27.773,12.188c-5.821,8.125-8.731,20.759-8.731,37.899c0,17.061,2.93,29.531,8.793,37.414
			c5.86,7.884,14.774,11.825,26.741,11.825c6.549,0,12.471-0.747,17.768-2.244c5.295-1.495,10.127-3.254,14.493-5.275v19.648
			c-4.366,2.346-9.036,4.123-14.008,5.336C1026.731,197.519,1020.646,198.126,1013.451,198.126z"/>
		<path d="M612.163,255.31l-0.808-3.318h-0.175c-0.48,0.655-0.961,1.22-1.441,1.692c-0.479,0.473-1.004,0.862-1.571,1.168
			c-0.567,0.306-1.201,0.53-1.899,0.677c-0.698,0.145-1.506,0.218-2.423,0.218c-1.004,0-1.929-0.142-2.772-0.426
			c-0.845-0.283-1.575-0.721-2.194-1.309c-0.618-0.59-1.103-1.332-1.451-2.227c-0.35-0.895-0.524-1.954-0.524-3.177
			c0-2.387,0.841-4.22,2.522-5.501c1.681-1.28,4.238-1.979,7.674-2.096l4.017-0.152v-1.507c0-0.975-0.106-1.79-0.316-2.444
			c-0.212-0.655-0.518-1.183-0.917-1.583c-0.4-0.4-0.896-0.688-1.484-0.862c-0.59-0.175-1.263-0.262-2.02-0.262
			c-1.208,0-2.332,0.174-3.373,0.523c-1.04,0.35-2.041,0.771-3.001,1.267L598.606,233c1.077-0.582,2.277-1.076,3.602-1.484
			c1.324-0.407,2.715-0.611,4.17-0.611c1.484,0,2.769,0.149,3.853,0.447c1.084,0.299,1.979,0.772,2.686,1.419
			c0.706,0.648,1.233,1.474,1.583,2.479c0.349,1.004,0.523,2.219,0.523,3.646v16.416H612.163z M604.871,252.538
			c0.888,0,1.71-0.138,2.467-0.415c0.757-0.276,1.412-0.694,1.965-1.255c0.554-0.561,0.986-1.267,1.299-2.117
			c0.314-0.852,0.47-1.853,0.47-3.002v-2.161l-3.122,0.152c-1.309,0.059-2.408,0.204-3.296,0.436
			c-0.888,0.233-1.598,0.557-2.129,0.972c-0.531,0.415-0.913,0.917-1.146,1.507c-0.233,0.589-0.35,1.255-0.35,1.997
			c0,1.339,0.352,2.321,1.059,2.947C602.794,252.225,603.722,252.538,604.871,252.538z"/>
		<path d="M636.722,248.739c0,1.165-0.211,2.184-0.633,3.057c-0.422,0.873-1.03,1.604-1.823,2.194
			c-0.793,0.589-1.75,1.029-2.87,1.32c-1.121,0.291-2.38,0.436-3.776,0.436c-1.587,0-2.947-0.128-4.083-0.382
			c-1.135-0.255-2.132-0.63-2.99-1.124v-3.624c0.451,0.232,0.953,0.462,1.506,0.688c0.553,0.226,1.136,0.426,1.747,0.601
			s1.24,0.316,1.888,0.426c0.648,0.108,1.292,0.163,1.933,0.163c0.945,0,1.749-0.079,2.412-0.24c0.662-0.159,1.2-0.389,1.615-0.688
			c0.415-0.298,0.717-0.662,0.906-1.091c0.189-0.43,0.283-0.906,0.283-1.431c0-0.45-0.073-0.858-0.218-1.222
			c-0.146-0.364-0.412-0.725-0.797-1.081c-0.386-0.356-0.914-0.717-1.583-1.08c-0.67-0.364-1.528-0.771-2.576-1.223
			c-1.048-0.451-1.99-0.895-2.827-1.332c-0.837-0.436-1.546-0.924-2.128-1.463c-0.582-0.538-1.03-1.16-1.343-1.866
			c-0.313-0.706-0.469-1.546-0.469-2.522c0-1.019,0.199-1.924,0.6-2.718c0.4-0.793,0.964-1.459,1.692-1.997
			c0.728-0.538,1.601-0.946,2.619-1.223c1.018-0.276,2.154-0.415,3.405-0.415c1.412,0,2.703,0.153,3.875,0.459
			c1.172,0.306,2.281,0.706,3.329,1.2l-1.375,3.209c-0.946-0.422-1.918-0.789-2.914-1.103c-0.997-0.312-2.013-0.469-3.046-0.469
			c-1.484,0-2.583,0.243-3.296,0.732c-0.714,0.487-1.07,1.182-1.07,2.084c0,0.51,0.084,0.954,0.252,1.332
			c0.167,0.379,0.454,0.735,0.862,1.069c0.407,0.335,0.952,0.674,1.637,1.016c0.684,0.342,1.535,0.724,2.555,1.146
			c1.047,0.436,1.982,0.873,2.805,1.311c0.822,0.436,1.524,0.928,2.107,1.473c0.582,0.546,1.026,1.168,1.332,1.867
			C636.569,246.928,636.722,247.764,636.722,248.739z"/>
		<path d="M652.024,255.747c-1.601,0-3.064-0.27-4.388-0.808c-1.324-0.538-2.463-1.324-3.416-2.357
			c-0.954-1.033-1.692-2.314-2.216-3.843c-0.524-1.527-0.786-3.274-0.786-5.239c0-1.979,0.24-3.747,0.721-5.305
			c0.479-1.557,1.156-2.877,2.03-3.962c0.873-1.084,1.917-1.91,3.132-2.478c1.216-0.567,2.558-0.852,4.028-0.852
			c1.44,0,2.735,0.259,3.886,0.775c1.15,0.517,2.124,1.244,2.925,2.183c0.801,0.938,1.415,2.066,1.845,3.384
			c0.429,1.317,0.645,2.776,0.645,4.377v2.467h-15.106c0.072,2.809,0.665,4.876,1.778,6.2c1.113,1.324,2.77,1.986,4.967,1.986
			c0.742,0,1.43-0.036,2.062-0.109c0.634-0.072,1.245-0.178,1.834-0.316c0.59-0.139,1.16-0.312,1.714-0.524
			c0.553-0.21,1.113-0.447,1.681-0.709v3.536c-0.582,0.277-1.153,0.517-1.714,0.721c-0.56,0.204-1.135,0.371-1.725,0.502
			c-0.589,0.131-1.2,0.226-1.833,0.284C653.454,255.718,652.766,255.747,652.024,255.747z M651.042,234.201
			c-1.659,0-2.973,0.567-3.94,1.702c-0.968,1.136-1.531,2.787-1.691,4.956h10.74c0-0.99-0.098-1.896-0.295-2.718
			c-0.196-0.822-0.502-1.525-0.916-2.107c-0.415-0.581-0.943-1.033-1.583-1.354C652.716,234.361,651.944,234.201,651.042,234.201z"
			/>
		<path d="M676.846,230.904c0.422,0,0.894,0.018,1.419,0.055c0.523,0.036,0.975,0.091,1.353,0.164l-0.524,3.667
			c-0.407-0.072-0.826-0.134-1.255-0.186c-0.43-0.051-0.833-0.076-1.212-0.076c-0.917,0-1.754,0.185-2.51,0.557
			c-0.758,0.371-1.408,0.902-1.954,1.594c-0.546,0.691-0.968,1.521-1.267,2.488c-0.298,0.968-0.447,2.041-0.447,3.22v12.924h-3.973
			v-23.97h3.23l0.481,4.388h0.175c0.363-0.625,0.753-1.23,1.168-1.812c0.414-0.582,0.88-1.095,1.397-1.539
			c0.517-0.443,1.095-0.8,1.735-1.069C675.303,231.039,676.03,230.904,676.846,230.904z"/>
		<path d="M691.558,252.494c0.262,0,0.557-0.014,0.884-0.043c0.328-0.029,0.644-0.065,0.95-0.109
			c0.306-0.044,0.586-0.095,0.84-0.153c0.255-0.058,0.448-0.108,0.579-0.152v3.013c-0.189,0.087-0.43,0.175-0.721,0.262
			c-0.291,0.087-0.611,0.164-0.96,0.229c-0.35,0.065-0.714,0.116-1.092,0.152c-0.379,0.036-0.75,0.055-1.113,0.055
			c-0.902,0-1.739-0.116-2.511-0.35c-0.772-0.232-1.438-0.633-1.997-1.2c-0.561-0.567-1.001-1.335-1.321-2.303
			s-0.479-2.187-0.479-3.657v-13.905h-3.384v-1.769l3.384-1.702l1.702-5.021h2.292v5.501h6.025v2.991h-6.025v13.905
			c0,1.412,0.23,2.475,0.688,3.188C689.758,252.138,690.511,252.494,691.558,252.494z"/>
		<path d="M699.156,224.857c0-0.873,0.222-1.506,0.665-1.899c0.444-0.393,0.994-0.589,1.648-0.589c0.32,0,0.622,0.047,0.906,0.142
			c0.283,0.095,0.531,0.244,0.742,0.447c0.211,0.204,0.378,0.463,0.502,0.775c0.123,0.313,0.186,0.688,0.186,1.124
			c0,0.845-0.229,1.474-0.688,1.889c-0.459,0.414-1.008,0.622-1.648,0.622c-0.654,0-1.204-0.204-1.648-0.611
			C699.378,226.349,699.156,225.717,699.156,224.857z M703.434,255.31h-3.973v-23.97h3.973V255.31z"/>
		<path d="M715.419,255.31l-8.187-23.97h4.104l4.344,13.339c0.16,0.48,0.35,1.099,0.567,1.855c0.219,0.757,0.436,1.527,0.655,2.314
			c0.218,0.786,0.418,1.528,0.601,2.227c0.182,0.699,0.302,1.23,0.359,1.594h0.153c0.072-0.363,0.196-0.895,0.371-1.594
			c0.175-0.698,0.371-1.44,0.589-2.227c0.219-0.786,0.438-1.557,0.655-2.314c0.219-0.757,0.407-1.376,0.567-1.855l4.345-13.339
			h4.103l-8.186,23.97H715.419z"/>
		<path d="M732.141,224.857c0-0.873,0.222-1.506,0.665-1.899c0.444-0.393,0.994-0.589,1.648-0.589c0.32,0,0.622,0.047,0.906,0.142
			c0.283,0.095,0.531,0.244,0.742,0.447c0.211,0.204,0.378,0.463,0.502,0.775c0.123,0.313,0.185,0.688,0.185,1.124
			c0,0.845-0.229,1.474-0.688,1.889c-0.459,0.414-1.008,0.622-1.648,0.622c-0.654,0-1.204-0.204-1.648-0.611
			C732.363,226.349,732.141,225.717,732.141,224.857z M736.42,255.31h-3.973v-23.97h3.973V255.31z"/>
		<path d="M758.817,252.101h-0.175c-0.32,0.495-0.695,0.964-1.124,1.408c-0.43,0.444-0.925,0.833-1.485,1.168
			c-0.56,0.335-1.189,0.597-1.888,0.785c-0.698,0.189-1.484,0.284-2.357,0.284c-1.354,0-2.591-0.262-3.712-0.786
			c-1.12-0.523-2.081-1.306-2.881-2.347c-0.801-1.04-1.419-2.332-1.855-3.875c-0.437-1.542-0.655-3.332-0.655-5.37
			c0-2.052,0.219-3.852,0.655-5.402c0.436-1.55,1.055-2.849,1.855-3.896c0.8-1.048,1.761-1.838,2.881-2.369
			c1.121-0.531,2.358-0.797,3.712-0.797c0.858,0,1.637,0.095,2.336,0.284c0.698,0.189,1.327,0.444,1.888,0.764
			c0.561,0.32,1.059,0.691,1.495,1.113c0.437,0.423,0.815,0.866,1.136,1.332h0.262c-0.044-0.495-0.087-0.968-0.131-1.419
			c-0.029-0.379-0.058-0.768-0.088-1.168c-0.029-0.4-0.043-0.717-0.043-0.949v-9.519h3.973v33.968h-3.209L758.817,252.101z
			 M752.552,252.451c1.105,0,2.041-0.168,2.806-0.503c0.764-0.334,1.382-0.844,1.856-1.527c0.473-0.685,0.821-1.539,1.048-2.566
			c0.225-1.026,0.352-2.223,0.382-3.591v-0.896c0-1.47-0.099-2.775-0.295-3.918c-0.196-1.143-0.531-2.104-1.004-2.882
			c-0.474-0.778-1.103-1.368-1.889-1.769c-0.786-0.399-1.769-0.6-2.947-0.6c-1.965,0-3.409,0.793-4.333,2.379
			c-0.925,1.587-1.386,3.864-1.386,6.833c0,3.042,0.461,5.309,1.386,6.8C749.098,251.705,750.557,252.451,752.552,252.451z"/>
		<path d="M783.725,255.31l-0.808-3.318h-0.175c-0.48,0.655-0.961,1.22-1.441,1.692c-0.48,0.473-1.004,0.862-1.571,1.168
			c-0.567,0.306-1.201,0.53-1.899,0.677c-0.698,0.145-1.506,0.218-2.423,0.218c-1.004,0-1.929-0.142-2.772-0.426
			c-0.845-0.283-1.575-0.721-2.194-1.309c-0.618-0.59-1.103-1.332-1.451-2.227c-0.35-0.895-0.524-1.954-0.524-3.177
			c0-2.387,0.841-4.22,2.521-5.501c1.681-1.28,4.238-1.979,7.674-2.096l4.017-0.152v-1.507c0-0.975-0.106-1.79-0.316-2.444
			c-0.212-0.655-0.517-1.183-0.917-1.583c-0.4-0.4-0.895-0.688-1.484-0.862c-0.59-0.175-1.263-0.262-2.02-0.262
			c-1.208,0-2.332,0.174-3.373,0.523c-1.04,0.35-2.041,0.771-3.001,1.267L770.169,233c1.077-0.582,2.277-1.076,3.602-1.484
			c1.324-0.407,2.715-0.611,4.17-0.611c1.484,0,2.769,0.149,3.853,0.447c1.084,0.299,1.979,0.772,2.685,1.419
			c0.706,0.648,1.233,1.474,1.583,2.479c0.349,1.004,0.523,2.219,0.523,3.646v16.416H783.725z M776.433,252.538
			c0.888,0,1.71-0.138,2.467-0.415c0.757-0.276,1.412-0.694,1.965-1.255c0.554-0.561,0.986-1.267,1.299-2.117
			c0.314-0.852,0.47-1.853,0.47-3.002v-2.161l-3.122,0.152c-1.309,0.059-2.408,0.204-3.296,0.436
			c-0.888,0.233-1.598,0.557-2.129,0.972c-0.531,0.415-0.913,0.917-1.145,1.507c-0.233,0.589-0.35,1.255-0.35,1.997
			c0,1.339,0.352,2.321,1.059,2.947C774.356,252.225,775.284,252.538,776.433,252.538z"/>
		<path d="M808.743,252.101h-0.175c-0.32,0.495-0.695,0.964-1.124,1.408c-0.43,0.444-0.925,0.833-1.485,1.168
			c-0.56,0.335-1.19,0.597-1.888,0.785c-0.698,0.189-1.484,0.284-2.357,0.284c-1.354,0-2.591-0.262-3.712-0.786
			c-1.12-0.523-2.081-1.306-2.881-2.347c-0.801-1.04-1.419-2.332-1.856-3.875c-0.436-1.542-0.655-3.332-0.655-5.37
			c0-2.052,0.219-3.852,0.655-5.402c0.437-1.55,1.055-2.849,1.856-3.896c0.8-1.048,1.761-1.838,2.881-2.369
			c1.121-0.531,2.358-0.797,3.712-0.797c0.858,0,1.637,0.095,2.336,0.284c0.698,0.189,1.327,0.444,1.888,0.764
			c0.561,0.32,1.059,0.691,1.495,1.113c0.437,0.423,0.816,0.866,1.136,1.332h0.262c-0.044-0.495-0.087-0.968-0.131-1.419
			c-0.029-0.379-0.059-0.768-0.088-1.168c-0.029-0.4-0.043-0.717-0.043-0.949v-9.519h3.973v33.968h-3.209L808.743,252.101z
			 M802.477,252.451c1.105,0,2.041-0.168,2.806-0.503c0.764-0.334,1.382-0.844,1.855-1.527c0.473-0.685,0.821-1.539,1.048-2.566
			c0.225-1.026,0.353-2.223,0.382-3.591v-0.896c0-1.47-0.099-2.775-0.295-3.918c-0.196-1.143-0.531-2.104-1.004-2.882
			c-0.474-0.778-1.102-1.368-1.889-1.769c-0.786-0.399-1.769-0.6-2.947-0.6c-1.965,0-3.409,0.793-4.333,2.379
			c-0.925,1.587-1.386,3.864-1.386,6.833c0,3.042,0.461,5.309,1.386,6.8C799.024,251.705,800.483,252.451,802.477,252.451z"/>
		<path d="M838.999,252.494c0.262,0,0.557-0.014,0.884-0.043c0.328-0.029,0.645-0.065,0.95-0.109
			c0.306-0.044,0.586-0.095,0.84-0.153c0.255-0.058,0.448-0.108,0.579-0.152v3.013c-0.189,0.087-0.43,0.175-0.721,0.262
			c-0.291,0.087-0.611,0.164-0.96,0.229c-0.35,0.065-0.714,0.116-1.092,0.152c-0.379,0.036-0.75,0.055-1.113,0.055
			c-0.902,0-1.739-0.116-2.511-0.35c-0.771-0.232-1.438-0.633-1.997-1.2c-0.561-0.567-1.001-1.335-1.321-2.303
			c-0.32-0.968-0.48-2.187-0.48-3.657v-13.905h-3.384v-1.769l3.384-1.702l1.702-5.021h2.292v5.501h6.025v2.991h-6.025v13.905
			c0,1.412,0.229,2.475,0.687,3.188C837.198,252.138,837.951,252.494,838.999,252.494z"/>
		<path d="M856.376,255.747c-1.601,0-3.063-0.27-4.388-0.808s-2.463-1.324-3.416-2.357c-0.954-1.033-1.692-2.314-2.216-3.843
			c-0.525-1.527-0.786-3.274-0.786-5.239c0-1.979,0.24-3.747,0.721-5.305c0.48-1.557,1.156-2.877,2.03-3.962
			c0.873-1.084,1.917-1.91,3.132-2.478c1.216-0.567,2.558-0.852,4.028-0.852c1.44,0,2.735,0.259,3.886,0.775
			c1.149,0.517,2.124,1.244,2.925,2.183c0.801,0.938,1.415,2.066,1.845,3.384c0.429,1.317,0.645,2.776,0.645,4.377v2.467h-15.106
			c0.072,2.809,0.665,4.876,1.778,6.2c1.113,1.324,2.77,1.986,4.967,1.986c0.742,0,1.43-0.036,2.062-0.109
			c0.634-0.072,1.245-0.178,1.834-0.316c0.59-0.139,1.16-0.312,1.714-0.524c0.553-0.21,1.113-0.447,1.681-0.709v3.536
			c-0.582,0.277-1.153,0.517-1.714,0.721c-0.56,0.204-1.135,0.371-1.725,0.502c-0.589,0.131-1.2,0.226-1.833,0.284
			C857.806,255.718,857.118,255.747,856.376,255.747z M855.393,234.201c-1.659,0-2.973,0.567-3.94,1.702
			c-0.968,1.136-1.531,2.787-1.691,4.956h10.74c0-0.99-0.098-1.896-0.295-2.718c-0.196-0.822-0.502-1.525-0.916-2.107
			c-0.415-0.581-0.943-1.033-1.583-1.354C857.067,234.361,856.296,234.201,855.393,234.201z"/>
		<path d="M879.996,255.747c-1.47,0-2.845-0.229-4.126-0.688c-1.28-0.459-2.393-1.186-3.34-2.183
			c-0.946-0.997-1.688-2.27-2.227-3.82c-0.538-1.551-0.808-3.417-0.808-5.6c0-2.285,0.276-4.225,0.829-5.818
			c0.554-1.593,1.313-2.889,2.281-3.886c0.968-0.996,2.1-1.721,3.394-2.172c1.296-0.451,2.685-0.677,4.17-0.677
			c1.136,0,2.245,0.124,3.329,0.371c1.084,0.248,1.99,0.554,2.718,0.917l-1.179,3.362c-0.335-0.145-0.706-0.287-1.113-0.426
			c-0.407-0.139-0.829-0.263-1.267-0.371c-0.437-0.109-0.865-0.196-1.287-0.263c-0.423-0.066-0.823-0.098-1.201-0.098
			c-2.285,0-3.951,0.731-4.999,2.193c-1.048,1.463-1.571,3.737-1.571,6.822c0,3.071,0.527,5.316,1.582,6.734
			c1.056,1.419,2.66,2.129,4.814,2.129c1.179,0,2.245-0.135,3.198-0.404c0.953-0.268,1.823-0.585,2.608-0.949v3.536
			c-0.785,0.423-1.626,0.742-2.521,0.961C882.387,255.638,881.292,255.747,879.996,255.747z"/>
		<path d="M906.497,255.31v-15.434c0-1.892-0.382-3.311-1.146-4.257c-0.765-0.946-1.962-1.419-3.591-1.419
			c-1.179,0-2.169,0.189-2.97,0.567c-0.8,0.379-1.444,0.939-1.932,1.681c-0.487,0.742-0.837,1.652-1.048,2.729
			c-0.211,1.077-0.316,2.314-0.316,3.712v12.421h-3.973v-23.97h3.23l0.567,3.231h0.219c0.363-0.626,0.797-1.168,1.299-1.627
			c0.502-0.458,1.051-0.84,1.648-1.145c0.596-0.306,1.23-0.531,1.899-0.677c0.67-0.146,1.353-0.219,2.053-0.219
			c2.663,0,4.668,0.695,6.014,2.085c1.346,1.39,2.02,3.613,2.02,6.669v15.652H906.497z"/>
		<path d="M937.387,243.282c0,1.994-0.243,3.766-0.73,5.315c-0.488,1.55-1.187,2.853-2.096,3.908
			c-0.91,1.055-2.013,1.858-3.308,2.412c-1.296,0.553-2.751,0.829-4.366,0.829c-1.499,0-2.882-0.276-4.147-0.829
			c-1.267-0.554-2.361-1.357-3.285-2.412c-0.925-1.056-1.646-2.358-2.161-3.908c-0.518-1.55-0.775-3.321-0.775-5.315
			c0-1.979,0.243-3.736,0.731-5.272c0.487-1.535,1.182-2.83,2.085-3.886c0.902-1.055,2.004-1.855,3.307-2.401
			c1.303-0.545,2.762-0.818,4.377-0.818c1.499,0,2.882,0.273,4.148,0.818c1.266,0.546,2.36,1.347,3.285,2.401
			c0.924,1.056,1.644,2.351,2.161,3.886C937.129,239.546,937.387,241.303,937.387,243.282z M920.622,243.282
			c0,3.042,0.498,5.33,1.495,6.865c0.996,1.536,2.615,2.304,4.857,2.304c2.24,0,3.853-0.768,4.835-2.304
			c0.982-1.535,1.474-3.823,1.474-6.865c0-3.042-0.499-5.315-1.495-6.822c-0.997-1.506-2.616-2.259-4.857-2.259
			c-2.241,0-3.854,0.753-4.836,2.259C921.113,237.967,920.622,240.24,920.622,243.282z"/>
		<path d="M947.626,255.31h-3.973v-33.968h3.973V255.31z"/>
		<path d="M974.76,243.282c0,1.994-0.243,3.766-0.731,5.315c-0.488,1.55-1.187,2.853-2.096,3.908
			c-0.91,1.055-2.013,1.858-3.308,2.412c-1.296,0.553-2.751,0.829-4.366,0.829c-1.499,0-2.882-0.276-4.148-0.829
			c-1.267-0.554-2.361-1.357-3.285-2.412c-0.925-1.056-1.646-2.358-2.161-3.908c-0.518-1.55-0.775-3.321-0.775-5.315
			c0-1.979,0.243-3.736,0.732-5.272c0.487-1.535,1.182-2.83,2.085-3.886c0.902-1.055,2.004-1.855,3.307-2.401
			c1.303-0.545,2.762-0.818,4.377-0.818c1.499,0,2.882,0.273,4.148,0.818c1.266,0.546,2.36,1.347,3.285,2.401
			c0.924,1.056,1.645,2.351,2.161,3.886C974.502,239.546,974.76,241.303,974.76,243.282z M957.995,243.282
			c0,3.042,0.498,5.33,1.495,6.865c0.996,1.536,2.615,2.304,4.858,2.304c2.24,0,3.852-0.768,4.835-2.304
			c0.982-1.535,1.474-3.823,1.474-6.865c0-3.042-0.499-5.315-1.495-6.822c-0.997-1.506-2.616-2.259-4.857-2.259
			s-3.854,0.753-4.836,2.259C958.486,237.967,957.995,240.24,957.995,243.282z M961.749,227.63c0.32-0.422,0.651-0.909,0.994-1.463
			c0.342-0.553,0.684-1.124,1.025-1.713c0.342-0.59,0.666-1.18,0.972-1.769c0.306-0.59,0.574-1.132,0.808-1.626h4.781v0.458
			c-0.233,0.393-0.579,0.884-1.037,1.474c-0.459,0.589-0.969,1.204-1.528,1.845c-0.561,0.641-1.135,1.263-1.725,1.866
			c-0.59,0.604-1.139,1.11-1.648,1.518h-2.642V227.63z"/>
		<path d="M999.494,231.341v2.467l-4.301,0.59c0.407,0.51,0.75,1.16,1.026,1.954c0.276,0.793,0.415,1.691,0.415,2.695
			c0,1.107-0.172,2.129-0.514,3.067c-0.342,0.939-0.858,1.75-1.55,2.434c-0.691,0.685-1.546,1.22-2.565,1.605
			c-1.019,0.387-2.205,0.579-3.558,0.579c-0.32,0-0.641-0.004-0.961-0.011c-0.32-0.008-0.582-0.033-0.785-0.077
			c-0.248,0.146-0.491,0.31-0.732,0.491c-0.24,0.183-0.459,0.39-0.655,0.623c-0.196,0.232-0.356,0.494-0.48,0.785
			c-0.123,0.292-0.186,0.611-0.186,0.961c0,0.393,0.088,0.709,0.263,0.949c0.174,0.24,0.41,0.426,0.709,0.557
			c0.298,0.131,0.651,0.219,1.059,0.263c0.407,0.043,0.837,0.065,1.288,0.065h3.842c1.353,0,2.496,0.171,3.428,0.513
			c0.932,0.342,1.691,0.804,2.281,1.386c0.59,0.583,1.016,1.27,1.277,2.064c0.262,0.793,0.393,1.634,0.393,2.521
			c0,1.28-0.236,2.43-0.709,3.449c-0.474,1.018-1.197,1.881-2.173,2.587c-0.975,0.705-2.208,1.247-3.7,1.626
			c-1.491,0.378-3.249,0.567-5.271,0.567c-1.558,0-2.918-0.152-4.082-0.458c-1.165-0.306-2.133-0.75-2.903-1.332
			c-0.771-0.582-1.351-1.284-1.736-2.106c-0.386-0.822-0.578-1.75-0.578-2.783c0-0.873,0.142-1.642,0.426-2.304
			c0.284-0.662,0.666-1.233,1.147-1.713c0.479-0.48,1.036-0.873,1.67-1.179c0.633-0.306,1.291-0.539,1.976-0.699
			c-0.611-0.276-1.113-0.713-1.507-1.31c-0.393-0.597-0.589-1.28-0.589-2.052c0-0.888,0.232-1.655,0.698-2.304
			c0.466-0.647,1.201-1.276,2.205-1.888c-0.626-0.262-1.197-0.622-1.714-1.081c-0.517-0.458-0.953-0.982-1.31-1.571
			c-0.357-0.59-0.633-1.233-0.83-1.933c-0.196-0.698-0.294-1.419-0.294-2.161c0-1.295,0.182-2.452,0.545-3.471
			c0.364-1.019,0.902-1.885,1.616-2.598c0.713-0.713,1.601-1.259,2.663-1.638c1.062-0.378,2.299-0.567,3.711-0.567
			c0.538,0,1.095,0.04,1.67,0.12c0.575,0.08,1.059,0.186,1.452,0.316H999.494z M981.79,259.24c0,0.538,0.095,1.04,0.284,1.506
			c0.188,0.466,0.498,0.866,0.928,1.201c0.429,0.334,0.996,0.6,1.702,0.797c0.706,0.196,1.583,0.294,2.631,0.294
			c2.707,0,4.733-0.418,6.08-1.255c1.346-0.837,2.018-2.041,2.018-3.613c0-0.669-0.087-1.215-0.262-1.637
			c-0.175-0.423-0.462-0.753-0.862-0.993c-0.4-0.24-0.928-0.404-1.583-0.491c-0.654-0.088-1.455-0.131-2.401-0.131h-3.842
			c-0.51,0-1.041,0.058-1.594,0.174c-0.553,0.117-1.059,0.335-1.517,0.655c-0.459,0.32-0.837,0.761-1.136,1.32
			C981.939,257.628,981.79,258.352,981.79,259.24z M983.799,239.047c0,1.674,0.393,2.918,1.179,3.733
			c0.785,0.816,1.898,1.223,3.34,1.223c1.455,0,2.558-0.404,3.307-1.212c0.75-0.808,1.125-2.077,1.125-3.81
			c0-1.79-0.382-3.106-1.146-3.951c-0.764-0.844-1.874-1.266-3.329-1.266c-1.44,0-2.547,0.436-3.318,1.31
			C984.183,235.947,983.799,237.271,983.799,239.047z"/>
		<path d="M1003.883,224.857c0-0.873,0.222-1.506,0.665-1.899c0.444-0.393,0.994-0.589,1.648-0.589c0.32,0,0.622,0.047,0.906,0.142
			c0.283,0.095,0.531,0.244,0.742,0.447c0.211,0.204,0.378,0.463,0.502,0.775c0.123,0.313,0.186,0.688,0.186,1.124
			c0,0.845-0.23,1.474-0.688,1.889c-0.459,0.414-1.008,0.622-1.648,0.622c-0.654,0-1.204-0.204-1.648-0.611
			C1004.104,226.349,1003.883,225.717,1003.883,224.857z M1008.161,255.31h-3.973v-23.97h3.973V255.31z"/>
		<path d="M1024.926,255.747c-1.47,0-2.845-0.229-4.126-0.688c-1.28-0.459-2.393-1.186-3.34-2.183
			c-0.946-0.997-1.689-2.27-2.227-3.82c-0.538-1.551-0.808-3.417-0.808-5.6c0-2.285,0.276-4.225,0.829-5.818
			c0.554-1.593,1.314-2.889,2.281-3.886c0.968-0.996,2.1-1.721,3.395-2.172c1.296-0.451,2.685-0.677,4.17-0.677
			c1.136,0,2.245,0.124,3.329,0.371c1.084,0.248,1.99,0.554,2.718,0.917l-1.179,3.362c-0.335-0.145-0.706-0.287-1.113-0.426
			c-0.407-0.139-0.829-0.263-1.267-0.371c-0.437-0.109-0.865-0.196-1.287-0.263c-0.423-0.066-0.823-0.098-1.201-0.098
			c-2.285,0-3.951,0.731-4.999,2.193c-1.048,1.463-1.571,3.737-1.571,6.822c0,3.071,0.527,5.316,1.582,6.734
			c1.056,1.419,2.66,2.129,4.813,2.129c1.179,0,2.245-0.135,3.198-0.404c0.953-0.268,1.823-0.585,2.608-0.949v3.536
			c-0.785,0.423-1.626,0.742-2.521,0.961C1027.316,255.638,1026.222,255.747,1024.926,255.747z"/>
		<path d="M1049.966,255.31l-0.808-3.318h-0.175c-0.48,0.655-0.961,1.22-1.441,1.692c-0.479,0.473-1.004,0.862-1.571,1.168
			c-0.567,0.306-1.201,0.53-1.899,0.677c-0.698,0.145-1.506,0.218-2.423,0.218c-1.004,0-1.929-0.142-2.772-0.426
			c-0.845-0.283-1.575-0.721-2.194-1.309c-0.618-0.59-1.103-1.332-1.451-2.227c-0.35-0.895-0.524-1.954-0.524-3.177
			c0-2.387,0.841-4.22,2.522-5.501c1.681-1.28,4.238-1.979,7.674-2.096l4.017-0.152v-1.507c0-0.975-0.106-1.79-0.316-2.444
			c-0.212-0.655-0.518-1.183-0.917-1.583c-0.4-0.4-0.896-0.688-1.484-0.862c-0.59-0.175-1.263-0.262-2.02-0.262
			c-1.208,0-2.332,0.174-3.373,0.523c-1.04,0.35-2.041,0.771-3.001,1.267l-1.398-2.991c1.077-0.582,2.277-1.076,3.602-1.484
			c1.324-0.407,2.715-0.611,4.17-0.611c1.484,0,2.769,0.149,3.853,0.447c1.084,0.299,1.979,0.772,2.686,1.419
			c0.706,0.648,1.233,1.474,1.583,2.479c0.349,1.004,0.523,2.219,0.523,3.646v16.416H1049.966z M1042.674,252.538
			c0.888,0,1.71-0.138,2.467-0.415c0.757-0.276,1.412-0.694,1.965-1.255c0.554-0.561,0.986-1.267,1.299-2.117
			c0.313-0.852,0.47-1.853,0.47-3.002v-2.161l-3.122,0.152c-1.31,0.059-2.408,0.204-3.296,0.436
			c-0.888,0.233-1.598,0.557-2.129,0.972c-0.531,0.415-0.913,0.917-1.145,1.507c-0.234,0.589-0.35,1.255-0.35,1.997
			c0,1.339,0.353,2.321,1.059,2.947C1040.597,252.225,1041.524,252.538,1042.674,252.538z"/>
	</g>
	<text transform="matrix(1 0 0 1 381.0531 210.7)" display="none"><tspan x="0" y="0" display="inline" font-family="'DroidSans'" font-size="248.3779">asertic</tspan><tspan x="241.669" y="59.61" display="inline" font-family="'DroidSans'" font-size="44.708">asertividad tecnológica</tspan></text>
</g>
</svg>
