<?xml version="1.0" encoding="utf-8"?>
<!-- Generator: Adobe Illustrator 17.0.0, SVG Export Plug-In . SVG Version: 6.00 Build 0)  -->
<!DOCTYPE svg PUBLIC "-//W3C//DTD SVG 1.1//EN" "http://www.w3.org/Graphics/SVG/1.1/DTD/svg11.dtd">
<svg version="1.1" id="Capa_1" xmlns="http://www.w3.org/2000/svg" xmlns:xlink="http://www.w3.org/1999/xlink" x="0px" y="0px"
	 width="561px" height="208px" viewBox="0 0 561 208" enable-background="new 0 0 561 208" xml:space="preserve">
<path fill-rule="evenodd" clip-rule="evenodd" fill="#0A253E" d="M314.698,146.262V86.908c0-1.063,0.133-2.194,0.398-3.387
	c0.269-1.329,0.728-2.521,1.395-3.587c0.66-1.193,1.595-2.122,2.787-2.782c1.327-0.8,2.986-1.198,4.983-1.198
	c2.388,0,4.244,0.464,5.573,1.393c1.329,0.926,2.259,2.058,2.788,3.387c0.663,1.196,1.066,2.591,1.196,4.184
	c0.133,1.454,0.2,2.784,0.2,3.982v57.362h15.338V88.899c0-4.249-0.398-7.899-1.196-10.955c-0.798-3.186-2.656-6.506-5.576-9.96
	c-2.26-2.651-5.111-4.515-8.565-5.577c-3.451-1.196-6.704-1.792-9.758-1.792c-3.722,0-7.041,0.596-9.962,1.792
	c-2.922,1.196-5.376,2.722-7.371,4.585c-2.258-2.258-4.978-3.856-8.165-4.782c-3.185-1.065-6.241-1.596-9.159-1.596
	c-3.985,0-7.571,0.732-10.758,2.191c-3.053,1.329-5.577,3.122-7.569,5.378c-2.255,2.393-3.922,5.18-4.98,8.366
	c-1.062,3.189-1.591,7.302-1.591,12.35v57.362h15.335V88.899c0-0.933,0-2.119,0-3.585c0.134-1.593,0.467-3.055,0.997-4.379
	c0.667-1.331,1.662-2.455,2.99-3.391c1.322-1.06,3.183-1.591,5.577-1.591c2.124,0,3.78,0.333,4.977,0.993
	c1.327,0.667,2.325,1.534,2.987,2.591c0.666,1.062,1.124,2.257,1.393,3.586c0.267,1.193,0.399,2.387,0.399,3.587v59.552H314.698z"/>
<path fill-rule="evenodd" clip-rule="evenodd" fill="#0A253E" d="M383.018,86.71c0-1.067,0.136-2.192,0.397-3.386
	c0.266-1.329,0.73-2.525,1.395-3.585c0.663-1.067,1.656-1.927,2.989-2.587c1.325-0.8,3.049-1.198,5.18-1.198
	c2.383,0,4.249,0.464,5.575,1.393c1.327,0.926,2.258,2.058,2.785,3.387c0.668,1.329,1.065,2.788,1.198,4.38
	c0.13,1.463,0.2,2.724,0.2,3.786v30.474c0,1.063-0.07,2.39-0.2,3.989c-0.133,1.458-0.53,2.852-1.198,4.179
	c-0.527,1.329-1.458,2.455-2.785,3.387c-1.193,0.93-2.987,1.395-5.384,1.395c-2.517,0-4.51-0.399-5.968-1.196
	c-1.331-0.927-2.324-2.057-2.994-3.382c-0.527-1.332-0.86-2.726-0.991-4.186c-0.133-1.593-0.198-2.992-0.198-4.186V86.71z
	 M367.681,123.559c0,4.248,0.728,7.966,2.189,11.151c1.593,3.055,3.583,5.577,5.975,7.573c2.393,1.991,5.114,3.452,8.169,4.382
	c3.055,0.926,6.104,1.39,9.155,1.39c1.733,0,3.987-0.328,6.778-0.998c2.789-0.529,5.511-1.653,8.162-3.376
	c2.793-1.863,5.116-4.387,6.977-7.574c1.991-3.184,2.984-7.371,2.984-12.548V85.114c0-2.789-0.528-5.577-1.59-8.364
	c-0.935-2.922-2.46-5.579-4.584-7.973c-1.996-2.384-4.583-4.31-7.769-5.77c-3.188-1.593-6.972-2.393-11.355-2.393
	c-3.186,0-6.438,0.664-9.755,1.993V25.559h-15.337V123.559z"/>
<path fill-rule="evenodd" clip-rule="evenodd" fill="#0A253E" d="M247.375,62.407H232.04v59.159c0,1.192-0.136,2.454-0.4,3.783
	c-0.267,1.195-0.733,2.325-1.393,3.386c-0.666,1.062-1.662,1.929-2.986,2.588c-1.196,0.667-2.794,0.999-4.783,0.999
	c-2.525,0-4.513-0.399-5.975-1.196c-1.329-0.927-2.327-2.057-2.987-3.382c-0.534-1.332-0.864-2.726-0.997-4.186
	c-0.132-1.593-0.196-2.992-0.196-4.186V62.407h-15.342v61.151c0,4.248,0.729,7.966,2.189,11.151
	c1.596,3.055,3.591,5.577,5.977,7.573c2.393,1.991,5.118,3.452,8.164,4.382c3.056,0.926,6.113,1.39,9.167,1.39
	c2.52,0,5.711-0.599,9.562-1.793v15.932c0,0.111-0.012,0.217-0.015,0.324l-0.185-0.002c-0.134,1.459-0.536,2.852-1.201,4.179
	c-0.21,0.535-0.504,1.027-0.847,1.496c-0.049,0.061-0.093,0.122-0.145,0.181c-0.146,0.202-0.312,0.387-0.481,0.568
	c-0.065,0.069-0.129,0.142-0.2,0.21c-0.183,0.179-0.373,0.352-0.576,0.508c-0.014,0.012-0.025,0.021-0.037,0.03
	c-1.468,1.112-3.493,1.67-6.074,1.67v0.114c-2.428-0.022-4.359-0.408-5.78-1.188c-1.327-0.929-2.324-2.053-2.989-3.385
	c-0.529-1.331-0.862-2.721-0.992-4.183h-15.538c0,4.249,0.729,7.968,2.191,11.153c1.593,3.055,3.585,5.573,5.975,7.569
	c2.393,1.991,5.115,3.454,8.167,4.384c3.055,0.923,6.109,1.392,9.162,1.392c1.727,0,3.984-0.333,6.776-0.998
	c2.784-0.533,5.506-1.657,8.164-3.383c2.788-1.858,5.115-4.382,6.97-7.565c1.994-3.188,2.985-7.378,2.985-12.552h-0.022
	c0.003-0.177,0.025-0.345,0.025-0.522V62.407z"/>
<path fill-rule="evenodd" clip-rule="evenodd" fill="#0A253E" d="M451.135,88.899c0-1.062,0.067-2.322,0.2-3.786
	c0.133-1.459,0.464-2.854,0.991-4.179c0.665-1.467,1.663-2.663,2.992-3.589c1.326-0.929,3.248-1.393,5.776-1.393
	c2.388,0,4.249,0.464,5.573,1.393c1.331,0.926,2.26,2.058,2.789,3.387c0.662,1.329,1.065,2.788,1.196,4.38
	c0.133,1.463,0.198,2.724,0.198,3.786h15.336v-3.786c0-2.789-0.529-5.577-1.588-8.364c-0.93-2.922-2.46-5.579-4.587-7.973
	c-1.988-2.384-4.58-4.31-7.767-5.77c-3.189-1.593-6.969-2.393-11.351-2.393c-3.055,0-6.109,0.531-9.164,1.596
	c-2.924,0.926-5.575,2.457-7.968,4.579c-2.393,1.988-4.315,4.518-5.776,7.569c-1.459,3.053-2.191,6.642-2.191,10.755v61.148h15.339
	V88.899z"/>
<path fill-rule="evenodd" clip-rule="evenodd" fill="#0A253E" d="M545.567,74.359c-1.465-3.051-3.386-5.582-5.78-7.569
	c-2.387-2.122-5.043-3.653-7.967-4.579c-3.052-1.065-6.107-1.596-9.162-1.596c-4.381,0-8.168,0.8-11.351,2.393
	c-3.19,1.46-5.777,3.386-7.768,5.77c-2.122,2.394-3.651,5.051-4.584,7.973c-1.061,2.787-1.596,5.575-1.596,8.364v3.786h15.344
	c0-1.062,0.064-2.322,0.196-3.786c0.129-1.593,0.53-3.051,1.194-4.38c0.534-1.329,1.462-2.461,2.787-3.387
	c1.328-0.929,3.188-1.393,5.582-1.393c2.518,0,4.444,0.464,5.771,1.393c1.327,0.926,2.329,2.122,2.992,3.589
	c0.526,1.324,0.86,2.72,0.993,4.179c0.135,1.463,0.198,2.724,0.198,3.786v6.971h-14.372c-4.116,0-7.702,0.728-10.755,2.192
	c-3.054,1.458-5.578,3.382-7.569,5.775c-2.124,2.388-3.648,5.046-4.581,7.966c-1.061,3.05-1.593,6.109-1.593,9.164
	c0,4.379,0.795,8.168,2.392,11.35c1.463,3.191,3.387,5.778,5.773,7.767c2.393,2.129,5.052,3.655,7.969,4.583
	c2.789,1.059,5.575,1.595,8.364,1.595h29.711V85.114C547.757,81.001,547.026,77.412,545.567,74.359z M513.667,129.525
	c-1.26-0.676-2.46-1.459-3.389-2.788c-0.93-1.322-1.393-3.181-1.393-5.571c0-2.525,0.464-4.447,1.393-5.776
	c0.929-1.326,2.127-2.327,3.589-2.989c1.777-0.8,2.934-1.08,4.65-1.08l13.9,0.059v19.549h-12.233c0,0,0.893,0,0-0.003
	C516.92,130.916,515.026,130.261,513.667,129.525z"/>
<path fill="#0A253E" d="M277.621,168.51c2.172,0,3.633,0.824,5.432,2.211l-0.075-3.297v-7.42h1.65v26.94h-1.425l-0.15-2.321h-0.112
	c-1.461,1.46-3.446,2.771-5.845,2.771c-4.533,0-7.455-3.335-7.455-9.403C269.64,172.183,273.348,168.51,277.621,168.51z
	 M277.32,185.934c1.986,0,3.747-1.051,5.657-2.961v-10.678c-1.91-1.688-3.483-2.324-5.246-2.324c-3.596,0-6.333,3.485-6.333,8.02
	C271.399,182.749,273.498,185.934,277.32,185.934z"/>
<path fill="#0A253E" d="M293.398,168.96h1.425l0.148,3.335h0.113c1.199-2.211,2.96-3.785,5.096-3.785c0.676,0,1.198,0.075,1.8,0.376
	l-0.377,1.499c-0.598-0.226-0.935-0.301-1.648-0.301c-1.611,0-3.522,1.236-4.907,4.608v12.252h-1.648V168.96z"/>
<path fill="#0A253E" d="M306.889,168.96h1.648v11.315c0,3.821,1.199,5.621,4.083,5.621c2.137,0,3.71-1.124,5.809-3.673V168.96h1.648
	v17.984h-1.386l-0.186-2.997h-0.075c-1.761,2.062-3.635,3.447-6.108,3.447c-3.708,0-5.432-2.248-5.432-6.896V168.96z"/>
<path fill="#0A253E" d="M330.497,188.519v6.557h-1.648V168.96h1.424l0.151,2.248h0.11c1.763-1.387,3.897-2.698,6.109-2.698
	c4.795,0,7.193,3.597,7.193,9.181c0,6.107-3.71,9.704-7.944,9.704c-1.686,0-3.521-0.824-5.395-2.211V188.519z M335.816,185.934
	c3.637,0,6.26-3.373,6.26-8.243c0-4.421-1.575-7.72-5.696-7.72c-1.798,0-3.708,1.049-5.883,2.961v10.678
	C332.558,185.296,334.431,185.934,335.816,185.934z"/>
<path fill="#0A253E" d="M361.149,175.667c0.075-2.735-0.712-5.696-4.234-5.696c-2.435,0-4.533,1.2-5.732,2.099l-0.75-1.236
	c1.274-0.898,3.747-2.323,6.669-2.323c4.273,0,5.696,3.072,5.696,6.932v11.503h-1.387l-0.187-2.321h-0.075
	c-1.835,1.46-4.009,2.771-6.37,2.771c-2.848,0-5.245-1.537-5.245-4.946C349.534,178.477,353.168,176.566,361.149,175.667z
	 M355.042,185.97c2.06,0,3.896-1.011,6.107-2.922v-6.107c-7.381,0.862-9.892,2.584-9.892,5.434
	C351.258,184.959,352.981,185.97,355.042,185.97z"/>
<path fill="#0A253E" d="M371.12,160.004h1.647v24.769c0,0.786,0.338,1.161,0.787,1.161c0.149,0,0.301,0,0.675-0.076l0.3,1.35
	c-0.338,0.112-0.674,0.188-1.2,0.188c-1.46,0-2.209-0.898-2.209-2.848V160.004z"/>
<path fill="#0A253E" d="M397.688,168.51c2.172,0,3.634,0.824,5.432,2.211l-0.074-3.297v-7.42h1.65v26.94h-1.425l-0.151-2.321h-0.11
	c-1.462,1.46-3.448,2.771-5.848,2.771c-4.533,0-7.455-3.335-7.455-9.403C389.706,172.183,393.414,168.51,397.688,168.51z
	 M397.387,185.934c1.985,0,3.747-1.051,5.658-2.961v-10.678c-1.911-1.688-3.484-2.324-5.245-2.324c-3.596,0-6.333,3.485-6.333,8.02
	C391.467,182.749,393.565,185.934,397.387,185.934z"/>
<path fill="#0A253E" d="M413.466,168.96h1.424l0.15,3.335h0.112c1.199-2.211,2.961-3.785,5.096-3.785c0.674,0,1.2,0.075,1.798,0.376
	l-0.373,1.499c-0.602-0.226-0.938-0.301-1.649-0.301c-1.611,0-3.521,1.236-4.91,4.608v12.252h-1.646V168.96z"/>
<path fill="#0A253E" d="M433.177,168.51c4.271,0,6.893,3.036,6.893,8.318c0,0.45,0,0.898-0.075,1.35H427.03
	c0.076,4.533,2.737,7.792,6.783,7.792c1.949,0,3.484-0.637,4.832-1.611l0.676,1.275c-1.423,0.862-3.034,1.761-5.657,1.761
	c-4.609,0-8.319-3.523-8.319-9.403C425.345,172.106,429.168,168.51,433.177,168.51z M438.498,176.903
	c0-4.608-2.061-6.969-5.283-6.969c-3.074,0-5.808,2.659-6.184,6.969H438.498z"/>
<path fill="#0A253E" d="M456.859,175.667c0.074-2.735-0.713-5.696-4.234-5.696c-2.437,0-4.533,1.2-5.732,2.099l-0.75-1.236
	c1.273-0.898,3.747-2.323,6.669-2.323c4.272,0,5.694,3.072,5.694,6.932v11.503h-1.385l-0.188-2.321h-0.074
	c-1.837,1.46-4.009,2.771-6.371,2.771c-2.847,0-5.246-1.537-5.246-4.946C445.242,178.477,448.878,176.566,456.859,175.667z
	 M450.75,185.97c2.061,0,3.898-1.011,6.109-2.922v-6.107c-7.383,0.862-9.894,2.584-9.894,5.434
	C446.966,184.959,448.69,185.97,450.75,185.97z"/>
<path fill="#0A253E" d="M466.829,168.96h1.424l0.149,2.772h0.11c1.613-1.835,3.673-3.223,5.659-3.223
	c2.885,0,4.347,1.461,4.983,3.673c2.062-2.248,4.048-3.673,6.107-3.673c3.598,0,5.395,2.249,5.395,6.896v11.539h-1.685V175.63
	c0-3.822-1.275-5.622-4.009-5.622c-1.685,0-3.409,1.124-5.395,3.372v13.564h-1.65V175.63c0-3.822-1.273-5.622-4.046-5.622
	c-1.613,0-3.411,1.124-5.396,3.372v13.564h-1.647V168.96z"/>
<path fill="#0A253E" d="M505.464,168.51c4.271,0,6.895,3.036,6.895,8.318c0,0.45,0,0.898-0.076,1.35h-12.964
	c0.075,4.533,2.735,7.792,6.783,7.792c1.947,0,3.484-0.637,4.834-1.611l0.673,1.275c-1.423,0.862-3.036,1.761-5.657,1.761
	c-4.61,0-8.318-3.523-8.318-9.403C497.633,172.106,501.455,168.51,505.464,168.51z M510.785,176.903
	c0-4.608-2.062-6.969-5.284-6.969c-3.071,0-5.807,2.659-6.183,6.969H510.785z"/>
<path fill="#0A253E" d="M519.105,168.96h1.424l0.151,3.335h0.11c1.2-2.211,2.961-3.785,5.098-3.785c0.672,0,1.198,0.075,1.798,0.376
	l-0.374,1.499c-0.601-0.226-0.937-0.301-1.648-0.301c-1.613,0-3.523,1.236-4.91,4.608v12.252h-1.648V168.96z"/>
<path fill="#0A253E" d="M531.209,183.685c1.535,1.274,3.148,2.285,5.734,2.285c2.809,0,4.271-1.647,4.271-3.559
	c0-2.248-2.323-3.223-4.384-3.972c-2.736-0.975-5.732-2.062-5.732-5.133c0-2.623,2.06-4.797,5.807-4.797
	c1.912,0,3.822,0.787,5.135,1.875l-0.9,1.161c-1.2-0.899-2.474-1.611-4.309-1.611c-2.771,0-4.047,1.611-4.047,3.259
	c0,1.986,2.099,2.849,4.233,3.635c2.811,1.05,5.883,1.986,5.883,5.508c0,2.698-2.173,5.059-6.069,5.059
	c-2.661,0-4.983-1.125-6.595-2.473L531.209,183.685z"/>
<path fill="#06A7E2" d="M163.111,97.322c2.017-14.514-2.554-29.765-13.712-40.925l-34.228-34.223l-28.203,28.2l11.817,11.82
	l16.386-16.386l22.686,22.688c12.531,12.529,12.531,32.846,0,45.379c-3.725,3.725-8.149,6.313-12.842,7.824
	c-0.781,5.857-2.419,11.617-4.935,17.078c10.705-1.086,21.115-5.725,29.318-13.928C157.142,117.106,161.712,107.392,163.111,97.322"
	/>
<path fill="#0A253E" d="M100.285,79.122L66.059,44.899L31.83,79.122c-18.904,18.906-18.904,49.551,0,68.453
	c18.906,18.906,49.549,18.906,68.455,0C119.188,128.673,119.188,98.028,100.285,79.122z M88.747,136.601
	c-12.533,12.527-32.845,12.527-45.378,0c-12.531-12.534-12.531-32.848,0-45.379l22.689-22.684l22.688,22.684
	C101.276,103.752,101.276,124.066,88.747,136.601z"/>
</svg>
