<?xml version="1.0" encoding="utf-8"?>
<svg version="1.1" xmlns="http://www.w3.org/2000/svg" xmlns:xlink="http://www.w3.org/1999/xlink" x="0px" y="0px"
	 width="595.28px" height="719.964px" viewBox="0 0 595.28 719.964" enable-background="new 0 0 595.28 719.964"
	 xml:space="preserve">
<g>
	<circle cx="84.926" cy="107.936" r="8.992"/>
	<circle cx="111.305" cy="107.936" r="8.992"/>
	<circle cx="137.574" cy="107.936" r="8.992"/>
	<path d="M546.641,68.61H48.639c-2.762,0-5,2.239-5,5v498c0,2.761,2.238,5,5,5h498.001c2.762,0,5-2.239,5-5v-498
		C551.641,70.849,549.402,68.61,546.641,68.61z M541.641,566.61H53.639v-488h488.001V566.61z"/>
	<path d="M165.92,325.036h-8.244c-2.761,0-5,2.239-5,5v91.059c0,2.761,2.239,5,5,5h42.704c27.861,0,50.528-22.669,50.528-50.531
		c0-20.875-12.727-38.833-30.827-46.526c8.442-4.135,15.653-10.408,20.922-18.112v15.494c0,2.761,2.238,5,5,5c2.762,0,5-2.239,5-5
		v-70.651l38.984,71.544c0.026,0.048,0.06,0.09,0.087,0.137c-0.041,0.068-0.094,0.125-0.133,0.195l-48.375,88.777
		c-1.322,2.425-0.428,5.462,1.997,6.783c0.759,0.414,1.579,0.61,2.388,0.61c1.771,0,3.488-0.943,4.396-2.608L294.596,340
		l44.25,81.206c0.906,1.665,2.623,2.608,4.395,2.608c0.809,0,1.629-0.196,2.389-0.61c2.424-1.321,3.318-4.358,1.996-6.783
		l-48.373-88.777c-0.025-0.045-0.061-0.08-0.086-0.124c0.043-0.07,0.094-0.135,0.133-0.208l38.984-71.545v70.652
		c0,0.075,0.018,0.146,0.021,0.221c0.008,0.178,0.027,0.353,0.053,0.528c0.023,0.156,0.051,0.31,0.09,0.461
		c0.039,0.158,0.09,0.311,0.145,0.464c0.053,0.152,0.109,0.302,0.18,0.447c0.068,0.148,0.148,0.287,0.231,0.428
		c0.08,0.134,0.162,0.266,0.254,0.392c0.098,0.135,0.207,0.261,0.318,0.387c0.105,0.116,0.211,0.229,0.326,0.335
		c0.117,0.109,0.244,0.21,0.373,0.309c0.139,0.104,0.279,0.201,0.428,0.291c0.066,0.04,0.119,0.092,0.188,0.129
		c0.111,0.061,0.225,0.107,0.338,0.157c0.057,0.025,0.109,0.053,0.164,0.076c0.27,0.109,0.541,0.192,0.816,0.253
		c0.055,0.013,0.109,0.022,0.166,0.031c0.301,0.056,0.604,0.093,0.904,0.093c0.303,0,0.6-0.037,0.895-0.091
		c0.076-0.014,0.15-0.028,0.225-0.045c0.279-0.064,0.555-0.143,0.818-0.254c0.023-0.01,0.045-0.024,0.07-0.035
		c0.242-0.105,0.475-0.235,0.699-0.379c0.059-0.039,0.117-0.078,0.176-0.119c0.221-0.155,0.432-0.326,0.629-0.518
		c0.01-0.011,0.023-0.021,0.035-0.031c0.199-0.201,0.381-0.425,0.547-0.664c0.047-0.066,0.088-0.137,0.131-0.206
		c0.057-0.089,0.119-0.172,0.17-0.266l44.25-81.206l44.25,81.206c0.906,1.665,2.621,2.608,4.395,2.608
		c0.809,0,1.627-0.196,2.389-0.61c2.424-1.321,3.318-4.358,1.998-6.783l-48.377-88.777c-0.926-1.7-2.695-2.626-4.506-2.585
		c-1.912-0.157-3.826,0.793-4.803,2.585l-38.984,71.546v-70.653c0-0.076-0.02-0.146-0.023-0.221
		c-0.008-0.178-0.025-0.353-0.053-0.529c-0.023-0.157-0.051-0.31-0.09-0.461c-0.039-0.158-0.088-0.31-0.143-0.463
		c-0.055-0.153-0.111-0.303-0.18-0.449c-0.07-0.146-0.148-0.286-0.232-0.426c-0.08-0.135-0.162-0.267-0.254-0.393
		c-0.098-0.134-0.205-0.259-0.316-0.384c-0.105-0.117-0.213-0.231-0.33-0.338c-0.117-0.108-0.24-0.208-0.369-0.305
		c-0.139-0.106-0.281-0.205-0.434-0.296c-0.065-0.039-0.117-0.09-0.184-0.126c-0.07-0.038-0.145-0.056-0.215-0.09
		c-0.158-0.078-0.32-0.145-0.488-0.206c-0.154-0.056-0.307-0.104-0.463-0.143c-0.152-0.039-0.305-0.068-0.463-0.093
		c-0.18-0.028-0.359-0.047-0.541-0.055c-0.076-0.003-0.146-0.022-0.223-0.022c-0.074,0-0.145,0.018-0.219,0.022
		c-0.18,0.008-0.355,0.026-0.533,0.054c-0.156,0.024-0.309,0.051-0.459,0.089c-0.158,0.04-0.309,0.089-0.463,0.143
		c-0.154,0.055-0.305,0.113-0.451,0.182c-0.145,0.068-0.281,0.146-0.42,0.227c-0.137,0.082-0.271,0.166-0.4,0.26
		c-0.131,0.096-0.254,0.2-0.375,0.309c-0.121,0.108-0.238,0.219-0.348,0.338c-0.105,0.113-0.201,0.233-0.295,0.358
		c-0.111,0.144-0.213,0.292-0.307,0.448c-0.037,0.062-0.086,0.113-0.121,0.177l-44.249,81.206l-44.25-81.206
		c-0.035-0.064-0.084-0.115-0.121-0.177c-0.094-0.156-0.195-0.303-0.305-0.447c-0.096-0.126-0.192-0.246-0.297-0.36
		c-0.109-0.118-0.225-0.227-0.344-0.334c-0.124-0.111-0.248-0.217-0.381-0.314c-0.127-0.092-0.258-0.174-0.393-0.254
		c-0.141-0.083-0.281-0.164-0.43-0.232c-0.142-0.068-0.291-0.124-0.441-0.178c-0.156-0.055-0.311-0.106-0.471-0.146
		c-0.148-0.037-0.299-0.064-0.453-0.087c-0.179-0.028-0.357-0.046-0.539-0.054c-0.072-0.003-0.142-0.022-0.216-0.022
		c-0.076,0-0.147,0.019-0.224,0.022c-0.181,0.008-0.359,0.026-0.541,0.055c-0.157,0.024-0.311,0.054-0.463,0.093
		c-0.156,0.039-0.309,0.088-0.461,0.143c-0.168,0.061-0.33,0.129-0.49,0.206c-0.07,0.034-0.145,0.052-0.215,0.09
		c-0.068,0.037-0.121,0.088-0.188,0.128c-0.148,0.09-0.29,0.188-0.428,0.293c-0.131,0.098-0.255,0.198-0.373,0.307
		c-0.115,0.107-0.222,0.22-0.327,0.337c-0.112,0.125-0.22,0.251-0.317,0.385c-0.092,0.126-0.174,0.258-0.254,0.393
		c-0.083,0.14-0.162,0.279-0.231,0.426c-0.068,0.146-0.126,0.295-0.18,0.448c-0.055,0.154-0.105,0.307-0.145,0.465
		c-0.038,0.15-0.065,0.303-0.089,0.458c-0.027,0.177-0.045,0.354-0.053,0.534c-0.004,0.074-0.023,0.143-0.023,0.218v13.996
		c-9.73-14.227-26.082-23.586-44.582-23.586c-29.764,0-53.98,24.215-53.98,53.979C142.442,298.983,151.754,315.297,165.92,325.036z
		 M240.909,375.563c0,22.349-18.181,40.531-40.528,40.531h-37.704v-81.059h37.704C222.728,335.036,240.909,353.216,240.909,375.563z
		 M196.421,236.551c24.251,0,43.98,19.729,43.98,43.979c0,24.251-19.73,43.98-43.98,43.98c-24.25,0-43.98-19.729-43.98-43.98
		C152.442,256.28,172.171,236.551,196.421,236.551z"/>
</g>
<g>
	<path d="M43.639,608.894c0-0.588,0.282-0.881,0.849-0.881c0.564,0,0.846,0.293,0.846,0.881v45.616c0,0.588-0.282,0.88-0.846,0.88
		c-0.567,0-0.849-0.292-0.849-0.88V608.894z"/>
	<path d="M103.066,654.782l-31.135-43.25v42.979c0,0.588-0.271,0.88-0.811,0.88c-0.226,0-0.431-0.091-0.612-0.271
		c-0.177-0.179-0.268-0.383-0.268-0.608v-45.482c0-0.271,0.111-0.518,0.337-0.746c0.497-0.27,0.901-0.225,1.217,0.136l31.271,43.451
		v-42.639c0-0.226,0.09-0.428,0.271-0.608c0.178-0.182,0.383-0.272,0.609-0.272c0.539,0,0.811,0.294,0.811,0.88v45.279
		c0,0.588-0.271,0.88-0.811,0.88c-0.407,0-0.678-0.181-0.814-0.543C103.087,654.847,103.066,654.827,103.066,654.782z"/>
	<path d="M140.358,654.51v-44.806h-15.637c-0.585,0-0.877-0.282-0.877-0.846s0.292-0.846,0.877-0.846h32.964
		c0.585,0,0.877,0.282,0.877,0.846s-0.292,0.846-0.877,0.846h-15.567v44.806c0,0.226-0.09,0.43-0.271,0.608
		c-0.181,0.181-0.386,0.271-0.609,0.271C140.65,655.39,140.358,655.098,140.358,654.51z"/>
	<path d="M201.135,655.39H175.89c-0.542,0-0.811-0.292-0.811-0.88v-45.616c0-0.498,0.268-0.79,0.811-0.881h25.245
		c0.543,0,0.814,0.282,0.814,0.846s-0.271,0.846-0.814,0.846H176.77v21.117h21.457c0.54,0,0.811,0.283,0.811,0.847
		c0,0.563-0.271,0.846-0.811,0.846H176.77v21.184h24.365c0.543,0,0.814,0.283,0.814,0.847
		C201.949,655.109,201.678,655.39,201.135,655.39z"/>
	<path d="M241.878,633.8c5.729,2.392,8.596,6.184,8.596,11.37c0,3.249,0.337,5.551,1.016,6.905c0.271,0.539,0.678,0.79,1.217,0.745
		c0.543-0.046,0.856,0.201,0.95,0.744c0.042,0.405-0.045,0.687-0.271,0.846c-0.226,0.158-0.518,0.236-0.88,0.236
		c-0.995,0-1.806-0.609-2.438-1.826c-0.856-1.444-1.284-3.994-1.284-7.65c0-2.842-1.218-5.357-3.656-7.545
		c-2.435-2.188-6.338-3.284-11.71-3.284h-8.325v20.17c0,0.588-0.282,0.88-0.845,0.88c-0.563,0-0.845-0.292-0.845-0.88v-45.616
		c0-0.588,0.292-0.881,0.88-0.881h13.874c3.611,0,6.71,1.285,9.305,3.858c2.595,2.57,3.893,5.516,3.893,8.832
		c0,3.315-0.88,6.137-2.641,8.46C246.953,631.488,244.675,633.033,241.878,633.8z M225.093,632.581h13.198
		c3.114-0.044,5.775-1.16,7.987-3.351c2.209-2.188,3.316-4.859,3.316-8.018c0-3.158-1.117-5.865-3.35-8.122
		c-2.233-2.257-4.929-3.385-8.088-3.385h-13.063V632.581z"/>
	<path d="M306.718,655.188c-0.045,0-0.191,0.011-0.439,0.032c-0.25,0.023-0.487-0.168-0.713-0.574l-4.533-12.117h-23.69
		l-4.533,12.117c-0.09,0.406-0.341,0.608-0.744,0.608c-0.181-0.045-0.296-0.066-0.341-0.066c-0.494-0.226-0.629-0.61-0.403-1.151
		l17.056-45.482c0.136-0.45,0.403-0.654,0.811-0.61c0.407,0.047,0.72,0.251,0.946,0.61l17.056,45.482
		C307.417,654.535,307.261,654.918,306.718,655.188z M289.189,611.127l-11.167,29.645h22.333L289.189,611.127z"/>
	<path d="M362.69,648.826c0.497-0.316,0.926-0.281,1.287,0.101c0.362,0.383,0.292,0.802-0.202,1.253
		c-4.65,3.475-9.771,5.211-15.365,5.211c-6.77-0.045-12.555-2.414-17.358-7.107c-4.808-4.692-7.208-10.342-7.208-16.953
		c0-6.609,2.4-12.261,7.208-16.953c4.804-4.693,10.589-7.041,17.358-7.041c5.729,0,10.85,1.739,15.365,5.211
		c0.494,0.407,0.585,0.813,0.268,1.219c-0.494,0.498-0.926,0.541-1.284,0.136c-4.153-3.202-8.933-4.806-14.35-4.806
		c-6.272,0-11.64,2.167-16.107,6.498c-4.47,4.331-6.703,9.577-6.703,15.736s2.233,11.415,6.703,15.771
		c4.467,4.354,9.834,6.53,16.107,6.53C353.778,653.631,358.54,652.03,362.69,648.826z"/>
	<path d="M400.118,654.51v-44.806h-15.634c-0.588,0-0.88-0.282-0.88-0.846s0.292-0.846,0.88-0.846h32.961
		c0.585,0,0.881,0.282,0.881,0.846s-0.296,0.846-0.881,0.846h-15.567v44.806c0,0.226-0.09,0.43-0.271,0.608
		c-0.182,0.181-0.383,0.271-0.609,0.271C400.414,655.39,400.118,655.098,400.118,654.51z"/>
	<path d="M439.376,608.894c0-0.588,0.281-0.881,0.845-0.881c0.563,0,0.846,0.293,0.846,0.881v45.616c0,0.588-0.282,0.88-0.846,0.88
		c-0.564,0-0.845-0.292-0.845-0.88V608.894z"/>
	<path d="M485.601,655.39h-0.201l-0.136-0.067c-0.136,0-0.296-0.159-0.474-0.476l-19.153-45.549
		c-0.182-0.315-0.171-0.586,0.031-0.812c0.205-0.227,0.477-0.327,0.813-0.305c0.338,0.022,0.599,0.169,0.779,0.44l18.34,43.654
		l18.409-43.654c0.181-0.543,0.542-0.679,1.085-0.407c0.494,0.136,0.65,0.497,0.473,1.083l-19.152,45.549l-0.069,0.07
		c-0.046,0.226-0.182,0.361-0.407,0.405h-0.066C485.827,655.368,485.736,655.39,485.601,655.39z"/>
	<path d="M551.39,655.188c-0.045,0-0.194,0.011-0.441,0.032c-0.247,0.023-0.484-0.168-0.71-0.574l-4.536-12.117h-23.687
		l-4.537,12.117c-0.09,0.406-0.337,0.608-0.744,0.608c-0.181-0.045-0.292-0.066-0.337-0.066c-0.498-0.226-0.634-0.61-0.407-1.151
		l17.056-45.482c0.136-0.45,0.407-0.654,0.815-0.61c0.403,0.047,0.72,0.251,0.946,0.61l17.056,45.482
		C552.089,654.535,551.929,654.918,551.39,655.188z M533.86,611.127l-11.17,29.645h22.337L533.86,611.127z"/>
</g>
</svg>
