<?xml version="1.0" encoding="utf-8"?>
<!-- Generator: Adobe Illustrator 17.0.0, SVG Export Plug-In . SVG Version: 6.00 Build 0)  -->
<!DOCTYPE svg PUBLIC "-//W3C//DTD SVG 1.1//EN" "http://www.w3.org/Graphics/SVG/1.1/DTD/svg11.dtd">
<svg version="1.1" id="Capa_1" xmlns="http://www.w3.org/2000/svg" xmlns:xlink="http://www.w3.org/1999/xlink" x="0px" y="0px"
	 width="490px" height="154px" viewBox="0 0 490 154" enable-background="new 0 0 490 154" xml:space="preserve">
<path fill="#126BB2" d="M14.949,78.055c0-33.5,58.391-60.67,130.41-60.67c50.619,0,94.486,13.424,116.098,33.024
	C238.28,34.277,198.483,23.637,153.26,23.637c-71.58,0-129.587,26.638-129.587,59.512c0,14.422,11.194,27.638,29.769,37.946
	C29.676,110.106,14.949,94.883,14.949,78.055"/>
<path fill="#126BB2" d="M216.839,135.078c0.096,0.242,0.189,0.486,0.28,0.731c0.091-0.255,0.187-0.499,0.287-0.731
	c0.101-0.232,0.214-0.467,0.342-0.704l6.629-12.04c0.117-0.209,0.24-0.336,0.368-0.383c0.128-0.044,0.31-0.067,0.547-0.067h1.954
	v19.583h-2.323v-14.39c0-0.191,0.004-0.397,0.014-0.615c0.008-0.22,0.022-0.443,0.041-0.67l-6.71,12.245
	c-0.229,0.41-0.548,0.614-0.957,0.614h-0.383c-0.41,0-0.729-0.204-0.956-0.614l-6.861-12.286c0.027,0.237,0.048,0.469,0.062,0.697
	c0.013,0.228,0.02,0.438,0.02,0.629v14.39h-2.323v-19.583h1.954c0.237,0,0.419,0.023,0.546,0.067
	c0.129,0.047,0.251,0.174,0.369,0.383l6.765,12.054C216.632,134.606,216.743,134.836,216.839,135.078"/>
<path fill="#126BB2" d="M240.079,141.468h-1.08c-0.238,0-0.429-0.038-0.574-0.111c-0.145-0.073-0.243-0.227-0.289-0.464
	l-0.271-1.284c-0.365,0.327-0.719,0.621-1.065,0.88c-0.35,0.261-0.714,0.479-1.096,0.657c-0.379,0.177-0.79,0.311-1.222,0.402
	c-0.433,0.091-0.912,0.138-1.442,0.138c-0.536,0-1.041-0.075-1.51-0.225c-0.469-0.152-0.876-0.379-1.223-0.681
	c-0.346-0.3-0.621-0.682-0.827-1.144c-0.205-0.461-0.307-1.007-0.307-1.64c0-0.546,0.15-1.076,0.45-1.582
	c0.301-0.509,0.788-0.959,1.456-1.353c0.67-0.391,1.548-0.713,2.632-0.966c1.082-0.25,2.407-0.377,3.977-0.377v-1.086
	c0-1.082-0.229-1.9-0.692-2.455c-0.457-0.554-1.139-0.832-2.042-0.832c-0.591,0-1.091,0.075-1.497,0.225
	c-0.405,0.151-0.757,0.319-1.052,0.507c-0.296,0.185-0.551,0.355-0.766,0.505c-0.212,0.15-0.426,0.227-0.635,0.227
	c-0.164,0-0.308-0.045-0.43-0.132c-0.122-0.086-0.22-0.193-0.295-0.32l-0.436-0.78c0.764-0.738,1.591-1.288,2.473-1.654
	c0.884-0.364,1.863-0.546,2.939-0.546c0.775,0,1.461,0.128,2.063,0.384c0.603,0.255,1.107,0.609,1.518,1.064
	c0.411,0.457,0.719,1.009,0.929,1.655c0.21,0.647,0.314,1.357,0.314,2.131 M233.765,139.977c0.428,0,0.819-0.043,1.174-0.129
	c0.358-0.087,0.69-0.211,1.007-0.368c0.313-0.16,0.611-0.355,0.901-0.582c0.285-0.228,0.566-0.487,0.841-0.778v-2.858
	c-1.12,0-2.074,0.072-2.858,0.215c-0.784,0.141-1.421,0.327-1.912,0.555c-0.493,0.229-0.85,0.5-1.073,0.811
	c-0.224,0.312-0.334,0.659-0.334,1.044c0,0.368,0.059,0.683,0.177,0.95c0.117,0.265,0.277,0.483,0.478,0.652
	c0.199,0.17,0.436,0.293,0.711,0.372C233.15,139.939,233.445,139.977,233.765,139.977"/>
<path fill="#126BB2" d="M242.046,141.467v-13.843h1.447c0.346,0,0.566,0.168,0.657,0.505l0.191,1.504
	c0.602-0.666,1.273-1.203,2.016-1.614c0.741-0.409,1.6-0.614,2.577-0.614c0.757,0,1.421,0.125,2,0.375
	c0.58,0.251,1.062,0.607,1.45,1.067c0.387,0.46,0.68,1.013,0.88,1.66c0.202,0.647,0.302,1.362,0.302,2.145v8.815h-2.432v-8.815
	c0-1.047-0.239-1.86-0.718-2.439c-0.478-0.578-1.209-0.868-2.195-0.868c-0.719,0-1.391,0.173-2.014,0.52
	c-0.623,0.345-1.2,0.815-1.727,1.408v10.194"/>
<path fill="#126BB2" d="M265.689,141.468h-1.08c-0.236,0-0.427-0.038-0.575-0.111c-0.145-0.073-0.239-0.227-0.286-0.464
	l-0.273-1.284c-0.366,0.327-0.72,0.621-1.066,0.88c-0.348,0.261-0.711,0.479-1.095,0.657c-0.38,0.177-0.789,0.311-1.221,0.402
	c-0.434,0.091-0.914,0.138-1.443,0.138c-0.536,0-1.041-0.075-1.509-0.225c-0.47-0.152-0.877-0.379-1.225-0.681
	c-0.345-0.3-0.62-0.682-0.825-1.144c-0.207-0.461-0.307-1.007-0.307-1.64c0-0.546,0.15-1.076,0.452-1.582
	c0.298-0.509,0.784-0.959,1.453-1.353c0.67-0.391,1.547-0.713,2.632-0.966c1.084-0.25,2.409-0.377,3.975-0.377v-1.086
	c0-1.082-0.228-1.9-0.687-2.455c-0.461-0.554-1.143-0.832-2.043-0.832c-0.593,0-1.093,0.075-1.498,0.225
	c-0.405,0.151-0.755,0.319-1.052,0.507c-0.296,0.185-0.552,0.355-0.766,0.505s-0.425,0.227-0.636,0.227
	c-0.162,0-0.307-0.045-0.428-0.132c-0.125-0.086-0.222-0.193-0.295-0.32l-0.439-0.78c0.766-0.738,1.591-1.288,2.475-1.654
	c0.882-0.364,1.864-0.546,2.937-0.546c0.775,0,1.463,0.128,2.063,0.384c0.603,0.255,1.107,0.609,1.519,1.064
	c0.411,0.457,0.718,1.009,0.929,1.655c0.209,0.647,0.314,1.357,0.314,2.131 M259.375,139.977c0.43,0,0.818-0.043,1.177-0.129
	c0.355-0.087,0.687-0.211,1.003-0.368c0.316-0.16,0.615-0.355,0.902-0.582c0.286-0.228,0.566-0.487,0.839-0.778v-2.858
	c-1.119,0-2.073,0.072-2.855,0.215c-0.784,0.141-1.421,0.327-1.914,0.555c-0.491,0.229-0.85,0.5-1.072,0.811
	c-0.223,0.312-0.335,0.659-0.335,1.044c0,0.368,0.06,0.683,0.178,0.95c0.118,0.265,0.279,0.483,0.477,0.652
	c0.202,0.17,0.439,0.293,0.713,0.372C258.761,139.939,259.057,139.977,259.375,139.977"/>
<path fill="#126BB2" d="M272.316,127.391c0.6,0,1.163,0.067,1.688,0.198c0.523,0.132,0.999,0.326,1.426,0.581h3.759v0.902
	c0,0.3-0.191,0.491-0.575,0.573l-1.57,0.22c0.31,0.591,0.464,1.252,0.464,1.981c0,0.674-0.13,1.287-0.39,1.838
	c-0.259,0.551-0.618,1.023-1.079,1.415c-0.459,0.391-1.009,0.692-1.641,0.901c-0.632,0.21-1.327,0.314-2.082,0.314
	c-0.647,0-1.258-0.077-1.833-0.232c-0.292,0.189-0.512,0.391-0.663,0.608c-0.149,0.217-0.224,0.428-0.224,0.636
	c0,0.339,0.131,0.596,0.397,0.769c0.264,0.174,0.614,0.299,1.051,0.375c0.439,0.076,0.933,0.113,1.489,0.113h1.702
	c0.579,0,1.145,0.051,1.702,0.152c0.556,0.102,1.052,0.267,1.49,0.499c0.436,0.23,0.786,0.548,1.053,0.954
	c0.263,0.406,0.393,0.932,0.393,1.578c0,0.598-0.146,1.18-0.443,1.742c-0.296,0.563-0.721,1.063-1.277,1.502
	c-0.555,0.437-1.235,0.788-2.035,1.05c-0.804,0.263-1.709,0.395-2.72,0.395c-1.011,0-1.898-0.101-2.659-0.301
	c-0.762-0.201-1.393-0.47-1.893-0.807c-0.501-0.337-0.876-0.727-1.126-1.17c-0.252-0.442-0.376-0.906-0.376-1.389
	c0-0.684,0.215-1.265,0.649-1.744c0.432-0.478,1.027-0.859,1.784-1.142c-0.393-0.182-0.706-0.426-0.938-0.73
	c-0.232-0.305-0.35-0.712-0.35-1.221c0-0.2,0.039-0.407,0.111-0.621c0.071-0.214,0.184-0.425,0.336-0.634
	c0.15-0.209,0.334-0.41,0.553-0.601c0.218-0.191,0.474-0.359,0.764-0.505c-0.682-0.383-1.219-0.89-1.605-1.523
	c-0.387-0.634-0.58-1.374-0.58-2.221c0-0.674,0.13-1.287,0.39-1.838c0.259-0.551,0.621-1.02,1.085-1.408
	c0.465-0.387,1.018-0.685,1.66-0.895C270.845,127.496,271.55,127.391,272.316,127.391 M276.633,142.169
	c0-0.353-0.096-0.636-0.287-0.849c-0.192-0.215-0.451-0.38-0.778-0.495c-0.329-0.117-0.707-0.202-1.134-0.258
	c-0.43-0.056-0.881-0.084-1.355-0.084h-1.447c-0.493,0-0.962-0.062-1.409-0.185c-0.518,0.247-0.94,0.548-1.262,0.904
	c-0.324,0.356-0.486,0.78-0.486,1.272c0,0.311,0.08,0.6,0.239,0.87c0.157,0.268,0.404,0.502,0.73,0.698
	c0.329,0.196,0.74,0.351,1.238,0.466c0.497,0.113,1.081,0.17,1.755,0.17c0.656,0,1.245-0.061,1.763-0.181
	c0.521-0.121,0.96-0.293,1.319-0.516c0.36-0.223,0.635-0.488,0.827-0.794C276.537,142.88,276.633,142.541,276.633,142.169
	 M272.316,134.702c0.489,0,0.927-0.068,1.305-0.205c0.377-0.137,0.693-0.328,0.948-0.574c0.257-0.246,0.448-0.54,0.574-0.881
	c0.128-0.342,0.192-0.718,0.192-1.128c0-0.847-0.257-1.521-0.771-2.023c-0.516-0.5-1.266-0.751-2.248-0.751
	c-0.977,0-1.721,0.251-2.234,0.751c-0.516,0.502-0.773,1.176-0.773,2.023c0,0.41,0.064,0.786,0.198,1.128
	c0.131,0.341,0.325,0.635,0.582,0.881c0.254,0.246,0.566,0.437,0.941,0.574C271.403,134.634,271.833,134.702,272.316,134.702"/>
<path fill="#126BB2" d="M285.38,127.405c0.829,0,1.595,0.139,2.295,0.417c0.703,0.278,1.308,0.678,1.819,1.203
	c0.509,0.524,0.908,1.17,1.195,1.94c0.288,0.77,0.43,1.647,0.43,2.631c0,0.383-0.04,0.637-0.121,0.764
	c-0.082,0.129-0.239,0.192-0.465,0.192h-9.213c0.019,0.875,0.138,1.635,0.358,2.282c0.217,0.648,0.518,1.187,0.901,1.62
	c0.383,0.432,0.838,0.757,1.365,0.97c0.53,0.214,1.121,0.321,1.777,0.321c0.612,0,1.137-0.07,1.578-0.212
	c0.442-0.14,0.822-0.293,1.142-0.458c0.32-0.163,0.586-0.316,0.799-0.457c0.214-0.142,0.399-0.212,0.555-0.212
	c0.199,0,0.355,0.077,0.465,0.233l0.682,0.888c-0.302,0.364-0.661,0.681-1.079,0.949c-0.42,0.27-0.869,0.49-1.347,0.663
	c-0.479,0.173-0.971,0.304-1.483,0.39c-0.509,0.086-1.015,0.13-1.517,0.13c-0.955,0-1.838-0.163-2.643-0.486
	c-0.808-0.323-1.504-0.797-2.092-1.421c-0.588-0.624-1.046-1.396-1.373-2.317c-0.329-0.92-0.492-1.976-0.492-3.17
	c0-0.966,0.149-1.867,0.443-2.706c0.297-0.838,0.724-1.564,1.28-2.18c0.555-0.615,1.232-1.097,2.035-1.448
	C283.475,127.581,284.379,127.405,285.38,127.405 M285.434,129.195c-1.174,0-2.099,0.34-2.774,1.018
	c-0.674,0.679-1.092,1.62-1.258,2.823h7.532c0-0.565-0.077-1.083-0.234-1.552c-0.154-0.469-0.383-0.874-0.681-1.216
	c-0.302-0.342-0.668-0.606-1.102-0.793C286.485,129.288,285.99,129.195,285.434,129.195"/>
<path fill="#126BB2" d="M302.244,141.467c-0.346,0-0.565-0.168-0.656-0.506l-0.217-1.681c-0.593,0.721-1.271,1.296-2.032,1.729
	c-0.761,0.433-1.632,0.649-2.617,0.649c-0.791,0-1.51-0.153-2.159-0.457c-0.647-0.306-1.198-0.755-1.653-1.346
	c-0.456-0.593-0.806-1.331-1.053-2.215c-0.245-0.884-0.369-1.899-0.369-3.048c0-1.02,0.138-1.969,0.411-2.849
	c0.273-0.879,0.667-1.642,1.181-2.288c0.516-0.647,1.142-1.156,1.88-1.525c0.737-0.369,1.575-0.553,2.514-0.553
	c0.847,0,1.571,0.144,2.174,0.431c0.602,0.287,1.139,0.69,1.613,1.209v-7.68h2.433v20.13 M297.53,139.69
	c0.791,0,1.487-0.182,2.083-0.546c0.597-0.365,1.146-0.879,1.648-1.545v-6.696c-0.448-0.602-0.936-1.022-1.471-1.264
	c-0.532-0.241-1.123-0.363-1.77-0.363c-1.293,0-2.285,0.461-2.979,1.381c-0.691,0.92-1.039,2.232-1.039,3.935
	c0,0.903,0.08,1.675,0.234,2.317s0.383,1.171,0.684,1.586c0.299,0.414,0.668,0.716,1.106,0.908
	C296.463,139.594,296.965,139.69,297.53,139.69"/>
<path fill="#126BB2" d="M323.795,137.422c0.145,0,0.278,0.06,0.395,0.177l1.038,1.135c-0.8,0.929-1.774,1.653-2.918,2.172
	c-1.142,0.52-2.521,0.779-4.132,0.779c-1.413,0-2.692-0.243-3.841-0.731c-1.148-0.486-2.127-1.17-2.939-2.049
	c-0.81-0.879-1.438-1.935-1.884-3.164c-0.448-1.23-0.67-2.583-0.67-4.059c0-1.476,0.238-2.829,0.716-4.059
	c0.479-1.23,1.151-2.286,2.018-3.17c0.863-0.884,1.9-1.569,3.107-2.057c1.207-0.487,2.54-0.731,3.997-0.731
	c1.441,0,2.683,0.223,3.724,0.669c1.043,0.447,1.97,1.053,2.783,1.818l-0.862,1.216c-0.065,0.091-0.137,0.167-0.219,0.225
	c-0.082,0.06-0.201,0.089-0.355,0.089c-0.119,0-0.243-0.042-0.376-0.129c-0.133-0.087-0.289-0.193-0.472-0.322
	c-0.182-0.127-0.396-0.263-0.642-0.409c-0.245-0.146-0.537-0.283-0.875-0.41c-0.336-0.127-0.728-0.235-1.174-0.321
	s-0.962-0.131-1.546-0.131c-1.046,0-2.005,0.181-2.876,0.541c-0.869,0.359-1.618,0.872-2.249,1.537
	c-0.628,0.666-1.118,1.476-1.468,2.433c-0.35,0.956-0.525,2.026-0.525,3.211c0,1.221,0.175,2.309,0.525,3.266
	c0.35,0.956,0.829,1.765,1.436,2.426c0.604,0.661,1.324,1.164,2.152,1.51c0.829,0.346,1.721,0.519,2.678,0.519
	c0.584,0,1.107-0.034,1.571-0.103c0.465-0.067,0.897-0.175,1.292-0.321c0.396-0.145,0.765-0.329,1.106-0.553
	c0.343-0.223,0.687-0.489,1.032-0.8C323.498,137.49,323.648,137.422,323.795,137.422"/>
<rect x="326.884" y="121.337" fill="#126BB2" width="2.433" height="20.13"/>
<path fill="#126BB2" d="M337.488,127.405c1.011,0,1.924,0.168,2.739,0.506c0.814,0.337,1.508,0.814,2.077,1.434
	c0.57,0.62,1.007,1.369,1.313,2.248c0.305,0.879,0.457,1.861,0.457,2.946c0,1.092-0.152,2.076-0.457,2.951
	c-0.306,0.875-0.743,1.622-1.313,2.241c-0.569,0.62-1.263,1.096-2.077,1.429c-0.815,0.331-1.728,0.498-2.739,0.498
	c-1.013,0-1.926-0.167-2.741-0.498c-0.815-0.333-1.51-0.809-2.085-1.429c-0.574-0.619-1.015-1.366-1.326-2.241
	c-0.308-0.875-0.464-1.859-0.464-2.951c0-1.085,0.156-2.067,0.464-2.946c0.311-0.879,0.752-1.628,1.326-2.248
	c0.575-0.62,1.27-1.097,2.085-1.434C335.562,127.573,336.475,127.405,337.488,127.405 M337.488,139.759
	c1.366,0,2.386-0.459,3.061-1.374c0.672-0.915,1.011-2.193,1.011-3.833c0-1.649-0.339-2.934-1.011-3.854
	c-0.675-0.92-1.695-1.38-3.061-1.38c-0.693,0-1.296,0.118-1.805,0.355c-0.511,0.237-0.936,0.579-1.277,1.025
	c-0.343,0.446-0.597,0.996-0.766,1.647c-0.168,0.652-0.254,1.387-0.254,2.207s0.086,1.553,0.254,2.2
	c0.169,0.647,0.423,1.192,0.766,1.633c0.341,0.442,0.766,0.781,1.277,1.018C336.192,139.64,336.795,139.759,337.488,139.759"/>
<path fill="#126BB2" d="M347.464,127.623v8.829c0,1.048,0.24,1.859,0.724,2.432c0.483,0.573,1.211,0.861,2.187,0.861
	c0.71,0,1.38-0.168,2.008-0.506c0.631-0.337,1.207-0.805,1.737-1.407v-10.209h2.433v13.843h-1.45c-0.345,0-0.565-0.168-0.656-0.505
	l-0.191-1.49c-0.6,0.666-1.275,1.2-2.022,1.606c-0.747,0.407-1.604,0.609-2.571,0.609c-0.754,0-1.422-0.125-2.001-0.377
	c-0.579-0.25-1.064-0.604-1.454-1.059c-0.392-0.455-0.686-1.005-0.883-1.652c-0.196-0.648-0.294-1.362-0.294-2.146v-8.829"/>
<path fill="#126BB2" d="M368.577,141.467c-0.346,0-0.565-0.168-0.656-0.506l-0.217-1.681c-0.593,0.721-1.271,1.296-2.032,1.729
	c-0.761,0.433-1.632,0.649-2.617,0.649c-0.791,0-1.51-0.153-2.159-0.457c-0.647-0.306-1.198-0.755-1.653-1.346
	c-0.456-0.593-0.806-1.331-1.053-2.215c-0.245-0.884-0.369-1.899-0.369-3.048c0-1.02,0.138-1.969,0.411-2.849
	c0.273-0.879,0.667-1.642,1.181-2.288c0.516-0.647,1.142-1.156,1.88-1.525c0.737-0.369,1.575-0.553,2.514-0.553
	c0.847,0,1.571,0.144,2.174,0.431c0.602,0.287,1.139,0.69,1.613,1.209v-7.68h2.433v20.13 M363.863,139.69
	c0.791,0,1.487-0.182,2.083-0.546c0.597-0.365,1.146-0.879,1.648-1.545v-6.696c-0.448-0.602-0.936-1.022-1.471-1.264
	c-0.532-0.241-1.123-0.363-1.77-0.363c-1.293,0-2.285,0.461-2.979,1.381c-0.691,0.92-1.039,2.232-1.039,3.935
	c0,0.903,0.08,1.675,0.234,2.317c0.154,0.642,0.383,1.171,0.684,1.586c0.299,0.414,0.668,0.716,1.106,0.908
	C362.796,139.594,363.298,139.69,363.863,139.69"/>
<path fill="#126BB2" d="M386.355,124.945c-0.082,0.137-0.168,0.239-0.259,0.307c-0.091,0.068-0.21,0.103-0.355,0.103
	c-0.156,0-0.336-0.078-0.542-0.234c-0.203-0.153-0.464-0.323-0.777-0.512c-0.315-0.186-0.694-0.357-1.135-0.511
	c-0.441-0.155-0.978-0.234-1.606-0.234c-0.593,0-1.116,0.081-1.571,0.241c-0.456,0.159-0.836,0.375-1.142,0.649
	c-0.306,0.273-0.535,0.594-0.689,0.964c-0.156,0.368-0.233,0.766-0.233,1.194c0,0.547,0.135,1.002,0.404,1.361
	c0.268,0.359,0.623,0.668,1.064,0.922c0.444,0.255,0.944,0.476,1.504,0.662c0.56,0.188,1.135,0.382,1.723,0.58
	c0.586,0.202,1.16,0.427,1.721,0.679c0.56,0.25,1.062,0.566,1.503,0.95c0.441,0.38,0.799,0.85,1.067,1.405
	c0.269,0.558,0.402,1.24,0.402,2.05c0,0.858-0.145,1.661-0.437,2.413c-0.292,0.752-0.717,1.407-1.277,1.961
	c-0.56,0.557-1.249,0.992-2.064,1.312c-0.815,0.32-1.742,0.479-2.78,0.479c-1.268,0-2.422-0.231-3.465-0.691
	c-1.044-0.459-1.933-1.081-2.671-1.865l0.763-1.257c0.073-0.1,0.164-0.184,0.267-0.253c0.105-0.068,0.221-0.102,0.35-0.102
	c0.191,0,0.408,0.102,0.656,0.307c0.245,0.205,0.553,0.43,0.922,0.677c0.369,0.246,0.815,0.471,1.338,0.675
	c0.525,0.207,1.165,0.307,1.921,0.307c0.628,0,1.189-0.086,1.681-0.259c0.493-0.173,0.908-0.416,1.249-0.73
	c0.343-0.315,0.605-0.69,0.787-1.127c0.182-0.438,0.273-0.925,0.273-1.463c0-0.593-0.135-1.078-0.404-1.457
	c-0.268-0.377-0.621-0.693-1.057-0.948c-0.439-0.255-0.937-0.471-1.497-0.65c-0.56-0.177-1.135-0.359-1.723-0.546
	c-0.586-0.186-1.16-0.404-1.721-0.649c-0.56-0.246-1.059-0.564-1.496-0.957c-0.439-0.391-0.791-0.882-1.06-1.469
	c-0.268-0.588-0.404-1.313-0.404-2.179c0-0.693,0.136-1.364,0.404-2.009c0.269-0.648,0.658-1.221,1.17-1.723
	c0.509-0.5,1.139-0.9,1.891-1.202c0.752-0.302,1.615-0.45,2.591-0.45c1.093,0,2.09,0.173,2.991,0.518
	c0.904,0.346,1.69,0.848,2.365,1.503"/>
<path fill="#126BB2" d="M394.312,127.405c1.011,0,1.924,0.168,2.739,0.506c0.813,0.337,1.508,0.814,2.077,1.434
	c0.57,0.62,1.007,1.369,1.313,2.248c0.305,0.879,0.457,1.861,0.457,2.946c0,1.092-0.152,2.076-0.457,2.951
	c-0.306,0.875-0.743,1.622-1.313,2.241c-0.569,0.62-1.264,1.096-2.077,1.429c-0.815,0.331-1.728,0.498-2.739,0.498
	c-1.014,0-1.926-0.167-2.741-0.498c-0.816-0.333-1.51-0.809-2.085-1.429c-0.574-0.619-1.015-1.366-1.326-2.241
	c-0.308-0.875-0.464-1.859-0.464-2.951c0-1.085,0.156-2.067,0.464-2.946c0.311-0.879,0.752-1.628,1.326-2.248
	c0.575-0.62,1.269-1.097,2.085-1.434C392.386,127.573,393.298,127.405,394.312,127.405 M394.312,139.759
	c1.366,0,2.386-0.459,3.061-1.374c0.672-0.915,1.011-2.193,1.011-3.833c0-1.649-0.339-2.934-1.011-3.854
	c-0.675-0.92-1.695-1.38-3.061-1.38c-0.693,0-1.296,0.118-1.805,0.355c-0.511,0.237-0.936,0.579-1.277,1.025
	c-0.343,0.446-0.597,0.996-0.766,1.647c-0.168,0.652-0.254,1.387-0.254,2.207s0.086,1.553,0.254,2.2
	c0.169,0.647,0.423,1.192,0.766,1.633c0.341,0.442,0.766,0.781,1.277,1.018C393.016,139.64,393.619,139.759,394.312,139.759"/>
<rect x="402.455" y="121.337" fill="#126BB2" width="2.433" height="20.13"/>
<path fill="#126BB2" d="M409.562,127.623v8.829c0,1.048,0.24,1.859,0.724,2.432c0.483,0.573,1.211,0.861,2.187,0.861
	c0.71,0,1.38-0.168,2.008-0.506c0.631-0.337,1.207-0.805,1.737-1.407v-10.209h2.433v13.843h-1.45c-0.345,0-0.565-0.168-0.656-0.505
	l-0.191-1.49c-0.6,0.666-1.275,1.2-2.022,1.606c-0.747,0.407-1.604,0.609-2.571,0.609c-0.754,0-1.422-0.125-2.001-0.377
	c-0.579-0.25-1.064-0.604-1.454-1.059c-0.392-0.455-0.686-1.005-0.883-1.652c-0.196-0.648-0.294-1.362-0.294-2.146v-8.829"/>
<path fill="#126BB2" d="M425.127,141.685c-1.095,0-1.935-0.305-2.521-0.915c-0.589-0.611-0.883-1.49-0.883-2.637v-8.474h-1.667
	c-0.145,0-0.268-0.043-0.369-0.129c-0.1-0.087-0.149-0.221-0.149-0.403v-0.971l2.267-0.286l0.56-4.279
	c0.019-0.136,0.077-0.247,0.178-0.335c0.1-0.086,0.228-0.129,0.382-0.129h1.231v4.769h3.964v1.763h-3.964v8.309
	c0,0.584,0.14,1.016,0.422,1.298c0.283,0.283,0.649,0.424,1.095,0.424c0.255,0,0.477-0.034,0.663-0.103
	c0.187-0.067,0.348-0.143,0.484-0.225c0.137-0.082,0.254-0.158,0.35-0.225c0.096-0.069,0.18-0.103,0.252-0.103
	c0.128,0,0.24,0.078,0.341,0.232l0.712,1.162c-0.42,0.392-0.925,0.699-1.518,0.922C426.364,141.574,425.755,141.685,425.127,141.685
	"/>
<path fill="#126BB2" d="M432.656,123.278c0,0.237-0.049,0.457-0.144,0.663c-0.096,0.204-0.222,0.387-0.383,0.546
	c-0.159,0.16-0.344,0.285-0.554,0.376c-0.21,0.091-0.432,0.136-0.67,0.136c-0.235,0-0.457-0.045-0.66-0.136
	c-0.206-0.091-0.388-0.216-0.549-0.376c-0.159-0.159-0.285-0.342-0.376-0.546c-0.091-0.206-0.135-0.426-0.135-0.663
	s0.044-0.463,0.135-0.676c0.091-0.215,0.217-0.402,0.376-0.561c0.161-0.16,0.343-0.284,0.549-0.376
	c0.203-0.091,0.425-0.136,0.66-0.136c0.238,0,0.46,0.045,0.67,0.136c0.21,0.092,0.395,0.216,0.554,0.376
	c0.161,0.159,0.287,0.346,0.383,0.561C432.607,122.815,432.656,123.041,432.656,123.278 M432.11,141.467h-2.433v-13.843h2.433
	V141.467z"/>
<path fill="#126BB2" d="M440.281,127.405c1.012,0,1.924,0.168,2.739,0.506c0.814,0.337,1.509,0.814,2.077,1.434
	c0.571,0.62,1.007,1.369,1.314,2.248c0.304,0.879,0.457,1.861,0.457,2.946c0,1.092-0.153,2.076-0.457,2.951
	c-0.307,0.875-0.743,1.622-1.314,2.241c-0.568,0.62-1.263,1.096-2.077,1.429c-0.815,0.331-1.727,0.498-2.739,0.498
	c-1.013,0-1.926-0.167-2.741-0.498c-0.815-0.333-1.51-0.809-2.085-1.429c-0.574-0.619-1.015-1.366-1.326-2.241
	c-0.308-0.875-0.464-1.859-0.464-2.951c0-1.085,0.156-2.067,0.464-2.946c0.311-0.879,0.752-1.628,1.326-2.248
	c0.575-0.62,1.27-1.097,2.085-1.434C438.355,127.573,439.268,127.405,440.281,127.405 M440.281,139.759
	c1.366,0,2.387-0.459,3.062-1.374c0.671-0.915,1.011-2.193,1.011-3.833c0-1.649-0.34-2.934-1.011-3.854
	c-0.675-0.92-1.696-1.38-3.062-1.38c-0.693,0-1.295,0.118-1.804,0.355c-0.512,0.237-0.937,0.579-1.278,1.025
	c-0.343,0.446-0.597,0.996-0.766,1.647c-0.168,0.652-0.254,1.387-0.254,2.207s0.086,1.553,0.254,2.2
	c0.169,0.647,0.423,1.192,0.766,1.633c0.341,0.442,0.766,0.781,1.278,1.018C438.986,139.64,439.588,139.759,440.281,139.759"/>
<path fill="#126BB2" d="M448.154,141.467v-13.843h1.447c0.346,0,0.565,0.168,0.657,0.505l0.191,1.504
	c0.602-0.666,1.272-1.203,2.015-1.614c0.742-0.409,1.601-0.614,2.577-0.614c0.757,0,1.422,0.125,2.001,0.375
	c0.579,0.251,1.062,0.607,1.45,1.067c0.387,0.46,0.679,1.013,0.88,1.66c0.201,0.647,0.301,1.362,0.301,2.145v8.815h-2.432v-8.815
	c0-1.047-0.239-1.86-0.717-2.439c-0.479-0.578-1.21-0.868-2.195-0.868c-0.719,0-1.391,0.173-2.015,0.52
	c-0.623,0.345-1.2,0.815-1.727,1.408v10.194"/>
<path fill="#126BB2" d="M469.554,129.906c-0.111,0.201-0.279,0.3-0.508,0.3c-0.135,0-0.291-0.049-0.464-0.149
	c-0.173-0.101-0.384-0.213-0.634-0.335c-0.252-0.123-0.55-0.237-0.898-0.342c-0.345-0.104-0.755-0.157-1.227-0.157
	c-0.412,0-0.78,0.053-1.109,0.157c-0.328,0.105-0.607,0.248-0.839,0.43c-0.232,0.182-0.411,0.395-0.534,0.635
	c-0.121,0.242-0.184,0.505-0.184,0.786c0,0.356,0.102,0.652,0.307,0.888c0.207,0.237,0.477,0.443,0.813,0.615
	c0.339,0.174,0.719,0.326,1.148,0.458c0.427,0.133,0.87,0.274,1.32,0.424c0.451,0.15,0.889,0.317,1.319,0.499
	c0.427,0.183,0.811,0.41,1.147,0.683c0.337,0.273,0.609,0.608,0.814,1.004c0.204,0.397,0.305,0.873,0.305,1.429
	c0,0.637-0.114,1.228-0.339,1.77c-0.23,0.541-0.566,1.011-1.011,1.408c-0.446,0.395-0.996,0.708-1.642,0.936
	c-0.647,0.227-1.393,0.341-2.242,0.341c-0.964,0-1.839-0.157-2.621-0.472c-0.784-0.314-1.45-0.717-1.996-1.209l0.573-0.93
	c0.073-0.117,0.159-0.209,0.261-0.273c0.1-0.063,0.23-0.095,0.396-0.095c0.164,0,0.337,0.064,0.518,0.191
	c0.182,0.127,0.405,0.268,0.664,0.424c0.259,0.155,0.573,0.296,0.943,0.423c0.368,0.128,0.83,0.192,1.387,0.192
	c0.474,0,0.888-0.062,1.243-0.185c0.356-0.123,0.652-0.289,0.888-0.499c0.237-0.209,0.414-0.451,0.528-0.724
	c0.111-0.273,0.17-0.565,0.17-0.874c0-0.383-0.102-0.699-0.309-0.95c-0.205-0.25-0.475-0.465-0.811-0.642
	c-0.339-0.178-0.725-0.333-1.157-0.465c-0.432-0.132-0.873-0.271-1.325-0.417c-0.452-0.146-0.893-0.311-1.325-0.499
	c-0.434-0.186-0.818-0.421-1.155-0.703c-0.336-0.283-0.609-0.632-0.813-1.046c-0.205-0.414-0.307-0.918-0.307-1.511
	c0-0.527,0.109-1.035,0.327-1.523c0.218-0.487,0.539-0.915,0.957-1.284c0.42-0.369,0.934-0.663,1.545-0.881
	c0.609-0.22,1.307-0.328,2.089-0.328c0.911,0,1.73,0.142,2.455,0.429c0.724,0.287,1.349,0.682,1.879,1.183"/>
<path fill="#126BB2" d="M78.231,109.677c-0.505-2.322-0.707-4.745-0.707-7.169c-4.039,5.957-9.794,8.179-16.862,8.179
	c-9.592,0-17.972-5.25-17.972-15.549c0-8.179,6.361-13.632,13.53-15.853c6.563-2.019,13.529-2.827,20.294-3.231V75.65
	c0-4.644-1.211-6.461-6.058-6.461c-3.938,0-7.27,1.413-7.875,5.754l-18.377-1.716c3.03-12.823,15.247-16.155,26.858-16.155
	c6.058,0,13.832,0.808,18.881,4.443c6.765,4.745,5.957,11.409,5.957,18.78v18.073c0,3.837,0.101,7.674,1.615,11.309 M76.514,85.546
	c-4.846,0.505-12.924,2.019-12.924,8.279c0,3.332,2.121,4.745,5.251,4.745c7.572,0,7.673-6.361,7.673-12.014V85.546z"/>
<path fill="#126BB2" d="M149.411,90.291c-1.817,13.328-11.309,20.396-24.434,20.396c-7.472,0-13.531-1.717-18.982-7.068
	c-5.251-5.251-7.674-12.218-7.674-19.588c0-15.55,10.702-26.959,26.555-26.959c12.722,0,22.818,7.472,24.333,20.396l-17.67,1.514
	l-0.1-0.504c-0.707-3.535-1.516-7.573-5.957-7.573c-6.362,0-6.362,8.38-6.362,12.924c0,4.847,0.101,12.722,6.665,12.722
	c4.341,0,5.956-3.938,6.461-7.673"/>
<polyline fill="#126BB2" points="189.997,75.852 207.364,109.677 186.463,109.677 176.77,88.978 171.722,95.44 171.722,109.677 
	151.73,109.677 151.73,40.413 171.722,40.413 171.722,77.77 176.064,72.016 188.18,58.082 205.546,58.082 "/>
<path fill="#126BB2" d="M220.689,92.916c1.111,4.947,6.664,5.554,11.005,5.554c2.02,0,7.674-0.202,7.674-3.232
	c0-2.625-6.866-3.13-8.683-3.332c-10.804-1.514-23.626-3.635-23.626-17.366c0-5.856,3.13-10.501,7.976-13.53
	c5.048-3.13,10.803-3.938,16.559-3.938c9.693,0,19.889,3.736,23.323,13.429l-15.246,2.928c-1.515-3.534-5.452-4.544-8.986-4.544
	c-1.616,0-6.462,0.505-6.462,2.726c0,1.616,1.716,2.323,3.029,2.626c2.221,0.605,6.26,0.908,8.683,1.211
	c4.645,0.606,9.895,1.313,14.035,3.837c4.745,3.029,7.269,7.573,7.269,13.126c0,14.236-15.044,18.276-26.655,18.276
	c-11.51,0-22.112-3.737-25.949-15.651"/>
<path fill="#126BB2" d="M255.867,71.208V58.083h8.381l1.515-16.458l17.366-0.606v17.064h10.299v13.125h-10.097v17.771
	c0,3.735-0.404,6.664,4.341,6.664c1.919,0,3.837-0.404,5.756-0.909v14.438l-11.814,1.515c-5.351,0.707-10.501-1.01-14.438-5.25
	c-3.938-4.241-3.837-9.188-3.837-14.741V71.208"/>
<path fill="#126BB2" d="M350.832,84.334c0,15.649-12.62,26.353-28.371,26.353s-28.372-10.704-28.372-26.353
	c0-16.559,12.217-27.262,28.372-27.262C338.615,57.072,350.832,67.775,350.832,84.334 M315.494,83.627
	c0,13.833,3.332,14.843,6.967,14.843c3.635,0,6.967-1.01,6.967-14.843c0-4.948-0.102-13.934-6.967-13.934
	C315.595,69.693,315.494,78.679,315.494,83.627"/>
<path fill="#126BB2" d="M370.923,68.684c1.717-7.169,5.453-12.217,13.429-11.611l2.726,0.202v18.073
	c-1.212-0.303-2.524-0.505-3.837-0.505c-3.23,0-6.562,0.606-8.178,3.534c-1.413,2.524-1.413,5.857-1.413,8.885v22.415h-19.992
	V58.082h17.064v10.602"/>
<path fill="#126BB2" d="M409.568,58.082v6.967h0.202c2.827-5.251,7.977-7.977,14.035-7.977c6.361,0,11.409,2.424,14.54,7.977
	c3.534-5.756,8.682-7.977,15.448-7.977c4.341,0,8.986,1.313,12.014,4.443c3.738,3.837,3.738,8.885,3.738,14.337v33.825h-19.589
	V78.679c0-3.332,0.403-7.068-4.242-7.068c-5.653,0-5.451,5.251-5.451,9.39v28.676h-19.589V78.679c0-3.231-0.201-7.37-4.543-7.37
	c-4.745,0-5.149,3.533-5.149,7.37v30.998h-19.587V58.082"/>
</svg>
