<?xml version="1.0" encoding="utf-8"?>
<!DOCTYPE svg PUBLIC "-//W3C//DTD SVG 1.1//EN" "http://www.w3.org/Graphics/SVG/1.1/DTD/svg11.dtd">
<svg version="1.1" id="Capa_1" xmlns="http://www.w3.org/2000/svg" xmlns:xlink="http://www.w3.org/1999/xlink" x="0px" y="0px"
	 width="937.453px" height="586.471px" viewBox="0 0 937.453 586.471" enable-background="new 0 0 937.453 586.471"
	 xml:space="preserve">
<path fill="#52C3D1" d="M705.491,379.326l7.165-87.501c1.319,3.758,2.802,2.571,8.298-6.643l0,0
	c2.91-4.879,5.291-10.096,5.291-11.594s-2.721-5.728-6.046-9.4c-8.308-9.174-14.25-19.54-17.016-29.683
	c-1.725-6.327-3.421-9.534-6.537-12.362c-2.314-2.1-5.205-5.393-6.425-7.318c-4.531-7.151-12.432-2.374-10.276,6.213
	c0.85,3.386-6.716,15.144-10.094,17.801l-11.515-11.366c0.899-0.899-6.415-14.177-14.225-25.822
	c-7.137-10.642-7.298-12.948-0.944-13.477c6.925-0.577,8.185-3.817,7.69-19.772c-0.222-7.157,0.027-12.585,0.547-12.062
	c0.523,0.523,4.593,9.242,9.044,19.377c7.207,16.409,8.43,18.426,11.171,18.426c2.687,0,3.066-0.566,2.985-4.455
	c-0.053-2.45-1.42-9.323-3.043-15.273c-6.354-23.301-2.288-44.546,8.524-44.546c1.814,0,5.839,1.489,8.945,3.31
	c4.286,2.512,6.001,2.953,7.112,1.829c1.106-1.119,0.297-3.629-3.309-10.266c-3.268-6.015-4.773-10.4-4.773-13.904
	c0-4.593-0.526-5.451-5.123-8.353c-3.759-2.373-5.966-5.14-8.289-10.394c-3.548-8.024-3.232-10.128,0.76-5.053
	c2.844,3.616,6.11,4.319,8.58,1.849c2.548-2.548,1.729-6.777-2.291-11.837c-4.022-5.062-4.865-7.561-2.255-6.691
	c0.86,0.287,3.045,3.054,4.856,6.15c5.966,10.202,11.884,7.893,11.191-4.365c-0.491-8.68,1.919-11.488,3.203-3.733
	c1.722,10.403,3.268,18.408,4.002,20.722c1.216,3.833,5.517,4.463,9.642,1.413c3.856-2.851,8.16-3.495,9.446-1.413
	c0.878,1.42-5.493,8.234-11.768,12.586c-4.977,3.452-5.313,7.092-1.578,17.075c3.081,8.236,7,12.201,13.025,13.178
	c3.558,0.577,5.082,0.142,7.316-2.093c2.518-2.518,2.736-3.666,2.017-10.643c-0.719-6.98-0.398-8.675,2.994-15.775
	c3.414-7.147,4.188-7.955,7.621-7.955c3.531,0,10.287-5.216,10.287-7.942c0-1.432,4.812-1.175,5.727,0.305
	c1.26,2.038,5.732,1.477,10.19-1.278c5.159-3.189,6.319-2.012,7.535,7.641c0.485,3.85,1.717,8.284,2.737,9.852
	c2.904,4.466,2.992,20.611,0.136,24.97c-5.836,8.907,2.557,13.342,11.082,5.857c5.595-4.913,8.412-13.462,8.412-25.532
	c0-7.373-0.632-9.765-4.522-17.096c-2.487-4.688-4.233-8.813-3.88-9.166c0.353-0.353,3.79,2.047,7.637,5.333
	c4.633,3.958,7.924,5.835,9.748,5.56c2.789-0.421,3.399-1.384,11.372-17.964c4.333-9.01,6.713-11.049,3.265-2.798
	c-2.452,5.868-2.571,13.82-0.236,15.758c2.625,2.179,5.548,0.451,9.874-5.836c2.143-3.115,4.195-5.366,4.559-5.002
	c1.189,1.189-5.235,15.353-8.318,18.338c-1.764,1.709-2.695,3.724-2.253,4.877c0.415,1.081,0.754,2.204,0.754,2.497
	c0,1.627,7.154,0.143,10.377-2.152c4.275-3.044,5.751-2.564,3.73,1.212c-0.918,1.715-3.632,3.033-8.202,3.981
	c-3.757,0.78-8.738,2.825-11.07,4.546c-2.332,1.72-5.146,3.128-6.254,3.128c-1.108,0-3.308,0.905-4.887,2.012
	c-2.679,1.877-2.817,2.629-2.042,11.174c0.989,10.911,0.707,11.273-10.936,14.02c-17.189,4.055-25.893,7.732-28.944,12.226
	c-2.493,3.671-2.864,5.85-2.864,16.808c0,9.951-0.518,13.605-2.471,17.433c-3.486,6.833-10.736,12.875-15.45,12.875
	c-5.386,0-9.678,4.725-10.743,11.824c-0.817,5.446-0.316,6.836,8.662,24.024c5.241,10.034,10.525,21.329,11.743,25.1
	c3.92,12.134,1.343,25.282-7.013,35.781c-1.393,1.75-6.816,12.539-12.052,23.975c-5.236,11.436-11.253,22.768-13.372,25.181
	c-2.279,2.596-3.847,5.798-3.84,7.843c0.021,5.265,5.191,15.167,13.331,25.522c8.659,11.015,15.93,22.75,15.93,25.707
	c0,1.158-1.134,3.131-2.521,4.386c-3.768,3.41-4.365,9.459-1.839,18.642c1.226,4.459,2.478,10.829,2.781,14.154
	c0.532,5.831,0.432,6.046-2.825,6.046c-2.792,0-3.828-1.02-5.984-5.895l0.002,0c-1.434-3.242-3.643-10.948-4.908-17.123
	c-2.714-13.247-3.036-13.891-6.939-13.891c-2.288,0-3.646,1.349-5.766,5.727c-4.97,10.266-6.364,7.372-6.364-13.213
	c0-14.078-0.195-15.214-3.466-20.26c-1.906-2.94-4.153-5.346-4.993-5.346"/>
<g>
	<path fill="#201C1E" d="M206.886,123.395h-79v91h-34v61h33.793l0.368,83.223c-0.008,3.181-0.193,77.909,0.389,86.984
		c0.244,3.807,1.381,11.728,1.429,12.066l0.045,0.289l0.103,0.289c10.724,31.477,33.592,51.064,67.968,57.944l0.335,0.204h0.004
		c4.752,1,10.662,1.573,13.784,1.658l8.782,0.101v-67.579l-6.055-3.655c-2.177-1.284-4.304-3.855-5.527-6.549
		c-2.013-4.435-2.121-9.873-2.146-86.201l0.009-78.776h54.616l0.048-61h-54.946V123.395z"/>
	<path fill="#201C1E" d="M710.568,284.475c-16.594-41.082-57.749-68.683-102.41-68.683c-4.872,0-9.691,0.335-14.508,0.995
		l-8.764,1.214v72.791l12.058-2.851c3.7-0.868,7.41-1.308,11.124-1.308c11.601,0,22.35,4.356,29.533,11.952
		c7.585,8.019,9.986,15.517,9.207,28.652c-0.935,15.783-7.735,26.3-20.775,32.153c-5.175,2.323-6.898,2.865-11.921,2.865
		c-1.909,0-4.299-0.093-6.595-0.193c-12.87-0.562-17.945-2.451-24.68-9.188c-4.919-4.918-7.645-11.348-9.112-21.499
		c-0.593-4.101-1.24-39.03-1.258-106.423l-0.028-101.558h-72.553v103.957c0,62.367,0.918,105.215,1.746,111.822
		c2.751,21.936,13.321,43.337,29.399,60.263c15.487,16.303,34.073,26.784,56.613,32.042c5.98,1.395,13.314,2.132,21.111,2.132
		c9.816,0,19.622-1.166,27.564-3.284c33.155-8.84,61.755-34.574,74.62-67.161c3.611-9.147,7.865-30.726,7.844-39.809
		C718.76,313.95,714.693,294.691,710.568,284.475z"/>
	<path fill="#201C1E" d="M470.258,307.094c-1.188-32.998-7.98-50.883-25.954-68.747c-11.951-11.877-21.477-17.522-35.148-21.019
		c-8.53-2.182-16.934-3.252-24.977-3.252c-13.103,0-25.765,2.954-37.635,8.746c-13.739,6.704-28.962,22.289-36.196,37.045
		c-8.803,17.957-10.121,24.902-10.073,53.046c0.046,28.015,1.34,34.935,9.891,52.871c10.828,22.711,31.348,36.849,60.992,42.016
		l0.467,0.049c0.076,0.003,7.761,0.27,16.028,0.27c1.92,0,3.878-0.014,5.789-0.049c16.684-0.302,20.289-0.788,29.669-3.996
		c11.491-3.931,21.704-9.7,31.223-17.638l8.823-7.358l-17.199-17.15c-11.836-11.802-14.69-14.334-18.022-14.334
		c-1.108,0-2.162,0.348-3.13,1.035c-11.612,8.225-18.587,10.354-33.929,10.354c-1.027,0-2.089-0.01-3.189-0.029
		c-10.826-0.19-15.542-1.779-21.936-7.393c-5.372-4.716-8.348-11.387-8.38-18.265l-0.012-2.898h113.745L470.258,307.094z
		 M357.886,288.558c0-13.19,6.709-22.816,17.943-25.123c2.673-0.549,5.595-0.839,8.706-0.839c5.552,0,10.798,0.89,14.511,2.442
		c7.188,3.003,11.885,11.177,13.288,22.692l0.391,3.665h-54.84V288.558z"/>
</g>
<path fill="#E85B22" d="M230.886,517.807l-9.81,0.338l-0.071-67.548c2.706,1.282,9.881,1.406,9.881,1.406V517.807z"/>
<rect x="230.886" y="452.395" fill="#B1C72B" width="10" height="65"/>
<rect x="240.886" y="452.395" fill="#1D4E5B" width="11" height="65"/>
</svg>
