<?xml version="1.0" encoding="utf-8"?>
<!-- Generator: Adobe Illustrator 17.0.0, SVG Export Plug-In . SVG Version: 6.00 Build 0)  -->
<!DOCTYPE svg PUBLIC "-//W3C//DTD SVG 1.1//EN" "http://www.w3.org/Graphics/SVG/1.1/DTD/svg11.dtd">
<svg version="1.1"
	 id="svg3048" xmlns:rdf="http://www.w3.org/1999/02/22-rdf-syntax-ns#" xmlns:cc="http://creativecommons.org/ns#" xmlns:dc="http://purl.org/dc/elements/1.1/" xmlns:svg="http://www.w3.org/2000/svg"
	 xmlns="http://www.w3.org/2000/svg" xmlns:xlink="http://www.w3.org/1999/xlink" x="0px" y="0px" width="950.681px" height="373px"
	 viewBox="101.681 186.547 950.681 373" enable-background="new 101.681 186.547 950.681 373" xml:space="preserve">
<g id="layer1" transform="translate(0,-308.2677)">
	<g id="g3082">
		<g id="g3006" transform="translate(63.415266,0)">
			<g id="text3006-6-9-7-8">
				<path id="path4194" fill="#AC0000" d="M956.336,692.483c0,15.662-4.016,28.026-12.048,37.09
					c-8.032,9.065-18.789,13.597-32.271,13.597c-13.597,0-24.411-4.532-32.443-13.597c-7.974-9.065-11.962-21.428-11.962-37.09
					c0-15.662,3.987-28.026,11.962-37.09c8.032-9.122,18.846-13.683,32.443-13.683c13.482,0,24.239,4.561,32.271,13.683
					C952.32,664.457,956.336,676.82,956.336,692.483L956.336,692.483z M939.641,692.483c0-12.449-2.438-21.686-7.315-27.71
					c-4.877-6.081-11.646-9.122-20.309-9.122c-8.778,0-15.605,3.041-20.481,9.122c-4.819,6.024-7.229,15.261-7.229,27.71
					c0,12.048,2.438,21.199,7.315,27.452c4.877,6.196,11.675,9.294,20.395,9.294c8.606,0,15.347-3.069,20.223-9.208
					C937.174,713.825,939.641,704.645,939.641,692.483z M843.258,628.285h-18.244v-16.781h18.244V628.285z M842.226,740.502h-16.179
					v-96.125h16.179V740.502z M788.268,740.502h-20.567v-24.526h20.567V740.502z M742.228,739.641
					c-3.041,0.803-6.368,1.463-9.983,1.979c-3.557,0.516-6.741,0.774-9.552,0.774c-9.81,0-17.269-2.639-22.375-7.917
					c-5.106-5.278-7.659-13.74-7.659-25.387v-51.117h-10.929v-13.597h10.929v-27.624h16.179v27.624h33.39v13.597h-33.39v43.803
					c0,5.049,0.115,9.007,0.344,11.876c0.23,2.811,1.033,5.45,2.41,7.917c1.262,2.295,2.983,3.987,5.163,5.077
					c2.237,1.033,5.622,1.549,10.155,1.549c2.639,0,5.393-0.373,8.261-1.119c2.869-0.803,4.934-1.463,6.196-1.979h0.861
					L742.228,739.641L742.228,739.641z M661.163,628.285h-18.244v-16.781h18.244V628.285z M660.131,740.502h-16.179v-96.125h16.179
					V740.502z M618.565,691.708c0,8.032-1.147,15.261-3.442,21.686c-2.237,6.426-5.278,11.818-9.122,16.179
					c-4.073,4.532-8.548,7.946-13.425,10.241c-4.877,2.237-10.241,3.356-16.093,3.356c-5.45,0-10.212-0.66-14.285-1.979
					c-4.073-1.262-8.089-2.983-12.048-5.163l-1.033,4.475h-15.146V606.598h16.179v47.847c4.532-3.729,9.352-6.77,14.457-9.122
					c5.106-2.41,10.843-3.614,17.211-3.614c11.359,0,20.309,4.36,26.85,13.081C615.267,663.51,618.566,675.816,618.565,691.708
					L618.565,691.708z M601.871,692.138c0-11.474-1.893-20.166-5.68-26.075c-3.786-5.967-9.896-8.95-18.33-8.95
					c-4.704,0-9.466,1.033-14.285,3.098c-4.819,2.008-9.294,4.618-13.425,7.831v55.076c4.59,2.065,8.52,3.5,11.79,4.303
					c3.328,0.803,7.085,1.205,11.273,1.205c8.95,0,15.949-2.926,20.998-8.778C599.318,713.939,601.871,704.703,601.871,692.138
					L601.871,692.138z M511.081,712.792c0,8.778-3.643,15.978-10.929,21.6c-7.229,5.622-17.125,8.433-29.689,8.434
					c-7.114,0-13.654-0.832-19.621-2.496c-5.909-1.721-10.872-3.586-14.888-5.594v-18.158h0.861
					c5.106,3.844,10.786,6.913,17.039,9.208c6.253,2.237,12.249,3.356,17.986,3.356c7.114,0,12.679-1.147,16.695-3.442
					c4.016-2.295,6.024-5.909,6.024-10.843c0-3.786-1.09-6.655-3.27-8.606c-2.18-1.951-6.368-3.614-12.564-4.991
					c-2.295-0.516-5.307-1.119-9.036-1.807c-3.672-0.688-7.028-1.434-10.069-2.237c-8.434-2.237-14.429-5.508-17.986-9.81
					c-3.5-4.36-5.249-9.696-5.249-16.006c0-3.959,0.803-7.688,2.41-11.187c1.664-3.5,4.159-6.626,7.487-9.38
					c3.213-2.696,7.286-4.819,12.22-6.368c4.991-1.606,10.556-2.41,16.695-2.41c5.737,0,11.532,0.717,17.383,2.151
					c5.909,1.377,10.814,3.069,14.716,5.077v17.297h-0.861c-4.131-3.041-9.151-5.594-15.06-7.659
					c-5.909-2.123-11.704-3.184-17.383-3.184c-5.909,0-10.9,1.147-14.974,3.442c-4.073,2.237-6.11,5.594-6.11,10.069
					c0,3.959,1.233,6.942,3.7,8.95c2.41,2.008,6.311,3.643,11.704,4.905c2.983,0.688,6.311,1.377,9.983,2.065
					c3.729,0.688,6.827,1.32,9.294,1.893c7.516,1.721,13.31,4.676,17.383,8.864C509.045,700.17,511.081,705.793,511.081,712.792
					L511.081,712.792z"/>
			</g>
			<path id="path6223-6-8-5-6-4-4-0" fill="#AC0000" d="M270.225,647.299c-1.999-1.754-11.051-2.756-22.332-1.731
				c-26.702,2.426-80.007,8.332-80.007,8.332l-1.877,107.948c0,0,51.087-49.581,76.63-71.768
				C280.961,656.793,272.483,649.28,270.225,647.299L270.225,647.299z M170.508,508.516l-2.037,116.769l115.102-21.219
				c22.739-4.152,87.489-2.608,0.024,87.001L126.344,852.114l25.237-196.68L81.2,662.624c-11.571,1.112-38.853-4.231,0.36-54.934
				l80.75-91.115l-63.956,90.887c-16.771,24.707-17.03,33.488-11.244,32.933l67.952-12.605l15.445-119.274"/>
		</g>
	</g>
</g>
</svg>
