<?xml version="1.0" encoding="utf-8"?>
<svg version="1.1"
	 sodipodi:docname="logo-swiftcircle.svg" inkscape:version="0.91 r13725" xmlns:inkscape="http://www.inkscape.org/namespaces/inkscape" xmlns:sodipodi="http://sodipodi.sourceforge.net/DTD/sodipodi-0.dtd" xmlns:dc="http://purl.org/dc/elements/1.1/" xmlns:rdf="http://www.w3.org/1999/02/22-rdf-syntax-ns#" xmlns:svg="http://www.w3.org/2000/svg" xmlns:cc="http://creativecommons.org/ns#"
	 xmlns="http://www.w3.org/2000/svg" xmlns:xlink="http://www.w3.org/1999/xlink" x="0px" y="0px" width="718.621px" height="171px"
	 viewBox="24.5 44.5 718.621 171" enable-background="new 24.5 44.5 718.621 171" xml:space="preserve">
<sodipodi:namedview  inkscape:pageopacity="0" inkscape:window-width="1062" inkscape:window-height="816" inkscape:pageshadow="2" showgrid="false" guidetolerance="10" pagecolor="#ffffff" bordercolor="#666666" gridtolerance="10" id="namedview3406" objecttolerance="10" borderopacity="1" inkscape:zoom="1.0969259" inkscape:cx="206.56555" inkscape:cy="151.78782" inkscape:current-layer="Capa_1" inkscape:window-maximized="0" inkscape:window-x="0" inkscape:window-y="1080">
	</sodipodi:namedview>
<g id="g3402" transform="translate(-0.91163857,-127.67059)">
	<path id="path3404" inkscape:connector-curvature="0" fill="#D11149" d="M35.391,298.009c7.434,5.896,15.125,10.254,25.38,10.254
		c11.28,0,16.92-5.896,16.92-13.331c0-8.973-10.254-12.818-19.74-16.407c-12.305-4.358-25.636-10.254-25.636-24.867
		c0-13.843,11.024-24.354,29.481-24.354c10.767,0,20.253,4.358,26.662,9.742l-6.922,9.229c-5.896-4.358-12.049-7.691-19.74-7.691
		c-10.767,0-15.894,5.896-15.894,12.305c0,8.204,9.485,11.28,19.227,14.869c12.305,4.614,26.149,9.742,26.149,26.149
		c0,14.1-11.28,25.636-31.532,25.636c-12.305,0-23.842-5.127-32.045-11.793L35.391,298.009L35.391,298.009L35.391,298.009z
		 M101.532,231.355h14.869l12.818,49.734c2.051,8.204,3.589,15.894,5.127,23.842h0.769c2.051-7.947,3.845-15.894,5.896-23.842
		l13.331-49.734h14.1l13.331,49.734c2.051,8.204,4.102,15.894,5.896,23.842h0.769c2.051-7.947,3.589-15.894,5.384-23.842
		l12.562-49.734h13.843l-23.072,86.137h-17.689l-12.305-46.145c-2.051-8.204-3.845-16.151-5.896-24.867h-0.769
		c-2.051,8.716-3.589,16.92-5.896,24.867l-12.049,46.145h-16.92L101.532,231.355L101.532,231.355z M236.378,204.438
		c0-5.64,4.358-9.485,9.998-9.485s9.998,3.845,9.998,9.485c0,5.384-4.358,9.485-9.998,9.485
		C240.736,213.667,236.378,209.821,236.378,204.438L236.378,204.438z M239.198,231.355h14.613v86.137h-14.613V231.355
		L239.198,231.355z M370.967,316.467c-4.871,1.538-10.511,3.076-15.894,3.076c-18.458,0-24.611-11.793-24.611-28.712v-47.427
		h-30.763v74.088h-14.613v-74.088h-11.793v-11.023l11.793-0.769v-13.843c0-17.432,7.947-28.456,25.123-28.456
		c5.384,0,10.511,1.282,14.356,2.82l-3.076,11.28c-3.076-1.538-6.665-2.051-9.742-2.051c-8.204,0-12.049,5.64-12.049,16.663v13.587
		h31.532l1.795-24.098h12.049v24.098h23.329v11.793h-23.329v47.939c0,10.511,3.589,16.663,13.331,16.663
		c3.076,0,6.922-1.282,9.742-2.307L370.967,316.467L370.967,316.467L370.967,316.467z M420.957,230.843
		c11.793,0,19.227,5.384,24.867,10.511l-3.589,3.845c-5.64-5.384-12.305-9.485-21.278-9.485c-18.202,0-32.301,16.407-32.301,39.736
		c0,23.329,12.818,39.223,32.301,39.223c9.485,0,17.689-4.614,23.842-10.254l3.076,3.845c-7.178,6.409-15.894,11.28-26.918,11.28
		c-21.534,0-37.941-16.407-37.941-44.35C383.016,246.993,400.705,230.843,420.957,230.843L420.957,230.843z M466.333,205.207
		c0-3.845,2.82-6.153,5.896-6.153s5.896,2.051,5.896,5.896c0,3.589-2.82,6.153-5.896,6.153S466.333,208.796,466.333,205.207z
		 M469.41,232.894h5.384v84.599h-5.384V232.894z M508.889,232.894h4.615l0.769,15.894h0.256
		c5.64-10.254,13.844-17.945,24.098-17.945c2.82,0,5.384,0.256,8.204,1.795l-1.538,4.871c-2.82-1.025-4.358-1.538-7.434-1.538
		c-7.691,0-16.92,5.896-23.842,22.56v58.707h-5.384L508.889,232.894L508.889,232.894z M591.694,230.843
		c11.793,0,19.227,5.384,24.867,10.511l-3.589,3.845c-5.64-5.384-12.305-9.485-21.278-9.485c-18.202,0-32.301,16.407-32.301,39.736
		c0,23.329,12.818,39.223,32.301,39.223c9.485,0,17.689-4.614,23.842-10.254l3.076,3.845c-7.178,6.409-15.894,11.28-26.918,11.28
		c-21.534,0-37.941-16.407-37.941-44.35C553.752,246.993,571.441,230.843,591.694,230.843L591.694,230.843z M640.402,189.569h5.384
		v119.721c0,3.589,1.538,5.384,3.589,5.384c0.769,0,1.538,0,3.076-0.256l1.025,4.614c-1.538,0.256-2.564,0.769-4.614,0.769
		c-5.384,0-8.46-3.076-8.46-11.28L640.402,189.569L640.402,189.569L640.402,189.569z M710.132,230.843
		c19.483,0,31.789,13.843,31.789,38.967c0,1.795,0,3.589-0.256,5.64h-62.296c0,22.56,13.074,39.223,33.327,39.223
		c9.485,0,16.92-3.076,23.329-7.691l2.564,4.614c-6.409,3.845-13.587,8.204-26.149,8.204c-21.278,0-38.71-16.663-38.71-44.35
		S691.418,230.843,710.132,230.843L710.132,230.843L710.132,230.843z M736.794,270.835c0-23.329-10.511-35.121-26.661-35.121
		c-15.125,0-28.969,13.587-30.763,35.121H736.794z"/>
</g>
</svg>
