<?xml version="1.0" encoding="utf-8"?>
<!-- Generator: Adobe Illustrator 18.0.0, SVG Export Plug-In . SVG Version: 6.00 Build 0)  -->
<!DOCTYPE svg PUBLIC "-//W3C//DTD SVG 1.1//EN" "http://www.w3.org/Graphics/SVG/1.1/DTD/svg11.dtd">
<svg version="1.1" id="Capa_1" xmlns="http://www.w3.org/2000/svg" xmlns:xlink="http://www.w3.org/1999/xlink" x="0px" y="0px"
	 viewBox="0 0 4723.2 1044.6" enable-background="new 0 0 4723.2 1044.6" xml:space="preserve">
<g>
	<path fill="#287DC2" d="M1317.6,154.2c57.9,0,114.5,0,172.5,0c0,4.3,0,8.1,0,12c0,73.3-0.1,146.7,0.1,220c0,8.3,0.6,16.7,2,24.9
		c4.6,28.7,27.1,43.6,55.4,36.7c18.2-4.4,30.4-15.9,36.6-33.6c6.4-18.2,7.5-37.2,7.5-56.2c0.2-63.7,0.1-127.3,0.1-191
		c0-4,0-7.9,0-12.5c57.6,0,114.4,0,171.6,0c0,140.2,0,279.8,0,420.3c-6.9,0.5-13.4,1.2-19.9,1.5c-42.3,1.6-84.6,3.2-126.9,4.7
		c-47.3,1.7-94.6,3.3-141.9,4.8c-19.7,0.6-39.4-0.1-58.5-5.5c-49.5-13.9-79.2-46.8-91.9-96c-5.7-22.1-7.1-44.7-7.1-67.4
		c-0.1-84.3-0.1-168.7,0-253C1317.1,160.8,1317.4,157.9,1317.6,154.2z"/>
	<path fill="#287DC2" d="M3190.3,575.8c0-140.5,0-280.1,0-420.2c2.2-0.4,4.1-0.9,6-0.9c91.9-3.4,183.8-6.7,275.7-10
		c21.3-0.8,42.7-0.7,63.5,4.9c51.8,13.9,82.6,48.1,94.1,99.6c3.8,17.1,6,34.9,6.1,52.4c0.6,88.3,0.3,176.6,0.3,265
		c0,2.9-0.3,5.8-0.5,9.3c-57.3,0-114.1,0-172,0c0-4.5,0-8.4,0-12.3c0-72.7,0.1-145.3-0.1-218c0-10.6-1.1-21.4-3.4-31.7
		c-4.3-19.8-17.2-30.1-37.3-31.6c-27.2-2-47,11.6-54.9,37.9c-4.8,16.1-5.9,32.7-5.9,49.4c0,64.7,0,129.3,0,194c0,3.9,0,7.8,0,12.3
		C3304.3,575.8,3247.8,575.8,3190.3,575.8z"/>
	<path fill="#287DC2" d="M2655.5,272.4c48.6,22.3,96.9,22.5,143.5-4.7c46.5-27.2,70.3-69.4,75-123.9c16.3,1.1,31.9,1.5,47.4,3.2
		c29.3,3.3,57.7,10.4,84,24c63.8,33.1,100.3,85.9,110.7,156.6c5.6,37.7,3.6,75.3-8.8,111.5c-22,64.3-65.4,108.7-129.5,130.6
		c-65.5,22.4-132.7,23.5-198.2,0.8c-78.1-27.1-126-82.5-140.6-164.4c-7.4-41.6-4.1-83,10.9-123c1.1-2.8,2.2-5.6,3.4-8.3
		C2653.7,274.1,2654.6,273.4,2655.5,272.4z"/>
	<path fill="#287DC2" d="M739.5,585.8c-36.9,0-73.4-4.1-107.5-18.8c-78.7-33.8-123.7-93-132.2-178.9c-3.2-31.9-0.7-63.4,9.5-93.8
		c24.2-72.1,74.1-117.8,146.5-139.2c38.9-11.5,78.8-12.5,118.9-9.1c25.7,2.2,50.8,7.1,74.8,16.7c72.3,29.2,115.3,82.6,128.8,159.2
		c8.2,46.3,4.5,92-14.8,135.2c-28.3,63.5-77.8,102.5-144.8,119.7C792.7,583.4,766.2,585.7,739.5,585.8z M809.1,365.4
		c-0.4-8-0.4-16-1.2-23.9c-1.5-14.6-4.7-28.9-12.1-41.9c-23.1-40.4-76.7-44.5-105.8-8.1c-6.8,8.5-11.2,18.1-13.9,28.5
		c-6.9,26.2-7.3,52.7-2.6,79.2c1.8,10,4.7,20.2,9.1,29.4c13.7,28.8,44.9,42.8,75.2,34.1c23-6.6,37-22.7,44.3-45
		C807.5,400.7,808.8,383.1,809.1,365.4z"/>
	<path fill="#7ED400" d="M4184.6,408.5c-106.2,0-212,0-318.3,0c2.7,20.9,6.9,40,20,55.8c21.5,25.9,55.9,34.6,89.9,23.3
		c15.4-5.1,28.1-13.9,37.9-26.5c4.4-5.6,9.1-6.4,15.5-5.7c41.4,4,82.9,7.7,124.4,11.6c6.9,0.6,13.8,1.5,21.5,2.3
		c-1,2.4-1.6,4.3-2.6,5.9c-11.6,19.2-25,36.9-41.1,52.7c-27.5,27-60.6,43.2-98.2,50.1c-55.5,10.2-111.3,11.4-167,1.2
		c-77.9-14.2-126.4-62.3-150.9-135.4c-16.2-48.3-16-98.1-0.8-146.6c22.5-71.9,72.4-116.2,144.5-136.1c21.6-6,43.8-8.5,66.2-9.2
		c36.4-1.2,72.7,0.7,108.1,9.8c79,20.3,126.4,71.5,144.1,150.7c6.6,29.4,7.9,59.4,7.6,89.4C4185.4,403.6,4185,405.5,4184.6,408.5z
		 M4023.6,331.9c-1.7-17.3-4.8-32.8-11.8-47.4c-8.2-17.1-21.3-28.8-39.3-34.6c-14.6-4.7-29.6-5.3-44.4-2.1
		c-36.1,7.9-62.8,45.4-60,84.1C3919.5,331.9,3971,331.9,4023.6,331.9z"/>
	<path fill="#287DC2" d="M0,449.2c56.6-5.4,112.2-10.8,168.1-16.1c2.8,6.3,5.3,12,7.8,17.8c9.8,22.2,27.4,33,51.1,33.7
		c10.2,0.3,20.8-0.1,30.7-2.2c7.9-1.7,15.9-5.5,22.3-10.4c14.5-11,12-29.1-4.3-37.1c-3.8-1.9-8-3.3-12.2-4.2
		c-26.1-5.4-52.3-10.2-78.3-15.9c-26-5.7-52.1-11.1-77.7-18.5c-38-11-65.6-35.3-81.1-71.7C8.8,283,12.7,220.9,67.4,181.2
		c22.3-16.2,47.5-25.3,74.3-30.3c43.2-8.1,86.9-7.6,130.5-5c21,1.3,41.8,3.9,61.9,10.3C374,169,403.6,193.5,421,232
		c4.9,10.9,9.2,22.1,14.5,34.7c-27.9,3.8-54.6,5.6-81.2,8.2c-26.8,2.6-53.6,5.2-80.7,7.8c-1-2.4-1.9-4.2-2.4-6.1
		c-5.2-18.9-18.6-28.5-36.9-32.4c-14.2-3.1-28.5-3.3-42.5,0.7c-4.6,1.3-9.3,4.1-12.7,7.4c-10.6,10.1-8.4,24.4,5.1,30
		c9.7,4,20.3,6.6,30.7,8.3c23.7,3.9,47.5,6.6,71.2,10.2c25.4,3.8,50.5,8.9,74.6,18c26.2,9.8,48.9,24.6,65,47.8
		c28.6,41.1,29.6,84.3,8.2,128.7c-14.7,30.4-38.8,51.1-68.7,65.8c-24.9,12.2-51.3,18.6-78.6,21.6c-46.2,5.1-92.5,4.5-138.6-1.8
		c-18.8-2.6-37.3-6.9-55.2-13.5c-34.1-12.7-59.1-35.4-75.8-67.5C9,484.2,3.6,467.9,0,449.2z"/>
	<path fill="#287DC2" d="M2312.7,298.2c-53.8,6.9-106.2,13.6-159.4,20.3c-1.5-3.9-3-7.5-4.3-11.2c-9.1-26-28.1-38.6-55-40.5
		c-44.6-3-74.7,19.5-84.2,63.6c-5.5,25.4-5.9,50.9,0.1,76.3c12.7,52.8,63.2,68.8,105.6,51.8c14.6-5.8,24.9-16.6,32-30.2
		c4.4-8.5,8-17.5,12.5-27.2c53,6.1,106.3,12.3,159.8,18.5c0,2.4,0.3,3.8,0,5c-20.1,82.5-70.9,134.5-154,153.9
		c-27.4,6.4-55.4,7.6-83.4,7.2c-32.7-0.4-65.2-2.8-97-11c-60.4-15.6-104.1-51.9-131.9-107.5c-9.2-18.4-13.8-38.1-16.3-58.4
		c-4.6-38-4.7-76.1,5.9-113.1c21.2-73.7,70.8-119.8,143.6-140.8c43.1-12.5,87.5-12.1,131.9-9.2c21.6,1.5,42.9,5.1,63.9,11
		c52.5,14.8,90.2,47.1,113.7,96.2C2302.9,267.1,2308.6,281.6,2312.7,298.2z"/>
	<path fill="#7ED400" d="M4350.6,358.9c-47.7-66-94.7-131-142.6-197.3c4.3-0.3,6.8-0.6,9.3-0.6c56.7,0,113.3,0.1,170-0.2
		c7.1,0,10.6,2.5,13.9,8.4c18.1,32.3,36.5,64.3,54.9,96.4c1.8,3.1,3.7,6.2,6.2,10.3c2.5-3.3,4.5-5.7,6.2-8.3
		c21.7-32.8,43.5-65.5,64.9-98.5c3.9-6,7.9-8.4,15.2-8.3c51.3,0.3,102.7,0.2,154,0.2c2.9,0,5.9,0,8.4,0c0.6,1,0.8,1.3,0.8,1.6
		c0.1,0.3,0,0.6,0,0.9c-0.1,0.3-0.1,0.7-0.3,0.9c-0.3,0.6-0.7,1.1-1.1,1.7c-0.8,1.1-1.5,2.2-2.3,3.3
		c-44.3,62.1-88.7,124.2-133,186.3c-0.4,0.5-0.7,1.1-0.9,1.7c-0.1,0.3-0.2,0.6-0.6,2.4c49.5,71,99.5,142.7,149.7,214.7
		c-7.9,2.2-168.2,2.9-184.7,1c-12.4-21.6-24.9-43.6-37.5-65.5c-12.5-21.9-25.1-43.8-38.4-67.2c-2.9,3.9-5,6.7-7,9.6
		c-26.2,38.6-52.6,77.1-78.5,115.9c-4,5.9-8.1,8.2-15.3,8.2c-50.3-0.3-100.7-0.2-151-0.2c-2.9,0-5.8,0-10.8,0
		c16.9-25.9,34-49.5,50.5-73.5c16.4-23.9,33.1-47.6,49.6-71.4C4316.9,407.5,4333.6,383.4,4350.6,358.9z"/>
	<path fill="#287DC2" d="M1058,575.6c0-192,0-383.5,0-575.6c57,0,113.5,0,169.8,0c1.9,7.5,2.6,561.1,0.8,574.8
		C1221.5,576.9,1078.8,577.7,1058,575.6z"/>
	<path fill="#287DC2" d="M2564.8,154.4c0,141,0,281,0,421.5c-57.2,0-113.6,0-170.7,0c0-140.7,0-280.7,0-421.5
		C2450.9,154.4,2507.4,154.4,2564.8,154.4z"/>
	<path fill="#7ED400" d="M2623.8,137.9c0.1-55.2,44.6-99.6,100-99.5c55.2,0.1,99.9,44.7,100,99.7c0.1,55.1-45.8,100.7-100.8,100.3
		C2667.9,238,2623.7,193.2,2623.8,137.9z"/>
</g>
<g>
	<g>
		<path fill="#287DC2" d="M169.1,962.5c-6.4,4.9-14.5,8.3-24.3,10.2c-9.8,1.9-20.3,2.9-31.4,2.9c-13.4,0-26-2.3-37.8-6.9
			c-11.7-4.6-22-11.6-30.7-21c-8.8-9.4-15.7-21.4-20.8-36c-5.1-14.6-7.7-31.9-7.7-52c0-20.9,2.8-38.7,8.5-53.3
			c5.6-14.6,13.1-26.6,22.4-35.8c9.3-9.3,19.7-16,31.2-20.3c11.5-4.3,23.2-6.4,35.2-6.4c12.8,0,23.2,0.7,31.4,2.1
			c8.1,1.4,15,3.3,20.8,5.6l-6.4,23.7c-10.2-5.1-24.9-7.7-43.8-7.7c-8.8,0-17.4,1.6-25.9,4.8c-8.5,3.2-16.2,8.4-22.9,15.7
			c-6.7,7.3-12.1,16.8-16.2,28.5c-4.1,11.7-6.1,26.1-6.1,43.2c0,15.4,1.9,28.8,5.8,40.3c3.8,11.5,9.1,21.1,15.8,28.8
			c6.7,7.7,14.6,13.4,23.7,17.3c9.1,3.8,18.9,5.8,29.6,5.8c9.6,0,18-1,25.1-2.9c7.1-1.9,13.2-4.4,18.1-7.4L169.1,962.5z"/>
		<path fill="#287DC2" d="M248.1,891.8c0-27.1,6-47.8,18.1-62.2c12.1-14.4,29.4-21.6,52-21.6c11.9,0,22.3,2,31.2,5.9
			c8.9,4,16.2,9.6,21.9,17c5.8,7.4,10,16.2,12.8,26.6c2.8,10.4,4.2,21.8,4.2,34.4c0,27.1-6,47.8-18.1,62.2
			c-12.1,14.4-29.4,21.6-52,21.6c-11.9,0-22.3-2-31.2-5.9c-8.9-3.9-16.2-9.6-21.9-17c-5.8-7.4-10-16.2-12.8-26.6
			C249.5,915.8,248.1,904.3,248.1,891.8z M274.7,891.8c0,8.1,0.8,15.9,2.4,23.4c1.6,7.5,4.1,14,7.5,19.5c3.4,5.5,7.9,10,13.4,13.4
			c5.5,3.4,12.3,5.1,20.2,5.1c29,0.2,43.5-20.3,43.5-61.4c0-8.3-0.8-16.2-2.4-23.7c-1.6-7.5-4.1-14-7.5-19.5
			c-3.4-5.5-7.9-10-13.4-13.3c-5.5-3.3-12.3-5-20.2-5C289.2,830.1,274.7,850.6,274.7,891.8z"/>
		<path fill="#287DC2" d="M593.7,971.8v-91.2c0-16.6-2.4-29.2-7.2-37.6c-4.8-8.4-13.6-12.6-26.4-12.6c-11.3,0-20.6,3-28,9.1
			c-7.4,6.1-12.5,13.7-15.5,22.9v109.4H491v-160h17.9l4.8,19.5h1.3c5.1-6.8,12-12.4,20.6-16.8c8.6-4.4,18.9-6.6,30.9-6.6
			c8.7,0,16.4,1,23,3c6.6,2,12.1,5.6,16.5,10.7c4.4,5.1,7.7,12,9.9,20.6c2.2,8.6,3.4,19.6,3.4,32.8v96.6H593.7z"/>
		<path fill="#287DC2" d="M798.8,928.2c0-6.4-1.9-11.4-5.8-15c-3.8-3.6-8.6-6.7-14.2-9.1c-5.7-2.5-11.8-4.8-18.6-7
			c-6.7-2.2-12.9-5.1-18.6-8.6c-5.7-3.5-10.4-8-14.2-13.6c-3.8-5.5-5.8-13-5.8-22.4c0-15.4,4.4-26.6,13.1-33.8
			c8.7-7.1,20.9-10.7,36.5-10.7c11.5,0,21.2,1,29,3c7.8,2,14.6,4.4,20.3,7.2l-6.1,21.1c-4.9-2.3-10.8-4.4-17.8-6.2
			c-6.9-1.8-14.4-2.7-22.2-2.7c-9.4,0-16.3,1.6-20.6,4.8c-4.4,3.2-6.6,8.8-6.6,16.6c0,5.5,1.9,9.9,5.8,13c3.8,3.1,8.6,5.9,14.2,8.3
			c5.6,2.5,11.8,4.9,18.6,7.2c6.7,2.3,12.9,5.4,18.6,9.3c5.6,3.8,10.4,8.7,14.2,14.6c3.8,5.9,5.8,13.6,5.8,23.2
			c0,6.8-1.1,13.2-3.4,19.2c-2.2,6-5.7,11.1-10.4,15.4c-4.7,4.3-10.5,7.6-17.4,10.1c-6.9,2.5-15.1,3.7-24.5,3.7
			c-12.2,0-22.5-1.2-31-3.5c-8.5-2.3-15.7-5.1-21.4-8.3l7.7-21.8c4.9,2.8,11.3,5.3,19.2,7.7c7.9,2.3,15.9,3.5,24,3.5
			c9.2,0,16.7-1.8,22.7-5.4C795.8,944.1,798.8,937.6,798.8,928.2z"/>
		<path fill="#287DC2" d="M948.6,811.8V903c0,8.3,0.5,15.6,1.4,21.9c1,6.3,2.6,11.5,5,15.7c2.3,4.2,5.5,7.3,9.6,9.4
			c4,2.1,9.2,3.2,15.4,3.2c5.8,0,10.9-0.9,15.4-2.7c4.5-1.8,8.5-4.3,12-7.5s6.6-6.9,9.3-11c2.7-4.2,4.8-8.6,6.6-13.3V811.8h25.6
			v114.6c0,7.7,0.3,15.6,0.8,23.8c0.5,8.2,1.4,15.4,2.7,21.6h-17.6l-6.4-25.3h-1.6c-4.9,8.3-11.5,15.3-19.8,20.8
			c-8.3,5.5-18.9,8.3-31.7,8.3c-8.5,0-16.1-1-22.6-3c-6.5-2-12-5.6-16.3-10.7c-4.4-5.1-7.7-12-9.9-20.6c-2.2-8.6-3.4-19.6-3.4-32.8
			v-96.6H948.6z"/>
		<path fill="#287DC2" d="M1188.9,932.4c0,7.5,1.3,12.8,3.8,16c2.6,3.2,6.2,4.8,10.9,4.8c2.8,0,5.8-0.2,9-0.6
			c3.2-0.4,6.8-1.4,10.9-2.9l2.9,20.2c-3.4,1.7-8.2,3.1-14.2,4.2c-6.1,1.1-11.4,1.6-15.8,1.6c-9.6,0-17.5-2.7-23.7-8.2
			c-6.2-5.4-9.3-14.7-9.3-27.7v-192h25.6V932.4z"/>
		<path fill="#287DC2" d="M1295.1,811.8h25v-31.7l25.6-7.4v39h43.5v22.4h-43.5v88.6c0,11.1,1.4,18.9,4.2,23.5
			c2.8,4.6,7.5,6.9,14.1,6.9c5.5,0,10.2-0.6,14.1-1.8c3.8-1.2,8.1-2.7,12.8-4.6l5.8,19.5c-5.8,2.8-12.1,5-18.9,6.7
			c-6.8,1.7-14.2,2.6-22.1,2.6c-13,0-22.2-3.7-27.5-11c-5.3-7.4-8-19.7-8-37v-93.4h-25V811.8z"/>
		<path fill="#287DC2" d="M1474.7,891.8c0-27.1,6-47.8,18.1-62.2c12.1-14.4,29.4-21.6,52-21.6c11.9,0,22.3,2,31.2,5.9
			c8.9,4,16.2,9.6,21.9,17c5.8,7.4,10,16.2,12.8,26.6c2.8,10.4,4.2,21.8,4.2,34.4c0,27.1-6,47.8-18.1,62.2
			c-12.1,14.4-29.4,21.6-52,21.6c-11.9,0-22.3-2-31.2-5.9c-8.9-3.9-16.2-9.6-21.9-17c-5.8-7.4-10-16.2-12.8-26.6
			C1476,915.8,1474.7,904.3,1474.7,891.8z M1501.2,891.8c0,8.1,0.8,15.9,2.4,23.4c1.6,7.5,4.1,14,7.5,19.5c3.4,5.5,7.9,10,13.4,13.4
			c5.5,3.4,12.3,5.1,20.2,5.1c29,0.2,43.5-20.3,43.5-61.4c0-8.3-0.8-16.2-2.4-23.7c-1.6-7.5-4.1-14-7.5-19.5
			c-3.4-5.5-7.9-10-13.4-13.3c-5.5-3.3-12.3-5-20.2-5C1515.7,830.1,1501.2,850.6,1501.2,891.8z"/>
		<path fill="#287DC2" d="M1793.1,836.4c-6.4-2.1-12.5-3.2-18.2-3.2c-9.2,0-16.4,2.5-21.8,7.5c-5.3,5-8.6,11.4-9.9,19v112h-25.6
			v-160h17.9l4.8,19.5h1.3c4-7.2,8.9-12.8,14.6-16.8c5.6-3.9,12.8-5.9,21.6-5.9c6.2,0,13.1,1.1,20.8,3.2L1793.1,836.4z"/>
		<path fill="#287DC2" d="M1894.2,811.8h25.6v160h-25.6V811.8z M1913.4,741.4h28.5v6.7l-32.3,41h-15L1913.4,741.4z"/>
		<path fill="#287DC2" d="M2034.3,823.6c8.1-4.9,17.5-8.5,28.3-10.9c10.8-2.3,22-3.5,33.8-3.5c11.1,0,20,1.5,26.7,4.5
			c6.7,3,11.8,6.9,15.4,11.7c3.5,4.8,5.9,10.1,7,15.8c1.2,5.8,1.8,11.5,1.8,17.3c0,12.8-0.3,25.3-1,37.4s-1,23.7-1,34.6
			c0,7.9,0.3,15.4,1,22.4s1.8,13.5,3.5,19.5H2131l-6.7-22.4h-1.6c-1.9,3-4.3,5.9-7.2,8.8s-6.4,5.4-10.4,7.7
			c-4.1,2.2-8.8,4.1-14.1,5.6c-5.3,1.5-11.4,2.2-18.2,2.2c-6.8,0-13.2-1.1-19-3.2c-5.9-2.1-10.9-5.2-15.2-9.1
			c-4.3-3.9-7.6-8.7-10.1-14.2c-2.5-5.5-3.7-11.8-3.7-18.9c0-9.4,1.9-17.2,5.8-23.5c3.8-6.3,9.2-11.3,16.2-15c6.9-3.7,15.2-6.4,25-8
			c9.7-1.6,20.4-2.4,32.2-2.4c3,0,5.9,0,8.8,0s5.8,0.2,8.8,0.6c0.6-6.4,1-12.2,1-17.3c0-11.7-2.3-19.9-7-24.6
			c-4.7-4.7-13.2-7-25.6-7c-3.6,0-7.5,0.3-11.7,0.8s-8.4,1.3-12.8,2.3c-4.4,1-8.5,2.2-12.5,3.6c-4,1.4-7.4,3-10.4,4.8L2034.3,823.6z
			 M2079.8,951.9c6,0,11.3-0.8,16-2.4c4.7-1.6,8.7-3.6,12.2-6.1c3.4-2.4,6.2-5.2,8.5-8.2c2.2-3,3.9-5.9,5-8.6v-26.6
			c-3-0.2-6-0.4-9.1-0.5c-3.1-0.1-6.1-0.2-9.1-0.2c-6.6,0-13.1,0.4-19.4,1.1c-6.3,0.8-11.8,2.1-16.6,4.2c-4.8,2-8.6,4.8-11.5,8.3
			c-2.9,3.5-4.3,8-4.3,13.3c0,7.5,2.7,13.6,8,18.4C2064.6,949.5,2071.4,951.9,2079.8,951.9z"/>
		<path fill="#287DC2" d="M2532.6,811.8h25v-31.7l25.6-7.4v39h43.5v22.4h-43.5v88.6c0,11.1,1.4,18.9,4.2,23.5
			c2.8,4.6,7.5,6.9,14.1,6.9c5.5,0,10.2-0.6,14.1-1.8c3.8-1.2,8.1-2.7,12.8-4.6l5.8,19.5c-5.8,2.8-12.1,5-18.9,6.7
			c-6.8,1.7-14.2,2.6-22.1,2.6c-13,0-22.2-3.7-27.5-11c-5.3-7.4-8-19.7-8-37v-93.4h-25V811.8z"/>
		<path fill="#287DC2" d="M2837.8,959c-6.4,5.1-14.5,9.2-24.2,12.2c-9.7,3-20,4.5-30.9,4.5c-12.2,0-22.7-2-31.7-5.9
			s-16.3-9.6-22.1-17c-5.8-7.4-10-16.2-12.8-26.4c-2.8-10.2-4.2-21.8-4.2-34.6c0-27.3,6.1-48.1,18.2-62.4
			c12.2-14.3,29.5-21.4,52.2-21.4c7.2,0,14.5,0.8,21.8,2.4c7.2,1.6,13.8,4.6,19.5,9.1c5.8,4.5,10.4,10.8,14.1,19
			c3.6,8.2,5.4,19,5.4,32.5c0,7-0.6,14.8-1.9,23.4h-102.7c0,9.4,1,17.7,2.9,25c1.9,7.3,4.9,13.4,9,18.4c4,5,9.3,8.9,15.8,11.5
			c6.5,2.7,14.5,4,23.8,4c7.2,0,14.5-1.3,21.8-3.8c7.2-2.6,12.7-5.5,16.3-9L2837.8,959z M2782.8,830.3c-12.6,0-22.7,3.3-30.2,9.9
			c-7.6,6.6-12.1,17.9-13.6,33.9h79.4c0-16.2-3.1-27.6-9.3-34.1C2802.9,833.6,2794.1,830.3,2782.8,830.3z"/>
		<path fill="#287DC2" d="M3051.6,961.2c-6.4,4.7-14,8.3-22.7,10.7c-8.8,2.5-17.9,3.7-27.5,3.7c-12.4,0-22.8-2-31.4-5.9
			c-8.5-3.9-15.5-9.6-21-17c-5.4-7.4-9.4-16.2-11.8-26.6c-2.5-10.3-3.7-21.8-3.7-34.4c0-27.1,6-47.8,17.9-62.2
			c11.9-14.4,29.1-21.6,51.5-21.6c10.2,0,18.9,0.8,26.1,2.4c7.1,1.6,13.6,3.9,19.4,6.9l-7.4,22.1c-4.9-2.8-10.4-5-16.3-6.6
			c-6-1.6-12.4-2.4-19.2-2.4c-30.3,0-45.4,20.5-45.4,61.4c0,8.1,0.8,15.8,2.4,23.2c1.6,7.4,4.3,13.9,8,19.5
			c3.7,5.7,8.6,10.2,14.7,13.6c6.1,3.4,13.6,5.1,22.6,5.1c7.7,0,14.6-1.2,20.6-3.5c6.1-2.3,11-5,14.9-8L3051.6,961.2z"/>
		<path fill="#287DC2" d="M3251.9,971.8v-91.2c0-16.6-2.4-29.2-7.2-37.6c-4.8-8.4-13.6-12.6-26.4-12.6c-11.3,0-20.6,3-28,9.1
			c-7.4,6.1-12.5,13.7-15.5,22.9v109.4h-25.6v-160h17.9l4.8,19.5h1.3c5.1-6.8,12-12.4,20.6-16.8c8.6-4.4,18.9-6.6,30.9-6.6
			c8.7,0,16.4,1,23,3c6.6,2,12.1,5.6,16.5,10.7c4.4,5.1,7.7,12,9.9,20.6c2.2,8.6,3.4,19.6,3.4,32.8v96.6H3251.9z"/>
		<path fill="#287DC2" d="M3377.7,891.8c0-27.1,6-47.8,18.1-62.2c12-14.4,29.4-21.6,52-21.6c11.9,0,22.3,2,31.2,5.9
			c8.8,4,16.2,9.6,21.9,17s10,16.2,12.8,26.6c2.8,10.4,4.2,21.8,4.2,34.4c0,27.1-6,47.8-18.1,62.2c-12.1,14.4-29.4,21.6-52,21.6
			c-12,0-22.3-2-31.2-5.9c-8.9-3.9-16.2-9.6-21.9-17c-5.8-7.4-10-16.2-12.8-26.6C3379.1,915.8,3377.7,904.3,3377.7,891.8z
			 M3404.2,891.8c0,8.1,0.8,15.9,2.4,23.4c1.6,7.5,4.1,14,7.5,19.5c3.4,5.5,7.9,10,13.4,13.4c5.5,3.4,12.3,5.1,20.2,5.1
			c29,0.2,43.5-20.3,43.5-61.4c0-8.3-0.8-16.2-2.4-23.7c-1.6-7.5-4.1-14-7.5-19.5c-3.4-5.5-7.9-10-13.4-13.3c-5.5-3.3-12.3-5-20.2-5
			C3418.7,830.1,3404.2,850.6,3404.2,891.8z"/>
		<path fill="#287DC2" d="M3649,932.4c0,7.5,1.3,12.8,3.8,16c2.6,3.2,6.2,4.8,10.9,4.8c2.8,0,5.8-0.2,9-0.6
			c3.2-0.4,6.8-1.4,10.9-2.9l2.9,20.2c-3.4,1.7-8.2,3.1-14.2,4.2c-6.1,1.1-11.4,1.6-15.8,1.6c-9.6,0-17.5-2.7-23.7-8.2
			c-6.2-5.4-9.3-14.7-9.3-27.7v-192h25.6V932.4z"/>
		<path fill="#287DC2" d="M3767.4,891.8c0-27.1,6-47.8,18.1-62.2c12-14.4,29.4-21.6,52-21.6c11.9,0,22.3,2,31.2,5.9
			c8.8,4,16.2,9.6,21.9,17s10,16.2,12.8,26.6c2.8,10.4,4.2,21.8,4.2,34.4c0,27.1-6,47.8-18.1,62.2c-12.1,14.4-29.4,21.6-52,21.6
			c-12,0-22.3-2-31.2-5.9c-8.9-3.9-16.2-9.6-21.9-17c-5.8-7.4-10-16.2-12.8-26.6C3768.8,915.8,3767.4,904.3,3767.4,891.8z
			 M3794,891.8c0,8.1,0.8,15.9,2.4,23.4c1.6,7.5,4.1,14,7.5,19.5c3.4,5.5,7.9,10,13.4,13.4c5.5,3.4,12.3,5.1,20.2,5.1
			c29,0.2,43.5-20.3,43.5-61.4c0-8.3-0.8-16.2-2.4-23.7c-1.6-7.5-4.1-14-7.5-19.5c-3.4-5.5-7.9-10-13.4-13.3c-5.5-3.3-12.3-5-20.2-5
			C3808.5,830.1,3794,850.6,3794,891.8z M3843.3,741.4h28.5v6.7l-32.3,41h-15L3843.3,741.4z"/>
		<path fill="#287DC2" d="M4132.9,979.1c0,20.7-5.5,35.9-16.5,45.8c-11,9.8-27.3,14.7-48.8,14.7c-12.8,0-23.1-0.8-30.9-2.4
			c-7.8-1.6-14.5-3.7-20-6.2l6.7-21.8c4.9,1.9,10.3,3.7,16.3,5.4c6,1.7,13.8,2.6,23.4,2.6c9,0,16.3-0.8,21.9-2.4
			c5.6-1.6,10.2-4.3,13.6-8c3.4-3.7,5.8-8.5,7-14.4c1.3-5.9,1.9-12.9,1.9-21v-15.4h-1.3c-4.3,6.2-9.7,10.9-16.3,14.2
			c-6.6,3.3-15.3,5-25.9,5c-21.6,0-37.4-6.7-47.5-20.2c-10.1-13.4-15.2-34.3-15.2-62.7c0-27.3,6.5-48,19.5-62.2
			c13-14.2,32.2-21.3,57.6-21.3c12.2,0,22.6,1,31.2,2.9s16.4,4.2,23.2,6.7V979.1z M4068.6,952.9c10.9,0,19.4-2.7,25.6-8.2
			c6.2-5.4,10.6-13.9,13.1-25.4v-81.9c-8.5-4-19.4-6.1-32.6-6.1c-14.5,0-25.9,4.9-34.2,14.7c-8.3,9.8-12.5,25.2-12.5,46.1
			c0,9,0.7,17.2,2.2,24.6c1.5,7.5,3.8,13.9,7,19.2c3.2,5.3,7.4,9.5,12.5,12.5C4054.8,951.4,4061.1,952.9,4068.6,952.9z"/>
		<path fill="#287DC2" d="M4244.6,763.1c0-4.9,1.7-9.1,5-12.6c3.3-3.5,7.5-5.3,12.6-5.3s9.5,1.8,13.1,5.3c3.6,3.5,5.4,7.7,5.4,12.6
			c0,4.9-1.8,9-5.4,12.2c-3.6,3.2-8,4.8-13.1,4.8s-9.3-1.6-12.6-4.8C4246.2,772.1,4244.6,768,4244.6,763.1z M4250,811.8h25.6v160
			H4250V811.8z"/>
		<path fill="#287DC2" d="M4501.8,961.2c-6.4,4.7-14,8.3-22.7,10.7c-8.8,2.5-17.9,3.7-27.5,3.7c-12.4,0-22.8-2-31.4-5.9
			c-8.5-3.9-15.5-9.6-21-17c-5.4-7.4-9.4-16.2-11.8-26.6c-2.5-10.3-3.7-21.8-3.7-34.4c0-27.1,6-47.8,17.9-62.2
			c11.9-14.4,29.1-21.6,51.5-21.6c10.2,0,18.9,0.8,26.1,2.4c7.1,1.6,13.6,3.9,19.4,6.9l-7.4,22.1c-4.9-2.8-10.4-5-16.3-6.6
			c-6-1.6-12.4-2.4-19.2-2.4c-30.3,0-45.4,20.5-45.4,61.4c0,8.1,0.8,15.8,2.4,23.2c1.6,7.4,4.3,13.9,8,19.5
			c3.7,5.7,8.6,10.2,14.7,13.6c6.1,3.4,13.6,5.1,22.6,5.1c7.7,0,14.6-1.2,20.6-3.5c6.1-2.3,11-5,14.9-8L4501.8,961.2z"/>
		<path fill="#287DC2" d="M4596.9,823.6c8.1-4.9,17.5-8.5,28.3-10.9c10.8-2.3,22-3.5,33.8-3.5c11.1,0,20,1.5,26.7,4.5
			c6.7,3,11.8,6.9,15.4,11.7c3.5,4.8,5.9,10.1,7,15.8c1.2,5.8,1.8,11.5,1.8,17.3c0,12.8-0.3,25.3-1,37.4s-1,23.7-1,34.6
			c0,7.9,0.3,15.4,1,22.4s1.8,13.5,3.5,19.5h-18.9l-6.7-22.4h-1.6c-1.9,3-4.3,5.9-7.2,8.8s-6.4,5.4-10.4,7.7
			c-4.1,2.2-8.8,4.1-14.1,5.6c-5.3,1.5-11.4,2.2-18.2,2.2c-6.8,0-13.2-1.1-19-3.2c-5.9-2.1-10.9-5.2-15.2-9.1
			c-4.3-3.9-7.6-8.7-10.1-14.2c-2.5-5.5-3.7-11.8-3.7-18.9c0-9.4,1.9-17.2,5.8-23.5c3.8-6.3,9.2-11.3,16.2-15c6.9-3.7,15.2-6.4,25-8
			c9.7-1.6,20.4-2.4,32.2-2.4c3,0,5.9,0,8.8,0s5.8,0.2,8.8,0.6c0.6-6.4,1-12.2,1-17.3c0-11.7-2.3-19.9-7-24.6
			c-4.7-4.7-13.2-7-25.6-7c-3.6,0-7.5,0.3-11.7,0.8s-8.4,1.3-12.8,2.3c-4.4,1-8.5,2.2-12.5,3.6c-4,1.4-7.4,3-10.4,4.8L4596.9,823.6z
			 M4642.3,951.9c6,0,11.3-0.8,16-2.4c4.7-1.6,8.7-3.6,12.2-6.1c3.4-2.4,6.2-5.2,8.5-8.2c2.2-3,3.9-5.9,5-8.6v-26.6
			c-3-0.2-6-0.4-9.1-0.5c-3.1-0.1-6.1-0.2-9.1-0.2c-6.6,0-13.1,0.4-19.4,1.1c-6.3,0.8-11.8,2.1-16.6,4.2c-4.8,2-8.6,4.8-11.5,8.3
			c-2.9,3.5-4.3,8-4.3,13.3c0,7.5,2.7,13.6,8,18.4C4627.2,949.5,4634,951.9,4642.3,951.9z"/>
	</g>
</g>
</svg>
