<?xml version="1.0" encoding="utf-8"?>
<svg version="1.1" xmlns="http://www.w3.org/2000/svg" xmlns:xlink="http://www.w3.org/1999/xlink" x="0px" y="0px"
	 width="1011px" height="322px" viewBox="-20.274 -20.257 1011 322" enable-background="new -20.274 -20.257 1011 322"
	 xml:space="preserve">
<g>
	<path fill="#B1161D" d="M189.218,68.332c0,7.863,0,90.034,0,100.087c0,5.333,0.536,11.113-0.999,14.738
		c-1.996,4.715-6.906,7.774-12.097,7.848v26.015c0.933-0.017,1.882-0.06,2.854-0.136c21.232-1.66,36.614-17.457,36.973-40.971
		c0.127-8.294,0-94.192,0-102.655c0-1.671,0.031-3.304,0.071-4.926L189.218,68.332L189.218,68.332z"/>
	<path fill="#B1161D" d="M30.295,109.439c-0.128,8.294,0,94.193,0,102.655c0,1.67-0.031,3.305-0.071,4.926h26.802
		c0-7.863,0-90.033,0-100.086c0-5.333-0.536-11.113,0.999-14.739c1.997-4.714,6.907-7.773,12.098-7.847V68.332
		c-0.933,0.018-1.883,0.061-2.854,0.136C46.036,70.129,30.653,85.926,30.295,109.439z"/>
	<path fill="#B1161D" d="M595.437,119.439c-0.127,8.294,0,84.193,0,92.655c0,1.67-0.03,3.305-0.071,4.926h26.802
		c0-7.863,0-80.033,0-90.086c0-5.333-0.535-11.113,1-14.739c1.996-4.714,6.906-7.773,12.097-7.847V78.332
		c-0.934,0.018-1.883,0.061-2.854,0.136C611.178,80.129,595.796,95.926,595.437,119.439z"/>
	<path fill="#B1161D" d="M934.109,90.095c-2.147-20.476-18.646-37.587-42.469-35.724c-10.346,0.809-17.985,4.455-23.727,9.764
		c-6.254-5.493-14.342-8.863-23.528-9.581c-0.971-0.076-1.921-0.119-2.854-0.137v26.018c5.19,0.074,10.102,3.134,12.097,7.849
		c0.705,1.665,0.972,3.786,1.055,6.107c-0.01,0.476-0.018,0.956-0.018,1.45c0,1.371,0,2.789,0,4.236
		c-0.02,0.987-0.037,1.976-0.037,2.949c0,10.054,0,106.233,0,114.099h26.802c-0.04-1.622-0.071-3.256-0.071-4.927
		c0-8.465,0.127-108.373,0-116.667c-0.014-0.933-0.06-1.849-0.122-2.756c0.112-1.564,0.372-3.061,0.909-4.428
		c1.42-3.612,4.803-7.236,10.743-7.994c5.43-0.694,11.577,2.5,13.739,7.495c2.066,4.772,1,118.786,1,125.016
		c0,1.346,0,3.064,0,4.263h26.918C934.685,210.887,934.754,96.235,934.109,90.095z"/>
	<path fill="#B1161D" d="M432.122,88.369c-10.242,0.801-17.833,4.381-23.555,9.603c-7.382-6.676-17.51-10.54-29.491-9.603
		c-10.345,0.809-17.985,4.455-23.726,9.764c-6.253-5.493-14.341-8.863-23.528-9.581c-0.972-0.076-1.921-0.119-2.854-0.137v26.019
		c5.191,0.074,10.102,3.133,12.097,7.848c0.704,1.664,0.971,3.784,1.055,6.103c-0.01,0.477-0.018,0.958-0.018,1.453
		c0,1.371,0,2.789,0,4.237c-0.02,0.988-0.038,1.976-0.038,2.949c0,10.054,0,72.235,0,80.098h26.802
		c-0.041-1.621-0.071-3.256-0.071-4.926c0-8.465,0.127-74.374,0-82.668c-0.014-0.933-0.061-1.849-0.122-2.757
		c0.112-1.564,0.372-3.061,0.909-4.428c1.419-3.612,4.802-7.236,10.742-7.995c5.43-0.693,11.578,2.501,13.74,7.495
		c0.57,1.317,0.902,8.372,1.083,18.024c0,0.297,0,0.594,0,0.892h0.017c0.446,25.416-0.1,67.641-0.1,72.1c0,1.346,0,3.064,0,4.262
		h26.918c0.108-4.834,0.173-54.37-0.104-79.269c0-0.426,0-0.855,0-1.27c0-0.659-0.017-1.326-0.04-1.996
		c-0.041-3.036-0.089-5.566-0.145-7.417c0.094-1.709,0.352-3.343,0.935-4.827c1.419-3.612,4.802-7.236,10.742-7.995
		c5.43-0.693,11.578,2.501,13.739,7.495c2.066,4.772,1,84.786,1,91.016c0,1.346,0,3.064,0,4.262h26.918
		c0.139-6.238,0.207-86.89-0.437-93.03C472.444,103.618,455.944,86.506,432.122,88.369z"/>
	<path fill="#B1161D" d="M162.734,64.282c-2.148-20.485-18.655-37.604-42.488-35.74c-16.37,1.28-25.975,9.656-31.991,20.495
		c-3.222,5.803-4.999,11.718-4.999,20.994c0,8.086,0,17.767,0,25.993c0,7.615-0.697,77.758,0.25,85.743
		c0.887,7.48,3.528,13.518,7.248,18.746c7.193,10.105,18.27,17.822,35.241,16.494c21.242-1.66,36.631-17.465,36.99-40.988
		c0.127-8.297,0-77.526,0-85.993C162.984,81.564,163.757,74.041,162.734,64.282z M135.241,183.265
		c-2.624,6.197-10.281,9.541-16.995,6.998c-2.943-1.115-6.562-4.486-7.749-8.246c-1.208-3.836-0.499-9.947-0.499-14.748
		c0-9.336,0-81.235,0-90.492c0-4.855-0.869-10.127,0.749-14.247c1.42-3.614,4.806-7.238,10.747-7.998
		c5.434-0.694,11.583,2.502,13.747,7.498c2.067,4.774,0.999,8.763,0.999,14.996c0,13.007,0,78.361,0,91.491
		C136.241,173.855,136.777,179.639,135.241,183.265z"/>
	<path fill="#B1161D" d="M315.603,114.18c-2.148-20.485-18.655-37.604-42.488-35.74c-16.37,1.28-25.976,9.656-31.992,20.495
		c-3.222,5.803-4.998,11.718-4.998,20.994c0,8.086,0,27.767,0,35.993c0,7.615-0.697,17.758,0.25,25.743
		c0.887,7.48,3.528,13.517,7.247,18.745c7.192,10.105,18.27,17.822,35.241,16.495c21.241-1.661,36.63-17.465,36.99-40.989
		c0.127-8.297,0-27.525,0-35.992C315.853,131.462,316.627,123.939,315.603,114.18z M288.11,183.164
		c-2.624,6.197-10.281,9.541-16.995,6.997c-2.943-1.114-6.562-4.485-7.748-8.246c-1.209-3.835-0.5-9.947-0.5-14.747
		c0-9.336,0-31.235,0-40.492c0-4.855-0.869-10.127,0.749-14.247c1.421-3.614,4.805-7.238,10.747-7.998
		c5.433-0.694,11.583,2.502,13.747,7.498c2.066,4.774,1,8.763,1,14.996c0,13.007,0,28.361,0,41.491
		C289.11,173.753,289.646,179.537,288.11,183.164z"/>
	<path fill="#B1161D" d="M574.805,124.573c-2.148-20.485-18.656-37.604-42.488-35.74c-16.37,1.28-25.975,9.656-31.991,20.495
		c-3.222,5.803-4.999,11.718-4.999,20.994c0,8.086,0,17.767,0,25.993c0,7.615-0.696,17.758,0.25,25.743
		c0.887,7.48,3.527,13.518,7.248,18.745c7.193,10.105,18.27,17.822,35.24,16.495c21.241-1.661,36.631-17.465,36.99-40.989
		c0.126-8.297,0-17.525,0-25.992C575.055,141.855,575.829,134.333,574.805,124.573z M547.313,183.557
		c-2.625,6.197-10.281,9.541-16.996,6.997c-2.943-1.114-6.562-4.485-7.748-8.246c-1.209-3.835-0.5-9.947-0.5-14.747
		c0-9.336,0-21.235,0-30.492c0-4.855-0.867-10.127,0.75-14.247c1.421-3.614,4.805-7.238,10.746-7.997
		c5.434-0.694,11.584,2.502,13.748,7.498c2.066,4.774,0.998,8.763,0.998,14.996c0,13.007,0,18.361,0,31.491
		C548.311,174.146,548.848,179.931,547.313,183.557z"/>
	<path fill="#B1161D" d="M829.435,183.212c-1.535-3.631-1-9.423-1-14.766c0-3.845,0-49.304,0-62.438c0.077-3.026,0.119-6.098,0-9.37
		c0-18.84,0-38.246,0-42.414H789.05c-0.12,0-0.239-0.001-0.36,0h-0.419c0,0.002,0.002,0.005,0.002,0.007
		c-0.915,0.016-1.841,0.056-2.78,0.129c-16.37,1.28-25.975,9.656-31.991,20.494c-3.222,5.804-4.998,11.718-4.998,20.994
		c0,8.086,0,51.767,0,59.993c0,7.615-0.697,17.757,0.25,25.744c0.886,7.479,3.527,13.517,7.247,18.744
		c7.192,10.106,18.27,17.822,35.241,16.495c9.236-0.723,17.363-4.121,23.633-9.664c6.29,5.645,14.482,9.105,23.804,9.834
		c0.971,0.077,1.921,0.119,2.854,0.138v-26.061C836.341,191,831.431,187.934,829.435,183.212z M801.66,97.825
		c-0.078,1.531-0.171,3.177-0.171,5.022c0,13.006,0,52.361,0,65.491c0,5.336,0.536,11.119-1,14.746
		c-2.624,6.197-10.281,9.542-16.996,6.998c-2.942-1.114-6.561-4.485-7.747-8.247c-1.209-3.835-0.501-9.946-0.501-14.746
		c0-9.336,0-55.236,0-64.491c0-4.857-0.867-10.128,0.75-14.247c1.421-3.614,4.806-7.238,10.747-7.998
		c5.434-0.693,11.584,2.503,13.747,7.499c0.693,1.603,1.029,3.118,1.176,4.659C801.663,94.267,801.662,96.042,801.66,97.825z"/>
	<path fill="#B1161D" d="M727.84,64.208c-2.148-20.485-18.655-37.604-42.488-35.74c-16.37,1.28-25.975,9.656-31.992,20.494
		c-3.221,5.804-4.998,11.718-4.998,20.995c0,8.086,0,17.767,0,25.992c0,7.615-0.696,77.758,0.25,85.743
		c0.887,7.48,3.527,13.519,7.247,18.745c7.193,10.106,18.271,17.823,35.241,16.495c3.685-0.288,7.187-1.01,10.471-2.116
		c0.019,5.246,0.504,10.874-1.002,14.429c-1.996,4.715-6.905,7.774-12.097,7.848v26.016c0.933-0.018,1.883-0.061,2.854-0.138
		c21.232-1.659,36.615-17.456,36.974-40.97c0.124-8.133,0.006-131.651,0-142.091c0.045-1.78,0.077-3.574,0.07-5.419
		c0-0.024,0-0.048,0.001-0.072h-0.001C728.356,71.219,728.224,67.871,727.84,64.208z M701.347,76.955c0,13.006,0,78.361,0,91.491
		c0,5.335,0.536,11.119-1,14.746c-2.623,6.197-10.28,9.541-16.994,6.998c-2.944-1.115-6.563-4.486-7.749-8.248
		c-1.208-3.834-0.5-9.946-0.5-14.745c0-9.337,0-81.236,0-90.492c0-4.855-0.868-10.126,0.749-14.247
		c1.422-3.614,4.807-7.238,10.748-7.998c5.434-0.694,11.584,2.502,13.746,7.498C702.415,66.733,701.347,70.722,701.347,76.955z"/>
</g>
</svg>
