<?xml version="1.0" encoding="utf-8"?>
<!-- Generator: Adobe Illustrator 17.0.0, SVG Export Plug-In . SVG Version: 6.00 Build 0)  -->
<!DOCTYPE svg PUBLIC "-//W3C//DTD SVG 1.1//EN" "http://www.w3.org/Graphics/SVG/1.1/DTD/svg11.dtd">
<svg version="1.1" id="Layer_1" xmlns="http://www.w3.org/2000/svg" xmlns:xlink="http://www.w3.org/1999/xlink" x="0px" y="0px"
	 width="279.417px" height="97.151px" viewBox="0 -40.651 279.417 97.151" enable-background="new 0 -40.651 279.417 97.151"
	 xml:space="preserve">
<path fill="#EE7203" d="M8.172-16.462l7.322-11.849l-0.703-0.347L1.253-15.418c-0.696,0.7,0,1.394,0,1.394L14.192-0.783l0.696-0.349
	L7.872-12.979C6.83-14.719,8.172-16.462,8.172-16.462z"/>
<polygon fill="#EE7203" points="25.233,-30.154 27.184,-28.172 30.971,-34.3 29.96,-34.808 "/>
<path fill="#EE7203" d="M24.864-4.042l-4.81-8.015c-1.519-2.53,0.297-5.058,0.297-5.058l4.953-8.015l-1.957-3.17L10.443-15.594
	c-1.007,1.007,0,2.02,0,2.02L22.887-0.931l1.886,1.915l4.581,4.655l1.015-0.508l-3.642-6.067L24.864-4.042z"/>
<path fill="#635F59" d="M72.88,12.187L62.83,12.936c0.134-0.47,2.382-9.201,5.136-19.963l4.243-16.612l4.908-1.949l1.076-2.554
	c-3.156,0-6.322,0.065-9.55,0.065c-2.96,0-5.988-0.065-9.08-0.065l-0.94,2.487l5.179,2.016L59.361-6.96
	c-2.825,10.493-4.908,18.097-5.112,18.631L48.8,13.754l-0.736,2.423h10.491c16.209,0,18.367-0.289,20.647-0.289
	c1.617-3.498,4.311-10.561,4.979-12.377L82.77,2.433C80.146,4.523,75.91,9.093,72.88,12.187z"/>
<path fill="#635F59" d="M137.83,9.856l-7.122,0.808c0.474-2.894,3.429-12.91,5.651-20.985c1.141-3.834,0.801-4.371-2.156-4.371
	c-2.485,0-5.109,0.873-6.789,1.68c-4.979,2.356-9.151,7.469-13.117,13.384h-0.134c1.881-6.389,4.102-13.518,4.436-14.862
	L118.4-14.69c-2.02,0.134-10.894,2.353-13.18,3.295l-0.673,2.221l4.774,0.467c0,0.81-1.266,5.727-2.756,11.093
	c-2.935,2.89-11.239,9.995-13.578,10.295l-0.137-0.067c0.477-2.62,4.778-17.021,7.874-27.105l-0.139-0.201
	c-2.282,0.065-10.758,2.083-13.044,3.295l-0.879,2.221l4.646,0.671C88.749-0.841,86.396,7.23,85.859,9.184
	c-1.617,5.848,0.604,7.869,3.494,7.869c6.21,0,13.122-7.275,16.54-12.281c-1.423,5.033-2.913,9.988-3.639,11.941l7.872-0.537
	c2.15-6.252,3.362-8.946,5.917-13.048c3.293-5.248,8.411-12.173,11.838-12.173c0.47,0,0.604,0.201,0.335,1.212
	c-1.007,3.834-7.194,22.801-7.463,24.41l0.673,0.872c2.016-0.808,8.198-4.255,15.184-5.729L137.83,9.856z"/>
<path fill="#635F59" d="M149.301,7.907c9.688,0,14.527-6.46,14.527-12.645c0-2.62-0.808-4.036-1.412-5.044l0.065-0.136l4.912-0.403
	l3.091-5.584l-0.667-1.007l-6.796,3.765c-1.143-0.136-2.353-0.472-3.966-0.873c-1.615-0.403-2.823-0.606-3.899-0.671
	c-9.684-0.541-15.874,6.386-15.874,13.109c0,3.027,1.148,6.188,4.442,8.008c-2.351,1.615-4.373,3.832-4.373,4.91
	c0,1.212,0.81,3.295,2.286,4.507v0.071c-3.765,1.611-6.792,3.224-8.541,4.503c-0.807,0.537-1.078,1.279-1.078,2.15
	c0,2.083,2.286,9.013,15.27,9.013c5.711,0,15.804-3.702,15.874-10.361c0-2.217-1.684-4.235-4.642-5.514
	c-3.1-1.416-7.402-3.161-9.955-4.172c-2.154-0.872-2.695-1.745-2.894-2.286c-0.134-0.47,0-1.212,0.403-1.816
	C147.082,7.773,148.293,7.907,149.301,7.907z M153.945-11.664h0.065c1.546,0,2.423,1.145,2.423,4.235
	c0,4.64-3.026,12.375-7.196,12.375c-1.546,0-2.691-1.141-2.691-3.899C146.546-4.134,150.038-11.664,153.945-11.664z M153.066,21.492
	c2.49,1.145,3.165,1.949,3.165,3.027c0,1.949-2.624,3.631-6.391,3.631h-0.065c-7.131,0-10.567-3.899-10.567-6.122
	c0-2.016,2.425-3.498,4.512-4.64C147.286,18.736,150.778,20.347,153.066,21.492z"/>
<path fill="#635F59" d="M183.945-14.691h-0.069c-10.087,0-18.766,9.008-18.766,19.839c0,7.333,4.78,11.907,11.098,11.907
	c10.963,0,18.833-9.55,18.833-19.236C195.041-9.85,190.607-14.691,183.945-14.691z M176.816,13.893
	c-2.083,0-3.295-1.949-3.295-5.988c0-7.601,4.706-19.435,9.885-19.435h0.069c2.154,0,3.158,2.42,3.158,5.782
	C186.632,2.594,181.856,13.893,176.816,13.893z"/>
<polygon fill="#635F59" points="19.037,5.12 20.042,5.628 24.773,0.973 22.887,-0.945 "/>
<path fill="#635F59" d="M39.561-15.606L27.184-28.184l-1.951-1.982l-4.577-4.655l-1.015,0.505l3.707,6.004l1.957,3.168l4.952,8.019
	c0,0,1.212,2.525-0.302,5.058l-5.089,8.015l1.861,3.103l12.836-12.637C39.561-13.585,40.572-14.599,39.561-15.606z"/>
<path fill="#635F59" d="M48.753-15.433L35.816-28.671l-0.702,0.349l7.319,11.847c0,0,0.749,1.742-0.3,3.483L34.513-1.146
	l0.698,0.349l13.542-13.241C48.753-14.037,49.451-14.733,48.753-15.433z"/>
<path fill="#EE7203" d="M99.473-29.132c-1.141,0.539-3.906,2.223-6.058,4.98l-0.063,0.201c0.539,2.015,2.087,4.707,3.098,5.583
	h0.533c1.279-0.537,4.776-3.498,5.583-4.977l0.136-0.474c-0.136-1.476-1.883-4.503-2.825-5.315h-0.403V-29.132z"/>
<path fill="#EE7203" d="M206.225,7.896c0-0.788,0.244-1.946,0.608-3.588l3.176-13.598h5.595l1.215-5.232h-5.595l1.872-8.071
	l-7.653,1.754l-1.459,6.317h-4.494l-1.224,5.232h4.507L199.66,4.068c-0.609,2.794-1.036,4.744-1.036,6.442
	c0,6.026,5.716,6.145,7.541,6.145c1.579,0,2.613-0.181,4.136-0.367l1.4-6.018c-0.79,0.06-1.277,0.119-2.007,0.119
	C207.442,10.39,206.225,9.782,206.225,7.896z"/>
<path fill="#EE7203" d="M231.232-14.789c-12.4,0-16.261,11.373-16.261,18.549c0,8.576,5.317,13.319,13.341,13.319
	c2.501,0,4.684-0.423,7.237-1.638c4.013-1.886,6.018-4.803,6.688-5.778l-6.141-3.772c-0.855,1.459-2.427,5.167-7.353,5.167
	c-4.622,0-6.292-3.525-6.292-6.811c0-0.971,0.119-1.702,0.242-2.127h20.273c0.248-1.279,0.488-2.373,0.488-4.199
	C243.451-7.676,241.09-14.789,231.232-14.789z M224.188-3.233c1.338-3.649,3.552-6.207,7.389-6.207c2.431,0,5.036,1.342,4.733,6.207
	H224.188z"/>
<polygon fill="#EE7203" points="278.698,-14.521 269.395,-14.521 255.197,-2.685 260.733,-26.647 253.494,-26.647 243.584,16.289 
	250.817,16.289 253.251,5.95 259.149,1.21 265.413,16.289 273.566,16.289 264.867,-3.356 "/>
<g>
	<path fill="#635F59" d="M48.74,43.434h-3.425v-1.391h8.429v1.391h-3.425v9.628H48.74V43.434z"/>
	<path fill="#635F59" d="M55.793,42.045h1.579v4.61h5.272v-4.61h1.579v11.017h-1.579v-5.02h-5.272v5.02h-1.579V42.045z"/>
	<path fill="#635F59" d="M67.581,42.045h6.172v1.391H69.16v3.219h4.181v1.387h-4.183v3.631h4.593v1.391h-6.172V42.045H67.581z"/>
	<path fill="#635F59" d="M83.363,43.69h-3.19v-1.754h8.606v1.754h-3.186v9.373h-2.232V43.69H83.363z"/>
	<path fill="#635F59" d="M90.398,41.936h2.407c2.391,0,5.243-0.08,5.243,3.013c0,1.308-0.875,2.389-2.293,2.581v0.033
		c0.606,0.047,0.955,0.653,1.179,1.148l1.785,4.351h-2.487l-1.338-3.474c-0.318-0.828-0.606-1.148-1.546-1.148h-0.718v4.624h-2.232
		C90.398,53.064,90.398,41.936,90.398,41.936z M92.629,46.685h0.732c1.101,0,2.36-0.159,2.36-1.546c0-1.338-1.244-1.45-2.36-1.45
		h-0.732V46.685z"/>
	<path fill="#635F59" d="M103.905,41.936h2.519l4.366,11.126h-2.47l-0.955-2.552h-4.512l-0.971,2.552h-2.313L103.905,41.936z
		 M105.133,44.168H105.1l-1.611,4.592h3.252L105.133,44.168z"/>
	<path fill="#635F59" d="M112.502,41.936h2.743l4.239,8.319h0.033v-8.319h2.134v11.126h-2.725l-4.257-8.321h-0.029v8.321h-2.138
		C112.502,53.062,112.502,41.936,112.502,41.936z"/>
	<path fill="#635F59" d="M130.489,43.976c-0.702-0.302-1.481-0.477-2.264-0.477c-0.765,0-1.754,0.335-1.754,1.546
		c0,1.93,4.879,1.116,4.879,4.845c0,2.438-1.931,3.364-4.177,3.364c-1.212,0-1.752-0.159-2.854-0.432l0.208-2.007
		c0.765,0.414,1.64,0.685,2.519,0.685c0.845,0,1.975-0.429,1.975-1.434c0-2.119-4.877-1.241-4.877-4.923
		c0-2.487,1.928-3.394,3.89-3.394c0.955,0,1.848,0.128,2.66,0.398L130.489,43.976z"/>
	<path fill="#635F59" d="M133.762,41.936h2.232v9.371h4.32v1.754h-6.552V41.936z"/>
	<path fill="#635F59" d="M145.311,41.936h2.519l4.366,11.126h-2.47l-0.955-2.552h-4.512l-0.971,2.552h-2.313L145.311,41.936z
		 M146.539,44.168h-0.033l-1.611,4.592h3.252L146.539,44.168z"/>
	<path fill="#635F59" d="M154.769,43.69h-3.186v-1.754h8.608v1.754h-3.19v9.373h-2.232V43.69z"/>
	<path fill="#635F59" d="M161.806,41.936h2.232v11.126h-2.232V41.936z"/>
	<path fill="#635F59" d="M171.731,41.745c3.49,0,5.451,2.36,5.451,5.722c0,3.364-1.928,5.785-5.451,5.785
		c-3.572,0-5.451-2.374-5.451-5.785S168.192,41.745,171.731,41.745z M171.731,51.497c2.279,0,3.125-2.024,3.125-4.031
		c0-1.96-0.908-3.97-3.125-3.97s-3.125,2.009-3.125,3.97C168.606,49.476,169.452,51.497,171.731,51.497z"/>
	<path fill="#635F59" d="M179.5,41.936h2.743l4.239,8.319h0.033v-8.319h2.134v11.126h-2.725l-4.257-8.321h-0.029v8.321H179.5V41.936
		z"/>
	<path fill="#635F59" d="M196.387,42.045h2.147l4.859,8.87h0.033v-8.87h1.579v11.017h-2.02l-4.986-9.06h-0.033v9.06h-1.579
		C196.387,53.062,196.387,42.045,196.387,42.045z"/>
	<path fill="#635F59" d="M208.27,42.045h6.17v1.391h-4.593v3.219h4.185v1.387h-4.185v3.631h4.593v1.391h-6.17V42.045z"/>
	<path fill="#635F59" d="M219.553,43.434h-3.425v-1.391h8.429v1.391h-3.425v9.628h-1.579
		C219.553,53.062,219.553,43.434,219.553,43.434z"/>
	<path fill="#635F59" d="M225.152,42.045h1.738l2.637,9.44h0.033l2.351-9.44h2.241l2.385,9.44h0.029l2.635-9.44h1.673l-3.393,11.017
		h-2.035l-2.4-9.628h-0.033l-2.414,9.628h-2.114L225.152,42.045z"/>
	<path fill="#635F59" d="M247.437,41.855c3.346,0,5.304,2.431,5.304,5.697c0,3.347-1.94,5.698-5.304,5.698
		c-3.36,0-5.304-2.351-5.304-5.698C242.133,44.285,244.092,41.855,247.437,41.855z M247.437,51.861c2.541,0,3.631-2.114,3.631-4.31
		c0-2.241-1.201-4.324-3.631-4.308c-2.431-0.016-3.631,2.067-3.631,4.308C243.806,49.747,244.895,51.861,247.437,51.861z"/>
	<path fill="#635F59" d="M255.279,42.045h2.698c2.179,0,4.277,0.347,4.277,2.984c0,1.34-0.993,2.289-2.271,2.51v0.033
		c0.488,0.188,0.725,0.425,1.072,1.105l2.085,4.387h-1.799l-1.691-3.819c-0.488-1.074-1.011-1.074-1.846-1.074h-0.946v4.894h-1.579
		L255.279,42.045L255.279,42.045z M256.857,46.781h1.34c1.499,0,2.384-0.662,2.384-1.72c0-0.995-0.758-1.626-2.208-1.626h-1.514
		v3.346H256.857z"/>
	<path fill="#635F59" d="M265.487,42.045h1.579v4.845l4.704-4.845h2.1l-5.178,5.208l5.586,5.811h-2.304l-4.91-5.398v5.398h-1.579
		V42.045H265.487z"/>
</g>
</svg>
